<?xml version="1.0" encoding="UTF-8"?>
<svg version="1.1" viewBox="0 0 2048 1105" width="556" height="300" xmlns="http://www.w3.org/2000/svg">
<path transform="translate(1497,38)" d="m0 0 394 1 1 861-1 1h-435l-1-6v-856z" fill="#EE3F20"/>
<path transform="translate(199,38)" d="m0 0 389 1 1 3v859l-241 1h-89l-106-1-1-701v-161z" fill="#EE3F20"/>
<path transform="translate(1018,103)" d="m0 0h2l12 22 18 35 13 26 10 19 8 15 10 10 5-1 20-11 17-10 19-11 8-4h3l-1 9-13 56-9 41-11 52-4 19-1 8v9l3 7 5 3 9-1 8-7 5-4 7-8 13-14 7-8 10-11 7-8 10-11 9-11 6-7 7-1 4 5 11 28 8 16 5 4 7 1 51-10 28-6h3l-1 7-12 40-8 28-5 19-1 7v8l3 5 9 6 10 5 10 3 2 3-7 8-7 7-11 9-12 11-11 9-11 10-11 9-14 12-11 10-11 9-10 9-11 9-14 12-12 11-3 1-2 4-4 6 1 9 6 20 12 37 1 4-26-6-109-22-22-4h-8l-8 4-3 4-1 16 3 87 2 65h-35l-4-1 1-32 3-84v-51l-2-4-6-4h-10l-50 9-88 18-14 3h-5l4-15 12-37 2-9v-9l-4-6-7-7-11-9-11-10-11-9-15-13-11-9-12-11-11-9-10-9-11-9-13-11-28-24-7-7v-2l19-8 11-7 4-5 1-6-4-19-8-26-16-53-1-7 20 5 64 11h9l8-14 11-26 6-14 4-2 11 14 11 11 7 8 16 17 10 11 9 11 16 16 7 5 7 1 7-6 2-4-1-14-9-46-6-26-22-99-1-9 6 1 16 10 18 10 11 7 19 9 5-3 7-8 10-18 8-16 14-27 8-16 8-17 9-21z" fill="#EE3F20"/>
<path transform="translate(1882,41)" d="m0 0h4v2h3l1 2 1 840 1 15-1 1h-24l-12-1-3-1-1-4h6v-2l5-4h3l2-5-4-2-1-5 4-4 4-2v-3l3-9 5-4 3-14 2-16v-40l1-52-1-63-1-30v-52l-1-7 1-13v-26l1-11v-100l1-39v-140l-1-79 1-47 1-23-1-25-3-14-1-4v-3l-2-2-1-7 1-5h3z" fill="#D23F26"/>
<path transform="translate(1028,672)" d="m0 0h5l1 1 1 10 3 87 2 65h-35l-4-1 1-32 3-84 2-12h3l1-3h2l-2-5 3 2 2-3 1 1v5h2l-3-9 3-2-1-7-1-2 3-3 2-4h2l1-3z" fill="#D34128"/>
<path transform="translate(54,937)" d="m0 0h15l9 3 3 5 1 5-23-1-9 2-6 4-5 8-1 4v17l4 9 5 5 6 3 5 1h16l7-3 4-6 4-10 2-1h15l-1 7-9 6v6l5 2h12l-1-18-2-17-1-3h-6l1 5 2 4-4-1-7-3-6-1 1-7 6-4 3-1h14l8 4 4 6 1 4 1 15v24l-6 1-20 1-10-1-3-5-2-7-4 8-3 4-4 1h-25l-11-4-7-5-6-9-3-8v-19l3-9 5-8 9-8 9-4zm41 29 2 2v-2z" fill="#3A3433"/>
<path transform="translate(1064,938)" d="m0 0h25l14 3 9 6 5 8 2 9v21l-3 10-6 8-8 6-7 2-8 1h-27l-1-1-1-70zm18 10-7 3-2 2-1 5v40l1 4 10 1 11-2 6-4 6-8 1-4v-20l-3-8-5-5-6-3z" fill="#3A3534"/>
<path transform="translate(1764,958)" d="m0 0h16l18 1 2 5v40l-3 14-5 9-5 5-4 1h-19l-10-2-2-6v-2h28l2-1 3-12-3 1h-19l-6-4-5-7-2-6-1-16 2-8 4-6 6-5zm6 9-6 4-3 7v15l3 7 5 3h7l7-3 3-9v-14l-4-6-4-3z" fill="#4B4544"/>
<path transform="translate(1485,957)" d="m0 0h7l7 3 4 4 1 4 1 13v29l-1 1h-9l-1-5v-36h-11l-7 1-1 1-1 38-9 1-3-2-1-35-1-3-2-1h-11l-3 3-1 5-1 32h-11l-1-34-1-17 23-1h12v2l5 1 1 2 1-2z" fill="#3E3533"/>
<path transform="translate(1389,958)" d="m0 0h15l8 3 4 5 3 7 1 6v16l-3 7-7 8-6 2h-14l-9-1v21l-4 1-6-1-1-2v-71zm2 9-6 4-3 6v20l2 4 5 2h11l6-4 2-5v-16l-3-6-5-4z" fill="#3D3433"/>
<path transform="translate(286,934)" d="m0 0 11 1v48l-1 28h-39l-5-5-4-7v-25l3-8 7-6 6-2h10l11 2v-25zm-18 34-8 4-2 4-1 11 2 11 5 5h13l6-3 1-3 1-20-3-6-6-3z" fill="#3C3433"/>
<path transform="translate(1712,937)" d="m0 0h5l5 6 5 11 8 24 7 27 1 5-3 1h-7l-3-7-4-12-23-1-4 9-3 9-1 1h-12l1-5 6-16 9-28 6-16 4-6zm2 17-4 10-4 15v3l5 1h12l-2-14-4-13-1-2z" fill="#3B3433"/>
<path transform="translate(1968,957)" d="m0 0 6 1 6 5 5 12 6 18h2l8-26 3-6 4-4h6l1 4-3 13-8 21-12 26-10 11-2 1h-8l-4-2 1-5 9-6 5-8v-7l-6-17-8-16-6-9v-3z" fill="#3D3534"/>
<path transform="translate(1328,957)" d="m0 0h11l11 3 6 7 3 8 1 4v16l-4 8-8 7-7 2h-17l-6-3-6-7-3-9v-16l3-8 7-8 5-3zm0 10-5 5-3 7v14l3 7 4 3 10 1 6-3 4-6 1-4v-12l-4-8-7-4z" fill="#3A3433"/>
<path transform="translate(1147,956)" d="m0 0h10l8 4 6 9 3 7v9l-4 5-6 1h-26l3 8 7 3 23 1v7l-3 2h-26l-8-5-6-9-2-5v-14l5-12 9-8zm2 7-6 8-4 7 1 5 8 3 3-1 1-2 4-1 1 5h2l1-4v-7l-5-10-4-3zm15 13 1 11 2-1-1-9z" fill="#544644"/>
<path transform="translate(857,958)" d="m0 0h19l7 3 4 5 3 8 1 8v9l-2 9-6 8-5 3-20 1-8-2-6-7-3-9v-15l3-12 5-6zm3 10-7 6-2 6v13l3 7 7 3h11l6-4 1-3v-20l-3-5-5-3z" fill="#3E3433"/>
<path transform="translate(1887,957)" d="m0 0 11 1 6 3 5 8 3 15 1 22-1 3h-15v-34l-2-5-9-2-5 2-4 5-1 4v31l-1 1h-10l-1-8v-44h17z" fill="#3B3433"/>
<path transform="translate(969,957)" d="m0 0h17l8 4 5 10 1 11v29l-1 1h-32l-6-2-1-5v-15l2-7 1-1h12l7 2-1-13-1-7h-7l2 5v4l-4 1-1-4-1-1-1 3-5-1v-10l3-3zm13 30-11 1-2 4 1 11 6 2 7-1 2-2v-14zm10 4v17h1v-17z" fill="#554744"/>
<path transform="translate(925,957)" d="m0 0 12 1 6 3 4 11 2 18 1 18-1 1-14 1-1-5v-30l-3-5-3-1h-8l-5 5-1 3-1 33-8 1-3-1-1-36v-15h20zm16 39v10l2-1v-9z" fill="#3F3533"/>
<path transform="translate(1252,956)" d="m0 0 10 1 8 5 4 5 3 8v10l-4 4-3 1-15 1-11-2-1-1 1 9 2 4 15 2h10l3 8-2 1h-27l-6-3-6-7-3-8v-13l4-11 5-8 8-5zm0 7-7 9-2 5v7l11 2 1-6h5l1 5 3-2h3l3 3-1-5-8-11-5-6zm8 22 1 2z" fill="#4D4544"/>
<path transform="translate(601,957)" d="m0 0h13l8 4 4 9 1 5v10l-1 5h-2l-1-2-2 3h-5l-1-1-1-22h-13l-3 3-1 2-1 13 7-2 3-8 2 3 3 5 2 6-6 1-11-1 1 10 1 2h25l1 1v9h-28l-5-3-6-7-2-11v-10l1-9 5-8h2v-2z" fill="#4D4645"/>
<path transform="translate(1825,957)" d="m0 0h15l8 4 3 3 2 12-1 13-3 1h-26l1 12 5 1h22l1 3-1 6h-24l-9-2-4-5-3-7-1-3v-18l3-11 5-6zm6 2v1h7v-1zm-6 8-2 13 1 4h10l7-1 1-1-1-13-3-2z" fill="#4A4645"/>
<path transform="translate(1599,958)" d="m0 0h7l8 5 2 5 1 11 1 30-4 2-7-1-1-1-1-33-1-6-4-1h-8l-5 3-2 7v31l-1 1h-12l-1-51 2-1h13z" fill="#3D3432"/>
<path transform="translate(743,957)" d="m0 0h14l10 4 2 4 1 12v33l-2 1-24 1-9-1-6-4-1-5v-9l4-10 17-2v10l-2 1h-7l-1 6 1 3 5 2h12l-1-20-2-17-7-1 1 10-5-4-1-4-7 1-2 4v-10l5-4z" fill="#3B3433"/>
<path transform="translate(386,959)" d="m0 0h35l6 3 3 3 1 7 1 38-1 1h-11l-1-1v-41l-20 1-1 6v34l-10 1-2-2-1-49z" fill="#3A3433"/>
<path transform="translate(161,958)" d="m0 0h13l6 4 3 4 1 3 1 13v27l-5 2h-5l-1-1-2-36-1-4-2-1h-11l-4 2-1 2-1 37h-12l-1-50 2-1h9z" fill="#3D3534"/>
<path transform="translate(1534,957)" d="m0 0h13l8 4 6 10 1 12-2 6-4 1-1-9-1 9-12 1-8-1-1-3 3-4 2-5h2l1 7 2-4h2v4 1h4l-2-13-3-5-2-1h-7l-4 5-1 2v28l27 1 2 9h-26l-8-1-5-8-3-1v-29l5-9 9-6zm6 2 4 1z" fill="#3F3533"/>
<path transform="translate(1188,615)" d="m0 0 4 1v9l5 19 14 43 1 4-26-6-15-3-4-3 1-4 8-4 6-7 3-7 1-2-3-2-1-4-1 2-2-1 1-8-1-3 1-3h2l-1-3v-4l3-10z" fill="#D34229"/>
<path transform="translate(695,958)" d="m0 0h13l7 2 2 7 1 11v32l-2 1h-8l-1-1-1-36-3-5-8-1-6 3-3 6-1 33-1 1h-10v-40l1-12z" fill="#3E3433"/>
<path transform="translate(514,958)" d="m0 0h8l10 2 3 4 2 9 2 27v9l-1 1h-12v-27l-1-11-1-2-3-1h-10l-5 3-1 2-1 24v12l-1 1h-10l-1-5v-46l5-1 17 1z" fill="#413634"/>
<path transform="translate(207,957)" d="m0 0h17l6 4 3 1 2 4 1 8v36l-3 1h-32l-5-5-1-4v-8l2-9 2-3h2l1-5 1 4 1 2 10-1v-5h1l2 6 1 5-7 2-5 1-1 5 1 5 5 2h10l2-1v-11l-2-25-3 1h-16v4h-2l-1-2v-7l2-2h3zm1 3v1l13 2-1-3z" fill="#3E3635"/>
<path transform="translate(343,957)" d="m0 0h16l9 4 1 1 2 16 1 20v13h-35l-4-5-4-1 3-1v-15l3-5 4-2h12v7l-1 1h-6l-2 4v7l5 2 11 1v-10l-2-21v-10h-7l-3 7 2 1-4 1-5-1 1-13z" fill="#534745"/>
<path transform="translate(1183,957)" d="m0 0 6 2 5 10 7 20 1 3h4l2-7 2-14 3-6 4-5 3-2h7l1 1v8l-2 4-4 2-5 19-8 16-3 3-9-1-5-8-7-19-7-18v-5z" fill="#4D4544"/>
<path transform="translate(1640,948)" d="m0 0 6 2 7 8 2 3v9l-1 1h-10l1 22 1 9 9 1 2 4v5h-21l-3-9-2-26v-6h-2l-1-2v-14l7-6zm1 2-4 2v1h5l1-3z" fill="#514645"/>
<path transform="translate(1941,957)" d="m0 0h15l4 5 2 6-19 1-6 4-3 5-1 4v7l3 10 6 3 20 1v8l-1 1h-25l-7-3-5-8-2-6v-21l5-10 7-5z" fill="#3C3433"/>
<path transform="translate(1064,938)" d="m0 0h25v3l-9 1 1 5-3 1-4 5-1 5v44h7v3l-4 1h-3l-7 3-5 1-1-9-1-44h-1v-16z" fill="#4E4746"/>
<path transform="translate(789,947)" d="m0 0h7l3 5 2 5 5 4 1 7-5 3-3 1-1 9 1 22 10 2 1 6-4 1h-11l-6-2-2-5-3-33-2-2-1-12 6-7z" fill="#3E3433"/>
<path transform="translate(556,947)" d="m0 0 8 1 2 12 9 1v5l-9 5h-2l2 31 9 2 4 7-3 1h-13l-7-2-2-5-3-35-4-2v-7l3-1 3-9z" fill="#514847"/>
<path transform="translate(1018,103)" d="m0 0h2l12 22 18 35 13 26 1 4-1 2-4-2-5-9v-4l-4-2-7-10-4-7-2-3-2-1-6-12-4-4v-4l-5-1v-2l-7-2-3-7 3-9z" fill="#D4432B"/>
<path transform="translate(1344,344)" d="m0 0h3l-1 7-10 33h-2l-1 2h-4l-4-15-3-3-7-4-14-3-2-1 1-4 7-4 27-6z" fill="#D3432B"/>
<path transform="translate(660,958)" d="m0 0h6l-1 10-10 4-2 4-1 10-1 24-14 1v-51l2-1z" fill="#494747"/>
<path transform="translate(467,939)" d="m0 0 13 1v69l-1 1h-12z" fill="#464545"/>
<path transform="translate(1287,934)" d="m0 0h10l1 1 1 19v56l-7 1-4-1-1-2z" fill="#534644"/>
<path transform="translate(584,790)" d="m0 0 3 1 1 30 1 60v20h-18l-6-1-1-3 3-2v-3l4-4v-2h2l2-4 4-6v-2h-2l2-6 2-8 2-3v-2h-2v-11l2-13 1-2-3-1h2l-1-6 2-13h1v-1l-2-2-1-7z" fill="#D4462D"/>
<path transform="translate(99,957)" d="m0 0h14l8 4 4 6 1 4 1 15v24l-1-2-3 1-3-9-5 2-2-9-3-25-1-3h-6l1 5 2 4-4-1-7-3-6-1 1-7 6-4zm-4 9 2 2v-2z" fill="#504544"/>
<path transform="translate(1013,933)" d="m0 0 10 1v77h-10z" fill="#333"/>
<path transform="translate(1761,959)" d="m0 0h5l-2 2 8-1 6 1 1 3v3l-4 1-7 1-5 5-1 4v15l3 7 4 2 9 1 1 5 4 2-1 1h-19l-6-4-5-7-2-6-1-16 2-8 4-6z" fill="#3D3433"/>
<path transform="translate(878,193)" d="m0 0 6 1 16 10 18 10 2 7-2 1h-7v-2l-14 1-5 3-8 1-6-27z" fill="#D4452D"/>
<path transform="translate(1320,458)" d="m0 0 14 7 11 5 8 3 1 2-7 8-7 7-11 9-3 3-3-1-1-3 2-6h2v-16l-3-5-2-1-1-8z" fill="#D4432B"/>
<path transform="translate(925,959)" d="m0 0h10l7 2 3 4 3 13 2 30-1 1-14 1-1-5v-30l-3-6-1-4 2-4-7-1zm16 37v10l2-1v-9z" fill="#4F4645"/>
<path transform="translate(1534,957)" d="m0 0h13l8 4 6 10 1 12-2 6-4 1-1-9-1 9-12 1-8-1-1-3 3-4 2-5h2l1 7 2-4h2v4 1h4l-2-13-3-5-2-1h-7l-5 5-2-1-1-8v-3zm6 2 4 1z" fill="#4C4746"/>
<path transform="translate(812,303)" d="m0 0 4 2 9 12 11 11 7 8 5 5v3l-10-2-10-7-9-5-4-1v-2l-12 2-1-5 8-19z" fill="#D4442B"/>
<path transform="translate(818,960)" d="m0 0h13l-1 50-3 1h-7l-2-4z" fill="#433532"/>
<path transform="translate(595,972)" d="m0 0h1v14l7-2 3-8 2 3 3 5 2 6-6 1-11-1 1 10 1 2h25l1 1v9h-28l-5-3-6-7-1-9h2v-5h6l2 1v-16z" fill="#3E3533"/>
<path transform="translate(1901,962)" d="m0 0 4 2 3 3 3 10 2 22v7l-1 3h-15v-39z" fill="#4F4745"/>
<path transform="translate(841,656)" d="m0 0h4v2h2l3 6v2l4 6 8 4 5 1 1 3-5 1v2l-28 6h-5l4-15 5-15z" fill="#D3432A"/>
<path transform="translate(91,982)" d="m0 0h15l-1 7-9 6v6l5 2h12v-10h1l1 7h3 2l4 8h2v2l-5 1-20 1-10-1-3-5-2-7-3 4v-2l-3-1 4-5 5-12z" fill="#403533"/>
<path transform="translate(339,982)" d="m0 0h12v7l-1 1h-6l-2 4v7l5 2 11 1 1-10h1l1 6 4 2v2h2l1 3-1 2 2-1 1-20h1l1 10v13h-35l-4-5-4-1 3-1v-15l3-5z" fill="#3C3635"/>
<path transform="translate(309,960)" d="m0 0h12v18l-1 29-1 3-9 1-2-1z" fill="#3C3534"/>
<path transform="translate(1081,939)" d="m0 0h14l10 3 8 6 5 10v21l-1 6-2-2-4-12v-3l-2-1-5-10-2-1v-2l-4-2-5-2-11-1-5 1 1-3h3v-4l-2-1z" fill="#3D3534"/>
<path transform="translate(1825,957)" d="m0 0h15l8 4 3 3 2 12-1 13-3 1h-22l-4-2 17-1 1-1h-15l-1-2 16-2-1-13-2-1-12-1 4-5-6-2-6 1 4-3zm6 2v1h7v-1z" fill="#413533"/>
<path transform="translate(1131,967)" d="m0 0 2 1-4 9 1 8 3 7 2 1 2-2 5 9 6 2 23 1v7l-3 2h-26l-8-5-6-9-2-5v-14z" fill="#3D3533"/>
<path transform="translate(1225,306)" d="m0 0h5l4 5 6 16 1 7-2 2-10-6v-2h-10l-7 1-3-4 2-4 9-10z" fill="#D3432A"/>
<path transform="translate(1231,980)" d="m0 0h1v6h3l2 6 4 4v-7l2 3 3 9 15 2h10l3 8-2 1h-27l-6-3-6-7-3-8v-13z" fill="#403634"/>
<path transform="translate(692,343)" d="m0 0 20 5 10 2v2l8 1-1 2-4 2h-8l-5 1h-2l-2 7-2 2-1 10h-2l-1-5h-2l-7-22z" fill="#D3432B"/>
<path transform="translate(569,966)" d="m0 0 1 3-6 2 2 31 9 2 4 7-3 1h-13l-7-2-2-5-1-9v-24h1v13l4-1 4 1v-15z" fill="#413634"/>
<path transform="translate(1287,934)" d="m0 0h10l1 1 1 19v56l-7 1-2-2 5-2 1-2h2l-2-32-3-3-2-7-1-2-2 2z" fill="#383433"/>
<path transform="translate(1160,193)" d="m0 0h3l-1 9-5 21-3 1-3-3v-2l-2-1-3-4-5 1-3-4 1-5 4-4 14-8z" fill="#D4472F"/>
<path transform="translate(1797,1008)" d="m0 0h1v7l-6 12-5 5-4 1h-19l-10-2-2-6v-2h28l4-2v2l9-3 3-8z" fill="#3C3534"/>
<path transform="translate(584,790)" d="m0 0 3 1 1 30v60h-1v-14l-3-1v-4l-2-1h2l-1-6h-2v-11l2-13 1-2-3-1h2l-1-6 2-13h1v-1l-2-2-1-7z" fill="#D23F25"/>
<path transform="translate(1821,989)" d="m0 0 2 3 1 10 5 1h22l1 3-1 6h-24l-9-2-4-5-1-6 4-1 2 1v2h2z" fill="#433533"/>
<path transform="translate(1572,959)" d="m0 0 7 3 1 3v8h-2l1 13v21l-3 1-2 3h-2l-1-51z" fill="#554340"/>
<path transform="translate(962,983)" d="m0 0h8v1h-7l3 4v3h-3v10h5l-1-9 2-3 1 14 10 1 6-2v2l5-1v8l-3 1h-21l-6-2-1-5v-15z" fill="#4B3734"/>
<path transform="translate(743,957)" d="m0 0h14l10 4-2 3h-4l-2 4-1 6 2 1h-2l1 4h-2l-1 4-2-17-7-1 1 10-5-4-1-4-7 1-2 4v-10l5-4z" fill="#5D4744"/>
<path transform="translate(1101,949)" d="m0 0 7 1h4l5 8 1 3v18l-1 6-2-2-4-12v-3l-2-1-5-10-2-1-2-5z" fill="#484747"/>
<path transform="translate(54,937)" d="m0 0h15l9 3 3 5 1 5-8-2-19-1 1-3 9-1v-2l-17 2h-5l1-3z" fill="#514644"/>
<path transform="translate(528,977)" d="m0 0 2 3 5-1 2 15v11l-1 3-4 2h-6v-5h1z" fill="#494747"/>
<path transform="translate(696,470)" d="m0 0 6 1 4 3v13l-1 3-5-1-12-11-2-4z" fill="#D54830"/>
<path transform="translate(556,947)" d="m0 0 8 1v15l-9 3-4 3-4-1v-7l3-1 3-9z" fill="#484443"/>
<path transform="translate(91,982)" d="m0 0h15l-1 7-9 6-4 3-4-2-4 7-1-2-3-1 4-5 5-12z" fill="#574441"/>
<path transform="translate(1643,987)" d="m0 0h1l2 15 9 1 2 4v5h-21l-3-9v-14h1l2 15 1 1 2-2 3-1z" fill="#403533"/>
<path transform="translate(1968,957)" d="m0 0h3v2l5 2 5 8 1 5h-3l-1 7-6-5-4-5-5-8v-3z" fill="#4D4948"/>
<path transform="translate(339,982)" d="m0 0h12v7l-1 1h-6l-2 4h-2l-1 7-3 1-2-4-1-12z" fill="#544543"/>
<path transform="translate(309,937)" d="m0 0 12 1 1 1v12l-1 1h-12z" fill="#614843"/>
<path transform="translate(818,938)" d="m0 0h12v14l-1 1h-10l-1-1z" fill="#413634"/>
<path transform="translate(963,982)" d="m0 0h12l7 2v4l-11 1-2 3-1 1v8l-5 1-1-1v-11l4 1-3-5z" fill="#4F4745"/>
<path transform="translate(746,981)" d="m0 0h3v10l-2 1h-7l-2 2v-2h-5l-2 2v-10l7-2z" fill="#504645"/>
<path transform="translate(1219,975)" d="m0 0h1v7l-5 15-6 11-3 3-9-1-5-8-3-7 1-4 5 11v3l13-2 7-14z" fill="#433533"/>
<path transform="translate(660,958)" d="m0 0h6l-1 10-8 3-3-1-2-6 2-2-16-1 1-2z" fill="#4A3733"/>
<path transform="translate(737,959)" d="m0 0h4 8v2l4 1-1 3h-5l1 10-5-4-1-4-7 1-2 4v-10z" fill="#8A4337"/>
<path transform="translate(205,958)" d="m0 0 2 1h12l-4 2 6 2v3l-3 1h-16v4h-2l-1-2v-7l2-2h3z" fill="#644540"/>
<path transform="translate(586,126)" d="m0 0h1v44l-4 2v-26l-1-2 2-13z" fill="#D23F25"/>
<path transform="translate(1242,979)" d="m0 0h1v5h6l5 2v-6l1-1h5l2 4-1 6h5v1l-11 1-11-2-2-4z" fill="#7B433A"/>
<path transform="translate(386,959)" d="m0 0 14 2v1l-11 2 1 10-1 35-3-1-1-48z" fill="#5B433F"/>
<path transform="translate(595,975)" d="m0 0h1v11l7-2 3-8 2 3 3 5 2 6-6 1-11-1h-1z" fill="#614540"/>
<path transform="translate(286,934)" d="m0 0h5l-4 2-1 37-3 1v-9l-7-3-12-1v-3h10l11 2v-25z" fill="#76473F"/>
<path transform="translate(1538,978)" d="m0 0h2l1 7 2-4h2v4 1l5 1-1 3-7 1-8-1-1-3 3-4z" fill="#5C433F"/>
<path transform="translate(1941,957)" d="m0 0h15l4 5 2 6h-13v-1l9-1-1-4h-8l-7-1-8 1 3-2z" fill="#604743"/>
<path transform="translate(309,960)" d="m0 0h12v18l-3-3-2-1-2-10h-2v-2l-2-1v10h-1z" fill="#624843"/>
<path transform="translate(479,965)" d="m0 0h1v44l-1 1h-11v-1l7-1 1-3 1-8z" fill="#683931"/>
<path transform="translate(1130,334)" d="m0 0h1v8l-3 12h-2l-2-10 1-6 3-3z" fill="#D6452C"/>
<path transform="translate(1297,973)" d="m0 0h2v37l-7 1-2-2 5-2 1-2h2l-1-11z" fill="#333"/>
<path transform="translate(556,947)" d="m0 0 8 1-1 2h-5l5 2-3 2-2 4h-6l-1 2 1-7z" fill="#443532"/>
<path transform="translate(1006,712)" d="m0 0h1l1 10-1 21 1 3-3 8h-1l1-36z" fill="#F06047"/>
<path transform="translate(935,989)" d="m0 0h1l1 15 3-1v4h6l1-5h2l1 6-1 1-14 1-1-5z" fill="#473B39"/>
<path transform="translate(1825,957)" d="m0 0h15l3 1v3h-18-3l-4-1zm6 2v1h7v-1z" fill="#76392F"/>
<path transform="translate(1929,963)" d="m0 0m-2 1 2 1-2 1zm-1 2 2 2-1 3-2 25-2-4v-21z" fill="#484646"/>
<path transform="translate(650,982)" d="m0 0h1v28l-14 1v-7h2v3l9 1z" fill="#3F3533"/>
<path transform="translate(587,847)" d="m0 0h1v34h-1v-14l-3-1v-4l-2-1h2l1-4 2-4-2-1z" fill="#EE3F20"/>
<path transform="translate(989,973)" d="m0 0 3 3 1 3 1 11v18h-1l-1-14h-1l-1-12-1-2z" fill="#D24229"/>
<path transform="translate(1534,957)" d="m0 0h13l8 4-3 1-6-3v2h-11v-2l-4-1zm6 2 4 1z" fill="#763E34"/>
<path transform="translate(1558,969)" d="m0 0 3 2 1 12-2 6-4 1v-10l3 4v-10z" fill="#673830"/>
<path transform="translate(601,957)" d="m0 0h13v3l-2 1h-10l-3-1-3 1v-2z" fill="#813E33"/>
<path transform="translate(1898,994)" d="m0 0h1v13h12v-5h1v7h-15v-8z" fill="#403533"/>
<path transform="translate(606,976)" d="m0 0 2 3 3 5 2 6-6 1 2-6-1-1-2 3-2-4 1-6z" fill="#894D42"/>
<path transform="translate(615,974)" d="m0 0h1l1 14h4v-5l2-1v6l-2 3h-5l-1-1z" fill="#7E3A2F"/>
<path transform="translate(205,958)" d="m0 0 2 1h12l-4 3-6 3-5-1-1-3-2-1h3z" fill="#D0422A"/>
<path transform="translate(623,973)" d="m0 0h3l1 2v10l-1 5h-2z" fill="#8C4437"/>
<path transform="translate(1065,195)" d="m0 0 4 2 3 6v3l-3 1v-2l-3-1-2-7z" fill="#D6462E"/>
<path transform="translate(1543,981)" d="m0 0h2v4 1l5 1-1 3-7 1-1-1 1-8z" fill="#7D3D32"/>
<path transform="translate(54,937)" d="m0 0 3 1 1 2-4 2-11 1 1-3z" fill="#5C4440"/>
<path transform="translate(583,858)" d="m0 0 1 4v5l-3 6-4 1 2-6 2-8z" fill="#D93F24"/>
<path transform="translate(200,961)" d="m0 0h3l5 6h-6v4h-2l-1-2v-7z" fill="#55423F"/>
<path transform="translate(310,942)" d="m0 0h1v8h9v-7h1l1 8-1 1h-12v-7z" fill="#4D3A36"/>
<path transform="translate(1140,285)" d="m0 0h1v10l-2 5-2-3-1-3 2-7z" fill="#D5472F"/>
<path transform="translate(370,988)" d="m0 0h1l1 10v13h-6l3-3z" fill="#4E3A36"/>
<path transform="translate(962,983)" d="m0 0h8v1h-7l3 4v3h-3l-1 10h-1v-17z" fill="#3B3433"/>
<path transform="translate(102,958)" d="m0 0h3v3l-11 1-2 5-3 2 1-7 4-3z" fill="#B8402C"/>
<path transform="translate(1485,957)" d="m0 0h7l4 2-3 2h-12l2-1v-2z" fill="#6A453E"/>
<path transform="translate(1169,968)" d="m0 0 3 3 2 5v9l-4 5h-2l2-4 1-1v-10z" fill="#543833"/>
<path transform="translate(42,941)" d="m0 0 2 1-5 5-3 1v3l-5 3 2-6 7-6z" fill="#433F3E"/>
<path transform="translate(207,957)" d="m0 0h17l-1 3h-2l-1 2-1-2h-13z" fill="#4F403D"/>
<path transform="translate(1219,975)" d="m0 0h1v7l-5 15-2-3 5-15z" fill="#4B3835"/>
<path transform="translate(871,958)" d="m0 0h5v3h-20v-1z" fill="#4F4746"/>
<path transform="translate(32,965)" d="m0 0h3l1 4-1 9-1-2h-2z" fill="#484848"/>
<path transform="translate(214,977)" d="m0 0h1l2 7-2 4h-5l2-6h2z" fill="#69453F"/>
<path transform="translate(555,965)" d="m0 0 2 1-1 3h-2l-1 13h-1l-1-14z" fill="#5E3E39"/>
<path transform="translate(1298 1e3)" d="m0 0h1v6l-7 1-2-2 5-2z" fill="#483532"/>
<path transform="translate(1554,971)" d="m0 0h2v6l-1 7-1 4h-2z" fill="#8A392B"/>
<path transform="translate(386,959)" d="m0 0 14 2v1l-14 2-1-4z" fill="#5D4540"/>
<path transform="translate(789,947)" d="m0 0h7l3 5-1 2-6-3 1-3z" fill="#62443F"/>
<path transform="translate(971,966)" d="m0 0 3 1 1 6-4 1-1-4z" fill="#6F3C34"/>
<path transform="translate(1964,961)" d="m0 0 4 1v6h2l-1 4-5-7z" fill="#3B3635"/>
<path transform="translate(823,939)" d="m0 0 7 1v12h-1v-10h-7z" fill="#484848"/>
<path transform="translate(1270,964)" d="m0 0 3 1 3 7v12h-1l-1-11-3-6z" fill="#473734"/>
<path transform="translate(735,960)" d="m0 0 2 1v3 3l-2 1-2 4v-10z" fill="#80443A"/>
<path transform="translate(2008,957)" d="m0 0h6l-1 3-7 2-3 2 2-4z" fill="#61403B"/>
<path transform="translate(952,990)" d="m0 0 2 4v8l-2 4z" fill="#C84731"/>
<path transform="translate(1255,971)" d="m0 0h1v6h-2v-5z" fill="#D23F26"/>
<path transform="translate(348,969)" d="m0 0h3l1 3h-3z" fill="#A35A4D"/>
<path transform="translate(581,963)" d="m0 0h2v2l-3-1z" fill="#D23F26"/>
<path transform="translate(329 1e3)" d="m0 0" fill="#E07E6D"/>
<path transform="translate(330,997)" d="m0 0" fill="#FDFDFD"/>
<path transform="translate(212,970)" d="m0 0 2 1z" fill="#D23F26"/>
<path transform="translate(202,971)" d="m0 0" fill="#D23F26"/>
<path transform="translate(584,966)" d="m0 0" fill="#FDFDFD"/>
<path transform="translate(583,965)" d="m0 0" fill="#D23F26"/>
<path transform="translate(578,960)" d="m0 0" fill="#D23F26"/>
</svg>
