<?xml version="1.0" encoding="UTF-8"?>
<svg version="1.1" viewBox="0 0 2048 1041" width="590" height="300" xmlns="http://www.w3.org/2000/svg">
<path transform="translate(1700,325)" d="m0 0h137l26 4 15 4 16 6 17 9 13 10 10 9 8 9 10 15 7 14 6 18 3 16 1 7v31l-3 20-5 16-5 12-8 14-10 13-7 7-10 8-14 9-15 7-18 6-18 4-24 3h-132l-1-12v-218zm68 51v170h51l17-2 17-5 16-9 11-10 9-14 5-11 4-14 2-19-2-21-5-18-6-12-7-9-5-5-8-7-16-8-12-4-12-2z" fill="#BE023D"/>
<path transform="translate(706,325)" d="m0 0h67l1 1 1 165 4 16 7 12 10 10 12 7 13 4 11 2h18l15-3 12-5 10-6 6-5 7-10 6-16 2-11 1-160 1-1h66v172l-2 15-6 20-8 16-8 11-7 8-14 11-19 10-15 5-23 5-22 2h-23l-21-2-25-6-20-8-13-8-10-8-11-11-10-16-5-11-6-21-2-12-1-34v-137z" fill="#06256E"/>
<path transform="translate(1346,325)" d="m0 0h79l5 10 16 36 13 29 28 63 13 29 24 54 11 25 9 21 1 4h-73l-10-22-12-30h-120l-6 14-11 30-4 8h-72l2-6 11-27 13-32 19-47 20-50 25-62 17-43zm40 68-4 9-10 27-15 40-9 23v3h81l-3-10-16-38-18-44-5-10z" fill="#BE023D"/>
<path transform="translate(1116,321)" d="m0 0h10l29 3 22 5 21 7 14 6 1 2v51l-6-1-25-10-22-7-20-4-15-1-16 2-12 5-5 4-4 8 1 8 5 8 10 7 24 10 34 13 20 10 14 10 12 11 7 10 6 12 4 17v21l-4 17-7 14-6 8-12 12-16 9-12 5-20 5-18 2h-23l-19-2-21-5-17-6-25-12-2-2v-58l5 2 9 6 22 12 11 5 14 5 17 3 10 1h10l17-3 11-6 5-10v-10l-5-9-8-6-14-7-38-14-21-9-17-10-12-11-7-7-8-13-4-11-3-16v-14l4-17 8-16 8-10 9-8 11-7 16-7 16-4z" fill="#06256E"/>
<path transform="translate(1574,325)" d="m0 0h67l1 1v270h-68z" fill="#BE023D"/>
<path transform="translate(336,353)" d="m0 0h152l1 1v75h-259l-1-3v-72zm-76 16-2 2v24l3 9 5 5 7 3h13l8-4 5-6 1-2v-30l-1-1h-8l-1 1-1 28-4 4-8 1-5-2-3-5-1-26-1-1zm58 0-6 3-3 4-1 7 2 6 6 4 12 5 1 3-2 3h-9l-10-3v5l6 5 4 1h12l6-4 3-4 1-6-3-7-8-5-10-4v-4l2-1h8l5 2 4-1v-5l-4-3-3-1zm43 0-3 4-9 23-5 12v4h10l3-8h19l4 8h10l-1-5-12-27-5-10-2-1zm36 0-1 5v36l1 2h9v-42l-1-1zm21 0-2 2v39l1 2h21l8-2 7-4 4-5 2-8-1-10-5-8-6-4-10-2z" fill="#06256E"/>
<path transform="translate(341,226)" d="m0 0h34l21 2 33 6 19 6 19 7 20 9 18 10 21 14 14 11 10 9 23 23 11 14 10 14 11 18 12 23 8 20 7 22 5 21 4 27 1 21v13l-2 30-4 22-4 17-8 24-9 21-10 19-12 19-10 14-14 17-23 23-14 11-12 9-14 9-21 12-26 11-25 8-21 5-28 4-16 1h-23l-23-2-28-5-22-6-25-9-25-12-18-11-19-13-14-12-10-9-14-14-9-11-11-14-10-15-12-21-12-27-9-28-5-23-4-27-1-16v-16l2-26 4-24 4-17 10-30 11-24 12-21 8-12 13-17 9-10 7-8 13-13 22-18 21-14 16-9 23-11 22-8 27-7 30-5zm10 5-25 2-24 4-24 6-25 9-27 13-20 12-18 13-11 9-13 12-14 14-9 11-12 16-11 18-11 21-10 25-8 26-6 31-2 26v19l2 25 5 29 8 28 8 20 12 25 10 16 10 14 11 14 15 16 8 8 11 9 18 14 19 12 12 7 22 10 24 9 27 7 26 4 12 1h38l24-3 21-4 29-9 24-10 15-8 11-6 19-12 17-14 10-9 20-20 11-14 10-14 10-16 14-27 7-18 7-23 5-25 2-13 1-13v-36l-2-21-4-23-7-25-6-17-11-24-9-16-10-15-9-12-9-11-9-10-17-17-11-9-16-12-20-12-23-12-23-9-22-7-25-5-26-3-13-1z" fill="#2D4C8A"/>
<path transform="translate(230,588)" d="m0 0h259v42l-258 1-1-1zm24 9-2 2-1 4-8 1v3l4 2-1 8 2 1 4-2 8 2-1-10 5-2v-1l-8-1-1-7zm104 0v7h-8v3l4 3-2 8 4-1 4-2 5 3h2l-1-7 4-4v-3l-8 1-1-7zm73 0-2 6-8 1 2 4 2 1-1 9 4-1 4-2 4 3 3-1-1-8 4-4-8-1-1-7zm34 0v7h-9l2 4 4 1-2 5v4l5-1 1-2 4 2 4 1-1-9 4-2v-2l-7-1-3-7zm-178 1v6h-7l-2 2 4 4v8l6-2 5 1 3 1-1-8 5-5-5-1h-4l-1-6zm36 0v5l-8 1v4l4 1-2 9 4-1 4-2 3 3h3l-1-8 6-4-2-2h-7l-1-6zm70 0v5l-4 1-5 1 1 2 4 2v9l4-1 1-2 8 4v-9l4-5-1-1h-8v-5z" fill="#06256E"/>
<path transform="translate(338,283)" d="m0 0h43l26 4 23 6 20 8 16 8 16 9 11 8 14 11 10 9v2l4 2 12 13 14 19 11 19 8 16 8 21 5 17 4 21 2 15v37l-4 26-6 24-10 25-12 23-12 18-9 11-9 10-18 18-16 12-16 10-23 12-25 9-19 5-27 4h-39l-23-3-25-6-22-8-17-8-17-10-14-10-10-8-13-12-9-9-9-11-11-15-11-18-11-23-7-20-6-25-2-14-1-16v-26l3-25 7-28 8-21 11-22 7-11 10-14 8-10 12-13 8-8 8-7 13-10 19-12 17-9 23-9 26-7zm2 6-23 3-24 6-22 8-22 11-24 16-13 11-8 7-9 9-9 11-11 15-8 13-11 21-7 18-7 26-3 19-1 10v30l3 26 7 28 8 21 12 23 12 18 11 14 15 16 11 9 15 12 21 13 21 10 30 10 19 4 17 2h38l21-3 25-6 17-6 18-8 16-9 17-12 11-9 13-12 7-7 9-11 11-15 12-21 7-15 7-19 5-18 4-23 1-10v-32l-2-17-4-21-7-22-9-21-9-17-11-16-11-14-12-13-14-13-16-12-18-11-25-12-24-8-24-5-16-2z" fill="#2B4B89"/>
<path transform="translate(328,460)" d="m0 0 15 1 13 2h7l10 3 21 7 5 1h90v5h-24l-6 2-9-1-7 1-5 1-4 1-4-1-2 6-3-2v-3l-5 1-2 4h-3l-1-5-6-1 1 9v11l-4 3-1-6-1-17-1-2-9-2-25-9-5-1-16-1-10-2h-9l-7 7-1 4 5-1 2-1 9-1 2-4 5 3 1 1 14 2 5 1 3 6 13 5 13 4 4 2 3-1 4 22 6 13v-9l-1-10 6 3v2l9 2v2h-3v8l4-7 3-2h3l-3 9-2 4h4l3-12 2 1 1 4 3-3-1-4-1-2 9 2-3 7-4 6 3-1 4-6h3l2-5 1 2 3-3 6 1v15l3-3 5-8-2-4 5 2 4 4v7h-2v3l2 1 1-3h2v2h7l-1-12h3l1 1v15h-14l-22-2-40-2-11 6-13 12-7 1-5 5-5-1-4 7-4 2h-7l-5-4-4 3-6 1-6-3-7-5v2l-7-2-6-4-10-5-4-4-7-2-4-5-3-4-49 2-8 1v-5l5-1 2 1 1-8 2-1 1 9 4-2 3 1 1-4h-3v2h-2l-2-4v-5l4-1 1 4h2l-1-4 5-2h4l2 2v-3h4v5l2-1v-5l6-1 3 6h3v2l2-2-2-1v-3l3-1 1 3h2v3l3-1-2-6h7l4-1-5 6-1 2 6-3h6l-1-10-1-3-10 1 1-3 5-2 5 1 3 7v8l11-1v-8h3v8l19 1 4 1v2h2v-10l4 4-3 9 6 7 9 9 10 2 3 1-3-6-12-10-5-5-7-11v-2l-4-1-1-5h7l6 4 3 6 7 6 10 6 4 5 2 1v-2l4-1 3 6 1 5 2 1-4-16-11-8-10-8-6-9-3-6-6-5-2-4-13 1-12 3h-6l-6-4-38-2-6 2h-15l-19-1-1-6 3-1 73 2 1-6 8-3 7-3zm-17 11-1 4 7 2 1-1v-5zm39 9 7 7 2 5 10 9 7 6 6 11h2l-4-12 5 3 2 2 6-1v9l4 9 5 1-1-9-3-9-5-8-8-6-21-11-12-6zm68 2m-77 20m11 9 2 4 9 9 8 7 3 1 2 4 6 9 3 4 2-5-1-4-1-3-11-7-12-11-8-7zm-84 5 1 4 2-4zm187 1-3 11-2 2 5 1 2-4v-10zm-201 1-2 6v2h2l2-8zm55 0-1 2h23l-2-2zm-16 1v1h6v-1zm-8 1 1 2zm47 0m-73 1m5 0-1 3 1 2h2v-5zm19 0-13 1v3l13-1zm187 1-3 6-1 4 5-3v-7zm-211 1v4h3l-1-4zm190 0 1 3zm-115 2 6 7 5 5 3 9h2v7l2 4 7 4 4-1-1-5-5-1-9-17-10-11zm-36 1-3 2 1 8h4l5-4-1-5zm152 0m-132 1v3l3 4h2l1-4-3-3zm13 2v9h6l3 5 3 3 1-3-3-5h-2l-2-4-4-5zm105 0m-122 2-3 2 1 4 6 1-1-7zm-8 8-1 3 5 4h7l1-3-9-3zm28 1-3 3-3 7 5-1 3-4v-5zm-6 1m34 2 2 5 8 5 4-3v-3zm-18 3-4 7-1 5 4-1 5-6v-5zm13 1v3l3-1-1-2zm-33 2v3h3l1-2z" fill="#37548F"/>
<path transform="translate(345,633)" d="m0 0h29l1 1v61l-11 9-4 5-3-1-7-8-5-4-1-7v-47z" fill="#BE043E"/>
<path transform="translate(942,654)" d="m0 0 3 1v64h-10v-48l-5 5-10 12-4 5-4-1-9-10-8-11-1 48h-10v-64h10l13 15 7 9 5-5 9-11 7-8z" fill="#214283"/>
<path transform="translate(1246,654)" d="m0 0 10 2 11 13 7 9h3l9-12 10-11h10v63l-1 1h-10v-46l1-2-5 5-7 8-7 9-5-1-11-14-5-6v-2h-2l1 5-1 44-3 1-6-1v-64z" fill="#234384"/>
<path transform="translate(116,528)" d="m0 0h7l1 8-9 11-5 6 11-2 5 1 2 5 4 17 6 20 7 14 2 8-7 1-4-10v-2l-4 1 3 10v4l-6 2-4-10v-2l-6 1 5 12v3l-3 2-4-1-8-19 1-3 22-9v-2l-4-6-1-4-24 6-2-5 1-5 21-6-1-10 3-3-16 2-13 1-1-2v-6l14-16-17 1-1-8 4-2z" fill="#2A4A88"/>
<path transform="translate(1793,654)" d="m0 0h16l10 3 6 4 7 8 3 7 1 5v10l-2 9-7 10-7 6-9 3h-20l-8-3-10-9-5-9-1-4v-15l4-10 7-8 8-5zm1 9-8 4-7 8-2 5v14l4 7 5 5 8 4h16l9-6 4-5 3-8v-10l-5-10-7-6-6-2z" fill="#254585"/>
<path transform="translate(831,654)" d="m0 0h16l12 4 7 6 5 8 2 5 1 13-3 11-6 8-8 7-9 3-10 1-13-2-10-6-7-9-4-9v-14l4-10 7-9 8-5zm0 9-8 4-6 7-3 8v10l3 7 5 6 6 4 9 2 10-1 8-4 6-7 2-5v-15l-5-8-7-6-6-2z" fill="#264686"/>
<path transform="translate(1575,654)" d="m0 0 8 1 5 5 12 13 7 8 9 10 9 11 1-47h9v51l-1 14-7-1-10-10-9-11-10-11-9-11-4-4-1 46-1 1h-8z" fill="#2E4D8B"/>
<path transform="translate(386,633)" d="m0 0h29l1 1 1 7v42l-2 2-25 5h-5v-56z" fill="#BF0640"/>
<path transform="translate(304,633)" d="m0 0h29l1 1 1 50-1 7-31-6v-51z" fill="#BE023D"/>
<path transform="translate(1042,654)" d="m0 0 9 1v27h34v-27l3-1 8 1v17l-1 47h-9l-1-4v-19l1-4h-35v26l-1 1h-9v-64z" fill="#2C4B8A"/>
<path transform="translate(751,654)" d="m0 0 25 1 6 3 5 7 1 3v10l-4 6-3 3h-2l13 18 7 11v3h-9l-4-4-10-15-4-5-7-3-4-1v28h-10l-1-18v-45zm10 9v19h10l6-4 1-2v-7l-4-5-2-1z" fill="#2B4B89"/>
<path transform="translate(1366,654)" d="m0 0 24 1 7 3 5 6 1 4v9l-3 7-5 5 8 10 12 18v2h-10l-7-9-8-12-6-5-8-1-1 27h-9l-1-1v-63zm9 9v19h11l5-3 3-5-1-6-3-4-3-1z" fill="#244485"/>
<path transform="translate(230,588)" d="m0 0h259v42l-258 1-1-1zm12 1-5 2v3l-3 1-2 7 1 7-1 12 2 4h2v2l13 1h219l14-1 2-1v-2h2l2-5v-25l-3-4z" fill="#224284"/>
<path transform="translate(1206,653)" d="m0 0 4 2 8 16 16 36 4 10v2l-5 1-5-2-7-15-1-2h-27l-7 17-1 1h-9l1-5 9-22 15-35zm0 16-4 9-5 13h18l-3-10-5-12z" fill="#244585"/>
<path transform="translate(426,633)" d="m0 0h29l1 1v39l-15 6-15 4-1-1v-48z" fill="#BE033D"/>
<path transform="translate(1534,654)" d="m0 0h6l7 15 13 29 8 19v2h-9l-3-5-5-11v-2h-29l-1 5-6 13h-9l3-9 8-20 12-28zm2 16-6 12-3 9h18l-1-5-6-15z" fill="#244585"/>
<path transform="translate(1946,654)" d="m0 0 32 1v7l-1 1h-26v19h26v8l-1 1h-15l-10-1v20h26l2 6-1 3h-37l-1-1v-63z" fill="#264686"/>
<path transform="translate(263,633)" d="m0 0h29l1 1 1 28v12l-1 8-9-1-18-6-3-2z" fill="#BE053F"/>
<path transform="translate(1470,654)" d="m0 0h17l11 3 3 3v8l-2 1-8-4-5-1h-15l-10 5-6 10v16l4 7 8 6 3 1h18l10-4 4-2v9l-4 4-9 3-14 1-14-3-9-7-6-9-2-5v-17l4-10 7-8 8-5z" fill="#274787"/>
<path transform="translate(1110,654)" d="m0 0 36 1v8h-27v19h26v8h-26v20h27l1 9h-38v-64z" fill="#214283"/>
<path transform="translate(291,368)" d="m0 0h9l3 2v2l9-3 2-1h22l3 3 1 6-2 8 2 9 7-1 5-12 5-10 4-2-10 24-6 15-1 4h10l-1 2-9 1-9-1-5 1h-9l-10-3-7-3-4 2-8 3-4 1h-18l-1-3-4-1-4-4-4-9 2-3 3 9 5 5 6 2h13l8-4 4-5 1-2v-30l-8-1zm27 1-6 3-3 4-1 7 2 6 6 4 12 5 1 3-2 3h-9l-10-3v5l6 5 4 1h12l6-4 3-4 1-6-3-7-8-5-10-4v-4l2-1h8l5 2 4-1v-5l-4-3-3-1z" fill="#284887"/>
<path transform="translate(1723,654)" d="m0 0 36 1 1 1v6l-1 1h-27v19h26l1 2v6h-27v20h29v9h-38l-1-16v-48z" fill="#2A4A88"/>
<path transform="translate(1674,655)" d="m0 0h29l7 4 4 6 1 3v11l-4 6-5 4-6 2-15 1-1 27h-10zm11 8-1 1v17l1 1h14l5-4 1-7-2-5-4-3z" fill="#234384"/>
<path transform="translate(1348,654)" d="m0 0h6l1 1v8h-27v19h27v8h-27v20h28l1 9h-38l-1-63 1-1z" fill="#214284"/>
<path transform="translate(1023,515)" d="m0 0 5 2 9 6 22 12 11 5 14 5 17 3 10 1h10l17-3 11-6 5-10 1-8h1v14l-7 8-4 3-7 3-6 2-11 1-27-1-9-2-6-1-10-4v-2l-5-1-13-6-18-9-6 1-2 8v24l1 9 7 5v2l6 2 13 5 15 6 8 2 9 2 18 3 24 1 21-2 10-2 18-6 11-6 14-10 5-5 9-13 3-5 2 1-5 10-6 8-12 12-16 9-12 5-20 5-18 2h-23l-19-2-21-5-17-6-25-12-2-2z" fill="#274786"/>
<path transform="translate(1847,654)" d="m0 0 28 1 6 3 5 6 2 9-2 9-5 5-4 3-4 1h-17v28h-9zm9 9v18l1 1h13l6-3 1-2v-8l-3-5-3-1z" fill="#214283"/>
<path transform="translate(707,654)" d="m0 0 34 1v8l-24 1v15l24 1v9h-25l1 4v25l-1 1h-9l-1-1v-63z" fill="#234384"/>
<path transform="translate(978,655)" d="m0 0h55v8h-23v56h-9l-1-4v-52h-22l-1-3z" fill="#34528E"/>
<path transform="translate(1116,321)" d="m0 0h10l29 3 22 5 21 7 14 6 1 2v51l-6-1-25-10-22-7-20-4-15-1-16 2-12 5-5 4-3 3 2-5 4-4 12-5 9-2h24l17 3 14 4 12 3 10 4 12 5 4 1v-47l-10-2-9-4-15-3-14-5-6-1v-2l-20-2h-30l-15 3-7 3-5 2-7 2-13 5-16 10-1 2h-2l-2 4-7 7-7 15-2 4-1-2 5-12 6-10 11-12 13-9 15-7 19-5z" fill="#3F5B94"/>
<path transform="translate(1894,655)" d="m0 0h10l1 3-1 52h29l1 1v8h-39l-1-6z" fill="#33518D"/>
<path transform="translate(710,513)" d="m0 0 3 4 4 13 4 6 1 6h2l2 4v3l3 1 7 8 7 7 3 2v2l6 2 7 6 11 5 16 7 14 4 9 1 5 1 20 2h14l25-2 21-4 19-7 17-9 7-6h2v-2l5-5 6-5 7-10 5-9 4-8 3-7 1 3-5 13-7 12-7 9-6 7-14 11-19 10-15 5-23 5-22 2h-23l-21-2-25-6-20-8-13-8-10-8-11-11-10-16-5-11-4-13z" fill="#314F8C"/>
<path transform="translate(576,602)" d="m0 0 6 2 23 11-1 6-2 3-5-1-7-4h-3l3 6-1 3-8 3 3 3 9 4 1 3-3 5-6-1-24-12 3-6 4-3 9-2-1-6-2-3v-7z" fill="#2B4A89"/>
<path transform="translate(147,342)" d="m0 0 5 2 19 13 3 2-1 4-5 4-20 2 10 8 2 1-1 5-3 4-4-2-11-8-12-8 4-7 1-1 19-2-1-3-9-6 2-5z" fill="#2C4B8A"/>
<path transform="translate(593,541)" d="m0 0 11 1 21 4-1 6-4 4-14 8h-2v2l13 2 3 1-1 9-10-1-21-4-1-4 3-6 16-10-14-4v-7z" fill="#284887"/>
<path transform="translate(116,528)" d="m0 0h7l1 8-9 11-5 6 11-2 5 1 1 2v6l-24 4h-7l-1-2v-6l14-16-17 1-1-8 4-2z" fill="#294888"/>
<path transform="translate(162,644)" d="m0 0 4 1 3 5-2 13-2 8 9-6 3-3 4 2 3 3-1 4-11 8-10 8-5 1-2-5 2-17 2-6-14 10-3-1-2-3 1-5 15-12z" fill="#264686"/>
<path transform="translate(548,319)" d="m0 0 4 2 2 3-1 14-2 9 9-7 3-3 4 1 3 4-2 4-10 9-8 7-4 2-3-3-1-9 2-15-8 6-3 3-4-1-3-3 1-4 12-11 6-5h2z" fill="#274787"/>
<path transform="translate(282,732)" d="m0 0 5 2 5 8 5 10 2 1 2-9 2-5 7 1 1 3-6 23-2 5-6-1-4-5-8-16-4 15-5 1-3-2v-7l7-23z" fill="#294988"/>
<path transform="translate(538,665)" d="m0 0h12l7 5 3 6v8l-3 7-7 7-4 2h-8l-7-3-4-5-2-5v-7l4-8 7-6zm2 8-5 4-2 6 3 6 5 3 6-2 4-4v-8l-5-5z" fill="#2A4A89"/>
<path transform="translate(249,721)" d="m0 0h7l9 4 7 8v11l-5 8-6 3h-10l-8-4-5-6-1-2v-10l4-7 3-3zm0 9-4 6 1 7 5 4h7l5-5 1-4-2-5-3-3z" fill="#274787"/>
<path transform="translate(400,741)" d="m0 0h13l4 2 5 10v8l-3 6-5 4-5 2-15 2-2-3-4-28 6-2zm-2 7 1 13 2 5h6l5-3 1-2v-8l-4-5z" fill="#274786"/>
<path transform="translate(235,271)" d="m0 0h9l6 4 4 6 1 9-3 6-8 7-8 5-4-1-6-9-8-16 2-4 12-6zm-2 8-4 2 3 10 5 7 6-3 3-4v-6l-5-6z" fill="#284887"/>
<path transform="translate(495,280)" d="m0 0 8 2 9 6 4 4-1 6-3 2-9-8-5-2-5 1-4 6 2 6 3 3 3 1v-7l2-3 7 4 4 3-2 5-6 8-9-2-8-6-4-5-1-3v-9l4-6 5-4z" fill="#294888"/>
<path transform="translate(147,619)" d="m0 0h3l6 10 3 6v5l-5 5-9 2-8 11-3-1-3-6 2-4 4-5 1-4-12 4-4-5 1-4 21-12zm-2 12-1 5 3 2 3-2-1-5z" fill="#274787"/>
<path transform="translate(229,354)" d="m0 0h5l-2 6 1 10v52l1 4 2 1h240l7-1 4-1 1-71h1v75h-259l-1-3z" fill="#204183"/>
<path transform="translate(124,376)" d="m0 0 6 2 13 7 6 7v8l-5 10-5 4h-10l-13-6-6-4 3-6 3-1 15 7h6l3-3v-6l-8-5-11-5 1-6z" fill="#2A4988"/>
<path transform="translate(192,678)" d="m0 0 5 2 4 5-5 16-6 17-4-2-2-3-1-9-6-6-8 1-5-5 1-3 24-11zm-5 12-4 4 2 4 3-1 2-4v-3z" fill="#284887"/>
<path transform="translate(586,575)" d="m0 0 6 2-1 5-2 6v4l4 1 2-9 2-4h5l1 4-2 8v4l4 1 3-11 2-3 6 1-2 10-5 14-6-1-24-8-1-3 7-20z" fill="#2F4D8B"/>
<path transform="translate(325,743)" d="m0 0h8l3 4 8 27v3h-6l-4-4-1-4h-11l-5 5h-6l-2-1 2-6 12-22zm2 12-2 2 1 5 5-1-1-5z" fill="#294887"/>
<path transform="translate(467,263)" d="m0 0 8 3 1 2v33l-3 1-5-3-1-7-6-2-3-2-4 1-5 2-5-3 2-4 5-5zm-1 13-4 4 2 4h3l1-7z" fill="#254585"/>
<path transform="translate(337,241)" d="m0 0 5 1 5 8 10 18v4l-5 1-4-1-3-5-12 1-2 5-1 1h-7l1-8 7-23zm0 12-2 5v3l6-1-1-6z" fill="#274787"/>
<path transform="translate(1217,548)" d="m0 0 2 1-5 10-6 8-12 12-16 9-12 5-20 5-18 2h-23l-19-2-21-5-17-6-25-12-2-2v-13h2l1 9 7 5v2l6 2 13 5 15 6 8 2 9 2 18 3 24 1 21-2 10-2 18-6 11-6 14-10 5-5 9-13z" fill="#2C4B89"/>
<path transform="translate(524,299)" d="m0 0 4 1 14 12 1 3-3 3-4-1-7-6-4-1 3 6 6 7-4 4h-2v-2l-4-2-4-3-3-1 2 6 7 6-1 4-1 2-5-1-14-13 1-4 8-8 8-10z" fill="#2B4B89"/>
<path transform="translate(495,702)" d="m0 0 3 1 1 5-5 4-5 2 1 5 12-6 4 5-10 7-1 5 8-3 6-4 4 5-5 5-11 7-5 1-15-24v-3l9-6z" fill="#2A4A88"/>
<path transform="translate(210,285)" d="m0 0h2l1 7-7 5h-2l1 5 5-2 6-5 3 1 1 5-8 7v4l5-1 7-6 3 1 2 5-10 8-9 6-8-10-10-15 2-4z" fill="#2B4A89"/>
<path transform="translate(441,730)" d="m0 0h4l1 6-8 3-5 1 1 5 12-4 3 1v6l-11 4v5l11-3 4-1 1 7-7 3-13 4-3-1-8-26 1-4z" fill="#2C4B89"/>
<path transform="translate(391,243)" d="m0 0 13 1 9 2 1 4-2 4-14-3v5l13 2v6l-3 1-12-2 1 5 12 2 1 1v5l-4 2-20-4 1-11z" fill="#2C4B89"/>
<path transform="translate(568,355)" d="m0 0 8 1 6 4 5 6 3 7-1 5-2 2-4-1-4-9-6-5-5 1-3 1-1 9 5 7 4 3-1 4-7 1-5-5-5-8-1-10 3-6 6-5z" fill="#2B4B89"/>
<path transform="translate(1423,655)" d="m0 0h9v63l-1 1h-8z" fill="#0B2B72"/>
<path transform="translate(279,252)" d="m0 0h6l3 4v3l-12 2-1 2 15 3 4 4v9l-6 5-6 2h-8l-3-4v-4h12l2-4h-9l-7-2-3-5v-7l5-5z" fill="#2A4988"/>
<path transform="translate(422,250)" d="m0 0h10l7 3 3 4-1 5-4-1-5-3-5-1 7 8 5 6-1 6-4 5-2 1h-7l-10-4-1-1v-8h4l6 5 4 1-2-5-8-8v-7z" fill="#264686"/>
<path transform="translate(428,376)" d="m0 0 11 1 6 4 3 4 1 8-4 8-6 3-10 1-3-2v-19l1-7z" fill="#32508D"/>
<path transform="translate(558,638)" d="m0 0 10 2 4 5-1 8-3 7 8 5-2 6-2 2-4-1-18-13-5-3 7-11zm0 10-2 4 2 2 5-1v-5z" fill="#294888"/>
<path transform="translate(243,588)" d="m0 0h246v30h-1l-1-24-2-3-242-1z" fill="#204183"/>
<path transform="translate(467,633)" d="m0 0h17l5 1-1 8-7 12-10 10-5 1v-31z" fill="#BE033E"/>
<path transform="translate(230,633)" d="m0 0h21l2 6v18l-1 9-5-3-10-10-6-11z" fill="#BF0842"/>
<path transform="translate(1020,421)" d="m0 0h2l5 12v2h2l5 9 6 6v2l5 2 8 7 10 6 12 6v2l6 1 15 7 15 5 13 5 9 3 10 6 11 10 1 2v6l-3-4-4-6-9-6-12-6-38-14-21-9-17-10-12-11-7-7-8-13-4-11z" fill="#294888"/>
<path transform="translate(472,716)" d="m0 0h3l1 5v31l-4 1-22-18-4-6 4-3 6 1 10 9 2 1v-19z" fill="#2A4988"/>
<path transform="translate(1093,407)" d="m0 0 11 7 24 10 34 13 20 10 14 10 12 11 7 10 6 12 4 17v10h-1l-3-18-3-7-3-9-6-9v-2h-2l-2-4-5-3-14-11-12-7-7-3-23-10-16-5-10-5-9-3-1-3h-3v-2l-6-1v-2l-4-2z" fill="#2D4C8A"/>
<path transform="translate(593,381)" d="m0 0h3l3 9-4 8 9 2 4 7v3l-14-2h-8l-11 4-4-6 1-3 12-6z" fill="#2A4988"/>
<path transform="translate(205,690)" d="m0 0 4 1 13 10 8 6v4l-2 3-4-1-3-4-4 1-12 16-3 2-4-4 1-6 10-14-1-4-4-2v-6z" fill="#294888"/>
<path transform="translate(596,507)" d="m0 0 5 1 1 1-1 10h25l1 2-1 8h-12l-13-1-1 10-2 2-4-1v-21l1-10z" fill="#284887"/>
<path transform="translate(185,303)" d="m0 0h3l1 6-5 5 2 5 12 11 1 5-5 5-4-2-5-6v-2h-2l-6-7h-3l-5 6-5-3 2-4 7-8z" fill="#294988"/>
<path transform="translate(319,243)" d="m0 0h4v6l-9 3 1 11 2 13-1 1h-8l-2-10-2-9v-4l-11 1-2-3v-3l22-5z" fill="#2B4A89"/>
<path transform="translate(354,240)" d="m0 0 24 1 7 1-1 6-10 1-2 23-1 1h-7l-1-2v-13l1-10-10-1-2-2 1-4z" fill="#2D4C8A"/>
<path transform="translate(907,493)" d="m0 0h1v9l-2 6-4 8-3 3-2 4h-2l-1 3-8 7-4 4-13 5-7 2-15 1h-20l-13-3-12-5-10-7-8-8-6-11-3-8v-6l2 4 5 12 7 9 7 7 12 7 13 4 11 2h18l15-3 12-5 10-6 6-5 7-10 6-16z" fill="#284887"/>
<path transform="translate(706,325)" d="m0 0h38v1l-17 1-8 1-2-1v2l-10 1 1 165 2 5-1 9h-1l-2-12-1-34v-137z" fill="#6C82AD"/>
<path transform="translate(504,695)" d="m0 0 4 1 11 14 4 2 6-4 2-3 5 1 1 5-17 14-4-2-16-22 1-4z" fill="#294988"/>
<path transform="translate(1797,655)" d="m0 0 13 1 12 6 5 6 3 1 5 11v9h-2l-1 3-3 1-2-1-1-9-3-11-3-5-8-4-8-1h-10l-4 1-2-5z" fill="#06256E"/>
<path transform="translate(985,655)" d="m0 0h48v8h-24v2l-6-1-2-1-16-1-1-5z" fill="#06256E"/>
<path transform="translate(454,515)" d="m0 0 6 1v15l3-3 5-8-2-4 5 2 4 4v7h-2v3l2 1 1-3h2v2h7l-1-12h3l1 1v15h-14l-19-2-1-2 2-5 1-10h-2l-1 8-2 4h-3l-2-7 3-6 1 2zm16 7-3 6-1 4 5-3v-7zm-21 1 1 3z" fill="#3C5992"/>
<path transform="translate(969,523)" d="m0 0 1 3-5 13-7 12-7 9-6 7-14 11-19 10-15 5-23 5-8 1h-33v-1l7-1 23-1 22-3 11-3 17-6 17-9 7-6h2v-2l5-5 6-5 7-10 5-9 4-8z" fill="#294988"/>
<path transform="translate(910,325)" d="m0 0h66v3l-13 1-15-1h-15l-14 1-9 1v155h-1v-159z" fill="#204183"/>
<path transform="translate(355,744)" d="m0 0 3 1v25l16 1v5l-1 1h-23v-32z" fill="#214183"/>
<path transform="translate(1584,664)" d="m0 0 3 1-1 4h-3v44l-5 1-2-3v-43l2-3h4 2z" fill="#06256E"/>
<path transform="translate(103,447)" d="m0 0 4 1 3 4v2l11-3v3l-4 5-1 4 4 2 2 4-12-2-2 5-5 2 1-9-9-4v-2l2-1h7z" fill="#34518D"/>
<path transform="translate(1248,669)" d="m0 0 5 1 2 4-1 36-1 4h-5l-1-1v-42z" fill="#0A2970"/>
<path transform="translate(609,446)" d="m0 0 2 2v9l7 1 2 4-1 1-7 1-1 9-3 1-3-6-3-1-4 2h-4l2-4 2-2-1-5-3-7 5 1 1 1h5z" fill="#2F4D8B"/>
<path transform="translate(99,514)" d="m0 0h23l1 8-3 1-29 2-1-1v-9z" fill="#2F4E8B"/>
<path transform="translate(158,329)" d="m0 0 4 2 10 8 11 10-2 5-2 2-4-1-11-10-8-7-1-5z" fill="#2B4B89"/>
<path transform="translate(234,710)" d="m0 0 6 2 1 4-15 25h-3l-4-3 1-6 11-18z" fill="#2B4A89"/>
<path transform="translate(773,340)" d="m0 0h1l1 157-2-3-1-2-1-17 1-98z" fill="#A0AEC9"/>
<path transform="translate(265,367)" d="m0 0 5 2 1 5 1 20 5 4h7l3-15v-9l2-5 2 1-1 28-5 5-8 1-5-2-4-6-1-26-3-2z" fill="#284887"/>
<path transform="translate(1095,323)" d="m0 0h7l-2 2-10 2-7 3-5 2-7 2-13 5-16 10-1 2h-2l-2 4-7 7-7 15-2 4-1-2 5-12 6-10 11-12 13-9 15-7 19-5z" fill="#284787"/>
<path transform="translate(1727,655)" d="m0 0h32l1 1v6l-1 1-31 1-2-3z" fill="#092870"/>
<path transform="translate(430,367)" d="m0 0 16 1 8 4v2h2l5 11v15l-7 10-6 3-4 1-19 1-7-2v-1l20-1 8-2 7-4 4-7 1-10-3-9-5-5-6-3-7-1h-20v-2z" fill="#284887"/>
<path transform="translate(229,354)" d="m0 0h5l-2 6 1 10v52l1 4 3 3h-7l-1-3z" fill="#5971A2"/>
<path transform="translate(321,596)" d="m0 0 6 1 3 2v2h2v2l4 1-2 1h-7l-1-1v-6h-3l1 5-1 1-8 1v2l4 2-1 7-1 2 8-4 3 3 3 1-2-8 6-4 1 3-1 1-1 9-2 2-15-1-3-7-2-5v-5l5-2 2 1z" fill="#264686"/>
<path transform="translate(1901,655)" d="m0 0 4 1-1 45-2 4-1-7h-2l-1-35z" fill="#09276F"/>
<path transform="translate(361,368)" d="m0 0h10l5 5 5 12 7 15v2h5l1-6v-23l2-4h1v43h9v1h-26v-1h10l-17-39-3-3-9-1z" fill="#284887"/>
<path transform="translate(295,499)" d="m0 0 5 1 3 7v8l11-1v-8h3v8l19 1-1 3-6 1h-20l-1 1h-9l-7-2 3-2h6l-1-10-1-3-10 1 1-3z" fill="#C8D0E0"/>
<path transform="translate(429,596)" d="m0 0 4 1-2 1-2 6h-8l5 5-1 7-1 2 5-3 3-1 4 3h2l-1-8 4-3-7-1-1-1v-6l1 2 6 1v2l3 1-1 5-1 10-4 2-6-1h-8l-2-7-2-5 1-5h2v-2l4-1z" fill="#294988"/>
<path transform="translate(359,596)" d="m0 0h3v2l4 2 5 3 1 4-2 3-1 9-4 2h-9l-5-1-3-12-1-3 2-3 7-3 2-2v7l-3 1h-5l5 5-2 6-1 2 8-4 7 4-2-4 1-5 3-2 1-3-8 1-2-7z" fill="#2D4C8A"/>
<path transform="translate(1948,655)" d="m0 0h30v7h-28l-1 2-3-5z" fill="#06256E"/>
<path transform="translate(1676,655)" d="m0 0h16l5 5v2h-12v2h-2v8l-6 2-2-7v-8z" fill="#06256E"/>
<path transform="translate(355,490)" d="m0 0 4 1 10 9 8 7 5 9v2h2v2l-5-2-16-13-6-9z" fill="#3C5992"/>
<path transform="translate(288,596)" d="m0 0 4 2v2l5 1 4 3-3 15-1 1h-15l-2-1-2-7-1-1v-7l3-3 4-1zm-1 2v6h-7l-2 2 4 4v8l6-2 5 1 3 1-1-8 5-5-5-1h-4l-1-6z" fill="#264686"/>
<path transform="translate(251,598)" d="m0 0 2 1-2 5h-8v3l5 2-1 8 5-2 4 1 4 2-2-8 3-3 2-1-7-1-1-1v-6l3 3 5 1 3 3v3l-3 2v10h-17l-2-3-3-9-1-4 1-2 9-3z" fill="#425E95"/>
<path transform="translate(775,497)" d="m0 0 2 4 5 12 7 9 7 7 12 7 13 4 11 2 15 1v1l-20 1-13-3-12-5-10-7-8-8-6-11-3-8z" fill="#274787"/>
<path transform="translate(393,596)" d="m0 0 5 1 4 4 4 1 2 3v3l-4 1v10l-4 1h-7l-5 1-3-3-1-10-1-5 8-3zm0 2v5l-4 1-5 1 1 2 4 2v9l4-1 1-2 8 4v-9l4-5-1-1h-8v-5z" fill="#2F4E8B"/>
<path transform="translate(397,368)" d="m0 0h9l4 4 1 27 1 9-2 4h-4l-1-42-8-1z" fill="#224284"/>
<path transform="translate(744,325)" d="m0 0h29l1 1-1 51-2-1v-47l-21-1-6-1z" fill="#214183"/>
<path transform="translate(1348,654)" d="m0 0h6v8h-25l-2-5 1-2z" fill="#0B2971"/>
<path transform="translate(467,597)" d="m0 0 6 2 5 5 1 3-3 12-6 1h-12l-1-6 1-2h-2l-1-8 5 4 2 1-2 9 5-1 1-3 8 4-2-5 1-5 3-1 1-2h-7l-2-2z" fill="#35538E"/>
<path transform="translate(351,508)" d="m0 0 5 3 6 5 10 6 4 5 2 1v-2l4-1 3 6 1 5-3 1-10-7-11-10-8-7h-3z" fill="#4B659A"/>
<path transform="translate(1119,655)" d="m0 0h24l1 3-2 4h-23l-1-6z" fill="#06256E"/>
<path transform="translate(969,523)" d="m0 0 1 3-5 13-7 12-7 9-6 7-14 11v-3l6-6h2v-2l5-5 6-5 7-10 5-9 4-8z" fill="#2F4E8B"/>
<path transform="translate(1217,548)" d="m0 0 2 1-5 10-6 8-12 12-16 9-5 2 2-4 9-5 14-10 5-5 9-13z" fill="#274787"/>
<path transform="translate(1627,655)" d="m0 0h5l1 6h-2l1 13-1 8-2 7-2 1z" fill="#06256E"/>
<path transform="translate(1116,370)" d="m0 0h24l17 3 4 2-1 2-20-4-15-1-16 2-12 5-5 4-3 3 2-5 4-4 12-5z" fill="#3B5892"/>
<path transform="translate(637,494)" d="m0 0 4 2 1 7v13l-1 7-3 6h-1z" fill="#082770"/>
<path transform="translate(357,403)" d="m0 0h19l3 5 1 4-6-2-1-1h-13l-4 3h-2z" fill="#284787"/>
<path transform="translate(1677,691)" d="m0 0 1 3 3 1v19l-5 1-1-1v-20z" fill="#06256E"/>
<path transform="translate(365,381)" d="m0 0 3 1 5 12v2h-14z" fill="#33518D"/>
<path transform="translate(1849,655)" d="m0 0h15v2h2v5h-10l-1 2-2-2-4-1z" fill="#06256E"/>
<path transform="translate(269,512)" d="m0 0 3 1 2 5h3v2l2-2-2-1v-3l3-1 1 3h2v3h2l-1 3-14 1-2-3 3-4h-3v2h-2l-1-5z" fill="#778BB3"/>
<path transform="translate(429,596)" d="m0 0 4 1-2 1-2 6h-8l5 5-1 7-1 2 3 1-4 1-2-7-2-5 1-5h2v-2l4-1z" fill="#385590"/>
<path transform="translate(295,499)" d="m0 0 5 1 3 7v8l6 3-1 2h-9l-7-2 3-2h6l-1-10-1-3-10 1 1-3z" fill="#FDFDFD"/>
<path transform="translate(885,593)" d="m0 0h3v2l-14 3-8 1h-33v-1l7-1 23-1z" fill="#244485"/>
<path transform="translate(454,515)" d="m0 0 6 1v9l-3-4v-4h-2l-1 8-2 4h-3l-2-7 3-6 1 2zm-5 8 1 3z" fill="#A2AFCA"/>
<path transform="translate(251,598)" d="m0 0 2 1-2 5h-8v3l5 2-1 6-2 2-5-12 1-3 9-3z" fill="#2D4C8A"/>
<path transform="translate(321,596)" d="m0 0 6 1 3 2v2h2v2l4 1-2 1h-7l-1-1v-6h-3l1 5-1 1-9 1 2-4 3 1z" fill="#2F4E8B"/>
<path transform="translate(1046,342)" d="m0 0m-1 1m-1 1m-2 1 2 1-3 5h-2l-2 4-7 7-7 15-2 4-1-2 5-12 6-10z" fill="#2B4A89"/>
<path transform="translate(1373,694)" d="m0 0 2 1-1 16-5-2-1-2v-8h2l1-4z" fill="#06256E"/>
<path transform="translate(437,385)" d="m0 0 4 3v7h-2l-1 3h-3v-4l-2-1-2-6z" fill="#06256E"/>
<path transform="translate(357,597)" d="m0 0h1v7l-3 1h-5l5 5-2 6h-2l-4-11 2-3 7-3z" fill="#304E8B"/>
<path transform="translate(407,484)" d="m0 0h1l1 7v11l-4 3-1-6v-14l1 3h2z" fill="#6A80AC"/>
<path transform="translate(1770,682)" d="m0 0 2 2 3 11 2 3-1 3h-3l-4-6v-9z" fill="#06256E"/>
<path transform="translate(1394,665)" d="m0 0 4 1 1 4h2l-1 6-6 1-1-11z" fill="#0A2870"/>
<path transform="translate(1724,680)" d="m0 0 4 1 2 6-3 8h-3z" fill="#06256E"/>
<path transform="translate(907,493)" d="m0 0h1v9l-2 6-4 8-3 3h-2l2-5 4-8z" fill="#234384"/>
<path transform="translate(1019,383)" d="m0 0h1v31h-2l-1-7v-14z" fill="#274786"/>
<path transform="translate(807,682)" d="m0 0 3 1 2 7-2 5h-3l-2-6z" fill="#06256E"/>
<path transform="translate(1132,370)" d="m0 0h8l17 3 4 2-1 2-20-4-8-1z" fill="#2A4A89"/>
<path transform="translate(1007,697)" d="m0 0h2v14h-4l-1-5 1-6z" fill="#06256E"/>
<path transform="translate(1175,587)" d="m0 0m-3 1h3v2l-11 4-17 4 1-3 9-2z" fill="#32508D"/>
<path transform="translate(393,596)" d="m0 0 5 1 4 4 4 1 2 3v3l-5 1 2-4h-6l-2-1-1-5-3-1z" fill="#2E4D8B"/>
<path transform="translate(978,655)" d="m0 0h7l1 8h-8l-1-3z" fill="#2B4A89"/>
<path transform="translate(772,468)" d="m0 0h2l1 29-2-3-1-2-1-17z" fill="#234485"/>
<path transform="translate(607,456)" d="m0 0h3l2 6-4 3-5-2-1-4z" fill="#06256E"/>
<path transform="translate(403,609)" d="m0 0 1 4v6l-4 1h-10l1-3h2l1-3 4 2 3 2v-7z" fill="#34528E"/>
<path transform="translate(1216,484)" d="m0 0h2l4 9 3 14v10h-1l-3-18-3-7z" fill="#284787"/>
<path transform="translate(731,655)" d="m0 0h6l1 6-1 1h-8v-5z" fill="#06256E"/>
<path transform="translate(351,508)" d="m0 0 5 3 6 5 5 3-1 4-8-6-5-5-2 1z" fill="#CED5E3"/>
<path transform="translate(1807,662)" d="m0 0 7 1 8 5 3 6-1 4-6-9-6-4-5-2z" fill="#284887"/>
<path transform="translate(315,601)" d="m0 0m-1 1m-2 1h2l1 4 4 2-1 7-2 2-4-10z" fill="#284887"/>
<path transform="translate(1575,711)" d="m0 0h2l2 2h4l1 5-1 1h-8z" fill="#284887"/>
<path transform="translate(361,368)" d="m0 0h10l5 5 5 12v2h-2l-7-16-2-1-9-1z" fill="#32518D"/>
<path transform="translate(474,518)" d="m0 0 6 2 2 3 1 7-5-1-1-8h-2z" fill="#7186B0"/>
<path transform="translate(342,508)" d="m0 0 4 4-2 8-4 1-4-4 4-1v2h2z" fill="#E9ECF2"/>
<path transform="translate(359,596)" d="m0 0h3v2l4 2 5 3-1 2h-8l-2-7z" fill="#3E5A93"/>
<path transform="translate(1147,595)" d="m0 0m-7 1h7v2l-5 1h-16l1-2z" fill="#254585"/>
<path transform="translate(429,596)" d="m0 0 4 1-2 1-2 6-9 1v-2h2v-2l4-1z" fill="#34528E"/>
<path transform="translate(288,596)" d="m0 0 4 2v2h-2v-2h-3v6l-8 1 2-4 3-1z" fill="#36538F"/>
<path transform="translate(279,513)" d="m0 0 2 1v2h2v3h2l-1 3h-6l1-4-2-1v-3z" fill="#889ABC"/>
<path transform="translate(829,657)" d="m0 0h6v3l-9 3-2-3z" fill="#07266F"/>
<path transform="translate(1031,655)" d="m0 0h2v8h-23v-1l20-1z" fill="#254586"/>
<path transform="translate(737,655)" d="m0 0h4v8h-11v-1l7-1z" fill="#204183"/>
<path transform="translate(326,597)" d="m0 0 4 2v2h2v2l4 1-2 1h-7l-1-1z" fill="#314F8C"/>
<path transform="translate(864,670)" d="m0 0h2l2 3v5h-4l-2-6z" fill="#06256E"/>
<path transform="translate(357,597)" d="m0 0h1v7l-3 1h-7l1-3 7-3z" fill="#264686"/>
<path transform="translate(257,371)" d="m0 0h1v24h-1l-2-20z" fill="#204183"/>
<path transform="translate(433,598)" d="m0 0 1 2 6 1 1 4h-7l-1-1z" fill="#395690"/>
<path transform="translate(293,511)" d="m0 0 2 1-7 7-2-1-2-6h7z" fill="#BDC7DA"/>
<path transform="translate(392,598)" d="m0 0 2 3-1 3-4 1-6 1 1-4 7-2z" fill="#3A5791"/>
<path transform="translate(464,597)" d="m0 0h1v7h-9l2-3 4-2z" fill="#204183"/>
<path transform="translate(903,588)" d="m0 0m-4 1h4v2l-15 4 1-3z" fill="#3A5791"/>
<path transform="translate(415,504)" d="m0 0 5 1 5-1v3l-2 1h-7z" fill="#697FAB"/>
<path transform="translate(1626,705)" d="m0 0h2l1 6-1 2h-4l-1-4 1-3z" fill="#06256E"/>
<path transform="translate(356,549)" d="m0 0 6 2v4l-3 1-4-4z" fill="#8093B8"/>
<path transform="translate(269,512)" d="m0 0 3 1 1 5h-2v-2h-3v2h-2l-1-5z" fill="#F5F6F8"/>
<path transform="translate(706,492)" d="m0 0h2l1 5 1 7-1 5h-1l-2-12z" fill="#36538F"/>
<path transform="translate(454,515)" d="m0 0 6 1v9l-3-4v-4h-2l-1 4-1-4z" fill="#FDFDFD"/>
<path transform="translate(295,499)" d="m0 0 5 1v2h-7v2h-4l1-3z" fill="#7388B1"/>
<path transform="translate(1093,407)" d="m0 0 11 7 1 2-6-1v-2l-4-2z" fill="#274787"/>
<path transform="translate(1208,667)" d="m0 0 5 1 2 3v3l-3 1-2-4z" fill="#06256E"/>
<path transform="translate(466,516)" d="m0 0 5 2 4 5-4 1-4-3v-2z" fill="#ECEFF3"/>
<path transform="translate(229,354)" d="m0 0h5l-3 6-1 8h-1z" fill="#8A9BBD"/>
<path transform="translate(255,598)" d="m0 0 3 3 5 1 1 2h-9z" fill="#284887"/>
<path transform="translate(710,513)" d="m0 0 3 4 2 11-2-1-3-10z" fill="#204183"/>
<path transform="translate(436,513)" d="m0 0 9 2-2 4h-4z" fill="#FDFDFD"/>
<path transform="translate(355,490)" d="m0 0 4 1 4 4v2l-4-1-3-2z" fill="#FDFDFD"/>
<path transform="translate(396,369)" d="m0 0h1l-1 18h-1l-1-14z" fill="#395691"/>
<path transform="translate(331,368)" d="m0 0h5l3 3 1 6h-2l-2-5-5-2z" fill="#204183"/>
<path transform="translate(234,520)" d="m0 0 4 1-1 2-5 1-1 2-1-2 1-3z" fill="#7085AF"/>
<path transform="translate(463,518)" d="m0 0h1l-1 8h-2v-6z" fill="#BFC8DB"/>
<path transform="translate(325,508)" d="m0 0 2 1v5h-2l-1-3z" fill="#FDFDFD"/>
<path transform="translate(300,531)" d="m0 0v3l-2 1v-3z" fill="#BDC7DA"/>
<path transform="translate(432,513)" d="m0 0 1 3h-2z" fill="#FDFDFD"/>
<path transform="translate(280,510)" d="m0 0h2v2h-2z" fill="#FDFDFD"/>
<path transform="translate(296,509)" d="m0 0 2 1h-3z" fill="#FDFDFD"/>
<path transform="translate(309,511)" d="m0 0h2l-1 2z" fill="#FDFDFD"/>
<path transform="translate(464,517)" d="m0 0" fill="#FDFDFD"/>
<path transform="translate(283,511)" d="m0 0" fill="#FDFDFD"/>
</svg>
