<?xml version="1.0" encoding="UTF-8"?>
<svg version="1.1" viewBox="0 0 2048 1072" width="573" height="300" xmlns="http://www.w3.org/2000/svg">
<path transform="translate(916,235)" d="m0 0h178l26 2 19 3 27 8 18 8 18 11 16 13 13 13 9 12 10 16 9 19 8 24 5 24 2 23v43l-3 27-8 32-10 25-11 19-9 12-9 10-12 12-13 10-15 9-17 8-18 6-25 5-17 2h-192v-395zm104 85-1 1v209l1 10h66l19-2 21-7 10-7 10-9 9-12 7-14 6-20 2-15v-37l-2-17-6-24-5-12-9-14-7-8-12-9-16-7-11-3-15-2-19-1z" fill="#44525B"/>
<path transform="translate(1416,235)" d="m0 0h107l5 12 8 23 19 51 10 27 22 60 11 29 9 25 42 113 16 44 4 10v2h-107l-11-30-14-39-1-2h-142l-17 52-5 17-2 2h-104l1-5 17-45 8-21 14-37 20-53 13-34 30-80 11-29 14-37 7-18 5-14 8-21zm53 102-6 14-18 52-9 25-13 37-5 15v3l102-1-1-5-14-43-10-28-10-29-11-33-3-7z" fill="#44525B"/>
<path transform="translate(202,232)" d="m0 0h606l1 4v114l-1 1h-606l-1-9v-109z" fill="#8BBCD7"/>
<path transform="translate(202,372)" d="m0 0h606l1 1v117l-1 1h-606l-1-2v-116z" fill="#6CA95F"/>
<path transform="translate(202,515)" d="m0 0 606 1 1 1v117h-607l-1-16v-101z" fill="#44525B"/>
<path transform="translate(1706,235)" d="m0 0h101l1 1 1 394-1 1h-102l-1-56v-298z" fill="#44525B"/>
<path transform="translate(827,755)" d="m0 0h12l5 3 3 5v2l8-6 9-4h11l6 3 4 5 2 7v44l-1 1h-14l-1-1-1-41-4-4h-7l-6 3h-2l-1 43h-15l-1-1-1-41-1-4h-9l-9 3-1 43h-15v-59h13l1 1v5z" fill="#45555B"/>
<path transform="translate(227,733)" d="m0 0h20l11 3 6 4 2 2v7l-7 7-5-2-9-4-5-1h-9l-6 3-1 6v2l10 3 15 4 12 5 5 5 4 8v12l-4 8-7 7-10 4h-23l-12-4-6-4-3-4 1-7 7-6 4 2 5 4 11 3h11l6-3 2-4v-5l-5-2-16-4-12-4-6-4-6-7-1-3v-12l3-7 5-6 9-5z" fill="#45555B"/>
<path transform="translate(612,755)" d="m0 0h12l10 6 1-4 5-1h11v62l-3 8-6 7-8 4-16 2-14-2-6-3-3-3 1-7 2-3h5l9 4h14l6-4 3-6 1-7-14 6h-12l-7-3-6-5-4-7-2-12 1-13 4-9 5-5 7-4zm7 13-8 4-3 5-1 4v9l4 7 4 3 3 1h8l6-3 3-4 1-4v-11l-3-7-4-3z" fill="#45555B"/>
<path transform="translate(1508,756)" d="m0 0h11l5 3 4 15 3 21 3-3 9-25 4-9 3-2h9l3 2 5 16 5 18v3l2-1 10-36 2-2 15 1-3 11-10 34-6 12-2 2h-7l-7-3-4-11-7-23-1-3h-2l-2 11-5 17-4 9-3 3-10-1-5-3-6-20-8-28z" fill="#45565B"/>
<path transform="translate(1797,733)" d="m0 0 15 1 1 4-1 78h-7l-9-3h-5l-5 3-9 1-10-2-8-7-5-8-2-10v-10l3-11 6-8 6-4 6-2h11l11 5 1-9v-16zm-18 35-6 4-4 6-1 3v10l4 8 6 4h9l7-4 3-7v-14l-3-6-7-4z" fill="#45555B"/>
<path transform="translate(1312,733)" d="m0 0 14 1 1 4-1 21-1 3 11-6 5-1h8l9 3 7 6 5 10 1 5v13l-3 10-6 8-5 4-6 2h-12l-9-3-4-3-2 5-2 1h-8l-3-2v-80zm24 35-7 4-3 6-1 12 2 8 6 4 3 1h8l6-4 4-6 1-4v-7l-2-7-7-6-3-1z" fill="#45555B"/>
<path transform="translate(449,755)" d="m0 0h11l9 3 7 8 4 11v18l-4 10-6 7-8 4h-14l-13-6 1 27-1 1h-11l-3-1-1-59v-21l8-1 7 1 2 2 6-1zm-4 13-6 4-3 5-1 12 1 8 7 5 3 1h8l8-7 2-4v-13l-4-7-5-3z" fill="#45555B"/>
<path transform="translate(282,734)" d="m0 0h15l1 1v26l12-5 4-1h9l8 3 4 4 2 4 1 9v40h-15l-1-1-1-40-3-4-9-1-10 3-1 9v33l-1 1h-14l-1-1z" fill="#45565B"/>
<path transform="translate(1629,755)" d="m0 0h14l11 3 6 5 6 10 2 9v8l-2 8-4 7-7 7-6 3-4 1h-17l-9-4-7-6-5-9-2-7v-8l3-10 6-9 9-6zm4 13-7 4-4 7-1 9 3 9 8 6h9l8-6 2-4 1-10-3-9-5-4-5-2z" fill="#45555B"/>
<path transform="translate(923,755)" d="m0 0h13l11 3 7 6 5 8 2 6v16l-5 10-4 5-9 6-4 1h-18l-8-3-7-6-5-9-2-8v-9l4-13 5-5 8-6zm3 13-6 4-4 5-1 3v12l4 6 5 4 2 1h8l6-4 4-5 1-3v-12l-4-6-5-4-3-1z" fill="#45555B"/>
<path transform="translate(1260,755)" d="m0 0h16l10 3 5 4 4 8 1 11v30l-1 4h-13l-5-1-9 2h-15l-6-4-5-6-2-7 1-8 5-8 8-4 9-1 14 3 4 2-3-9-4-4-5-2-10 1-6 3h-7l-1-1v-6l4-6zm4 33-5 2-4 5 1 8 4 3h13l6-4 1-5-3-6-7-3z" fill="#46565B"/>
<path transform="translate(371,755)" d="m0 0h14l11 3 6 7 2 5 1 8v33l-2 5h-7l-10-3-8 3h-16l-7-5-5-9v-10l3-6 7-6 8-2h8l7 3 6 3-1-9-4-5-6-2-9 1-10 4h-4l-1-7 3-5 6-4zm4 33-6 2-3 3v9l4 4h12l6-3 1-2v-8l-6-4z" fill="#46575B"/>
<path transform="translate(1433,755)" d="m0 0h15l9 3 6 5 7 14 1 4v8l-6 2-38 1 2 5 9 6h11l6-3h6l5 6-2 5-7 4-5 1h-20l-9-4-7-7-5-12v-13l3-10 9-10zm7 11-8 3-5 6-1 5 1 1h11l17-1 1-2-3-6-6-5z" fill="#45565B"/>
<path transform="translate(1037,755)" d="m0 0h13l10 3 8 7 4 8 3 11v6l-4 1h-41l3 6 9 6h11l8-4 5 3 4 5-1 3-10 5-15 2-11-2-8-5-7-8-3-7-1-5v-7l4-13 6-8 7-5zm7 11-7 2-6 7-1 5 1 1h12l15-1 1-4-4-6-4-3z" fill="#46565B"/>
<path transform="translate(715,755)" d="m0 0h17l9 3 5 5 3 5 1 5v42l-1 1h-7l-6-2-8 1-5 1h-14l-8-5-4-5-1-3v-12l3-6 5-4 5-2 9-1 11 2 6 3-1-7-3-5-9-3-10 2-6 3h-4l-2-4 1-7 5-4zm4 33-6 3-3 3v6l4 5 2 1h12l6-4 1-7-5-5-5-2z" fill="#46575B"/>
<path transform="translate(553,755)" d="m0 0h13l8 4 4 6 1 3v47h-15l-1-38-3-6-3-2h-7l-10 5-1 40-1 1h-14v-59h14l2 5 5-2z" fill="#45545B"/>
<path transform="translate(1174,756)" d="m0 0h14l3 4 12 35 2 1 11-31 4-8 3-1h13l-1 6-12 29-9 22-2 2h-15l-3-4-11-28-7-18z" fill="#46565B"/>
<path transform="translate(1383,734)" d="m0 0h15l1 42v22l-1 17-7 1-7-1-1-1z" fill="#44545B"/>
<path transform="translate(1726,733)" d="m0 0 14 1v81l-7 1-8-1v-81z" fill="#44525B"/>
<path transform="translate(1118,734)" d="m0 0h15v81h-15z" fill="#45555B"/>
<path transform="translate(1712,754)" d="m0 0h2v15l-15 3-2 1-1 42h-16v-58l1-1h11l2 1 1 3 5-1z" fill="#45565B"/>
<path transform="translate(1e3 755)" d="m0 0h4v14l-18 4-1 42h-14l-1-1-1-57 7-1 9 1 1 3h5l5-4z" fill="#45545B"/>
<path transform="translate(1149,757)" d="m0 0h15l1 1v57h-16z" fill="#46575B"/>
<path transform="translate(492,757)" d="m0 0h16v58h-15l-1-1z" fill="#485B5B"/>
<path transform="translate(1831,798)" d="m0 0h10l4 4v9l-5 5h-8l-5-5-1-5 3-7z" fill="#45565B"/>
<path transform="translate(1150,733)" d="m0 0h14l1 1v11l-2 4h-12l-2-2-1-11z" fill="#47585B"/>
<path transform="translate(493,733)" d="m0 0h13l2 1v12l-2 3h-13l-1-5v-9z" fill="#46585B"/>
</svg>
