<?xml version="1.0" encoding="UTF-8"?>
<svg version="1.1" viewBox="0 0 1200 1200" width="300" height="300" xmlns="http://www.w3.org/2000/svg">
<path transform="translate(584,203)" d="m0 0h30l25 3 24 6 21 8 19 10 18 12 10 8 17 17 10 15 11 21 5 16 2 12v27l-4 15-9 19-10 16-9 10-10 9-13 8-16 7-16 4-7 1h-22l-16-3-16-6-11-6-14-11-9-9-24-36-10-13-11-12-13-11-14-9-12-6-15-5-17-3h-25l-20 4-18 6-13 6h-2l2-6 9-16 12-18 11-13 9-10 7-8 11-10 17-13 15-9 16-8 19-8 21-6 24-4z" fill="#7F2568"/>
<path transform="translate(454,349)" d="m0 0h15l16 2 16 5 14 7 16 12 7 7 10 14 9 17 5 16 2 14v16l-4 20-7 17-10 19-10 24-6 19-3 15v28l4 19 7 18 8 14 7 9 9 10 11 10 14 10 1 3h-38l-31-4-25-6-21-8-21-11-16-11-13-11-18-18-12-16-11-18-8-16-8-20-5-16-4-17-2-11-1-12v-29l3-22 5-19 8-19 8-15 11-14 7-7 14-10 10-6 17-6 10-2z" fill="#7F2568"/>
<path transform="translate(805,351)" d="m0 0 5 5 8 13 9 17 10 24 5 15 5 23 2 18v31l-3 21-6 23-7 18-10 21-13 19-11 14-9 10-12 12-17 13-15 10-23 12-20 7-17 4-15 2h-24l-16-3-16-6-11-6-13-10-12-12-7-10-6-11-5-12-4-17-1-9v-10l3-19 5-15 7-14 10-14 10-11 14-10 14-7 17-5 14-2 33-2 24-4 20-6 16-7 14-9 11-9 9-10 7-10 6-10 6-13 4-13 3-16 1-18z" fill="#7F2568"/>
<path transform="translate(842,782)" d="m0 0h20l5 1 1 25v81l-2 1h-23l-2-4h-5l-5 5h-14l-7-5-4-8-1-21v-37l2-11 8-7 7-2 9 1 9 5 1-23zm-10 34v59l1 1h6l2-1v-58l-1-1z" fill="#050204"/>
<path transform="translate(286,782)" d="m0 0h38l2 2 7 50 7 44 1 5v7h-26l-1-1-1-19h-12l-1 19-2 1h-23l-4-1 5-38 9-68zm18 27-4 39v4h11v-9l-4-31-1-3z" fill="#050204"/>
<path transform="translate(113,782)" d="m0 0h25l1 1v23l10-5 5-1h7l7 4 5 6 1 2 1 77-1 1h-25l-1-2v-72l-8 1-1 73h-24l-2-1z" fill="#030102"/>
<path transform="translate(1130,801)" d="m0 0h15l6 4 4 5 1 3 1 76-2 1h-24l-1-1-1-58v-14l-8-1v73l-1 1h-22l-3-1-1-10v-68l1-9h25l2 3h7z" fill="#070205"/>
<path transform="translate(669,802)" d="m0 0 20 1 1 1 1 26v46l7-1 1-55 1-17 16-1h9l1 1v86l-1 1h-24l-1-6-5 3-5 4-4 1h-8l-7-4-5-5-2-9v-69l1-2z" fill="#050204"/>
<path transform="translate(779,800)" d="m0 0 9 1 8 7 2 5 1 75-1 2h-25l-1-2-1-71-8-1v73l-2 1h-22l-2-1v-86l4-1h21l2 4 5 1 2-5z" fill="#030103"/>
<path transform="translate(1049,800)" d="m0 0h13l11 3 7 5 6 9 1 3v48l-3 10-7 8-10 5-15 1-11-2-9-6-5-8-2-16v-31l2-12 6-9 9-6zm4 16-1 3v54l1 3h7v-59l-1-1z" fill="#040204"/>
<path transform="translate(619,800)" d="m0 0h9l12 3 6 4 7 8 2 5v50l-3 8-6 7-8 5-9 2h-10l-12-3-7-5-5-9-1-6v-47l3-8 7-8 10-5zm2 16-1 3v54l1 3h7l1-58-1-2z" fill="#040203"/>
<path transform="translate(471,800)" d="m0 0h13l12 3 8 7 3 8 1 15v56l-2 1h-22l-1-1v-5l-6 4-4 3-10 1-7-2-5-4-3-5-1-5v-20l3-6 10-6 16-8 4-3v-16h-7l-1 17-1 1h-23l-1-1 1-16 4-8 6-5 8-4zm8 49-6 5-1 3v15l2 4h6l1-1 1-25z" fill="#040204"/>
<path transform="translate(901,800)" d="m0 0h14l11 3 8 7 3 7 1 7v66h-25l-2-5h-3l-5 6h-15l-8-7-2-4-1-8v-14l2-7 9-6 16-8 5-4 1-2 1-14h-9v16l-2 2-17 1-5-1v-18l5-8 8-6zm8 49-6 4-1 4v17l2 2h5l2-4v-23z" fill="#030103"/>
<path transform="translate(206,800)" d="m0 0h11l11 3 6 4 5 6 3 6 1 5v23l-17 1h-18l1 28h8v-21l1-1h25v17l-3 7-5 7-8 5-13 2-12-1-10-5-5-5-4-6-1-4-1-19v-23l2-13 7-9 8-5zm2 16v18h8v-17l-1-1z" fill="#040204"/>
<path transform="translate(365,800)" d="m0 0h14l11 3 7 5 4 8v13l-1 1h-22l-1-1 1-12h-8v11l4 5 16 8 9 7 3 5 1 4v16l-3 8-4 5-9 5-7 1h-11l-9-2-8-5-4-5-2-5-1-14 1-1h22l1 1 1 13 1 1h5l2-5-1-8-5-5-14-8-10-9-3-6v-17l3-8 6-5z" fill="#040103"/>
<path transform="translate(542,782)" d="m0 0h44l2 1v20h-19v21h17v20h-16l-1 45-1 1h-25l-1-1-1-15v-91z" fill="#060205"/>
<path transform="translate(45,782)" d="m0 0h60l1 1v20l-1 1h-16v85l-1 1h-26l-1-1v-86l-4 1h-11l-1-1z" fill="#030103"/>
<path transform="translate(948,790)" d="m0 0h26l1 13 7 1v12l-2 2-5 1v40l-1 16 8 1 1 1v12l-1 1h-18l-8-2-7-6-1-3-1-52-1-9-3-4v-8l4-1z" fill="#030103"/>
<path transform="translate(411,802)" d="m0 0h27l1 2v85l-1 1h-25l-2-1z" fill="#010101"/>
<path transform="translate(990,802)" d="m0 0h26v87l-1 1h-25l-1-2v-85z" fill="#020102"/>
<path transform="translate(411,782)" d="m0 0h26l1 1v12l-5 1-22-1z" fill="#050204"/>
<path transform="translate(990,782)" d="m0 0h25l1 1v12l-25 1-2-1v-12z" fill="#090307"/>
</svg>
