<?xml version="1.0" encoding="UTF-8"?>
<svg version="1.1" viewBox="0 0 1200 1200" width="300" height="300" xmlns="http://www.w3.org/2000/svg">
<path transform="translate(619,317)" d="m0 0 3 1 11 20 8 13 17 29 13 23 14 25 10 17 45 78 20 35 1 4v101l-133 1h-7l-1-1-1-146v-159l-19 13-17 12-18 13-3 3-1 17-2 3h-3v-15l-3 1v18l-4 3h-2v-17l-4 3-1 16-3 5-3 1v-18l-3 4-1 18-3 2-1-2-1-16h-3v22h-4l-2-15-2-2 7-6 14-10 18-13 17-12 18-13 14-10 15-11 1-3v-21z" fill="#030506"/>
<path transform="translate(580,429)" d="m0 0h2v105l-6-1-21-7-9-2-6-2-16-3-3-2-17 1-1-4h-2l1 5-11 5h-5l-2 4-1 8h-2l1-7-9 5h-2l-1-6v7l-8 5-22 12h-2v-32l10-7 18-11 17-11 24-15 23-15 18-11 17-11 12-8zm-11 73v5h1v-5zm-24 2 1 2zm24 10v6h1v-6zm-24 1 1 2z" fill="#030506"/>
<path transform="translate(550,574)" d="m0 0h32v8l-38 2-24 4-20 5-19 8-5 3-2 3-1 8 3-4 1-2h2v-2l13-6 22-6 17-4 15-2h36v3l-31 1-14 1-25 5-23 7-8 5-3 9-5 1v42l-30 1-5-1v-55l4-3 18-7 27-11 24-7 20-4z" fill="#030506"/>
<path transform="translate(817,754)" d="m0 0 9 1 8 6 6-5 7-2 9 1 7 6 2 5v39l-1 1h-11l-1-1-1-35-2-4-6-1-5 3-2 4-1 33-1 1h-11l-2-7v-26l-2-7-1-1-9 1-3 3-1 3-1 14v19l-1 1h-12l-1-2v-48l1-1h10l3 4 4-2z" fill="#040607"/>
<path transform="translate(726,736)" d="m0 0h52l1 5-1 7h-38v16h35l1 1v9l-1 1h-35v19h39l1 11-2 1h-51l-1-1z" fill="#040607"/>
<path transform="translate(282,735)" d="m0 0h15l9 4 7 6 4 8v2l-9 3-5-1-5-7-3-2-7-1-9 3-4 5-3 7v18l3 8 6 5 2 1h11l5-3 5-10 9 2 5 2-3 7-4 6-7 6-8 3h-15l-10-4-8-8-5-10-1-5v-18l4-12 5-7 9-6z" fill="#030506"/>
<path transform="translate(531,737)" d="m0 0h14v62l-1 7h-10l-4-5-6 5h-14l-6-3-6-7-2-5-1-6v-9l3-12 4-5 7-4h13l9 4zm-14 27-6 4-3 10 1 10 3 6 3 2 6 1 6-3 4-6v-15l-6-8-2-1z" fill="#050708"/>
<path transform="translate(879,736)" d="m0 0 12 1v23l9-5h13l8 5 5 8 1 5v16l-3 8-5 6-6 3h-15l-7-5-1 5h-11l-1-1v-68zm21 28-5 3-3 4-1 3v12l4 8 6 3 6-1 5-5 2-8v-7l-3-8-5-4z" fill="#030506"/>
<path transform="translate(548,594)" d="m0 0 2 1v45l-1 23h-25v-59l-6-1 1-3 7-3z" fill="#030506"/>
<path transform="translate(118,737)" d="m0 0h13v19l-1 4 11-5 9-1 8 3 5 8 1 5v35l-1 1h-11l-1-1-1-28-2-11-2-1h-7l-5 3-2 4-1 33-1 1h-11l-1-1z" fill="#030506"/>
<path transform="translate(1096,755)" d="m0 0h12l3 4 9 27 2 2 6-20 4-12 1-1h13l1 2-9 24-12 33-6 9-8 3h-11l-3-5v-5l10-1 4-4v-8l-7-20-9-25z" fill="#040607"/>
<path transform="translate(346,754)" d="m0 0h8l9 2 6 5 2 8 1 37h-11l-2-5-9 5-11 1-6-2-5-5-2-4v-8l4-6 8-5 20-4-3-6-2-2h-7l-9 6-9-3 1-5 5-5 5-3zm6 29-11 3-2 4 2 6 1 1h9l5-3 2-5v-6z" fill="#040607"/>
<path transform="translate(461,754)" d="m0 0 14 1 5 3 4 5 1 3 1 40h-10l-3-4-9 4-5 1h-7l-7-3-4-5-1-3v-8l4-6 5-4 22-5-1-6-4-2-8 1-6 5-9-2-1-4 7-8 5-2zm4 29-10 3-1 1v7l4 4 9-2 4-3 1-3v-7z" fill="#040607"/>
<path transform="translate(955,754)" d="m0 0h8l9 2 5 4 2 5 1 18 1 23h-11l-4-4-7 4-12 1-7-3-4-5-1-3v-8l3-6 10-5 17-4-1-5-3-3h-7l-9 6-8-2 1-7 7-6zm5 29-11 3-1 1v6l5 5 9-2 4-5 1-8z" fill="#040607"/>
<path transform="translate(189,755)" d="m0 0h16l8 4 5 7 3 11v7l-1 1h-32l1 6 5 5 5 1 5-2 2-5 4-1 10 2-2 6-6 7-8 3h-12l-8-3-7-8-3-6-1-5v-9l4-11 6-7zm5 9-5 5-2 4v3l10 1 11-1-1-6-5-5-2-1z" fill="#040607"/>
<path transform="translate(594,755)" d="m0 0h22l6 3 3 5 1 5 1 38h-10l-2-3-5 1-5 2-9 1-8-2-5-6-1-2v-10l4-6 8-4 15-3h3l-1-7-3-2h-6l-8 5h-8l-2-2 1-5 5-6zm13 28-11 3-1 1v7l2 3 4 1 8-2 3-2 1-4v-7z" fill="#030506"/>
<path transform="translate(412,754)" d="m0 0 9 1 6 4 2 4 1 9v34h-13l-1-1-1-37-5-3-7 1-4 5-1 11v23l-1 1h-12l-1-1-1-13 1-37h9l3 2 2 4 5-5z" fill="#050708"/>
<path transform="translate(1007,754)" d="m0 0h9l10 3 5 4 2 6-2 2-7 1-5-3-3-2h-11l-2 1 1 4 10 3 13 4 7 6 1 2v10l-4 6-6 4-8 2h-11l-9-3-6-5-2-3v-5l12-1 4 5 3 1h9l4-2v-4l-18-5-8-4-4-5-1-2v-10l5-6 7-3z" fill="#040607"/>
<path transform="translate(669,754)" d="m0 0 9 2 5 4 2 5v41h-12l-1-1-1-36-3-3-7-1-6 4-1 3-1 33-1 1h-11l-2-2v-48l1-1h10l2 1 2 5 7-6z" fill="#050708"/>
<path transform="translate(1062,754)" d="m0 0 14 1 8 4 3 5v4l-4 1h-8l-5-4h-12l-2 5 16 4 11 4 6 6 1 3v7l-6 8-8 4-4 1h-12l-9-3-6-5-2-4v-4l13-1 2 5 4 1h10l3-2v-4l-13-4-10-3-5-4-3-7 1-8 4-6 7-3z" fill="#040607"/>
<path transform="translate(63,736)" d="m0 0h44l2 1-1 10-1 1h-19v57l-1 1h-12l-1-1v-57h-20l-2-1 1-10z" fill="#030506"/>
<path transform="translate(567,553)" d="m0 0h14l1 1v6l-5 1-25 1-20 2-20 4-24 7-21 9-22 10 9-3 19-9 14-6 30-8 15-3 22-2h27v1l-6 1-32 2-14 2-22 5-18 6-49 21h-1l-1-10 16-8 25-12 19-7 23-6 26-4z" fill="#050708"/>
<path transform="translate(561,593)" d="m0 0 21 1v68l-1 1h-16l-1-64-4-5z" fill="#030506"/>
<path transform="translate(509,601)" d="m0 0 4 1-2 1-1 59-1 1h-17l-1-14v-37l-5-1-2-2 17-6z" fill="#050607"/>
<path transform="translate(558,755)" d="m0 0h13l1 3v46l-1 2h-12l-1-1z" fill="#030506"/>
<path transform="translate(537,385)" d="m0 0h2l-2 4-10 10-6 4-7 6h-3l-6 6-5 3-11 10-15 11-14 11-11 9-10 8-3 1 1-4 13-11 10-8 24-18 14-11 17-13 13-11z" fill="#050708"/>
<path transform="translate(461,466)" d="m0 0 3 1-3 3-2 16-6 5-2-1 2-7 1-8-3 3-2 5-1 10-8 6-2-1 2-3h2l2-12-3 4v4h-2l-2-4 1-4 12-9h3v-2z" fill="#060809"/>
<path transform="translate(513,428)" d="m0 0h3v21l-3 2-2-7v-10h-3v21l-4 1-2-19 5-4z" fill="#030506"/>
<path transform="translate(560,736)" d="m0 0 11 1 1 2-1 9h-13v-11z" fill="#040607"/>
<path transform="translate(461,466)" d="m0 0 3 1-3 3-2 16-6 5-2-1 2-7 1-8-2-1 5-5z" fill="#030506"/>
<path transform="translate(480,452)" d="m0 0h2l-1 5-1 15-7 6-2-1 3-4v-13l-2-1z" fill="#07090A"/>
<path transform="translate(523,421)" d="m0 0h1v23h-4l-2-15-2-2z" fill="#050708"/>
<path transform="translate(537,385)" d="m0 0h2l-2 4-10 10-6 4-7 6-2-3 10-9 11-9z" fill="#07090A"/>
<path transform="translate(470,460)" d="m0 0h2l-2 16-1 2 2 1-5 4h-2l1-19z" fill="#050708"/>
<path transform="translate(490,445)" d="m0 0 1 3-1 17-4 4-2-1 1-19z" fill="#030506"/>
<path transform="translate(498,439)" d="m0 0 3 1-1 9v9l-4 4h-1l-1-19z" fill="#07090A"/>
<path transform="translate(507,433)" d="m0 0h1v22l-4 1-2-19z" fill="#050708"/>
<path transform="translate(499,530)" d="m0 0h1v15l-5 1v-14z" fill="#030506"/>
<path transform="translate(545,525)" d="m0 0h1v10h-1z" fill="#1C1D1E"/>
<path transform="translate(610,323)" d="m0 0 2 1-4 4-2-1z" fill="#1C1D1E"/>
<path transform="translate(500,521)" d="m0 0h1v9h-1z" fill="#030506"/>
<path transform="translate(603,329)" d="m0 0 2 1-3 3-2-1z" fill="#030506"/>
<path transform="translate(521,531)" d="m0 0h1v7h-1z" fill="#262829"/>
<path transform="translate(598,333)" d="m0 0 2 1-4 2z" fill="#030506"/>
<path transform="translate(614,320)" d="m0 0 2 1-4 2z" fill="#030506"/>
<path transform="translate(593,337)" d="m0 0 2 1h-3z" fill="#414343"/>
<path transform="translate(545,426)" d="m0 0 2 1-2 1z" fill="#030506"/>
<path transform="translate(566,533)" d="m0 0 2 1z" fill="#030506"/>
<path transform="translate(521,528)" d="m0 0" fill="#808181"/>
<path transform="translate(616,319)" d="m0 0 2 1z" fill="#030506"/>
<path transform="translate(477,660)" d="m0 0" fill="#030506"/>
<path transform="translate(454,548)" d="m0 0" fill="#030506"/>
<path transform="translate(493,462)" d="m0 0" fill="#030506"/>
<path transform="translate(590,340)" d="m0 0" fill="#FDFDFD"/>
<path transform="translate(591,339)" d="m0 0" fill="#030506"/>
<path transform="translate(595,336)" d="m0 0" fill="#030506"/>
<path transform="translate(605,328)" d="m0 0" fill="#030506"/>
</svg>
