<?xml version="1.0" encoding="UTF-8"?>
<svg version="1.1" viewBox="0 0 2048 1152" width="533" height="300" xmlns="http://www.w3.org/2000/svg">
<path transform="translate(545,112)" d="m0 0h489l33 2 31 4 29 6 30 8 29 10 28 12 17 8 23 13 20 12 14 10 19 14 14 12 13 11 16 15 10 10v2l4 2v2h2v-152l1-1h326l29 2 27 4 29 7 25 8 21 8 31 15 20 12 16 11 16 12 14 12 10 9 19 19 9 11 10 12 13 18 12 19 12 22 9 19 10 26 7 22 5 23 3 14 4 34 1 16v21l-2 22-4 31-5 24-7 25-10 27-11 24-9 17-15 24-14 19-11 13-9 11-20 20-11 9-9 8-12 9-16 11-21 13-21 11-28 12-27 9-34 8-35 5-33 3v195l-3 2h-311l-1-1v-151l-7 6-21 21-8 7-10 9-14 11-13 10-16 11-19 12-19 11-16 8-27 12-24 9-19 6-26 7-30 6-30 4-31 2h-313l-2-1v-197h-217l-17 1-15 26-17 29-15 26-10 17-15 26-13 22-15 26-13 22-3 3h-366l1-4 14-25 15-25 12-21 10-17 15-26 10-17 15-26 14-24 17-29 14-24 15-26 13-22 15-26 14-24 10-17 8-14 10-17 15-26 10-17 28-48 15-26 10-17 14-24 15-26 13-22 15-26 42-72 15-26 10-17 14-24 15-26 10-17 11-19 17-29 15-26 8-13 14-25 10-16zm69 116-6 9-13 23-16 27-16 28-13 22-15 26-10 17-15 26-10 17-15 26-10 17-14 24-15 26-16 27-13 23-9 15-16 28-9 15-15 26-56 96-12 21-13 22-15 26-14 24-15 26-12 20-15 26-7 12v1h96l6-9 9-16 28-48 15-26 16-27 12-21 14-24 11-19 4-6v-2h417v198h203l29-3 19-3 22-5 25-8 21-8 25-12 18-10 21-14 10-7 16-13 12-11 15-14 9-11 9-10 10-13 16-24 12-21 5-10 148-1v198h82l1-198h108l24-1 31-4 20-5 24-8 20-9 21-12 17-12 11-9 15-14 10-10v-2h2l8-10 11-15 9-15 12-23 7-18 6-21 4-16 3-27 1-20-2-25-2-18-6-24-7-21-7-17-12-22-12-18-11-14-11-12-13-13-11-9-15-11-18-11-19-10-21-8-14-5-16-4-28-4-18-1h-203l-1 1v296l-117 1-8-36-7-25-10-26-14-29-13-22-11-16-10-13-11-13-9-10-21-21-14-11-10-8-16-11-18-11-23-12-19-9-33-11-18-5-19-4-33-4-21-1z" fill="#EE2A23"/>
<path transform="translate(919,311)" d="m0 0h115l36 4 28 7 25 9 25 12 20 12 17 13 13 11 5 4v2l4 2 12 13 12 14 9 13 12 19 11 22 10 26 6 22 4 21 2 22v35l-3 28-6 26-9 27-13 28-12 20-12 16-9 11-11 12-11 11-11 9-17 13-21 13-17 9-23 9-23 7-18 4-20 3-10 1-30 1h-88l-2-1v-115l91-1 22-1 26-4 20-7 16-8 14-9 11-9 10-9 11-14 7-10 10-19 6-18 4-17 1-16v-14l-1-18-6-24-9-21-9-15-10-13-9-10-11-9-14-10-19-10-17-6-9-3-25-3-109-1-1-1z" fill="#EE2A23"/>
<path transform="translate(1565,311)" d="m0 0h127l27 4 27 9 16 8 18 12 13 11 13 13 10 13 11 18 7 15 6 18 4 16 2 31-2 27-7 26-9 21-10 17-9 12-11 12-9 9-15 11-15 9-19 9-20 6-8 2-23 2h-124l-1-1v-113l1-2 122-1 10-2 13-7 7-6 7-11 4-11v-22l-4-11-6-10-7-7-10-6-10-3-6-1-120-1-1-1v-114z" fill="#EE2A23"/>
<path transform="translate(722,311)" d="m0 0h115v330l-1 1h-366l2-6 8-13 16-28 28-48 12-20 1-1h184v-214z" fill="#EE2A23"/>
<path transform="translate(1799,895)" d="m0 0 16 1 14 4 13 7 10 8 9 10 6 10 5 14 2 10v17l-3 14-5 12-7 11-11 11-14 9-15 5-12 2h-11l-16-3-12-5-13-9-10-10-8-14-5-13-3-15 1-14 5-17 8-15 10-11 12-9 16-7 8-2zm-10 14-14 5-9 6-8 7-9 13-5 12-1 5v22l4 13 6 10 9 10 9 7 11 5 14 3h13l16-4 10-5 10-9 7-8 6-12 3-12v-19l-3-12-7-13-11-12-14-8-12-4z" fill="#EE2A23"/>
<path transform="translate(1776,924)" d="m0 0h33l9 2 8 5 5 6 2 7v7l-3 7-5 6-5 2-1 2 4 2 5 6 2 7 3 18 1 8-3 1h-12l-2-2-5-29-4-5-3-1-18-1v37l-2 1h-11l-1-2v-83zm12 13-1 1-1 18 1 3h18l7-2 3-3 1-3v-8l-5-5-11-1z" fill="#EE2A23"/>
</svg>
