<?xml version="1.0" encoding="UTF-8"?>
<svg version="1.1" viewBox="0 0 1936 1200" width="484" height="300" xmlns="http://www.w3.org/2000/svg">
<path transform="translate(338,421)" d="m0 0h35l26 1 10 14 12 14 11 15 11 13 10 11 9 14 9 11 8 8 13 17 4 8 4 2-1-6v-121l1-1h75l1 1v256h-61l-10-13-12-15-9-12-8-10-9-10-10-13-10-14-14-15-9-13-7-10-3-2v127h-76l-1-255z" fill="#12324E"/>
<path transform="translate(610,421)" d="m0 0h213l2 1v62l-1 1h-139l1 2v31h110l1 1v63l-1 1-110 1v31h138l1 1v62l-210 1-6-1v-256z" fill="#12314E"/>
<path transform="translate(857,421)" d="m0 0h69l54 1 12 2 13 5 13 7 9 7 7 7 7 11 5 12 3 14v21l-3 13-7 17-7 13-2 1-2-7-3-16-6-12-6-7v-2l-4-2-8-7-8-4-17-4-44-1v121l21-1 39-1 16-3 19-6 14-7 13-8 9-6 8-9 13-20 5-11 5-17 3-20 3-1 3 17 2 23v20l-2 22-4 15-8 16-10 14-11 13-8 8-22 13-16 8-21 6-14 2-129 1-3-1-1-2v-254z" fill="#BB322C"/>
<path transform="translate(240,494)" d="m0 0h45l1 1v52l-2 1-53 1-31 2-20 3-16 5-11 7-7 11-4 8h-2l-3-18-1-19 2-15 5-10 6-7 10-7 11-5 17-5 21-3z" fill="#BB322C"/>
<path transform="translate(235,567)" d="m0 0h51v43l-54 1-30 3-20 4-10 4-4 9-7-5-7-10-3-7-1-9 2-9 2-4 11-6 15-6 24-5z" fill="#658E88"/>
<path transform="translate(240,494)" d="m0 0h45l1 1v52l-2 1h-40v-1l19-1 5-4 9-3h3l1-2h4l-1-16-6-10-1-4-2-1v-2h-8l-2-2-8-2-4 1-6-2-14 2-5 1-15 2-7 5h-2l-2 4-5 4h-2v2l-4 2h-3l-1 4-4 4-2 4h-2l-1 4-6 5-4 6-1 5 5 2-3 2-12 6-5 4-6 10-4 8h-2l-3-18-1-19 2-15 5-10 6-7 10-7 11-5 17-5 21-3z" fill="#B54244"/>
<path transform="translate(251,447)" d="m0 0h34l1 2v27l-1 1-42 1-37 3-23 3-15 4-16 8h-2l2-5 7-8 12-12 8-7 14-9 10-4 16-2z" fill="#668E88"/>
<path transform="translate(1186,392)" d="m0 0h10l1 5-1 313-10-1z" fill="#12314E"/>
<path transform="translate(255,624)" d="m0 0h15l15 1 1 1v26l-47 2-13 2-4 4-2 6-6-2-19-10-13-9-3-3 2-4 12-6 15-4 23-3z" fill="#BC342E"/>
<path transform="translate(251,447)" d="m0 0h34l1 2v27l-1 1h-46l-3-9 6-19 1-1z" fill="#173751"/>
<path transform="translate(1495,489)" d="m0 0 8 2 4 10 6 21 9-25 3-6 6-1 4 4 9 25v2h2l1-6 7-23 6-2 4 1-8 26-6 16-4 4-5-2-5-12-5-15-2-1-10 24-5 6-4-1-4-8-7-21-4-14z" fill="#163651"/>
<path transform="translate(1383,629)" d="m0 0 5 2 6 5 13 18 2 1 13-19 6-6 5-1 1 47-1 1h-8l-1-5v-23h-2l-7 10-5 7-4-1-11-13-4-5v29l-1 1h-7l-1-1v-26z" fill="#183752"/>
<path transform="translate(1561,630)" d="m0 0h15l12 1 6 3 5 7v12l-7 9 6 8 4 5v2h-7l-5-3-10-11-2-1h-7l-2 4-1 10-2 1h-6l-1-1v-34l1-11zm15 8-7 2-1 1v11l1 1h17l4-2 1-7-5-5z" fill="#173751"/>
<path transform="translate(1517,421)" d="m0 0h7l5 5 10 11 11 14 1-30h8l1 1v33l-1 13h-5l-11-13-7-8-8-9-2-1 1 3v26l-1 2h-7l-2-1z" fill="#1A3952"/>
<path transform="translate(1473,420)" d="m0 0h14l9 4 6 7 3 7 1 8-2 8-7 9-8 5-4 1h-9l-10-5-6-7-4-8v-9l5-10 8-8zm4 8-8 6-4 9 1 7 7 8 4 2h7l6-3 5-6 1-2v-10l-4-6-5-4-3-1z" fill="#163550"/>
<path transform="translate(1328,490)" d="m0 0 5 1 5 4 10 14 9 10 2 2 1-31 10 1v44l-1 2-7-1-9-9-7-8-10-12-1-1 1 18v12h-9v-44z" fill="#193953"/>
<path transform="translate(1338,560)" d="m0 0h10l9 3 5 4 5 8 2 7-1 9-4 7-5 5-5 4-4 2h-11l-10-5-7-9-2-6v-9l4-10 7-7zm4 8-8 4-5 7-1 8 6 10 6 3h8l6-4 4-5 1-2v-9l-4-7-6-4z" fill="#173651"/>
<path transform="translate(1464,629)" d="m0 0h9l8 3 5 3 6 9 2 11-2 9-8 10-7 4h-15l-9-6-6-8-3-9 2-9 6-9 7-6zm1 9-7 5-5 10 1 6 6 8 10 4 6-2 5-4 4-8v-7l-3-6-6-5-2-1z" fill="#163651"/>
<path transform="translate(1696,490)" d="m0 0 7 2 7 8 12 16 5 5 2-30h8v45h-6l-5-3-9-11-12-15-1 29-2 1h-6l-1-1v-45z" fill="#183852"/>
<path transform="translate(1385,491)" d="m0 0h25l10 5 6 9 1 4v10l-3 7-5 6-7 4-4 1h-21l-2-1zm14 7-5 3-1 13 1 14 3 2 10-1 8-5 3-5 1-5-3-9-5-5-5-2z" fill="#163651"/>
<path transform="translate(1381,561)" d="m0 0h28l6 3 4 5 2 5v7l-3 6-4 4h-2l9 12 3 5h-8l-5-5-7-10-6-1h-9v16h-7l-1-1zm18 8-9 1-1 2v12l1 1h19l4-3-1-9-3-3-3-1z" fill="#153550"/>
<path transform="translate(1577,490)" d="m0 0 4 2 8 9 10 15h3l11-18 4-6 7-1 1 1v44h-9v-27l-10 14-4 3-5-1-10-11-4-5-1 27-4 1-2-1v-29z" fill="#163651"/>
<path transform="translate(1457,489)" d="m0 0h11l9 4 6 8 3 7v12l-3 7-7 8-6 3h-14l-8-4-5-6-3-7-1-9 2-8 3-6 8-7zm6 8-9 3-5 6-2 4v9l6 8 6 3h8l7-4 4-6v-12l-4-7-5-3z" fill="#163651"/>
<path transform="translate(1274,490)" d="m0 0h13l23 1v8l-2 1-24-1-1 12h20l5 1v6l-25 1-1 10h27l1 1v7h-36z" fill="#183852"/>
<path transform="translate(1274,631)" d="m0 0h26l6 3 5 6 3 6 1 11-3 9-5 7-5 3-5 1h-22l-1-1-1-8v-36zm10 8-2 1-1 5v20l1 4 2 1h11l6-3 6-7 1-8-3-8-5-4-2-1z" fill="#173751"/>
<path transform="translate(1274,420)" d="m0 0 6 2 7 7 7 8 10 11v2l3 1v-29l1-1h7v38l-1 9-4-1-16-17-11-11-1-2v21l-1 10h-7l-1-19v-27z" fill="#193751"/>
<path transform="translate(1332,630)" d="m0 0h35l2 2-1 7h-29v12h24l1 6h-25v12h28l2 2v5l-1 1h-36l-1-8v-38z" fill="#193752"/>
<path transform="translate(1557,765)" d="m0 0 7 1 3 8 6 17 2-2 6-22 6-2 4 3 6 18 3 4 5-12 3-12h5l1 1-1 10-3 11-5 12-4 4-5-1-10-24-2-1-3 12-4 13-5 1-4-4-8-20-3-10z" fill="#B44042"/>
<path transform="translate(1644,490)" d="m0 0h35l1 1v8h-30l1 12h24l1 1v6h-26v11h29l1 1v7h-35l-1-1z" fill="#1B3B54"/>
<path transform="translate(1592,420)" d="m0 0h7l5 8 7 18 6 20v2l-7-1-3-7v-3l-24 1-4 9-7 1 1-5 3-9 6-19 5-10zm1 12-3 5-3 9 1 4 3 1h7l5-1-4-14-5-4z" fill="#173651"/>
<path transform="translate(1348,420)" d="m0 0h6l4 4 12 28 5 15-5 1-5-4-2-7-22 1-4 9-2 1h-7l3-9 7-20 6-15zm0 12-3 7-2 11 4 1h8l4-1-3-10-5-8z" fill="#163651"/>
<path transform="translate(1632,629)" d="m0 0 6 1 5 7 5 14 5 15 3 8v3h-6l-4-5-2-7-21 1-3 4-2 6-6 1-1-5 9-25 8-15zm1 12-4 5-4 10v2l11 1 7-1-4-12-4-5z" fill="#173651"/>
<path transform="translate(256,420)" d="m0 0h29l1 1v11l-51 2-24 3-16 4 5-5 19-9 16-5z" fill="#1A3953"/>
<path transform="translate(1274,560)" d="m0 0h34l1 1v10h-12l-15-1v14l11-1 15 1-1 5-25 1v18h-7l-1-1-1-20v-26z" fill="#183852"/>
<path transform="translate(1749,766)" d="m0 0h25l5 2 4 5 2 5v13l-5 8-7 4-8 1h-12l-4-4-1-9v-24zm10 7-2 2v21l6 2 9-2 5-5 2-3v-8l-5-6-2-1z" fill="#B44042"/>
<path transform="translate(1523,629)" d="m0 0h12l7 3 3 4v5l-8-1-3-1h-9l-6 3-4 5-2 9 4 8 5 4 5 2 8-1 7-4 3 1-1 8-4 3-3 1h-16l-6-4-6-7-4-9v-9l6-12 7-6z" fill="#173651"/>
<path transform="translate(1160,766)" d="m0 0h25l6 4 2 4v8l-5 8 2 5 4 6-1 3-6-1-9-10-2-1h-7l-1 9-1 2-5 1-2-1-1-9v-27zm10 6-2 1-1 3v8l5 2h8l4-2v-10l-3-2z" fill="#B44042"/>
<path transform="translate(1683,629)" d="m0 0h11l8 4 3 7-1 1-7-1-4-1h-8l-5 3-4 4-2 5 1 9 4 6 4 3 7 1 10-5 3 1 1 4-3 5-5 3h-14l-6-3-8-9-4-10 1-8 4-8 5-5 5-4z" fill="#163450"/>
<path transform="translate(1041,765)" d="m0 0 5 1 7 7 8 11 4 2 2-4 7-12 6-5h3l1 3v35h-6l-1-1v-23l-5 5-7 10h-4l-11-13-1-1-2 23h-6l-1-1z" fill="#B44042"/>
<path transform="translate(1670,766)" d="m0 0h25l6 4 2 3v11l-5 7 1 4 6 4v4h-7l-10-10-9-1-1 4v6l-6 1-3-1v-18zm9 6-1 1v12l14 1 3-2 1-7-3-4-3-1z" fill="#B44042"/>
<path transform="translate(1009,764)" d="m0 0 13 2 7 6 4 9v7l-4 8-7 6-5 2h-12l-6-4-5-6-2-4v-10l5-10 5-4zm1 7-5 2-6 8v7l5 8 4 2h6l8-6 2-4v-8l-4-6-7-3z" fill="#B44042"/>
<path transform="translate(1632,765)" d="m0 0h14l6 3 5 6 2 5v12l-4 6-7 6-3 1h-13l-6-4-6-7-2-5 1-8 5-9 6-5zm5 6-5 3-5 6-1 5 3 8 5 4 8 1 6-4 3-5v-10l-6-7z" fill="#B44042"/>
<path transform="translate(522,765)" d="m0 0h14l8 4 5 7 1 3v11l-4 7-8 6-3 1h-11l-7-4-6-7-1-2v-12l6-10zm3 7-5 4-3 6 1 8 5 6 4 2 7-1 6-5 2-3v-9l-6-7-2-1z" fill="#B44042"/>
<path transform="translate(819,766)" d="m0 0h22l7 2 3 3 1 8-2 7-3 3v7l5 2 1 5h-6l-5-4-5-6-9-1-1 2-1 9h-8v-26zm9 6-2 4v9l1 1h15l2-2v-10l-2-1z" fill="#B44042"/>
<path transform="translate(949,766)" d="m0 0h20l7 3 6 7 1 3v11l-4 6-7 6-7 2h-14l-3-5v-28zm10 6-4 4v16l2 5 6 1 8-4 4-6v-8l-5-6-5-2z" fill="#B44042"/>
<path transform="translate(1299,766)" d="m0 0 6 1 12 15 7 7 2 1v-23l1-1h7l1 2-1 34-5 1-22-22-2-1 1 9v13l-1 1-7-1v-25z" fill="#B44042"/>
<path transform="translate(663,766)" d="m0 0 6 1 8 7 12 13 3 3 1-24h6l1 1v35l-4 1-8-7-18-18v24l-2 2-5-1-1-3v-12z" fill="#B44042"/>
<path transform="translate(1212,765)" d="m0 0h16l6 3 5 6 2 6v10l-4 7-7 6-2 1h-15l-6-4-5-8-1-3v-8l4-10zm6 6-5 3-6 7v7l4 6 6 4h7l6-4 5-7-1-8-8-7z" fill="#B44042"/>
<path transform="translate(560,766)" d="m0 0h26l4 2 2 6v9l-3 9 4 7 1 4-8-1-4-5v-2l-5-2-11-2-1 12h-5l-1-1v-35zm7 6-1 1v12l1 1h17l1-3v-8l-1-2-5-1z" fill="#B44042"/>
<path transform="translate(722,765)" d="m0 0h13l6 3 3 6 2 8 1 1v9l-3 5-5 5-5 2h-12l-8-5-5-8-1-9 4-9 4-5zm6 6-6 2-5 6-1 2v7l5 7 5 3h6l6-5 2-4v-12l-6-5z" fill="#B44042"/>
<path transform="translate(1346,766)" d="m0 0h22l7 3 4 6 1 3v12l-3 6-5 5-4 2-6 1h-11l-5-2-1-2v-27zm9 6-2 1-1 4v18l3 3h8l7-4 4-6v-8l-4-6-6-2z" fill="#B44042"/>
<path transform="translate(1499,766)" d="m0 0h31v7l-23-1v9h19l1 4-1 1h-19v11h22l2 5-1 2h-26l-5-1z" fill="#B44042"/>
<path transform="translate(1249,766)" d="m0 0h9l1 3v19l2 5 5 4 7-1 4-5 1-7v-18h9v21l-3 9-5 5-6 3h-10l-6-3-5-6-3-10z" fill="#B44042"/>
<path transform="translate(1379,421)" d="m0 0h41v8l-14 1-1 37-5 1-4-1-1-37-15-1-1-1z" fill="#173651"/>
<path transform="translate(1451,765)" d="m0 0h7v16h20v-8l1-7 7-1v38h-7l-1-17-20 1v16h-8v-37z" fill="#B44042"/>
<path transform="translate(426,766)" d="m0 0h26l5 3 2 7-1 11-5 5-4 1h-14l-2-1-1 11-4 1-3-3v-25zm9 6-2 1v13l6 1h8l5-2 1-6-2-5-4-2z" fill="#B44042"/>
<path transform="translate(906,766)" d="m0 0h30l1 1v6l-24-1v9h18l1 4-1 1h-17v11h22l1 1v5l-2 1h-26l-3-1-1-36z" fill="#B44042"/>
<path transform="translate(413,765)" d="m0 0 2 1v22l-4 10-7 5-3 1h-10l-6-3-5-6-2-6v-22l1-1h7l1 23 2 5 4 3 8-1 4-5 1-3 1-22z" fill="#B44042"/>
<path transform="translate(470,766)" d="m0 0h24l5 3 3 6v9l-5 6-3 2-5 1h-14l1 3v7h-7l-1-15 1-21zm9 6-3 2v12l12 1 5-2 2-5-2-6-2-2z" fill="#B44042"/>
<path transform="translate(1129,765)" d="m0 0h6l4 8 6 17 5 11-1 3-7-2-4-6v-2h-15l-5 8-2 1h-7l2-5 11-25 5-7zm-1 11-3 6 1 5h10l1-5-5-6z" fill="#B44042"/>
<path transform="translate(1749,491)" d="m0 0h42v7l-2 1h-14l1 37-1 1h-8l-1-3 1-35h-10l-8-1z" fill="#14344F"/>
<path transform="translate(345,765)" d="m0 0h14l5 2 1 1v7l-6-1-4-2h-9l-2 6 10 3 12 5 1 1v9l-4 6-5 2h-13l-7-3-2-3v-5l12 4h8l2-3-1-6-16-4-5-4-1-5 4-7z" fill="#B44042"/>
<path transform="translate(864,766)" d="m0 0h30l1 3-1 4h-11l-13-1v9h19l1 3-1 2h-18v10l1 1h17l5-1v7l-1 1h-26l-2-1-1-4z" fill="#B44042"/>
<path transform="translate(1716,629)" d="m0 0 6 2 7 8 8 11 4-4 9-16 7-1-1 5-9 16-4 7-1 3-1 16-1 1h-6l-2-2v-16l-13-19-4-8z" fill="#163550"/>
<path transform="translate(1630,421)" d="m0 0h9l1 4-1 34h22l1 1v8h-31l-1-21z" fill="#14344F"/>
<path transform="translate(1098,501)" d="m0 0h2l3 17 2 23v20h-1v-7h-2v-2l-5 1-5 5v-2l-3-1 1-2h-3v-4l-2-1 5-12 5-19 2-15z" fill="#B43F41"/>
<path transform="translate(776,765)" d="m0 0 31 1 1 3-1 4h-23l1 9h17l1 2-2 5-17-2v16h-8z" fill="#B44042"/>
<path transform="translate(262,664)" d="m0 0h23l1 1v8l-1 1-29 1-7 2-4 2-5-2-2-2v-8l1-1z" fill="#1B3751"/>
<path transform="translate(599,766)" d="m0 0h34l1 1v5l-1 1-11 1-1 29-3 1-4-1-1-29-13-1-1-1z" fill="#B44042"/>
<path transform="translate(1407,766)" d="m0 0h35v6l-1 1-13 1-1 29h-7l-1-29-10-2-2-2z" fill="#B44042"/>
<path transform="translate(221,626)" d="m0 0 4 1-2 5-6 4-6 2-9 5-9 2-3 1-5-1-2-2-4-1 2-4 12-6 15-4z" fill="#B43F41"/>
<path transform="translate(1713,766)" d="m0 0h7l1 1v30l19-1 2 7-2 1h-24l-1-1-1-9z" fill="#B44042"/>
<path transform="translate(1435,421)" d="m0 0h8v46l-1 1h-7z" fill="#1E3750"/>
<path transform="translate(179,464)" d="m0 0 3 2-1 6-2 6-1 7-15 5-11 6h-2l2-5 7-8 12-12z" fill="#FDFDFD"/>
<path transform="translate(1047,511)" d="m0 0 1 3-4 13-11 23-3 2-2-7-2-15 5-3 1 2 3-2h3l-1-3h2l1-5 3-3h2z" fill="#B43F41"/>
<path transform="translate(644,766)" d="m0 0h7l1 1v36h-8z" fill="#B44042"/>
<path transform="translate(285,528)" d="m0 0h1v19l-2 1h-40v-1l19-1 5-4 9-3h3l1-2h4z" fill="#B44042"/>
<path transform="translate(953,610)" d="m0 0h31l-3 2-7 1v-2h-21z" fill="#B44042"/>
<path transform="translate(733,780)" d="m0 0 4 1v7h-4l-1-7z" fill="#B44042"/>
<path transform="translate(194,441)" d="m0 0" fill="#FDFDFD"/>
</svg>
