<?xml version="1.0" encoding="UTF-8"?>
<svg version="1.1" viewBox="0 0 2048 1137" width="540" height="300" xmlns="http://www.w3.org/2000/svg">
<path transform="translate(1016,229)" d="m0 0h26l23 3 24 5 27 9 16 8 16 10 11 9 16 16 6 10 2 7-3 7-3 3-5-1-21-9-20-6-31-6h-6l11 10 8 7 7 7 7 8 11 13 11 15 12 18 5-4 9-14 5-13 3-7 6 2 6 4 1 3v7l-3 12-6 11-10 13-5 6 7 14 10 26 8 29 3 21 1 12v22l5-5 7-12 4-14 2-12 1-11v-33l-2-19-6-25-6-17 1-7 5-4h7l5 5 5 10 6 19 5 26 2 15v31l-5 30-7 25-8 19-11 21-9 13-9 12-12 13-11 11-11 9-17 12-16 9-22 10-24 8-21 4-24 2h-16l-22-2-22-4-20-6-21-9-17-9-15-10-10-8-10-9-8-7-11-12-12-16-11-18-8-16-6-15-6-18-5-24-2-17v-32l3-24 5-21 7-19 8-18 10-18 10-14 11-13 9-10 13-12 17-13 13-8 23-12 19-7 22-6 24-4zm-5 21 3 3 19 8 5 1-3-7-5-4-3-1zm45 2-1 2 5 9 3 3 5-2 9-7v-2l-8-2zm45 13-9 5-1 3 26 4 8 2h6v-4l-19-9-4-1zm-137 3-14 2-8 3-7 7-7 12-4 13v7l10-4 16-8 27-11 25-7 17-4 2-2-8-3-25-4-8-1zm-61 27-13 12-13 14-11 15-11 18-8 16-6 15 1 3 9-10 7-9 12-14 9-9 8-7 13-10 6-5-1-29zm124 1-22 5-20 6-26 10-21 11-7 5 6 8 9 11 7 7 14 11 9 5 7-10 10-16 12-18 13-18 9-11 3-4v-2zm24 8-11 13-11 14-12 16-12 19-10 17 1 3 30 10 25 5 16 2v-10l-3-33-6-40-4-16zm23 3 1 5 3 9 5 34 4 41 1 6 11-1 21-5 21-8 3-2-1-5-7-11-9-12-9-11-18-20-12-11-10-7zm-162 37-14 12-12 11-7 7-11 14-12 18-8 15-6 16-1 7 4 10 10 16 13 15 9 9 11 9 17 12 9 6h3l7-23 11-33 12-30 16-34 3-6-1-3-11-7-10-8-10-9-11-12-8-12zm72 59-8 16-12 25-11 28-12 36-5 18v6l20 9 21 7 32 8 24 4 25 3 2-7 4-26 3-31 1-15v-61l-36-6-20-5zm168 1-20 8-21 6-22 4-3 82-4 42-1 8v9l14-1 27-4 26-7 20-8 10-6 2-5 1-13v-22l-2-21-5-24-7-21-10-26zm-315 78 1 8 6 21 8 19 8 15 12 18 12 14 17 17 8 6 1-3v-30l1-14 2-9-9-6-17-11-13-10-13-11-14-14-8-10zm94 71-1 4-1 17v15l2 16 3 8 4 5 8 5 21 8 18 5 25 4h20l5-4 8-14 5-13 6-21v-5l-1-1-25-3-28-5-36-9-28-11zm236 12-26 8-23 5-22 3-20 2-3 9-7 25-8 21 2 1 25-7 19-7 16-8 15-9 10-8 14-14 11-18 1-3z" fill="#173255"/>
<path transform="translate(1016,229)" d="m0 0h26l23 3 24 5 27 9 16 8 16 10 11 9 16 16 6 10 2 7-3 7-3 3-5-1-21-9-20-6-31-6h-6l11 10 8 7 7 7 7 8 11 13 11 15 12 18 5-4 9-14 5-13 3-7 6 2 6 4 1 3v7l-3 12-6 11-10 13-5 6 7 14 10 26 8 29 3 21 1 12v22l5-5 7-12 4-14 2-12 1-11v-33l-2-19-6-25-6-17 1-7 5-4h7l5 5 5 10 6 19 5 26 2 15v31l-5 30-7 25-8 19-11 21-3 3v-3l-17 1h-17l-4 1-15-7-7-1v-2l20-8 10-6 1-4 1-13v-22l-2-21-5-24-7-21-10-26-7 1-14 6-19 6-21 4h-6v27l-2 55-2 24h-1l-1-13-9-4-6 1-2 5h-1l2-33 1-61-13-1-23-4-20-5-27-9 3-4-3-12-4-9v-3l-5-1 8-14 20-30 13-18 9-11 4-6-29 7-24 8-3-1-1-8-1-6-1-3-2-2 21-7 29-7 1-1-17-4-29-4 2-1 2-17v-9l-1-3-2-2 20-4zm-5 21 3 3 19 8 5 1-3-7-5-4-3-1zm45 2-1 2 5 9 3 3 5-2 9-7v-2l-8-2zm45 13-9 5-1 3 26 4 8 2h6v-4l-19-9-4-1zm-50 39-11 13-11 14-12 16-12 19-10 17 1 3 30 10 25 5 16 2v-10l-3-33-6-40-4-16zm23 3 1 5 3 9 5 34 4 41 1 6 11-1 21-5 21-8 3-2-1-5-7-11-9-12-9-11-18-20-12-11-10-7z" fill="#67BADC"/>
<path transform="translate(972,237)" d="m0 0h5l2 6v9l-3 15-2 1-24 3-8 3-8 9-7 14-2 8v6l23-11 19-8 5 1 1 3 1 6 1 8-1 2-19 8-17 9-6 4 6 8 9 11 12 11 14 10 6 1v2h2l5 12 3 12-5 4-14 29-12 28-12 34-2 6-2-4-4-3v-2h-11l-2 1 3-11 11-30 9-21 13-28 4-8v-2l-11-7-10-8-10-9-7-7-10-13-2-4-4 1-11 9-10 9-2-4-4-10-4-3-14 14v-3l13-13 8-7 13-10 5-4v-29l-10 8-12 12-1-14-2-9-8 7-3 2 2-4 10-10 11-9 14-11 13-8 23-12 19-7z" fill="#1C486F"/>
<path transform="translate(1070,510)" d="m0 0 6 1 8 4v22l-3 26 41-6 22-6h7l10 4 9 4 6-1h32l-1 6-13 18-14 15-10 10-11 9-17 12-16 9-7 3-2-4-5-3-12-2-6-2 3-2 20-9 18-11 10-8 13-13 11-18 1-2-9 2-24 7-26 5-35 4-8 30-4-4h-16l-1 2 2-10 4-14v-5l-25-3-28-5-12-3-1-2h3l-2-10-2-5h-3v-2l-3-1-3-4 7 1 31 7 27 4 16 2 5-32 3-16z" fill="#1C486F"/>
<path transform="translate(385,720)" d="m0 0 23 1 3 13 10 44 3 7 4-15 8-32 6-17 2-1h13l3 3 13 50 3 10v3l2-1 8-38 7-25 2-2h20l1 4-9 30-12 43-5 15-3 3h-16l-5-2-3-8-7-25-5-20-3 7-14 47-1 1h-15l-8-1-7-24-18-64z" fill="#173355"/>
<path transform="translate(1053,720)" d="m0 0h18l4 2 11 20 9 16 8 14 1 3h2l-1-9v-45l1-1h19l1 1v93l-1 1h-17l-3-1-11-18-15-26-5-7-2-1 1 5v47l-2 1h-17l-1-1-1-50v-43z" fill="#183557"/>
<path transform="translate(884,720)" d="m0 0h42l10 2 9 6 5 10v15l-6 12 10 10 2 5 1 9-2 9-6 10-5 4-5 2-11 1h-44zm22 17-2 3v15l1 3 2 1h14l6-3 2-3v-9l-5-5-6-2zm-1 36-1 1v23l1 1h20l6-3 3-4v-10l-5-5-5-2z" fill="#173255"/>
<path transform="translate(1332,720)" d="m0 0h42l13 3 8 6 4 5 3 8v15l-5 10-6 6h-2l1 5 10 17 3 2 7 2 2 2v12l-3 2h-16l-6-3-7-8-10-19-3-3-3-1-11-1v34l-1 1h-17l-3-1zm22 17-1 1v26l1 1h14l9-4 4-5 1-7-4-8-9-4z" fill="#163254"/>
<path transform="translate(615,720)" d="m0 0h39l12 2 8 4 6 7 4 10v13l-4 9-7 8-2 1 1 4 10 17 2 2 9 2 1 1v14l-2 1h-14l-7-1-8-9-9-17-4-5-4-2-11-1v34l-1 1h-17l-2-1-1-67v-26zm23 17-3 2v23l1 3h13l7-2 6-5 1-2v-10l-4-6-9-3z" fill="#173355"/>
<path transform="translate(1451,719)" d="m0 0h12l9 2 10 5 9 9 6 12 2 8v24l-3 12-6 10-9 9-9 4-4 1h-22l-10-3-9-7-6-8-4-8-2-8-1-9v-10l3-16 5-10 7-8 10-6zm-1 19-6 4-5 6-3 9-1 13 2 13 5 9 5 4 5 2h9l8-4 6-7 2-6 1-15-2-15-6-9-8-4z" fill="#173355"/>
<path transform="translate(773,720)" d="m0 0h32l13 2 9 4 9 6 8 12 3 9 1 6v20l-3 12-6 10-8 8-8 4-3 1-13 1h-34zm21 17-1 1v59l1 1h16l7-3 5-5 3-4 2-6v-23l-4-10-7-6-7-3-5-1z" fill="#173254"/>
<path transform="translate(1277,719)" d="m0 0h11l9 2 10 6 6 7 5 10 1 8-5 2-14 2-4-11-7-6-7-1-8 2-5 5-4 7-2 7v19l3 8 6 8 7 3h8l8-4 3-5 1-6-1-1h-16l-3-2v-13l3-1h37l1 7-1 17-3 9-7 9-8 6-7 2h-22l-10-3-9-7-7-11-4-11-1-5v-22l4-13 4-8 7-8 11-6z" fill="#173355"/>
<path transform="translate(557,719)" d="m0 0 14 1 11 4 9 7 6 8 5 11 2 13-1 17-4 13-7 10-8 7-8 4-6 1h-18l-9-2-8-5-7-7-7-14-2-9v-20l3-13 5-10 8-8 11-6zm4 18-9 2-7 6-4 8-2 13 1 14 4 10 8 7 3 1h11l6-3 5-5 4-8 1-5v-19l-4-11-5-6-6-3z" fill="#173355"/>
<path transform="translate(1511,720)" d="m0 0h20l1 1v53l1 12 4 7 4 3 10 1 7-3 4-5 1-5 1-64h21v58l-2 16-4 8-5 6-10 6-5 1h-22l-9-3-8-7-6-9-3-11z" fill="#173356"/>
<path transform="translate(1145,720)" d="m0 0h19v40l5-4 13-18 7-10 5-7 2-1h22l-1 4-24 32-8 11 4 6 12 15 12 16 7 10v1h-23l-5-5-13-18-11-14-4-3 1 38-2 2h-15l-4-1-1-93z" fill="#173255"/>
<path transform="translate(997,720)" d="m0 0h15l5 10 12 33 9 24 9 25v3h-19l-3-2-6-19-1-1h-31l-6 20-2 2h-11l-11-1 8-19 14-39 10-28 3-6zm6 28-3 5-6 18 1 5h17l-1-7-6-19z" fill="#173355"/>
<path transform="translate(1601,720)" d="m0 0h40l10 2 10 5 5 6 4 8 1 4v16l-3 8-7 9-10 5-10 2-19 1-1 29h-19l-1-1zm24 17-4 2v27l1 2h17l6-3 4-5 1-3v-9l-3-6-4-3-10-2z" fill="#163255"/>
<path transform="translate(712,720)" d="m0 0 12 1v77h40v17h-59l-2-4v-90z" fill="#183456"/>
<path transform="translate(1161,276)" d="m0 0 7 6 7 7 6 10 2 7-3 7-3 3-5-1-16-7-1-7v-8l1-7 5-8z" fill="#FEFEFE"/>
<path transform="translate(1183,334)" d="m0 0 6 2 6 4 1 3v7l-3 12-5 9-3-3-12-6v-4l5-11 4-12z" fill="#FEFEFE"/>
<path transform="translate(1212,357)" d="m0 0h7l5 5 5 10 1 5-16 4-2 4-6-17 1-7z" fill="#FEFEFE"/>
</svg>
