<?xml version="1.0" encoding="UTF-8"?>
<svg version="1.1" viewBox="0 0 2000 2000" width="500" height="500" xmlns="http://www.w3.org/2000/svg">
<path transform="translate(1017,148)" d="m0 0h63l47 2 51 4 43 5 45 7 60 12 51 13 37 11 18 7 8 3v-35l4-1v38l34 12 30 13 36 17 23 12 14 9 5-2 13-10 15-12 9-6h2l-1 4-14 11-17 14-4 4 2 2 16 8 19 12 21 14 16 11 18 13 17 13 16 13 10 8 15 13 10 9 8 7 13 13 2 1v2h2l7 8 9 9 7 8 13 15 11 14 10 13 14 19 16 23 12 19 12 20 12 21 12 22 11 22 14 32 16 42 9 29 9 33 8 39 6 42 3 36 1 31-2 36-3 29-4 26-7 33-10 34-11 31-12 28-16 33-12 22-12 20-12 19-12 17-14 19-12 16-10 13-9 11-11 13-9 10-7 6 3 10 18 44 17 41 20 49 14 34 14 33 15 36 1 2v7l-2 5v39l3 28v23l-6 18-7 16-6 20-1 7 3 6 5 5 15 13 13 13v1l-15 1-70 1-242 1 9 19 17 40 3 9-4-2-12-26-5-12-13-28-149-1 1 5 1 49-6-1-36-17-22-12-15-8-33-15-345-1h-93l-7 1-13 15-8 7h-5l-10-9-12-9-5-2-12 2-16 1-13 4-11 5-7 2-10-1-8-3-12-7-10-6h-22l-14 2h-23l-7 1-8 17-13 30-12 28-5 11-4 8-3 1 1-5 12-30 1-3-12-5-20-8-6-2-15 24-12 19-6 9-3 1 1-5 14-23 12-19 11-18-1-5-21-21-6 1-22 13-26 16-22 13-6 2 2-4 13-8 54-32 10-6h2l6-62 1-8-50 8-32 5-36 7-78 17-49 11-63 14-88 19-40 10-41 9-13 3h-5v-2l15-4 35-8 15-4 2-1-1-5-12-39-4-15-2-12v-15l3-15 5-12 8-12 7-11 4-14 4-7 10-6 8-6 4-9 5-22 9-10 8-5 15-4h20l7 1h16l12-2 12-6 8-31 3-21 1-3-52 2h-10l-1 3-7 2h-29l-6-2-5-2-42-2-53-1v-3l102-1h39l64 1v-8l4-36 4-43 4-27 5-19 10-24 7-15 4-17 6-42 4-37 2-52v-12l-4-15-10-32-7-28-13-2-7-3-1-7 9-45 10-51 1-9-12-3-28-11-20-9-19-9-16-8-29-15-23-14-15-10-14-10-12-9-11-9-16-15-8-8-7-8-13-17-12-19-12-25-9-24-7-24-5-23-3-23-1-14v-24l3-32 6-27 7-24 9-24 12-25 12-21 8-12 10-14 12-16 9-10 9-11 7-7 2-3h2l2-4 12-12 8-7 11-10 25-20 19-14 19-13 21-13 19-11 27-15 35-17 36-16 42-17 35-13 34-12 58-18 67-18 51-12 48-10 42-8 49-8 58-8 48-5 72-5z" fill="#151C21"/>
<path transform="translate(1017,148)" d="m0 0h63l47 2 51 4 43 5 45 7 60 12 51 13 37 11 18 7 8 3v-35l4-1v38l34 12 30 13 36 17 23 12 14 9 5-2 13-10 15-12 9-6h2l-1 4-14 11-17 14-4 4 2 2 16 8 19 12 21 14 16 11 18 13 17 13 16 13 10 8 15 13 10 9 8 7 13 13 2 1v2h2l7 8 9 9 7 8 13 15 11 14 10 13 14 19 16 23 12 19 12 20 12 21 12 22 11 22 14 32 16 42 9 29 9 33 8 39 6 42 3 36 1 31-2 36-3 29-4 26-7 33-10 34-11 31-12 28-16 33-12 22-12 20-12 19-12 17-14 19-12 16-10 13-9 11-11 13-9 10-8 6-3-5-10-23-13-32-9-21-12-29-15-36-14-35-6-14v-2l2-1 70-1-1-5-5-2-9-6-9-3-24-1-7-7-11-9-12-9-16-8-11-26-20-49-15-36-18-43-7-17h-2l-14 29-6 14h-2l-5-11-13-28-11-24-8-16-18-38-15-31-13-28-13-27-13-28-18-37-13-28-15-31-13-28-14-29-11-24-8-16-24-51-6-12-6-13-1-5v-49l3-1 13 4 16 2 21 1 46 1 3 1v17l3 6 4 3 8 2h48l44 3 4 1-7-14-9-15-10-18 1-3 31-12 6-3v-2l-20-12-18-8-18-6-24-4-17-1-5-1-1-6-1-23-5-2-9-3-12-2h-31l-20 2h-14l-12-2-13-5-5-5-1-5-1 162-13 28-11 24-8 16-16 34-15 31-11 24-7 15-14 28-7 16-3 1-11-2h-8l-7 3-12 9-5 1-14-5-13-1-15 5-11 4-19 3-33 4-11 2v1l147 1-1 7-16 34-12 26-8 16-18 38-10 22-8 16-12 25-7 13h-2l-8-20-15-37-40-96-12-29-4-9-2 1-14 32-11 25-13 29-13 30-20 45-14 32-32 72-13 30-5 11-13 30-9 20-18 41-7 16-2 3-22-3-10-1-17 3-11 4-19 11-7 3h-16l-25-7-7-1h-11l-12 3-11 7-15 13-9 6-8-1-31-11-12-2h-11l-15 3-16 6-19 9-11 3-17 2h-8l1-18 5-54 2-9 26-6v-7l-18-69-16-59-17-61v-6l12-16 14-20 8-12 13-18 10-15 17-25 11-16 10-14 1-6-7-6 1-5 7-11 1-3-8-6-2-2 1-5 6-15 9-6 8-6 13-3 3-7 6-4 1-2 2-21 2-4 4-3 2-8v-5l8-2 54-8 20-4 6-4 2-5v-7l-3-7-7-4-24 3-86 13-35 5-21 4-6 4-5 1-22-1-4-4-1-2-7-1v2l-4 1-2-4-10 1-5 5-6 12-15 2h-12l1-2v-10l-7-21-1-4 5-7 1-3v-10l-3-9-9-10-11-8h-3l-2 6-9-3-10-4-13-1-9 3-5 8-24 4-12 5-7 6-9 14-5 11-3 11-1 7v11l3 18 7 23 6 15 5 10-1 9-3 5v6l-10-2-6-2h-7l-2 13-4 1-10-2v18l-4 24-7 33-6 36-1 9v23l3 15 8 33 5 17 12 42v10l-2 3v3l4-6v3l-1 3-1 16h-1l-1-5-4 20h-1v-5l-12-3-28-11-20-9-19-9-16-8-29-15-23-14-15-10-14-10-12-9-11-9-16-15-8-8-7-8-13-17-12-19-12-25-9-24-7-24-5-23-3-23-1-14v-24l3-32 6-27 7-24 9-24 12-25 12-21 8-12 10-14 12-16 9-10 9-11 7-7 2-3h2l2-4 12-12 8-7 11-10 25-20 19-14 19-13 21-13 19-11 27-15 35-17 36-16 42-17 35-13 34-12 58-18 67-18 51-12 48-10 42-8 49-8 58-8 48-5 72-5z" fill="#D8F7E9"/>
<path transform="translate(856,1193)" d="m0 0h340v1l-12 1h-127l-4 47-3 29-1 5 9-1-2-3 22-1 10-2h6l-2 2 30-1 135-1h430l10-1-9-7-14-8-11-5-12-3h-19l-16 1 2-4 14-1h19l16 4 16 8 12 8 9 8v3l-5 1h-19l1 4 4 2v5l-25 1 1 61 3 149 5-5 14-19 11-16 13-18 11-16 10-13 8-9 2 1 3 82v29l-3 7-6 7-8 11-2 2 1 6 14 22 8 14 7 16 4 12v5l-7-1-27-11-37-14h-3l-10 53-1 11 4 4 21 14 16 12 16 13 11 9 15 14 8 7 8 8 7 1 21-2h31l19 4 18 7 19 10 6 4 7 4 13 12 7 6 2 4-15 1-70 1-242 1 9 19 17 40 3 9-4-2-12-26-5-12-13-28-149-1 1 5 1 49-6-1-36-17-22-12-15-8-33-15-345-1h-93l-7 1-13 15-8 7h-5l-10-9-12-9-5-2-12 2-16 1-13 4-11 5-7 2-10-1-8-3-12-7-10-6h-22l-14 2h-30l6-12 8-13 9-16 34-51 7-19 15-46 10-30 5-16 1-7-65-19-1-2 14-32 18-41 19-43 36-81 18-41 13-29 11-25 24-54 7-15z" fill="#B8B9B8"/>
<path transform="translate(427,525)" d="m0 0 13 1 12 5 7 3 1-6 4-1 11 8 8 8 4 7 1 5v10l-6 12 7 19 1 4v10l-1 1h11l15-2 7-14 4-3 7-1 3 1 3 3h3v-2h7l3 5 2 1 22 1 7-2 4-3 21-4 74-11 68-10 6 1 5 4 3 7v7l-3 6-6 4-26 5-54 8h-2l1 6-3 8-4 3-2 11-1 13-4 5-4 1-1 6-2 2-13 3-11 8-5 3-6 15-1 5 7 6 3 2-2 4-6 10-1 5 7 6-1 6-8 11-13 19-17 25-15 22-10 14-13 19-13 18-6 8 1 10 16 57 22 82 12 46v7l-9 3-14 3h-4l-4 40-4 41 18-2h5l1 3-23 3-1 1v7h326v1l-12 1-2 1-1 3v-2l-311 1-2 10-4 47-4 27-9 43-9 37-14 54-10 36-9 33-3 19-2 27 78 1v1l-8 1-26 1-44 1-1 4-1 24 1 3 5 3 3 8 22 14 14 6 15 9 4 5-2 6-5 4-6 2-16 1-26-1-27-4-10-2-25-2v2l5 2 15 8 8 6 1 7-4 4-6 2-15 2-18 1h-29l-18-2-22-5-2-1h-8l-6 2-24-6-4-5-1-4-1-34-1-8 8-34 2-15 1-3-52 2h-10l-1 3-7 2h-29l-6-2-5-2-42-2-53-1v-3l102-1h39l64 1v-8l4-36 4-43 4-27 5-19 10-24 7-15 4-17 6-42 4-37 2-52v-12l-4-15-10-32-7-28-13-2-7-3-1-7 23-115 1-7 2 2 1-11 1-4-3 5-1-4 2-3v-10l-4-14-7-23-5-19-6-23-5-21-1-7v-23l3-23 8-42 5-23 2-14 1-18 13 1 2-13 1-1h7l13 4h2l1-7 3-6v-6l-9-19-6-18-5-21-1-8v-11l3-15 5-12 7-12 4-5 9-7 10-4 24-4 5-8z" fill="#5CE1AA"/>
<path transform="translate(856,1193)" d="m0 0h340v1l-12 1h-127l-4 47-3 29-1 5 9-1-2-3 29-1v2l-18 3-30 4-1 3h272v1l-260 1-1 16-6 59 1 9 8 11 13 16 9 11 13 16 2 2 11-27 8-19 4-9h2l1 33 3 84 4 94v16l-9-5-13-10-16-11-23-16-17-12-3-2-1 1-4 56-5 87-1 23-6-1-25-11-9-4h-6l-2 4-7 7-8 7-26 26-8 7-17 17-2 5 16 1v1l-62 7-40 5-14 2-1 1 72 1v3l-12 14-8 7h-5l-10-9-12-9-5-2-12 2-16 1-13 4-11 5-7 2-10-1-8-3-12-7-10-6h-22l-14 2h-30l6-12 8-13 9-16 34-51 7-19 15-46 10-30 5-16 1-7-65-19-1-2 14-32 18-41 19-43 36-81 18-41 13-29 11-25 24-54 7-15z" fill="#B8B9B8"/>
<path transform="translate(1061,1284)" d="m0 0h248l5 10 15 36 18 44 16 38 10 24 16 39 14 34 5 11v2l4-1 2-5 13-16 13-17 13-16 3 2 10 25 24 56 19 45 11 25 12 29 4 8-2 4-18 18-10 8-12 7-6 2-7 1h-12l-28-4-16-3-10-1h-17l-20 4-12 5-11 6-15 9-11 5-3 1h-15l-16-3-25-7-14-3h-11l-16 4-14 7-11 9-11 10-12 9-7 3-10-1-21-7-16-6-19-5-8-1h-16l-11 2-24 8-29 14-12 5-9 2-56 6-8 1h-24l3-7 23-23 8-7 26-26 8-7 5-5 6 1 30 13 8 3v-23l6-104 3-39 2-2 17 12 23 16 20 14 18 13 2 1v-15l-5-116-3-85v-8l1-2h-2l-1 6-5 10-13 31-4 9-5-5-13-16-14-17-13-17-2-6 1-14 5-50 2-16z" fill="#DADBDB"/>
<path transform="translate(554,728)" d="m0 0 3 4 2 91 1 2 5-7 3-1-1 6-6 8-13 19-13 18-6 8 1 10 16 57 22 82 12 46v7l-9 3-14 3h-4l-4 40-4 41 18-2h5l1 3-23 3-1 1v7h326v1l-12 1-2 1-1 3v-2l-311 1-2 10-4 47-4 27-9 43-9 37-14 54-10 36-9 33-3 19-2 27 78 1v1l-8 1-26 1-44 1-1 4-1 24 1 3 5 3 3 8 22 14 14 6 15 9 4 5-2 6-5 4-6 2-16 1-26-1-27-4-10-2-25-2v2l5 2 15 8 8 6 1 7-4 4-6 2-15 2-18 1h-29l-18-2-22-5-2-1h-8l-6 2-24-6-4-5-1-4-1-34-1-8 8-34 2-15 1-3-52 2h-10l-1 3-7 2h-29l-6-2-5-2-42-2-53-1v-3l102-1h39l64 1v-8l4-36 4-43 4-27 5-19 10-24 7-15 4-17 6-42 4-37 2-52v-12l-4-15-10-32-7-28-13-2-7-3-1-7 23-115 1-7 2 2v9l-16 80-6 28-1 8 3 1 26 4 32 5 38 4 22 1h15l21-1 44-5 16-3v-13l-5-68-2-47v-23l-8-53-10-52-3-12-20 1-49 4-14 1-5 5-17 28-4 1 2-5 10-18 4-6 1-4-8 1-8 6-10 10-11 9-10 9-15 12-3 2h-4l2-4 8-6 16-13 13-12 8-7 6-5 1-2h-46l-11-4-6-4-6-7-2-5v-5h2l5 10 8 7 7 3 6 1h40l22-1 82-7 38-3 17-3 1-2-1-58-1-39z" fill="#1D2D35"/>
<path transform="translate(545,1181)" d="m0 0h311l-1 6-14 31-14 32-13 29-11 25-8 18-15 34-12 27-18 41-18 40-13 30-11 25-14 31-2 5-16-4-109-32-10-2-78-1-1-1 2-27 3-19 13-48 12-44 12-47 9-39 7-37 2-15 4-47 2-10z" fill="#FCFCFC"/>
<path transform="translate(1531,1147)" d="m0 0h112l7 17h4l10-9 6-6 4 1 7 8 12 13 7 7 7 8 9 10 5 6 3 1 1-14 3-18h2l11 28 14 33 30 72 13 31 12 29 16 38 12 29 16 40 20 48 13 32 6 15 9 21-1 6v39l3 28v23l-6 18-7 16-6 20-1 7 3 6 5 5 1 2-5-2-16-9-13-6-15-5-15-3h-31l-26 2-8-7-8-8-8-7-10-9-11-9-17-14-14-10-25-17-1-3 3-21 8-42 4-1 21 8 41 16 9 3-5-17-4-10-12-22-14-22 1-5 8-10 9-12 1-4v-29l-3-82-5 5-7 8-11 15-11 16-13 18-12 17-12 16h-2l-1-2-4-193v-15l1-1h25l-1-5-5-3 1-4h24l-3-5-10-8-17-10-13-5-10-2h-19l-14 1-17-16-11-9-13-10-18-12-15-8-15-4h-21l-9 2 2-6 7-9 13-13 8-10z" fill="#DADBDB"/>
<path transform="translate(479,1519)" d="m0 0h70l16 2 21 6 170 50 1 4-10 15-7 11-8 4-37 12-43 11-8 10-10 15-20 28-12 11-11 9-5 4-22 5-36 6-25 4-38 7-41 9-39 9-40 9-36 8-150 33-4-1-1-5-12-39-4-15-2-12v-15l3-15 5-12 8-12 7-11 4-14 4-7 10-6 8-6 4-9 5-22 9-10 8-5 15-4h20l7 1h16l12-2 12-6h2l1 5 1 34 3 7 8 3 17 4 6-2h8l14 4 17 3 11 1h29l18-1 19-3 4-2 1-5-2-5-15-9-11-6v-2h13l17 2 23 4 9 1 34 1 11-2 6-3 3-5-2-5-9-6-26-13-18-12-3-8-5-3-1-3 1-24z" fill="#FCFCFC"/>
<path transform="translate(1251,705)" d="m0 0h101v1h-20l-2 16-12 86-9 65-6 47-7 49v5l9-20 13-28 14-30 11-26 8-19 3-6 2 1-1 63-1 129-1 72 5-5 11-13 10-13 11-13 10-13 10-12 11-14 7-9 7-8h1v118h15v1l-20 3-2 2h45l44 1-1 6-8 16-8 18-7 13-5 4-13 6-10 6-12 11-8 6h-8l-19-3-11-1h-9l-12 2-32 16h-7l-23-7-7-1h-9l-13 4-5 1-8-20-16-38-8-20-17-41-30-72-12-29-10-24-10-25-10-24-16-38v-6l12-25 7-16 8-16 14-29 13-28 15-31 11-23 7-11 8-10z" fill="#B8B9B8"/>
<path transform="translate(1453,651)" d="m0 0 3 3 10 22 8 16 11 24 14 29 13 28 15 31 13 28 18 37 13 28 16 33 13 28-3 10-7 15-18 38-11 24-13 28-12 26-7 14-12 2-16 6-15 4-25 3h-25l-1-116-9 9-8 11-13 16-9 11-8 10-13 16-20 25h-2v-72l1-129 1-63-7 14-11 26-10 23-17 36-9 20-5 10h-1l1-11 5-39 6-43 7-53 5-35 12-86 1-2h20l2 6 7 28 3 2 2-8 10-29 73-1-1-3-4-3 1-3h15l-4-7-9-6-5-3 1-6 9-21z" fill="#DADBDB"/>
<path transform="translate(1589,1633)" d="m0 0h25l19 5 16 7 19 10 19 12 19 14 16 13 13 11 12 11 8 7 10 9 4 3h19l21-2h13l23 4 20 8 15 8 12 8 11 8 11 9-3 2h-1053l-7-1 2-2 19-2 48-5 38-5 32-3 22-4 28-13 14-6 22-7 15-2h8l17 3 46 16 5 1h9l11-6 14-12 9-8 14-9 10-4 13-3 13 1 24 6 18 5 6 1h17l10-3 14-7 9-6 16-8 13-4 13-2h16l20 3 23 4 9 1h13l13-3 12-6 10-8 14-14 8-7 10-9 15-10 12-5z" fill="#FBFBFB"/>
<path transform="translate(1039,900)" d="m0 0 11 7 17 12 24 16 14 10 3 1 1-6 7-25 4 1 7 9 14 15 12 13 7 8 14 15 10 10 7 11 15 36 29 70 15 36 34 82 5 12v2l-17 9-8 7-6-2-17-6-12-3h-14l-15 4-16 7-12 5-17 3-46 5-22 3-30 3-1 3 10 1v1l-8 1h-9l2-25 5-53 1-3 127-1 12-1-1-4-5-5v-3l21-1-1-3-8-7-12-9-21-11-17-5h-44l-8-7-10-9-11-10-14-11-11-8-18-11-17-9-17-5-5-1h-16l-16 5-12 7-11 10-11 9-7 7-7 5-8 3h-17l-3-1 1-6 13-29 11-25 12-27 8-15 11-12 10-10 9-11 12-13 9-11 12-12 9-11 16-17 7-8z" fill="#DADBDB"/>
<path transform="translate(1361,290)" d="m0 0 2 1 2 7 10 5 10 3 8 1h14l20-2h31l16 3 10 5 1 4 1 25 22 1 24 4 23 8 17 8 17 11-2 4-28 11-8 3 2 5 10 19 9 15 4 7v3l-48-3h-48l-10-3-5-6-1-8 1-12-49-1-21-1-21-3-10-3v50l4 10 8 18 8 16 15 31 9 20 8 16 19 40 18 38 17 36 19 40 16 33 13 28 13 27 11 23 16 34 13 27 26 56 4 9v2h2l3-9 11-24 6-11 3 1 18 43 12 29 15 36 18 44 8 19 12 5 11 8 10 8 6 5v3l-4-1-13-11-14-9-11-4h-11l-11 4-10 9-8 6-9 1v-2h5v-2l8-4 11-11 8-4 3-1 12-1-8-18-19-46-35-84-6-15-3 4-11 25-16 34-15 33-15 32-13 28-17 36-4 4-1-3 8-17 13-28 14-30 11-24 10-22 7-15 7-16-2-6-17-36-12-25-16-34-17-35-13-28-15-31-13-28-15-31-11-24-14-30-2 2-9 21 1 5 9 5 5 4-1 2-2-1v2h-168l-120 1 8 1v1h-78v-3l25-4 34-4 13-4 13-5 4-1 13 1 14 5 6-2 14-10 4-1h8l13 2 12-26 14-29 11-23 16-34 13-27 11-24 8-16 15-32 2-5z" fill="#14181D"/>
<path transform="translate(1632,1241)" d="m0 0h19l16 4 16 8 12 8 9 8v3l-5 1h-19l1 4 3 3v3l-230 1-21 45-12 26-14 30-11 25-7 14-8 17v6l4 9 20 48 4 10v2l5-5 9-12 12-15 7-9 11-14 3 1 12 27 18 43 13 30 22 52 13 32 4 9 8-6 14-9 15-7 18-4h15l20 4 19 7 16 8 11 6 22 15 16 12 16 13 11 9 15 14 8 7 8 8 7 1 21-2h31l19 4 18 7 19 10 6 4 7 4 13 12 7 6 2 4-15 1-70 1-242 1 9 19 17 40 3 9-4-2-12-26-5-12-13-28-149-1 1 5 1 49-6-1-36-17-22-12-15-8-33-15-345-1h-101l-72-1-2-2 17-3 26-3 21-3 55-6 41-5 30-3 12-3 25-12 16-7 24-8 8-1h16l17 3 24 8 20 7 7 2 10-1 11-8 10-9 11-9 10-7 12-5 13-3h11l26 6 17 5 12 2h15l12-5 16-9 8-5 10-5 19-5 7-1h17l15 2 30 5 9 1h12l10-2 12-6 9-7 12-11 11-11-2-5-12-29-13-30-17-40-15-35-11-26-10-25h-3l-33 42-6 8-3 3h-2l-6-13-14-34-16-39-26-62-19-46-15-36-4-8-272-1 1-4 38-5 10-1v-3l9-1-2 2 30-1 135-1h430l10-1-9-7-14-8-11-5-12-3h-19l-16 1 2-4zm-43 392-17 5-14 7-12 9-10 9-15 14-8 8-14 9-7 3-11 2h-13l-27-4-16-3-9-1h-16l-17 3-16 6-17 10-10 6-11 4-4 1h-17l-21-5-22-6-11-2-13 1-15 5-12 7-13 11-10 9-11 7-4 2h-9l-17-5-34-12-17-3-17 1-16 4-20 7-31 15-12 3-23 3-38 4-30 4-40 4-19 2-2 2 14 1h1046l3-2-13-11-15-10-15-9-20-9-16-4-13-2h-13l-21 2h-19l-20-18-8-7-10-9-11-9-15-12-14-10-15-10-19-11-19-9-16-5-8-2z" fill="#1C2C34"/>
<path transform="translate(1792,1500)" d="m0 0 5 2 6 4 7 3 7 5 4 4 19 12 25 17 14 9 9 5 5 5 9 21-1 6v39l3 28v23l-6 18-7 16-6 20-1 7 3 6 5 5 1 2-5-2-16-9-13-6-15-5-15-3h-31l-26 2-8-7-8-8-8-7-10-9-11-9-17-14-14-10-25-17-1-3 3-21 8-42 4-1 21 8 5 2v2l10 3 34 14 15 5 5 2h3l5-51 4-31z" fill="#FCFCFC"/>
<path transform="translate(983,1076)" d="m0 0h13l19 5 16 8 18 11 16 12 11 9 14 12 8 8 7 6h44l13 3 18 8 14 9 9 7 1 3-12 1h-647l-1-1v-7l2-2 30-4 12-4 16-8 18-6 9-2h11l19 5 22 8 11 1 10-6 12-11 14-9 6-2 12-1 15 3 22 6h11l12-4 21-12 17-5h18l27 5h20l9-4 11-8 14-14 14-11 13-6z" fill="#FBFBFB"/>
<path transform="translate(800,375)" d="m0 0h14l14 3 16 7 16 9 18 13 14 11 14 12 16 15 2 1h43l16 4 17 8 15 10 7 6v2h-665l-31-1-1-2 29-4 33-4 13-3 19-9 13-5 10-3h30l19 7 12 4h9l8-4 11-10 12-9 12-5h17l28 8h15l10-3 19-11 13-5 13-2 16 1 25 5h16l12-5 9-7 10-9 9-9 11-8 10-5z" fill="#FBFBFB"/>
<path transform="translate(1623,917)" d="m0 0 3 4 8 20 35 84 19 46 5 12-13 1-9 4-16 14-5 1v2h-5v2l9-2 8-6 7-7 10-5 4-1h11l11 4 15 10 13 11 3 1 1-2 5 5 24 1 11 4 10 7 4 4-1 3-72 1 12 28 11 28 13 31 12 29 9 21 18 44 9 20 12 31 16 38 40 98 15 35 14 34 4 9v7l-3-3-8-19-8-20-12-29-10-24-12-29-12-31-10-23-12-29-65-156-18-43-3-8v-3h-2l-2 18-2 14-4-1-11-12-7-8-11-12-7-7-7-8-4-5-4 1-12 12-4 3-4-2-6-15v-2l-40 1h-74l-1 3-3-2-13 14-1 2h-2l1-5 7-13 3-3-3-1 2-1-1-7h-89v-3l6-2 51-6 15-4 19-7h9 3l15-31 13-28 17-37 9-19 11-24 13-28 12-27z" fill="#1C2C34"/>
<path transform="translate(750,570)" d="m0 0 6 1 5 4 3 7v7l-3 6-6 4-26 5-54 8h-2l1 6-3 8-4 3-2 11-1 13-4 5-4 1-1 6-2 2-13 3-11 8-5 3-6 15-1 5 7 6 3 2-2 4-6 10-1 5 7 6-1 6-8 11-13 19-17 25-15 22-3 3-1-2-8 8-1-3-2-89h-1l-2-12-1-32-12-2-1-3-15-5-16-3-1 1-3 6-5 71-2 7h-11l-4-2-7-9-7-8-10-6 1-5 7-1 6-1 1-2-6-2-11-7-3-3 1-5 5-9 2-2 18-1 7-3 2-4-1-9-3-4 2-5 3-17 8-10 2-6-1-7 7-1 1 11 2 2 2-17 7-17 7-14 3-3h6l2 1v7l4-1 3-6 2-3h5l3 5 2 1 22 1 7-2 4-3 21-4 74-11z" fill="#151A20"/>
<path transform="translate(1069,708)" d="m0 0 3 1 11 28 12 28 28 68 15 36 16 39 14 33 13 31 3 9-4-2-15-16-9-11-7-7-7-8-9-9-9-11-7-7-3 4-7 25-1 2-5-2-13-9-22-15-17-12-8-5-4-1-2 4-7 7-9 11-16 17-9 10-7 8-11 12-7 8-9 10-9 11-5 5-5 6h-2v2h-2l2-6 13-29 16-36 14-31 15-34 13-30 17-38 18-41 14-31z" fill="#FBFBFB"/>
<path transform="translate(1514,1185)" d="m0 0 13 1 15 4 20 11 18 13 11 9 20 18 5 4 16-1h19l15 4 19 10 11 8 2 3-11 1h-430l-135 1-31 1 3-3 24-4 38-4 18-3 16-7 12-5 15-4h12l20 6 14 5h8l11-7 11-10 10-5 3-1h16l22 6h14l11-4 13-8 11-4h24l18 3h17l10-4 13-11 10-10 10-7 10-4z" fill="#FAFAFA"/>
<path transform="translate(753,1592)" d="m0 0 1 2-14 43-13 41-7 16-28 42-10 17-9 15-8 13-5 10-12 29-11 24-10-3-14-6-10-4-6-2-15 24-12 19-6 9-3 1 1-5 14-23 12-19 11-18-1-5-22-22 3-7v-7h2v-11l4-40 3-12 10-9 11-9 10-10 10-14 20-30 3 1 1 28 1 30 1 10v-25l-1-49 46-12 36-12 6-3 5-9z" fill="#FAFAFA"/>
<path transform="translate(1361,460)" d="m0 0h2l5 10 13 28 18 37 7 16 8 16 13 27 10 22 14 28-1 6-10 24h-4l-10-13-13-17-9-12-5-5-3 8-7 21-5-2-10-6-10-4h-18l-5 2-7-30-2-8-4 2-9 10-9 11-9 10-9 11-7 9-11 7-9 4-4-1 16-34 13-27 13-28 19-39 13-28 16-33 9-21z" fill="#FBFBFB"/>
<path transform="translate(427,525)" d="m0 0 13 1 12 5 7 3 1-6 4-1 11 8 8 8 4 7 1 5v10l-6 12 7 19 1 4v10l-1 1h11l15-2 7-14 4-3 7-1 3 1 3 3 4 1-4 7h-4v-7h-8l-5 7-4 9-7 17-2 17-1 11-3-4v-13l2-1v-11l4-12 1-2-19 2h-6l3 11h-4l-3-7 1-8 2-3-1-10-5-15-3-6-13 2 6 11 2 7-6 9-7 7-1 2 1 19-8 4-5-1-6-8-7-8-2-2h-5l-4 6-1 3v9l4 10 4 4 9 3 5 9v2l-4-1-7-8-5-1-11 9-13 8-8 3-7 1h-11l-5 12v4l47 14 6 2v4l-11-3-27-8-30-9-9-3v14l42 13 31 10 18 6 10 8 6 3v-5h2v2l3 1-2 1 2 6 10 10 7 2 1-3 2 6h-12l-65-6-25-2h-9l-17 3-9 1v-3l14-4 6-1h25l45 4 29 3-6-7-10-9-7-5-16-6-28-9-61-19v11l-4 24-7 33-7 37-1 8v27l7 30 6 23 15 55v8l-5 7-1-4 2-3v-10l-4-14-7-23-5-19-6-23-5-21-1-7v-23l3-23 8-42 5-23 2-14 1-18 13 1 2-13 1-1h7l13 4h2l1-7 3-6v-6l-9-19-6-18-5-21-1-8v-11l3-15 5-12 7-12 4-5 9-7 10-4 24-4 5-8zm115 68 2 1-2 1z" fill="#1C2C34"/>
<path transform="translate(1623,917)" d="m0 0 3 4 8 20 35 84 19 46 5 12-13 1-9 4-16 14-5 2h-8l-13-2-6-12-11-28v-2l-5 3-9 9-7 8-21 21-7 8-10 9-5 3-14-4-2-1 1-5 14-29 13-28 17-37 9-19 11-24 13-28 12-27z" fill="#FBFBFB"/>
<path transform="translate(1593,1629)" d="m0 0h15l20 4 19 7 16 8 11 6 22 15 16 12 16 13 11 9 15 14 8 7 8 8 7 1 21-2h31l19 4 18 7 19 10 6 4 7 4 13 12 7 6 2 4-15 1-70 1-242 1 9 19 17 40 3 9-4-2-12-26-5-12-13-28-149-1 1 5 1 49-6-1-36-17-22-12-15-8-33-15-345-1h-101l-72-1-2-2 17-3 26-3 21-3 55-6 41-5 30-3 12-3 25-12 16-7 24-8 8-1h16l17 3 24 8 20 7 7 2 10-1 11-8 10-9 11-9 10-7 12-5 13-3h11l26 6 17 5 12 2h15l12-5 16-9 8-5 10-5 19-5 7-1h17l15 2 30 5 9 1h12l10-2 12-6 9-7 12-11 15-15 10-8 11-7 15-7zm-4 4-17 5-14 7-12 9-10 9-15 14-8 8-14 9-7 3-11 2h-13l-27-4-16-3-9-1h-16l-17 3-16 6-17 10-10 6-11 4-4 1h-17l-21-5-22-6-11-2-13 1-15 5-12 7-13 11-10 9-11 7-4 2h-9l-17-5-34-12-17-3-17 1-16 4-20 7-31 15-12 3-23 3-38 4-30 4-40 4-19 2-2 2 14 1h1046l3-2-13-11-15-10-15-9-20-9-16-4-13-2h-13l-21 2h-19l-20-18-8-7-10-9-11-9-15-12-14-10-15-10-19-11-19-9-16-5-8-2z" fill="#161E24"/>
<path transform="translate(1117,1144)" d="m0 0h35l17 5 21 11 12 9 5 4 5 6-1 2h-21l3 5 4 4v3l-341 1-7 15-12 27-13 29-15 34-16 36-18 41-14 31-18 41-12 27-15 34-18 41-2 6 65 19 1 5-5 15-5 16-20 61-6 17-4 8-28 42-7 11-11 20-7 11-11 23-13 30-12 28-5 11-4 8-3 1 1-5 12-30 8-16 10-23 9-22 10-17 6-9 12-21 28-42 7-14 11-33 10-32 8-24-4 4-4 8-4 5-19 7-33 10-32 8h-3l1 8 1 53v14l-2-1-1-10-2-52v-6h-2l-7 11-8 12-12 17-9 10-7 7-14 11-4 5-3 19-4 42h-2l1 7-1 5-13 7-22 13-21 13-22 13-6 2 2-4 13-8 54-32 10-6h2l6-62 1-8-50 8-32 5-36 7-78 17-49 11-63 14-88 19-40 10-41 9-13 3h-5v-2l15-4 35-8 21-5 36-8 207-46 68-15 37-7 39-6 28-5 12-3 11-9 10-9 7-6 21-30 11-16 6-7 43-11 40-13 5-3 11-18 5-7v-3l-89-26-47-14-40-12-19-5-12-1-26-1v-1l26-1h14l35 10 47 14 45 13 2 1 3-9 10-23 7-15 17-39 32-72 11-25 13-29 12-28 7-15 18-41 13-29 22-50 1-2 346-1-4-5-17-11-16-8-12-4-6-1h-40l-1-3z" fill="#151B21"/>
<path transform="translate(1035,905)" d="m0 0 1 2-3 17-5 22-11 46-10 41-9 38-1 2-16 1-16 5-12 7-11 10-11 9-7 7-7 5-8 3h-17l-3-1 1-6 13-29 11-25 12-27 8-15 11-12 10-10 9-11 12-13 9-11 12-12 9-11 16-17 7-8z" fill="#B8B9B8"/>
<path transform="translate(1314,1283)" d="m0 0h135l-1 6-16 34-36 78-14 30-3 7h-2l-11-25-15-37-12-28-13-32-12-29z" fill="#B8B9B8"/>
<path transform="translate(575,1079)" d="m0 0h8l52 17 54 16 36 10 5 3 1 4-10 5-13 11-13 10-7 1-34-12-12-2h-11l-15 3-16 6-19 9-11 3-17 2h-8l1-18 5-54 2-9z" fill="#FBFBFB"/>
<path transform="translate(293,1574)" d="m0 0h2l1 5 1 34 3 7 8 3 17 4 6-2h8l14 4 17 3 11 1h29l18-1 19-3 4-2 1-5-2-5-15-9-11-6v-2h13l17 2 23 4 9 1 34 1h8l-1 8-6 5-11 5-14 4-28 5-18 2-40 3-38 1h-49l-51-3-24-3-28-5-14-4-13-5-2-1v-7l3-13 9-10 8-5 15-4h20l7 1h16l12-2z" fill="#DADEDD"/>
<path transform="translate(1202,1457)" d="m0 0 3 3 13 29 13 28 8 15 11 23 13 27 13 28 13 27 13 28 21 43 4 8 2 2-3 1h-15l-16-3-25-7-14-3v-3l-7-34-8-36-11-49-5-25-9-37-8-39-6-23z" fill="#B8B9B8"/>
<path transform="translate(750,570)" d="m0 0 6 1 5 4 3 7v7l-3 6-6 4-26 5-54 8h-2l1 6-3 8-4 3-2 11-1 13-4 5-4 1-1 6-2 2-13 3-11 8-5 3-8 20-4-3h2l2-9 9-23v-14l-1-6v-13l12-12 5-6v-7l-1-2h-3l-6 8-15 14-3-3 3-4-16 2h-21l-13 1-2 1-2 5 8-2h10l1 2-16 4-8 1 1-5 10-26-16-1-7-6-3-2 2-2h5l3 5 2 1 22 1 7-2 4-3 21-4 74-11zm-139 56 2 1-2 1z" fill="#151A20"/>
<path transform="translate(757,1727)" d="m0 0h8l11 9 12 11 10 8 10 9 5 4 3 4v3h2v2l-6 2-1 3 72 1v3l-12 14-8 7h-5l-10-9-12-9-5-2-12 2-16 1-13 4-11 5-7 2-10-1-8-3-12-7-10-6h-22l-14 2h-30l6-12 8-13 9-16 6-6 15-2z" fill="#FBFCFC"/>
<path transform="translate(1365,302)" d="m0 0 13 5 14 3h15l19-2h33l9 2 1 3-13 5-7 6-8 14-3 9-1 10v11l3 12 6 12 4 6 6 4-1 2h-50l-24-2-12-3-5-3-1-69 1-24z" fill="#5DE1AA"/>
<path transform="translate(474,577)" d="m0 0 4 1 5 11 4 14v6l-3 6 1 8 9 14 2 3-1 6-8 10-4 19v7l2 4v7l-4 3-9 2-7-3-11-8-7-4 3 16 1 3v11l-4 6-8-5-67-20-1-5 6-13h11l10-2 12-6 11-8 6-5 5 1 8 9 3 1-5-9v-2l-11-3-6-10-1-4v-9l4-8 2-2h5l9 9 6 9 5 1 7-3-1-19 7-8 4-5 3-5-3-9-4-6v-3z" fill="#F9F9F9"/>
<path transform="translate(648,1646)" d="m0 0 2 2 1 4 2 63-1 10-4 7h-2v4h-2v7l-15 28-12 19-9 14-7 10-7-6-18-18 3-7v-7h2v-11l4-40 3-12 10-9 11-9 10-10 10-14 16-24z" fill="#FAFAFA"/>
<path transform="translate(1486,345)" d="m0 0 29 2 16 3 21 7 19 9 12 7 1 2-11 5-25 10h-2l8 16 14 24 3 4v2h-19l-14-1-61-1-6-3-3-3 1-7 5-4 10-2 1-5v-36z" fill="#5EE0AA"/>
<path transform="translate(1349,646)" d="m0 0h13l11 4 16 11 13 11 7 6 7 1h18l12 5 8 6-2 2h-288l-33-1v-1l27-3 13-4 12-5 4-1h8l17 6 8-1 9-7 6-4h12l9 2h12l10-5 5-3h18l14 2 9-3 10-8 9-8z" fill="#F8F9F8"/>
<path transform="translate(1683,1086)" d="m0 0h11l11 4 15 10 13 11 9 7h19l11 3 10 5 3 3-1 3h-65l-248-1 1-3 16-1 12-3 18-7h9l16 5h8l14-10 2-1h11l11 2h12l13-7 9-2 10 1 8 1h10l8-4 10-10 10-5z" fill="#F9FAF9"/>
<path transform="translate(1361,290)" d="m0 0 2 1 2 7 10 5 10 3 8 1h14l20-2h31l16 3 10 5 1 4 1 25 22 1 24 4 23 8 17 8 17 11-2 4-28 11-8 3 2 5 10 19 9 15 4 7v3l-48-3h-48l-10-3-5-6-1-8 1-12-49-1-21-1-21-3-10-3-1 30h-1l-1-8zm4 12-1 1-1 25 1 68 8 4 17 3 16 1h50v-3l-5-3-8-13-4-11-1-6v-11l2-13 4-10 7-11 8-6 11-4-1-3-9-2h-33l-19 2h-15l-17-4zm121 43-1 29v37l-1 4-12 3-4 5v5l6 5 3 1 61 1 14 1h19l-2-4-9-16-13-23-1-3 9-3 25-10 4-3-9-6-23-11-24-8-24-3z" fill="#1C2C34"/>
<path transform="translate(984,1691)" d="m0 0 6 1 30 13 14 7 36 13 3 3v2l-24 8-29 14-12 5-9 2-56 6-8 1h-24l3-7 23-23 8-7 26-26 8-7z" fill="#FAFBFB"/>
<path transform="translate(1718,568)" d="m0 0h10l15 6 17 12 11 10 5 4 1 2 5 1 11-2 15 3 6 3 1 5-2 1h-296l3-2 12-3 21-8 8-1 16 6 9 1 13-10 8-4 9 2 7 2h13l15-8 10-1 17 2h9l8-4 10-10 10-6z" fill="#F9FAF9"/>
<path transform="translate(1117,1144)" d="m0 0h35l17 5 21 11 12 9 5 4 5 6-1 2h-21l3 5 4 4v3h-341v-1l87-1-6-1h-56l-19-1-3-1v-7l-1-3 346-1-4-5-17-11-16-8-12-4-6-1h-40l-1-3z" fill="#1C2C34"/>
<path transform="translate(1526,992)" d="m0 0 2 1 7 31 12 49-3 9-8 17-7 14-12 2-16 6-15 4-16 2h-9v-1l10-1 3-10 6-15 5-11 10-24 11-26 6-15 6-13z" fill="#B8B9B8"/>
<path transform="translate(1531,1147)" d="m0 0h112v1h-35v14l-4 53-1 9-4 2-10-9-19-14-18-11-11-5-12-3h-21l-9 2 2-6 7-9 13-13 8-10z" fill="#B8B9B8"/>
<path transform="translate(1599,1284)" d="m0 0h58l-2 5-8 17-6 10-41 82-10 19-2 4h-2l3-43 7-80 2-13z" fill="#DBDCDC"/>
<path transform="translate(579,702)" d="m0 0 5 3 17 14 17 13 2 2-1 7-8 11-11 16-10 15-16 23-13 19-2 1-1-3-1-39v-56l9-10 11-14z" fill="#5DE0AA"/>
<path transform="translate(1407,1111)" d="m0 0h2l13 22 4 7 8 13v-17l7-1h24l1 3-9 19-11 26-13 30-1 5h-13l-26-2 3-19 8-67z" fill="#DADBDB"/>
<path transform="translate(797,372)" d="m0 0h19l17 4 19 9 19 12 16 12 11 9 20 18 8 7 22-1h16l16 3 17 7 16 10 12 9 4 5v3l-12 1h-458l-147-1v-1l7-1h604l-5-6-15-10-17-9-13-4-6-1h-43l-8-7-12-11-14-12-20-15-15-10-19-10-15-5-7-1h-14l-12 3-12 6-13 11-12 12-12 9-12 5h-16l-25-5-16-1-13 2-13 5-15 9-10 4-4 1h-15l-23-7-5-1h-17l-12 5-9 7-14 12-8 4h-9l-15-5-16-6-11-2h-14l-16 4-20 8-12 6-18 3-23 3-26 3h-14v-1l43-6 31-4 14-5 19-9 21-6h16l17 4 21 8 4 1h8l9-6 12-11 11-7 8-3 4-1h15l18 4 12 4 11 1 13-5 22-12 13-4 4-1h15l18 3 16 3h12l11-4 12-9 13-13 14-11 12-6z" fill="#151D22"/>
<path transform="translate(506,614)" d="m0 0h6l-3 11-1 5v9l-3 1v-7l-7 1 2 8-4 8-6 7-3 17-2 5 3 4 1 9-4 6-6 2-18 1-3 5-4 7v5l6 2 11 7 2 1-1 3-11 1h-2l-1 5 6 2 10 9 8 10v2l4 1h11l2-20 4-57 1-6 2-1 1-7h1v7h8l17 5 7 2-1 3-10-2-15-4-7-1v10l-4 58-2 17-1 1-18-1-5-2 2-1-1-2-4 1-5-2-10-10-2-6v-4l-2 5-6-2-10-8-18-6-44-14-29-9-1-1v-8l1-6 9 2 43 13 24 7 1-2 7 1 11 4 4 3 3-5v-11l-3-13v-6l4 1 15 11 9 2 9-4v-7l-2-4v-7l4-19 9-12-1-6-6-9 1-4-2-9z" fill="#151B20"/>
<path transform="translate(1398,1688)" d="m0 0h17l15 2 30 5 19 2 2 3h-13l-27-4-16-3-9-1h-16l-17 3-16 6-17 10-10 6-11 4-4 1h-17l-21-5-22-6-11-2-13 1-15 5-12 7-13 11-10 9-11 7-4 2h-9l-17-5-34-12-17-3-17 1-16 4-20 7-31 15-12 3-23 3-38 4-30 4-40 4-19 2 5 1h352l92 1-1 3-418 1-72-1-2-2 17-3 26-3 21-3 55-6 41-5 30-3 12-3 25-12 16-7 24-8 8-1h16l17 3 24 8 20 7 7 2 10-1 11-8 10-9 11-9 10-7 12-5 13-3h11l26 6 17 5 12 2h15l12-5 16-9 8-5 10-5 19-5z" fill="#151B20"/>
<path transform="translate(612,620)" d="m0 0h5l-3 5-3 1-6 15-6 24-5 17-5 1h-2l-4 8-10 14-12 14-2 3h-2l-1-34-11-2-1-1-2-16-3-2 1-5 10-10 14-8 13-8 3-1 1-4-2-1 1-1h-10l-8 1 2-6 2-1 21-1h13z" fill="#D7F4E7"/>
<path transform="translate(1349,1783)" d="m0 0h196v1h-106l1 5 1 49-6-1-36-17-22-12-15-8-33-15v-1z" fill="#DADCDC"/>
<path transform="translate(1609,1060)" d="m0 0h3l12 30 5 11 21 3v1h-5v2l-17-2-10 1-10 4-7 4h-12l-11-2h-11l-9 6-7 5h-8l-16-5h-9l-24 9-6 1-16 1-1 2h231v2l-29 1h-25l-2 1v-2l-12 1-1 1-51 1h-60l-4 2v-3h-89v-3l6-2 51-6 15-4 19-7h9l3 1v2l17 4 10-9 8-7 9-10 20-20 7-8z" fill="#1D2D35"/>
<path transform="translate(1720,565)" d="m0 0 11 1 13 5 13 9 11 9 4 3 7 4 4 2 10-2 15 4 12 6 8 7v4l-9 2h-131l-220-1-3-2v-2l2-1 50-5 15-3 22-9h9l20 8 10-8 10-6 7-1 21 5 10-4 10-5 11-1 15 2h10l6-4 5-4 5-5 7-5zm-2 3-10 5-10 9-6 5-5 2h-9l-17-2-10 1-15 8h-13l-13-4-5 1-10 6-9 7-9-1-16-6-8 1-27 10-9 2v1h296l2-1-1-5-6-3-17-3-11 2-3-1-4-5-11-9-10-8-13-8-11-4z" fill="#B8B9B8"/>
<path transform="translate(741,575)" d="m0 0 5 1 3 9-1 9-4 3-14 3-67 10-17 2-4-10-4-1-14 14-10 2-13 1 2-5v-9l-6-5v-3l22-3 56-8z" fill="#B8B9B8"/>
<path transform="translate(502,633)" d="m0 0h3v17l-1 34-5 71-2 7h-11l-4-2-7-9-7-8-10-6 1-5 7-1 6-1 1-2-6-2-11-7-3-3 1-5 5-9 2-2 18-1 7-3 2-4-1-9-3-4 2-5 3-17 8-10 2-6-1-7z" fill="#D6F3E6"/>
<path transform="translate(508,838)" d="m0 0 4 2 3 7 15 53 14 47 10 38 8 30 13 49 2 11-3 2-15 3h-6v-20l-4-24-10-47-9-40-7-37-5-30-3-13-5-23z" fill="#60DFAA"/>
<path transform="translate(527,595)" d="m0 0h6l2 1v7l4-1 4-6 5 2 4 4 16 2-1 6-10 25 15-4h7l-4 4-12 7-12 6-11 10-3 5v4l-9-1-5-1h-15v-19l2-17 7-17 7-14z" fill="#F9F9F9"/>
<path transform="translate(1e3 1194)" d="m0 0 4 1-2 6-5 8-21 42-10 19-12 24-10 19-7 15-4 7h-1l1-8 6-23 6-26 10-44 8-30 2-9z" fill="#DADCDC"/>
<path transform="translate(747,1598)" d="m0 0 1 2-5 9-4 3-36 12-30 8-16 4h-3l1 8 1 53v14l-2-1-1-10-2-52v-6h-2l-7 11-8 12-12 17-9 10-7 7-14 11-4 5-3 19-4 42h-2l1 7-1 5-13 7-22 13-21 13-22 13-6 2 2-4 13-8 54-32 10-6h2l6-62 1-8-50 8-32 5-36 7-78 17-49 11-63 14-88 19-40 10-41 9-13 3h-5v-2l15-4 35-8 21-5 36-8 207-46 68-15 37-7 39-6 28-5 12-3 11-9 10-9 7-6 21-30 11-16 6-7 43-11 40-13 5-3 4-7z" fill="#151C22"/>
<path transform="translate(1451,1282)" d="m0 0h3l-3 9-19 40-11 24-14 30-11 25-7 14-8 17v6l4 9 20 48 4 10v2l5-5 9-12 12-15 7-9 11-14 3 1 12 27 18 43 13 30 22 52 13 32 5 11-3 2-7-14-8-20-13-30-17-40-15-35-11-26-10-25h-3l-33 42-6 8-3 3h-2l-6-13-14-34-16-39-26-62-19-46-15-36-2-5v-4l4 2 11 26 16 39 15 36 12 29 9 21v2h2l3-9 17-36 11-24 12-26 19-41 9-19z" fill="#151C21"/>
<path transform="translate(447,443)" d="m0 0h14l7 1v1l-26 1-18 6-16 7-10 5-26 4-24 3-18 2-4 1 31 1h666v2l-604 1 140 1v1l-60 1-182 1h-55l-6-2v-4l16-3 26-3 22-3 37-4 22-3 20-2-3 2-25 4-48 6h9l26-3 37-5 10-4 20-9 16-5z" fill="#B7B8B7"/>
<path transform="translate(1540,826)" d="m0 0 3 3 13 28 15 31 26 56 4 9v2h2l3-9 11-24 6-11 3 1 18 43 12 29 15 36 18 44 8 19 12 5 11 8 10 8 6 5v3l-4-1-13-11-14-9-11-4h-11l-11 4-10 9-8 6-9 1v-2h5v-2l8-4 11-11 8-4 3-1 12-1-8-18-19-46-35-84-6-15-3 4-11 25-16 34-15 33-15 32-13 28-17 36-4 4-1-3 8-17 13-28 14-30 11-24 10-22 7-15 7-16-2-6-17-36-12-25-16-34-13-27z" fill="#141A1F"/>
<path transform="translate(372,669)" d="m0 0 3 2v2l8 1h14l-2 2-7 1h-11l-5 12v4l47 14 6 2v4l-11-3-27-8-30-9-9-3v14l42 13 31 10 18 6 10 8 6 3v-5h2v2l3 1-2 1 2 6 10 10 7 2 1-3 2 6h-12l-65-6-25-2h-9l-17 3-9 1v-3l14-4 6-1h25l45 4 29 3-6-7-10-9-7-5-16-6-28-9-61-19v11l-4 24-7 33-7 37-1 8v27l7 30 6 23 15 55v8l-5 7-1-4 2-3v-10l-4-14-7-23-5-19-6-23-5-21-1-7v-23l3-23 8-42 5-23 2-14 1-18 13 1 2-13 1-1h7l13 4h2l1-7 3-6z" fill="#161D22"/>
<path transform="translate(293,1574)" d="m0 0h2l1 5 1 34 3 7 8 3 17 4 6-2h8l14 4 17 3 11 1h29l18-1 19-3 4-2 1-5-2-5-15-9-11-6v-2h13l17 2 23 4 9 1 26 1 7 1v1l-27 1 1 9h9l14-3h7l-3 3-13 5-11 2h-18l-14-1-8 1-10 6-12 2-25 2-21 1h-13l-21-3-6-1-12-1-4 1-5 1-12-2-8-1-12-2-5-3-2-9 1-14 4-10 1-13z" fill="#B8B9B8"/>
<path transform="translate(1255,695)" d="m0 0h190l1 4 4 3-1 3h-73l-2 9-10 28-4-2-8-33v-2l-103 1 1-2 13-1 1-1-17-1 1-4z" fill="#1C2C34"/>
<path transform="translate(1220,1779)" d="m0 0h376l34 1v1l-18 1 223 1v1l-242 1 9 19 17 40 3 9-4-2-12-26-5-12-13-28-43-1h-561v-1l276-1v-1l-40-1z" fill="#525D62"/>
<path transform="translate(1468,316)" d="m0 0 10 2 4 3 2 12-2 6-7-6-2-2-9 1-4 1-1 5v13l6 9 8 8 4 7 1 8-4 5-7-1-3-5-2-7-3-1v8l3 6 5 4 7 1 6-3 3 1v7l-5 5-3 1h-11l-8-4-9-10-5-11-3-14v-11l3-13 7-13 4-5 8-5z" fill="#F2F4F3"/>
<path transform="translate(417,1406)" d="m0 0h2l-2 33-2 32-5 30-4 14-1 1-22 1-2-1 1-10 12-50 8-20 14-29z" fill="#F3F4F3"/>
<path transform="translate(1399,633)" d="m0 0 4 2 21 28 4 1 7 7 2 3h2l11-26-1-6-3-6v-2l3-1 8 16 17 35 13 28 11 22 13 28 18 38 12 25-2 5-3-4-16-34-13-27-13-28-15-31-11-24-14-30-2 2-9 21 1 5 9 5 5 4-1 2-2-1v2l-3-1v-2l-10-6-8-3h-22l-7-4-3-3 1-4-11-9v-6l4-10z" fill="#151B20"/>
<path transform="translate(1070,700)" d="m0 0 3 3 10 24 16 38 14 34 2 5v7h-2l-18-43-12-29-12-30-2-1-3 10-12 27-13 29-18 41-20 45-13 30-20 45-13 29-19 42-1 2h2v-2h2l2-4h2v-2h2l-1 5-8 8-6 9-11 23-12 27-12 28-3-1 3-9 8-19 7-15 9-20 13-30 9-21 17-38 16-36 19-43 18-41 15-34 24-54 12-28 5-10z" fill="#141A1F"/>
<path transform="translate(382,1519)" d="m0 0h20l2 1v10l-1 16 2 9 4 8 4 19 1 10-1 2-4-1-9-6-15-14-3-4 1-17-9-6 1-10 4-15z" fill="#F7F8F8"/>
<path transform="translate(1517,1139)" d="m0 0h2l1 7-4 4-7 15h2l2-4 12-13 2 4-14 15-7 7-6 10v1l8-2h21l15 4 17 9 20 14 16 13 12 11 8 7 1 4-5-1-9-9-8-7-13-11-18-13-21-12-12-4-12-2-10 1-13 4-9 6-10 9-7 7-11 8-8 3h-17l-18-3h-24l-12 5-14 8-9 3h-14l-22-6h-19l2-2 4-1h9l7-1 23 7h7l32-16 12-2h9l17 2 13 2h8l11-9 10-9 10-6 14-6 4-5 9-18 4-10 8-16z" fill="#1B2A31"/>
<path transform="translate(327,822)" d="m0 0h2l5 10 8 7 7 3 6 1h40l22-1 82-7h13v5l-4-2 5 16 9 45 5 30 8 38 3 12v12l-2-1-4-17-4-12v-4h-2l-8-53-10-52-3-12-20 1-49 4-14 1-5 5-17 28-4 1 2-5 10-18 4-6 1-4-8 1-8 6-10 10-11 9-10 9-15 12-3 2h-4l2-4 8-6 16-13 13-12 8-7 6-5 1-2h-46l-11-4-6-4-6-7-2-5z" fill="#1C2B33"/>
<path transform="translate(419,477)" d="m0 0h593l10 1v1l-5 1h-458l-147-1v-1z" fill="#1C2C34"/>
<path transform="translate(554,728)" d="m0 0 3 4 2 91 1 2 5-7 3-1-1 6-6 8-13 19-13 18-6 8v11l-2 3-3-7-10-36-3-11 4-2 30-3 9-2 1-2-1-58-1-39z" fill="#151B20"/>
<path transform="translate(1361,290)" d="m0 0 2 1 2 7 10 5 10 3 8 1h14l20-2h31l16 3 10 5 1 4v16l-2-1-2-11-6-3-7-1-11 4-5 4-6 10-4 9-2 10v11l3 14 6 12 8 9 8 4 8 1-1 4-6 1-4-1-46-1-21-1-21-3-10-3-1 30h-1l-1-8zm4 12-1 1-1 25 1 68 8 4 17 3 16 1h50v-3l-5-3-8-13-4-11-1-6v-11l2-13 4-10 7-11 8-6 11-4-1-3-9-2h-33l-19 2h-15l-17-4z" fill="#1C2C34"/>
<path transform="translate(637,605)" d="m0 0 4 1 1 2v7l-14 15-3 3v13l1 6v14l-10 26-2 6-6-2-11-8-1-5 6-21 6-24 7-10 10-10 8-7z" fill="#F7F8F7"/>
<path transform="translate(348,690)" d="m0 0 9 2 43 13 37 11 5 3 6 13 7 9v3l-6-2-10-8-18-6-44-14-29-9-1-1v-8z" fill="#F6F7F6"/>
<path transform="translate(1727,1164)" d="m0 0h2v2h2l18 44 17 41 9 21 18 44 9 20 12 31 16 38 40 98 15 35 14 34 4 9v7l-3-3-8-19-8-20-12-29-10-24-12-29-12-31-10-23-12-29-65-156-18-43-3-8v-3h-2l-2 18-2 14-4-1-11-12-7-8-5-6v-2l5 2 12 13 5 6h2l2-16h2z" fill="#1D2D35"/>
<path transform="translate(1455,690)" d="m0 0 5 2v3l-19 1h-186l-7 2-1 3h17l1 2-2 1-13 1-4 6-9 12-2 4-4 1 3-9 9-19 1-5h-69l-10-2v-1l122-1h154l14 1z" fill="#13171B"/>
<path transform="translate(1173,1710)" d="m0 0 4 1 16 8 10 6-2 4-11 9-9 7-7 3-10-1-21-7-4-2v-2l5-1 2-4 16-12z" fill="#FAFAFA"/>
<path transform="translate(1609,1065)" d="m0 0 3 3 11 28 1 5-11 3-15 7h-8l-20-3 1-4 15-15 7-8z" fill="#B8B9B8"/>
<path transform="translate(1678,1147)" d="m0 0h41l4 8 2 7-1 17-2 16h-4l-10-11-7-8-18-20-6-8z" fill="#F6F7F6"/>
<path transform="translate(539,1719)" d="m0 0 13 1v1l-37 6-26 4-89 19-57 13-114 25-38 8-44 11-41 9-13 3h-5v-2l15-4 35-8 21-5 36-8 207-46 68-15 37-7z" fill="#26333A"/>
<path transform="translate(973,1779)" d="m0 0h237l92 1-1 3h-392l-2-2 10-1z" fill="#12161A"/>
<path transform="translate(1785,1432)" d="m0 0 3 3 9 17 8 18 15 30 7 15v5l-10-5-10-7-15-11-4-29-3-25z" fill="#B8B9B8"/>
<path transform="translate(1329,613)" d="m0 0h2l6 28v8l-9 9-7 5-3 1h-9l-20-3 4-6 9-10 9-11 11-12z" fill="#B8B9B8"/>
<path transform="translate(1330,607)" d="m0 0 3 1 7 30 2 7 4-2h18l10 4 15 9 2-9 5-14 2-6h3l8 10 12 16 10 13-1 2-2-4-5-1-10-13-12-16-2-1-2 11-4 10v6l11 9-2 1-1 2-13-11-15-10-11-4h-13l-9 4-9 9-9 6-9 2-12-2h-18l-12 7-5 1-1-3 12-6 6-4h2l2-4 9-11 9-10 9-11 13-15zm-1 6-11 13-12 14-10 11-7 9v1l20 3h9l6-3 12-11 1-1v-8l-6-28z" fill="#141A1F"/>
<path transform="translate(292,1575)" d="m0 0 2 1 1 5v7l-8 2-36 3-38 7-17 5-3 1 2-7 7-8 9-6 15-4h20l7 1h16l12-2z" fill="#FCFCFC"/>
<path transform="translate(1720,565)" d="m0 0 11 1 13 5 13 9 11 9 12 10 6 1-2 2h-6l-10-8-13-11-14-9-13-5h-10l-10 5-10 9-6 5-5 2h-9l-17-2-10 1-15 8h-13l-13-4-5 1-10 6-9 7-9-1-16-6-8 1-27 10-13 2h-7v2l-2 1-16 1h-22l-1-3 2-1 50-5 15-3 22-9h9l20 8 10-8 10-6 7-1 21 5 10-4 10-5 11-1 15 2h10l6-4 5-4 5-5 7-5z" fill="#151C21"/>
<path transform="translate(544,1170)" d="m0 0h1l1 6 649-1 2-5 5 3 2 4-12 1h-647l-1-1z" fill="#CCD1CF"/>
<path transform="translate(1037,897)" d="m0 0 6 1 16 11 17 12 12 8 14 10 4 2 4-17 4-12 3-3 10 10 9 11 13 13 5 6-1 2-8-8-5-3-9-9-7-8-4-5v-2l-4-1-2 11-6 20-5-1-15-11-12-8-19-13-16-11h-3l-9 11-15 16-7 8-12 14-10 10-9 11-12 13-9 11-7 7-2-4 9-10 11-12 7-8 9-11h2l2-4 13-14 7-8 14-15 9-11 7-7z" fill="#151B20"/>
<path transform="translate(528,963)" d="m0 0 2 2 5 15 9 44 7 38-2 2-13 2-2-1-2-25-2-29-1-32z" fill="#F5F6F6"/>
<path transform="translate(579,631)" d="m0 0h2l-1 4-14 9-13 7-10 9-3 4v3l3 2 2 16 11 3 1 10v23l-2 6h-1l-1-5-1-32-12-2-1-3-15-5-16-3-1 1-2 3-1-3v-28h1l1-6h1l1 21 4-1h11l14 3-1-4 6-8 9-8 17-9z" fill="#151C21"/>
<path transform="translate(1609,1060)" d="m0 0h3l12 30 5 11 21 3v1h-5v2l-17-2-10 1-10 4-7 4h-12l-11-2h-11l-9 6-7 5h-8l-16-5h-9l-24 9-6 1-18 1-1 2-1-1h-7v-3l30-4 10-3 19-7h9l3 1v2l17 4 10-9 8-7 9-10 20-20 7-8zm0 5-22 22-14 16-3 3v2l20 3h8l17-8 9-2-1-5-12-30z" fill="#151B20"/>
<path transform="translate(748,1610)" d="m0 0 1 2h2l-3 12-12 36-10 29-4 8-28 42-7 11-11 20-7 11-11 23-13 30-12 28-5 11-4 8-3 1 1-5 12-30 8-16 10-23 9-22 10-17 6-9 12-21 28-42 7-14 11-33 10-32z" fill="#1C2B33"/>
<path transform="translate(549,1517)" d="m0 0h14l35 10 47 14 45 13 2 1 3-9 2-3 2 5-3 8 65 19 1 5-5 15-5 16-3 1 1-9 3-10-4 5-4 1 4-8 7-10v-3l-89-26-47-14-40-12-19-5-12-1-26-1v-1z" fill="#151C22"/>
<path transform="translate(1104,1272)" d="m0 0h19l-3 2 22 1h20l4 1h15l5-1 12 1 23 1 5 1 2-1 3 2-3 3h-7l-3-2-4 2h-118l-12-3h-12l-4-2v-1l19-3z" fill="#121418"/>
<path transform="translate(1486,1779)" d="m0 0h110l34 1v1l-18 1 223 1v1l-242 1 9 19 17 40 3 9-4-2-12-26-5-12-13-28-43-1-14-2v-1l-45-1z" fill="#515B60"/>
<path transform="translate(1282,1238)" d="m0 0 5 1 3-1-1 3-14 11-4 2h-8l-20-7-14-4h-12l-21 6-19 9-14 3-34 4-24 3-17 2-10 2h-22l1-3 46-5 41-5 18-2 13-3 20-9 15-5 5-1h14l19 5 13 5h4l7-6z" fill="#151A20"/>
<path transform="translate(1361,423)" d="m0 0h1l2 20v8l4 10 8 18 8 16 15 31 9 20 8 16 19 40 14 30-1 2h-3l-8-17-8-16-13-27-10-22-7-14-13-28-18-37-4-10-1-3-3 3-3 7h-4l2-6 5-11z" fill="#14191E"/>
<path transform="translate(1655,1779)" d="m0 0h206l18 1-3 2-2 1h-267l2-2z" fill="#14191E"/>
<path transform="translate(556,425)" d="m0 0h15l18 4 12 4 11 1 3 1v2h-15l-23-7-5-1h-17l-12 5-9 7-14 12-8 4h-9l-15-5-16-6-11-2h-14l-16 4-20 8-12 6-18 3-23 3-26 3h-14v-1l43-6 31-4 14-5 19-9 21-6h16l17 4 21 8 4 1h8l9-6 12-11 11-7 8-3z" fill="#1D2D35"/>
<path transform="translate(520,1608)" d="m0 0h8l-1 8-6 5-11 5-14 4-28 5-18 2-40 3h-30v-1l20-1h8l8-1h7l9-1 3-2 13-3 8-5 13-1 16 1h11l14-3 12-5h-7l-13 3h-7l-2-1-2-9 1-1 27-1z" fill="#DAE3DF"/>
<path transform="translate(1399,633)" d="m0 0 4 2 12 16 14 18 4 5v2h-21l-6-4-10-9-4-3v-6l4-10z" fill="#D7DAD9"/>
<path transform="translate(330,703)" d="m0 0h4v12l-4 24-7 33-7 37-1 8v27l7 30 6 23 15 55v8l-5 7-1-4 2-3v-10l-4-14-7-23-5-19-6-23-5-21-1-7v-23l3-23 8-42 5-23 2-14z" fill="#1D2D35"/>
<path transform="translate(1517,1139)" d="m0 0h2l1 7-4 4-7 15h2l2-4 12-13 2 4-14 15-7 7-6 10v1l8-2h21l15 4 17 9 20 14 16 13 12 11 8 7 1 4-5-1-9-9-8-7-13-11-18-13-21-12-12-4-12-2-10 1-13 4-8 5h-2v-2l5-5 5-8 7-14 4-10 8-16z" fill="#151B20"/>
<path transform="translate(1732,1698)" d="m0 0 8 6 14 13 8 7 8 8 7 1 21-2h31l19 4 18 7 19 10 6 4 7 4 13 12 7 6 2 4-15 1h-31l2-2 3-1 32-1 2-1-11-9-13-9-18-11-20-9-16-4-13-2h-13l-21 2h-19l-20-18-8-7-10-9z" fill="#1E2D35"/>
<path transform="translate(514,1145)" d="m0 0 3 1-4 5-18 12-3 7-14 50-13 52-6 26-10 36-7 25-5 16h-3l1-8 8-26 10-36 6-24 7-32 12-45 11-38 3-6 9-6z" fill="#B8B9B8"/>
<path transform="translate(1237,667)" d="m0 0h8l13 3-6 3-5-1h-12l-6 4-9 7-8 1-17-6h-8l-14 5-10 4-16 2-10 1 27 1 3 2 8 1v1h-78v-3l25-4 34-4 13-4 13-5 4-1 13 1 14 5 6-2 14-10z" fill="#151B21"/>
<path transform="translate(811,1783)" d="m0 0h72v3l-12 14-8 7h-5l-10-9-12-9-5-2v-2l-20-1z" fill="#B8B9B8"/>
<path transform="translate(529,886)" d="m0 0 2 4 15 53 22 82 12 46v7l-9 3h-12v-2l15-3 2-1-2-11-11-41-11-42-9-34-14-47-2-10z" fill="#161E24"/>
<path transform="translate(550,834)" d="m0 0h3l-2 5-7 10-11 15-6 9-2-1-8-28-1-5 7-2z" fill="#60DFAA"/>
<path transform="translate(1467,330)" d="m0 0h6l7 6 2 11h-5l-4-9-1-1-7 1-1 2v6l7 11 9 11 3 3v16l-5 5-4 2-7-1-7-6-2-5v-8l2-1 3 2 4 11 7 1 3-4-1-8-6-9-8-8-4-7v-13l2-5z" fill="#14181D"/>
<path transform="translate(506,614)" d="m0 0h6l-3 11-1 5v9l-3 1v-7l-7 1 2 8-4 8-6 7-3 17-2 5 3 4 1 9-4 6-6 2h-5l4-4 6-3v-7l-2-4v-7l4-19 9-12-1-6-6-9 1-4-2-9z" fill="#151C21"/>
<path transform="translate(672,615)" d="m0 0 2 3-3 8-4 3-3 13-1 9-2 1v-6l-21 2-5 2-4 1v-8l2-9 5-3 8-1v-6h3l1 2h16l2-2 3-7z" fill="#141A1F"/>
<path transform="translate(588,687)" d="m0 0 5 1 13 10 16 12-2 5-5 9-4-1-13-10-12-10-4-3 1-5z" fill="#F5F6F5"/>
<path transform="translate(935,1765)" d="m0 0h5l2 3-30 4-40 4-19 2 5 1 59 1v1l-8 1v1l-26 1-72-1-2-2 17-3 26-3 21-3 55-6z" fill="#1F2E36"/>
<path transform="translate(545,1181)" d="m0 0h311l-1 4v-3l-5 1-305 1-2 18h-1v-10l2-10z" fill="#C8CECB"/>
<path transform="translate(656,1717)" d="m0 0 1 3-2 9-6 10-8 16-11 21-8 13-45 72-13 20-3 1 1-5 14-23 12-19 11-18 3-6 7-10 12-19 9-15 17-32 8-16z" fill="#1F2E36"/>
<path transform="translate(317,1765)" d="m0 0 7 1v1l-49 11-88 19-40 10-41 9-13 3h-5v-2l15-4 35-8 21-5 36-8 73-16z" fill="#2B3940"/>
<path transform="translate(483,570)" d="m0 0 1 3-2 4 7 19 1 4v10l-1 1h11l15-2 7-14 4-3 7-1 3 1 3 3 4 1-4 7h-4v-7h-8l-5 7-4 9-7 17-2 17-1 11-3-4v-13l2-1v-11l4-12 1-2-19 2h-6l3 11h-4l-3-7 1-8 2-3-1-10-5-15-4-9h2l1-4zm59 23 2 1-2 1z" fill="#151C21"/>
<path transform="translate(506,836)" d="m0 0 2 1 6 21 4 21 4 20 5 30 8 38 3 12v12l-2-1-4-17-4-12v-4h-2l-8-53-10-52-3-12z" fill="#1B2A32"/>
<path transform="translate(1129,1264)" d="m0 0h5l-1 2 3 1 278 1v1l-292 2-31 1 3-3 24-4z" fill="#D2D4D3"/>
<path transform="translate(1232,727)" d="m0 0h2l-2 6-14 29-13 28-15 31-11 23-15 32-9 19-1 5-2-2 1-6 3-9 9-19 8-16 36-76 12-25 9-19z" fill="#161D23"/>
<path transform="translate(1070,700)" d="m0 0 3 3 10 24 16 38 14 34 2 5v7h-2l-18-43-12-29-12-30-2-1-3 10-11 25-1-2h-2l3-9 10-23 4-8z" fill="#141A1F"/>
<path transform="translate(1477,411)" d="m0 0h7l1 4-5 2-8 2-3 4v5l5 4 3 1 61 1 14 1h20v5h-12l-32-2h-48l-10-3-5-6-1-8 2-6 7-3z" fill="#1D2D35"/>
<path transform="translate(585,1713)" d="m0 0h3l-3 21-4 42h-2l1 7-1 5-13 7-22 13-21 13-22 13-6 2 2-4 13-8 54-32 10-6h2l6-62 1-10z" fill="#262A2E"/>
<path transform="translate(1349,1783)" d="m0 0h196v1l-184 2-5 1 5 4 2 6-1 2-5-1-23-11-5-2v-1z" fill="#B8B9B8"/>
<path transform="translate(1614,1631)" d="m0 0 10 1 21 7 16 8 13 7 22 15 16 12 16 13 4 3-1 4-4-2-13-11-16-12-17-12-22-13-21-10-16-5-8-2z" fill="#172026"/>
<path transform="translate(1513,612)" d="m0 0 175 1v1l-120 1 7 2v1h-107v-1l38-2v-2z" fill="#B1B3B2"/>
<path transform="translate(1609,378)" d="m0 0h77l3 1-1 5h-81l-1-4z" fill="#B4B6B5"/>
<path transform="translate(587,601)" d="m0 0h9l4 4 1 6-2 4-8 3-25 2 5-13 2-3z" fill="#B8B9B8"/>
<path transform="translate(1187,1187)" d="m0 0 8 1 1 4h-122l-15-1 3-2 64-1h20z" fill="#121418"/>
<path transform="translate(1008,1076)" d="m0 0 11 3 21 11 17 11 14 11 11 9 13 12 11 10 2 1 1 4-5-1-15-14-10-9-14-11-16-12-20-12-14-7-10-3z" fill="#14191E"/>
<path transform="translate(1510,1132)" d="m0 0h192v1l-29 1h-25l-2 1v-2l-12 1-1 1-51 1h-60l-3 2v-4h-7z" fill="#121418"/>
<path transform="translate(507,670)" d="m0 0h1v7h8l17 5 7 2-1 3-10-2-15-4-7-1v10l-4 58-2 17-1 1-18-1v-1l5-1v-1l10-1 2-20 4-57 1-6 2-1z" fill="#172026"/>
<path transform="translate(606,720)" d="m0 0 4 1 2 2 5 1 2 5 6 5-1 6-8 11-13 19-17 25-15 22-3 3-2-4 12-17 11-16 16-24 10-14 4-6v-5l-12-10z" fill="#151B20"/>
<path transform="translate(1453,651)" d="m0 0 3 3 4 9-1 4-1-1-1 6 2 1 2 6 2 4 1 10-3 2v-3l-3-1-5-5-10-6-1-5 10-23z" fill="#D7F3E6"/>
<path transform="translate(372,669)" d="m0 0 3 2v2l8 1h14l-2 2-7 1h-11l-5 12v4l47 14 6 2v4l-11-3-27-8-30-9-9-3-1 10-1 2h-2v-8l2-7h7l13 4h2l1-7 3-6z" fill="#151B21"/>
<path transform="translate(1845,1448)" d="m0 0 3 1 20 49 17 40 14 34 4 9v7l-3-3-8-19-8-20-12-29-10-24-12-29-5-13z" fill="#22282E"/>
<path transform="translate(926,1769)" d="m0 0h6l-3 3-21 3-5 1 1 1 69 2v1h-115l-7-1 2-2 19-2 48-5z" fill="#D9EFE5"/>
<path transform="translate(647,1642)" d="m0 0 1 2-18 27-12 16-12 12-14 11-3 3-7 3-24 4h-12v-2l28-5 12-3 11-9 10-9 7-6 21-30 8-12z" fill="#19252C"/>
<path transform="translate(948,442)" d="m0 0h16l16 3 17 7 16 10 12 9 4 5v3l-17-1v-1h11l-5-6-15-10-17-9-13-4-6-1h-38l-2-3z" fill="#161D23"/>
<path transform="translate(1720,565)" d="m0 0 11 1 13 5 13 9 11 9 12 10 6 1-2 2h-6l-10-8-13-11-14-9-13-5h-10l-10 5-10 9-6 5-5 2h-9l-17-2 1-3h9l6 1h10l6-4 5-4 5-5 7-5z" fill="#1C2C34"/>
<path transform="translate(400,462)" d="m0 0 3 1-7 3-8 2-20 2v3l19 1h31l74 1v1h-135l-31-1-1-2 29-4 33-4z" fill="#D9EAE3"/>
<path transform="translate(631,1141)" d="m0 0h11l15 3 28 10-4 3-30-10-9-2h-11l-19 5-21 9-8 4-7 2h-10l4-3 13-4 19-9 18-6z" fill="#151B20"/>
<path transform="translate(1204,379)" d="m0 0h83v3h-3v2h-75l-5-1z" fill="#B8B9B8"/>
<path transform="translate(153,1519)" d="m0 0h121v1l-31 1-1 3-7 2h-29l-6-2-5-2-42-2z" fill="#D6D9D8"/>
<path transform="translate(1386,1284)" d="m0 0h16l-5 13-8 19-5 13-3 3 1-14z" fill="#DBDCDC"/>
<path transform="translate(981,1073)" d="m0 0h16l10 2 1 2-7 1-5-1h-13l-14 4-13 7-15 13-12 12-10 7-5 2h-8l3-1v-2l9-4 9-7 7-7 11-9 9-8 16-8z" fill="#141A1F"/>
<path transform="translate(1491,1277)" d="m0 0h91l2 2-10 1v1l-10 1h-59l-14-1-2-1-10-1v-1z" fill="#121418"/>
<path transform="translate(1629,925)" d="m0 0h2l11 25 14 34 13 31v2l-4 1-35-84-2-5z" fill="#141A1F"/>
<path transform="translate(847,385)" d="m0 0 6 2 5 2 16 10 13 10 11 9 20 18 11 10v1l-7-1-8-8-8-7-11-10-17-13-18-13-13-8z" fill="#141A1F"/>
<path transform="translate(1467,336)" d="m0 0h5l4 5 1 6 5 2 1 1v18h-4l-12-15-4-7v-6z" fill="#F2F3F3"/>
<path transform="translate(434,1269)" d="m0 0h1v5l-8 12-10 14-12 14-17 17-7 6-5 6-17 13-10 7-4-1 7-6 14-10 13-11h2v-2l8-7 11-11 11-14 8-10 10-15z" fill="#B8B9B8"/>
<path transform="translate(1330,607)" d="m0 0 3 1 7 30 1 8-4 2-6-31v-4l-5 5-13 15-9 10-9 11h-3v-3l9-11 10-11 9-11z" fill="#151A1F"/>
<path transform="translate(649,1641)" d="m0 0 3 1 1 28 1 30 1 10v-63h1l3 54v22l-3 6-1-3 1-7-11 22h-1v-5h2v-4l3-3 3-8-1-44-1-25-2-5-2-1z" fill="#B8B9B8"/>
<path transform="translate(499,835)" d="m0 0h13v5l-6-3-1 2-54 5-29 2-4 2 1-4-2-1 1-1z" fill="#1D2D35"/>
<path transform="translate(518,667)" d="m0 0 12 2 10 3 1 11-5 1-16-5-12-2v-9z" fill="#F4F5F5"/>
<path transform="translate(1155,1258)" d="m0 0h6l-2 3-11 2-37 4-12 2-11 1-10 2h-22l1-3 46-5 41-5z" fill="#161D23"/>
<path transform="translate(1499,739)" d="m0 0 3 4 14 29 12 26 13 27-2 5-3-4-16-34-13-27-7-15-2-10z" fill="#172026"/>
<path transform="translate(664,412)" d="m0 0h15l18 3 19 4 8 1v1h-19l-19-4-16-1-13 2-13 5-15 9-10 4h-6l5-4 32-16z" fill="#161D23"/>
<path transform="translate(337,975)" d="m0 0 2 2v9l-16 80-6 28-1 8-2 1-1-6 23-115z" fill="#26343B"/>
<path transform="translate(1489,1191)" d="m0 0v3h-2l1 3-10 9-7 7-11 8-7 2-1-5 4-6 11-10 10-6z" fill="#1C2A32"/>
<path transform="translate(711,1562)" d="m0 0 9 1 41 12 1 5-5 15-5 16-3 1 1-9 3-10-4 5-4 1 4-8 7-10v-3l-41-12-6-2z" fill="#151B20"/>
<path transform="translate(1245,1705)" d="m0 0h11l26 6 17 5 12 2h15l12-5 9-5 2 1-3 1 1 3-14 7-8 2h-17l-21-5-22-6-11-2h-10v-2l-3-1z" fill="#1C2C34"/>
<path transform="translate(1780,1126)" d="m0 0 4 2v4h-65l-201-1v-1l264-1-2-1z" fill="#C0C1C1"/>
<path transform="translate(1788,1314)" d="m0 0 2 2 10 24 11 26 14 34 13 31 8 20 1 5-3-3-6-12-10-24-4-10-2-6-4-9-4-10-5-11-3-9-7-17-8-20-3-8z" fill="#B8B9B8"/>
<path transform="translate(661,1786)" d="m0 0h2v7l-18 41-12 28-5 11-4 8-3 1 1-5 12-30 8-16 10-23z" fill="#1B252B"/>
<path transform="translate(556,425)" d="m0 0h15l18 4 12 4 11 1 3 1v2h-15l-23-7-5-1h-17l-12 5-9 7-14 12-3 2-4-1 4-4 8-7 12-10 11-6z" fill="#19252B"/>
<path transform="translate(1117,1144)" d="m0 0h35l17 5 21 11 12 9 3 2-1 3-4-2-17-11-16-8-12-4-6-1h-40l-1-3z" fill="#1C2C33"/>
<path transform="translate(520,1608)" d="m0 0h8l-1 8-4 4-2-1 1-1h-7l-13 3h-7l-2-1-2-9 1-1 27-1z" fill="#DADBDB"/>
<path transform="translate(1552,614)" d="m0 0h136l2 2-36 1h-80l-6-1-16-1z" fill="#1D2D35"/>
<path transform="translate(1791,601)" d="m0 0 17 3 6 3 1 5-2 1h-179v-1l83-1h78l11-1-1-4-16-1-7-1 4-2z" fill="#D8EAE2"/>
<path transform="translate(312,850)" d="m0 0 2 4 9 37 5 17 12 42v10l-2 3v3l4-6v3l-1 3-1 16h-1l-1-5-4 20h-1l-1-6 2-11-2-5v-8l5-8 1-1-1-8-8-28-13-49-4-18z" fill="#B8B9B8"/>
<path transform="translate(1800,1335)" d="m0 0 2 1 12 31 16 38 17 42-3 2-7-18-16-38-12-29-10-24z" fill="#1F282E"/>
<path transform="translate(1236,1707)" d="m0 0h8v2l-18 6-12 7-13 11-10 9-11 7-4 2h-9l-6-2 1-2h12l7-3 9-7 14-12 11-9 14-7z" fill="#141A1F"/>
<path transform="translate(447,683)" d="m0 0 4 1 15 11 9 2 3 1-4 2-13 1-3 5-4 7h-3l-1-11-3-13z" fill="#13171B"/>
<path transform="translate(506,614)" d="m0 0h6l-3 11-2 4-5 2h-8l-5-6-2-9z" fill="#B8B9B8"/>
<path transform="translate(1012,929)" d="m0 0v3l-13 14-7 8-7 7-9 11-12 13-9 11-7 7-2-4 9-10 11-12 7-8 9-11h2l2-4 6-6 3-1 14-16z" fill="#1A282F"/>
<path transform="translate(530,591)" d="m0 0 6 1 3 3 4 1-4 7h-4v-7h-8l-5 7-4 9-7 17-2 17-1 11-3-4v-13l2-1v-11l4-12v-2l-3-2 1-2 6-1 7-14 4-3zm12 2 2 1-2 1z" fill="#141A1F"/>
<path transform="translate(857,1180)" d="m0 0 3 1-1 7 28 1h51l11 2v1h-93l-2 6-5 2 3-9z" fill="#121519"/>
<path transform="translate(1430,1780)" d="m0 0h103v1l5 1v1h-81l-28-1z" fill="#151B20"/>
<path transform="translate(554,728)" d="m0 0 3 4 2 91 1 4-5 2-1-60-1-39z" fill="#1D2D35"/>
<path transform="translate(1520,1113)" d="m0 0h9l3 1v2l16 4-2 3-10-2-9-3h-9l-24 9-6 1-18 1-1 2-1-1h-7v-3l30-4 10-3z" fill="#182127"/>
<path transform="translate(1623,247)" d="m0 0h2l-1 4-14 11-17 14-6 5-21 15h-3l2-4 10-8 12-10 12-9 15-12z" fill="#1D2226"/>
<path transform="translate(1452,320)" d="m0 0 4 2-5 5-5 8-4 9-2 10v11l3 14 6 12 8 9-2 2-6-4-8-13-4-11-1-6v-11l2-13 4-10 7-11z" fill="#1C2C34"/>
<path transform="translate(1084,1727)" d="m0 0h16l17 3 24 8 20 7 3 2-5 2-43-15-17-3h-17z" fill="#19252C"/>
<path transform="translate(1559,1199)" d="m0 0h6l16 11 16 13 12 11 8 7 1 4-5-1-9-9-8-7-13-11-18-13-6-4z" fill="#151B20"/>
<path transform="translate(1505,1131)" d="m0 0h197v1l-182 1-1 5-1-3h-17l-1-1-25-1v-1z" fill="#1B2931"/>
<path transform="translate(1524,607)" d="m0 0 4 1-2 3-13 2h-7v2l-2 1-16 1h-22l-1-3 2-1 50-5z" fill="#14191D"/>
<path transform="translate(1425,664)" d="m0 0h3l7 7 2 3h2l3-3 1 4 1 5 9 5 5 4-1 2-2-1v2l-3-1v-2l-10-6-8-3h-22l-7-4-3-3v-3l4 1 6 4 21 1-8-11z" fill="#151A1F"/>
<path transform="translate(1356,705)" d="m0 0h16l1 2-8 22-3 4-4-15-2-9z" fill="#ECEFEE"/>
<path transform="translate(1126,690)" d="m0 0 38 1 3 2 8 1v1h-78v-3l10-1 3 1h8l1-1z" fill="#1D2D35"/>
<path transform="translate(539,1719)" d="m0 0 13 1v1l-37 6-26 4-24 5h-10l1-2 35-7 24-4z" fill="#212A2F"/>
<path transform="translate(1232,727)" d="m0 0h2l-2 6-14 29-13 28-7 14-3-1 2-6 13-27 11-23 9-19z" fill="#161D23"/>
<path transform="translate(538,985)" d="m0 0 2 4 10 47 4 24-1 3-4 1 1-3-10-52-3-14z" fill="#1D2D35"/>
<path transform="translate(1563,468)" d="m0 0 5 1 14 11 15 12 17 13 10 9v2l-5-1-8-7-9-7-15-12-17-13-7-6z" fill="#151B20"/>
<path transform="translate(1727,1164)" d="m0 0h2v2h2l3 7 1 7-3-1-2-5v-3h-2l-2 18-2 14-4-1-11-12-7-8-5-6v-2l5 2 12 13 5 6h2l2-16h2z" fill="#1A262D"/>
<path transform="translate(1305,468)" d="m0 0 4 1-5 5-13 10-16 13-13 10-12 9h-3l2-4 15-12 14-11 16-13z" fill="#14191E"/>
<path transform="translate(174,1797)" d="m0 0m-5 1h5v2l-18 5-63 14h-5v-2l15-4 35-8 21-5z" fill="#1D2A31"/>
<path transform="translate(1559,1047)" d="m0 0 4 1-2 6-19 40-9 19-3 2-1-3 8-17 13-28z" fill="#151B21"/>
<path transform="translate(1414,1364)" d="m0 0h2l-2 6-17 37-12 26h-3l-1-2 18-38 11-24 2-4z" fill="#161D23"/>
<path transform="translate(1544,1651)" d="m0 0m-1 1m-2 1 2 1-1 4-10 10-8 7-11 11-14 9-7 3-5 1h-13v-1l17-4 12-6 9-7 12-11 15-15z" fill="#161D22"/>
<path transform="translate(653,632)" d="m0 0h8l1 1-1 8-6 2-20 1 1-8 5-2z" fill="#EFF1F0"/>
<path transform="translate(528,963)" d="m0 0 2 2 5 15 1 10h-2v2h-2l1 6v26l2 29 1 11 14-2-1 2-13 2-2-1-2-25-2-29-1-32z" fill="#CDD7D2"/>
<path transform="translate(662,614)" d="m0 0h8l-1 10-3 3h-16l-3-4v-6z" fill="#F0F2F1"/>
<path transform="translate(1592,1786)" d="m0 0 3 3 10 22 17 40v2l-4-2-12-26-5-12-10-21v-5z" fill="#212529"/>
<path transform="translate(1118,1265)" d="m0 0h8v1l-12 2 143 1v1l-135 1-31 1 3-3z" fill="#B8B9B8"/>
<path transform="translate(397,849)" d="m0 0 3 2-13 13-11 9-10 9-15 12-3 2h-4l2-4 8-6 16-13 13-12 8-7z" fill="#1D2D35"/>
<path transform="translate(441,1236)" d="m0 0h2l-2 5-12 16-14 19-10 13-9 10-7 8h-3l2-4 8-8 13-17 4-5 7-9 10-14 8-11z" fill="#B8B9B8"/>
<path transform="translate(1773,593)" d="m0 0 10 5 10-2 15 4 12 6 7 8-1 2-8-1 2-1-2-4-10-5-17-3-11 2-4-2 2-1h6l-7-3z" fill="#B5B6B6"/>
<path transform="translate(1116,909)" d="m0 0 7 6 10 11 7 8 9 9 5 6-1 2-8-8-5-3-9-9-7-8-4-5v-2l-4-1-2 11-3 9h-1v-11l4-12z" fill="#151C21"/>
<path transform="translate(1672,1657)" d="m0 0 6 2 10 7 5 1 18 13 17 14 4 3-1 4-4-2-13-11-16-12-17-12-9-6z" fill="#161D22"/>
<path transform="translate(895,1098)" d="m0 0 1 4-6 13-1 4 20 1 2 3h-20l-27-5-15-1v-1l11-1 3-1 19 3 3 1 2-6 6-13z" fill="#151C21"/>
<path transform="translate(926,1028)" d="m0 0h2l-2 6-17 38-12 28-3-1 3-9 8-19 7-15 9-20 3-7z" fill="#151C22"/>
<path transform="translate(637,605)" d="m0 0 4 1 1 2v7l-11 12-1-2-8 2h-3l-6 5 2-4 10-10 8-7z" fill="#D5ECE2"/>
<path transform="translate(697,1727)" d="m0 0h2v5l-7 10-6 10-10 18-7 11-5 10-2-1 1-7 8-14 6-9 12-21z" fill="#1B2930"/>
<path transform="translate(935,1765)" d="m0 0h5l2 3-30 4-40 4h-12v-2l24-3 44-5z" fill="#1C2C34"/>
<path transform="translate(1452,1215)" d="m0 0 3 1-2 3-1 5h-17l-18-3-24-1-6-1 4-2 8-1h9l17 2 13 2h8z" fill="#1C2B33"/>
<path transform="translate(853,1113)" d="m0 0 7 1 1 2-12 1-20 6-18 10-8 4-3 1-13-1v-1l10-1 16-8 14-8 13-4z" fill="#14191E"/>
<path transform="translate(649,646)" d="m0 0h12v6l-4 3-25 1 1-5 3-3z" fill="#EDEFEE"/>
<path transform="translate(447,443)" d="m0 0h14l7 1v1l-26 1-18 6-16 7-10 5-26 4-24 3-6 1h-10l1-2 13-2 27-3 22-3 10-4 20-9 16-5z" fill="#BABCBA"/>
<path transform="translate(1508,1183)" d="m0 0h21l15 4 17 9 3 3-5 1-15-8-12-4-12-2-10 1-11 2-1-3z" fill="#1A262D"/>
<path transform="translate(1456,401)" d="m0 0 5 1 4 2 8 1-1 4-6 1-4-1-46-1-7-1 1-2h45z" fill="#141A1F"/>
<path transform="translate(1250,249)" d="m0 0 5 1 16 13 13 10 14 11 11 9 1 3-4-1-15-12-13-10-25-20z" fill="#1C2C34"/>
<path transform="translate(363,752)" d="m0 0h25l23 2v1h-13l5 1v1h-12l-22-1-17 3-9 1v-3l14-4z" fill="#1C2B33"/>
<path transform="translate(1210,1240)" d="m0 0h17v1l-10 2-21 6-19 9-14 3-4-1 3-3 13-3 20-9z" fill="#141A1F"/>
<path transform="translate(508,838)" d="m0 0 4 2 3 7 9 33-2 2 2 11-1 4-2-10h-2l-4-18-5-23z" fill="#9FE6C8"/>
<path transform="translate(1441,480)" d="m0 0h2l1 3v52h-4v-54z" fill="#172026"/>
<path transform="translate(1893,1761)" d="m0 0 7 1 10 9 8 7 2 4-15 1h-31l2-2 3-1 32-1 2-1-11-9-9-6z" fill="#191E23"/>
<path transform="translate(501,713)" d="m0 0h1l1 6-1 3h2v15l-3 28-1 1-18-1v-1l5-1v-1l10-1 2-20z" fill="#172027"/>
<path transform="translate(797,372)" d="m0 0h19l17 4 19 9 1 3-5-2-2 1-13-6-12-4-7-1h-22l1-3z" fill="#151C21"/>
<path transform="translate(748,1610)" d="m0 0 1 2h2l-3 12-15 45h-2l-1 2 1-9 14-44z" fill="#1A262D"/>
<path transform="translate(1732,1698)" d="m0 0 8 6 14 13 8 7 9 9v2l-5-1-8-8-8-7-10-9-8-7-1-4z" fill="#1B2931"/>
<path transform="translate(1484,313)" d="m0 0 2 2 1 6 1 19 21 1 25 5 21 7 15 8-2 1-18-8-18-6-24-4-17-1-5-1-1-6z" fill="#B4BAB7"/>
<path transform="translate(579,631)" d="m0 0h2l-1 4-14 9-13 7-10 9-3 4v4h-7l4-1-1-4 6-8 9-8 17-9z" fill="#151C21"/>
<path transform="translate(942,991)" d="m0 0 1 4-6 13h2v-2h2l2-4h2v-2h2l-1 5-8 8-6 9-3 6-4 1 1-5 10-23 4-9z" fill="#151B21"/>
<path transform="translate(653,1636)" d="m0 0h1l1 8 1 53v14l-2-1-1-10-2-52v-6l-2-2 4-2z" fill="#1C2C34"/>
<path transform="translate(458,440)" d="m0 0 10 1 17 5 15 6 4 1h10l1 3-3 1h-9l-15-5-16-6-20-4v-1z" fill="#1C2B33"/>
<path transform="translate(872,1775)" d="m0 0h12v1l-9 1 5 1 93 1v1h-115l-7-1 2-2z" fill="#B8B9B8"/>
<path transform="translate(647,1642)" d="m0 0 1 2-18 27-12 16-3 2v-5l11-15 9-13 8-12z" fill="#19262D"/>
<path transform="translate(1734,1176)" d="m0 0 2 2 13 32 9 22-1 3h-2l-12-29-10-24z" fill="#1C2C34"/>
<path transform="translate(971,1189)" d="m0 0h29l4 2 3-1 11 2v1h-55l-10-1v-1l11-1h6z" fill="#121418"/>
<path transform="translate(641,620)" d="m0 0 4 1 1 9-10 3-2 1-3 17-2 1-2-7v-8l3-5 7-7z" fill="#E9EEEC"/>
<path transform="translate(1218,1279)" d="m0 0 3 2 5 1v1h-129v-1l18-1h99z" fill="#1D2D35"/>
<path transform="translate(527,833)" d="m0 0h8v1l9 1v1l-21 2-7 1 6 19-1 4-3-1-7-23 1-3 3-1z" fill="#182329"/>
<path transform="translate(375,695)" d="m0 0 11 2 23 7 16 5v4l-11-3-27-8-12-4z" fill="#141A1F"/>
<path transform="translate(245,1781)" d="m0 0h6l-3 3-48 10-24 6h-2l1-3 16-4 35-8z" fill="#243036"/>
<path transform="translate(1513,612)" d="m0 0 16 1-1 2 4 2-1 1h-63v-1l38-2v-2z" fill="#ACAEAE"/>
<path transform="translate(1441,176)" d="m0 0h3v40l-1 13-3-1v-51z" fill="#1F2E36"/>
<path transform="translate(1155,1258)" d="m0 0h6l-2 3-11 2-37 4h-4v-2l-4-1 41-5z" fill="#151C21"/>
<path transform="translate(452,1735)" d="m0 0 8 1-4 2-56 12h-9l2-2z" fill="#233138"/>
<path transform="translate(585,1713)" d="m0 0h3l-3 21-3 31-4 2 3-36 2-17z" fill="#253037"/>
<path transform="translate(1880,1534)" d="m0 0 4 2 18 43 1 2v7l-3-3-8-19-8-20-4-9z" fill="#1B2126"/>
<path transform="translate(587,1839)" d="m0 0h2l-1 4-11 18-13 20-3 1 1-5 14-23 9-14z" fill="#21262A"/>
<path transform="translate(1809,1733)" d="m0 0h13l23 4 20 8 13 7-4 1-10-5-16-6-7-2-10-3-7-1-25-1v-1z" fill="#CAD0CD"/>
<path transform="translate(528,943)" d="m0 0 2 1 6 27 2 8v12l-2-1-4-17-5-16-1-11z" fill="#141A1F"/>
<path transform="translate(580,1762)" d="m0 0h1v14h-2l1 7-1 5-13 7-20 12v-3l4-4 17-10 7-4h2l2-19z" fill="#242C32"/>
<path transform="translate(1245,1705)" d="m0 0h11l26 6 13 4v2h-8l-22-6-11-2h-10v-2l-3-1z" fill="#19262D"/>
<path transform="translate(749,573)" d="m0 0 5 1 5 5 2 5-1 7-6 5-3-1v-14l-2-4z" fill="#D5EBE1"/>
<path transform="translate(1205,380)" d="m0 0h81v2l-5 1-76-1z" fill="#1D2D35"/>
<path transform="translate(757,1727)" d="m0 0h8l6 5h-3l-2-2h-9l-57 12-9 2v-2l4-3 15-2z" fill="#DAE7E1"/>
<path transform="translate(1504,437)" d="m0 0h24l44 3 4 1 1-2 1 3-1 1-11-1-38-2h-33l-15-1v-1z" fill="#B8B9B8"/>
<path transform="translate(1554,596)" d="m0 0h9l12 5 1 3-7-1-8-3-8 1-24 9h-2l2-4z" fill="#151B20"/>
<path transform="translate(1647,1147)" d="m0 0h19l-2 4-10 10-3-1-4-10z" fill="#EEF0EF"/>
<path transform="translate(1602,1067)" d="m0 0 3 1-2 4-15 15-14 16-3-1-2 1 2-4 25-25z" fill="#151B20"/>
<path transform="translate(1077,1118)" d="m0 0 4 2 15 14 10 9 2 1 1 4-5-1-15-14-10-9-3-2z" fill="#151B20"/>
<path transform="translate(298,472)" d="m0 0h7l-4 2h-3l-2 4-10 1h-27v-2l29-4z" fill="#1D2D35"/>
<path transform="translate(1387,1690)" d="m0 0 4 1 1 2-15 4-12 5-15 9-4 1v-2l6-5 10-6 10-5z" fill="#161D23"/>
<path transform="translate(1766,1120)" d="m0 0 6 1 8 4v3l3 1v1h-79v-1l48-1 22-1-3-3-5-3z" fill="#D9EEE5"/>
<path transform="translate(337,975)" d="m0 0 2 2v9l-8 40-1 6-3-1 1-9 8-40z" fill="#2B3A41"/>
<path transform="translate(1173,851)" d="m0 0h2l-2 6-18 38-1 5-2-2 1-6 3-9 9-19 6-12z" fill="#161E24"/>
<path transform="translate(640,1841)" d="m0 0 1 2-12 29-5 9-3 1 1-5 12-30 4-5z" fill="#363D42"/>
<path transform="translate(1129,1264)" d="m0 0h5l-1 2 3 1 82 1v1h-105l1-2z" fill="#D9E2DE"/>
<path transform="translate(549,1517)" d="m0 0h14l21 6 2 4-9-2-16-4-12-1-26-1v-1z" fill="#141A1F"/>
<path transform="translate(1030,905)" d="m0 0h2l-2 4-5 8-9 10-7 5-14 16h-2l2-4 14-15 11-12 9-11z" fill="#14191D"/>
<path transform="translate(1780,1126)" d="m0 0 4 2v4h-65v-2l63-1-2-1z" fill="#B8B9B8"/>
<path transform="translate(458,742)" d="m0 0 4 1 7 6v2l4 2 4 5v3l-7-1-11-11-2-6z" fill="#C8E1D6"/>
<path transform="translate(1403,634)" d="m0 0h4l8 11 13 17 3 4-1 2-2-4-5-1-10-13-10-14z" fill="#14191D"/>
<path transform="translate(1677,1084)" d="m0 0h7l2 2-12 4-8 6-7 7-8 4h-6v-2h5v-2l8-4 11-11z" fill="#14191E"/>
<path transform="translate(586,787)" d="m0 0h3l-1 5-17 25-3 3-2-4 12-17z" fill="#151C21"/>
<path transform="translate(1173,956)" d="m0 0 3 4 8 19v2l-4-2-9-10-2-4v-3z" fill="#D6EFE4"/>
<path transform="translate(1614,1631)" d="m0 0 10 1 21 7 8 4-2 3-6-2-15-6-16-4z" fill="#1C2C34"/>
<path transform="translate(759,1128)" d="m0 0 10 2 14 4 14 1-4 2 3 2h-11l-30-8z" fill="#172127"/>
<path transform="translate(1559,1199)" d="m0 0h6l16 11 10 8-1 4-6-4-19-14-6-4z" fill="#141A1F"/>
<path transform="translate(1321,1227)" d="m0 0 8 1 19 6 10 2v1h-14l-22-6h-19l2-2 4-1h9z" fill="#1D2D35"/>
<path transform="translate(642,658)" d="m0 0h12l-2 5-10 3h-8l-2-5 3-2z" fill="#F1F3F2"/>
<path transform="translate(585,1524)" d="m0 0 9 2 27 8 3 3-4 1-34-10z" fill="#172026"/>
<path transform="translate(330,700)" d="m0 0 14 1 2 1 1-2 1 4 19 6-2 1v2l-12-3-19-6-4-1z" fill="#161D22"/>
<path transform="translate(1e3 458)" d="m0 0 5 2 12 9 7 7v3l-17-1v-1h11l-5-6-14-10z" fill="#14191E"/>
<path transform="translate(1232,727)" d="m0 0h2l-2 6-14 29-1 3-4 1 1-4 13-28 3-6z" fill="#151C22"/>
<path transform="translate(1593,270)" d="m0 0m-2 1 2 1-4 8-11 7-12 9h-3l2-4 10-8 12-10z" fill="#223138"/>
<path transform="translate(969,1761)" d="m0 0h10l11 1v1l-39 4h-13l2-2 11-2z" fill="#161D23"/>
<path transform="translate(1399,626)" d="m0 0 5 5 2 3-4 1-3-2-2 11-4 10-1 5-3-3 2-9 5-14 2-6z" fill="#151B20"/>
<path transform="translate(1126,690)" d="m0 0 11 1v2l-8 1-1 1h-31v-3l10-1 3 1h8l1-1z" fill="#1A262D"/>
<path transform="translate(1669,1146)" d="m0 0h5l2 3-7 2-12 12-4 3-4-2-2-5 1-3 4 4 4-2 10-10z" fill="#141A1F"/>
<path transform="translate(414,848)" d="m0 0 3 1-2 5-13 22-3 4h-3l2-5 10-18z" fill="#1D2D35"/>
<path transform="translate(675,1627)" d="m0 0 4 1 2 2-24 6h-4v2l-7 6-2-1 8-10z" fill="#182329"/>
<path transform="translate(1143,942)" d="m0 0 4 2 7 6 5 5 13 14-3 3-15-16-9-10z" fill="#161D23"/>
<path transform="translate(449,720)" d="m0 0 7 1 7 5-10 8-4-5-1-2v-6z" fill="#E4EAE7"/>
<path transform="translate(1441,1693)" d="m0 0 12 1 26 3 2 3h-13l-27-4-5-1v-1z" fill="#1D2D35"/>
<path transform="translate(1391,403)" d="m0 0 64 1v1l-45 1-1 1h-14l-9-1 2-2z" fill="#1D2D35"/>
<path transform="translate(651,1143)" d="m0 0 9 2 25 9-4 3-30-10-1-3z" fill="#19262C"/>
<path transform="translate(910,1064)" d="m0 0h2l-2 6-13 30-3-1 3-9 8-19 3-6z" fill="#161E23"/>
<path transform="translate(1358,720)" d="m0 0 2 2 2 9 3-4 2-4 2 2-2 9-3 8-4-2-3-13v-6z" fill="#151C21"/>
<path transform="translate(1571,1101)" d="m0 0 2 1v2h-2v2l-2 1-1 4-10 7-7 5h-5l-1-2 5-2 14-12z" fill="#14181D"/>
<path transform="translate(1709,1089)" d="m0 0 9 5 13 11 5 4v3l-4-1-13-11-11-7z" fill="#172127"/>
<path transform="translate(372,669)" d="m0 0 3 2v2l8 1h14l-2 2-7 1h-11l-6 14h-3l1-7 3-6z" fill="#141A1F"/>
<path transform="translate(1084,1727)" d="m0 0h16l17 3 2 2-7 1-13-2h-17z" fill="#182329"/>
<path transform="translate(1800,1335)" d="m0 0 2 1 12 31 1 5-3-1-13-31z" fill="#20272C"/>
<path transform="translate(554,728)" d="m0 0 3 4v34l-3 1-1-37z" fill="#19252C"/>
<path transform="translate(412,880)" d="m0 0 2 2-12 23-4 6-3-1 8-16 6-11z" fill="#1D2D35"/>
<path transform="translate(794,1329)" d="m0 0 1 2-13 29-3-2 2-6 9-21z" fill="#161D23"/>
<path transform="translate(1215,1239)" d="m0 0h14l19 5 5 2-1 3-9-2-14-4-10-1z" fill="#171F25"/>
<path transform="translate(1175,1155)" d="m0 0 8 1 14 9 8 6-1 3-4-2-17-11-8-5z" fill="#19252C"/>
<path transform="translate(1519,1146)" d="m0 0h5v4l-12 13-1 2h-2l1-5 7-13z" fill="#D3E0DA"/>
<path transform="translate(576,1060)" d="m0 0 2 3 2 8v7l-9 3h-12v-2l15-3 2-1-1-10z" fill="#172026"/>
<path transform="translate(505,683)" d="m0 0h1v21l-1 16-1 2h-2v-23z" fill="#151C21"/>
<path transform="translate(562,624)" d="m0 0 1 4-1 2 8-2h10l1 2-16 4-8 1 1-5 2-5z" fill="#151B20"/>
<path transform="translate(1494,1126)" d="m0 0 3 1-1 3h16v1h-41l1-3 16-1z" fill="#CBCCCB"/>
<path transform="translate(1065,715)" d="m0 0 1 3-11 25-1-2h-2l3-9 6-14z" fill="#14181D"/>
<path transform="translate(553,694)" d="m0 0h1l1 5 2-1v23l-2 6h-1l-1-5z" fill="#1D2D35"/>
<path transform="translate(1477,411)" d="m0 0h7l1 4-5 2-8 2-4 2-2-6 7-3z" fill="#13181C"/>
<path transform="translate(1008,1076)" d="m0 0 11 3 15 8-3 3-16-8-10-3z" fill="#1A282F"/>
<path transform="translate(424,649)" d="m0 0h2l3 3 9 3 5 9v2l-4-1-7-8-5-1-5 4-2-1 3-3h2z" fill="#171F25"/>
<path transform="translate(1795,599)" d="m0 0 9 1 10 4 9 6 4 5-5 1-4-2h2l-2-4-13-6-10-4z" fill="#1D2D35"/>
<path transform="translate(933,443)" d="m0 0 35 1-2 2-37 1-2-3z" fill="#1D2D35"/>
<path transform="translate(705,1619)" d="m0 0 3 1-2 3-21 6h-7l2-3z" fill="#151B21"/>
<path transform="translate(1526,801)" d="m0 0 5 5 10 19-2 5-3-4-10-22z" fill="#172026"/>
<path transform="translate(382,1519)" d="m0 0h20l2 1v10l-1 16v6l-2-3v-13l2-15-22 1v2h-2l-1 3 1-6z" fill="#B8B9B8"/>
<path transform="translate(872,1775)" d="m0 0h12v1l-9 1 4 3h-21l-7-1 2-2z" fill="#BABBBA"/>
<path transform="translate(1532,608)" d="m0 0 2 1v2l51 1v1h-68l3-2z" fill="#D7E3DE"/>
<path transform="translate(1109,928)" d="m0 0h1l1 9-3 9-5-1-10-7 2-3 4 2 7 4z" fill="#151B21"/>
<path transform="translate(1012,929)" d="m0 0v3l-13 14-7 8-7 7-2-1 5-7 4-5 3-1 14-16z" fill="#1C2B32"/>
<path transform="translate(1370,710)" d="m0 0 1 3-7 18-2 2-2-6 1-7 3-3 3-2 1-3h2z" fill="#D2E4DC"/>
<path transform="translate(535,435)" d="m0 0h2l-1 4-10 9-9 7-4-1 4-4 8-7z" fill="#171F25"/>
<path transform="translate(1475,406)" d="m0 0h8v4l-6 2-10 3-2 1v-7l7-1z" fill="#1D2D35"/>
<path transform="translate(1564,1638)" d="m0 0 2 1-1 3-14 9-6 5-3-1 4-6 14-9z" fill="#141A1F"/>
<path transform="translate(1115,806)" d="m0 0 2 2 8 20-1 3h-3l-7-17z" fill="#161E24"/>
<path transform="translate(1540,826)" d="m0 0 3 3 9 19v2l-4 1-9-19z" fill="#151C22"/>
<path transform="translate(631,1664)" d="m0 0m-1 1 2 3-13 18-4 3v-5l11-15 2-2z" fill="#1B2931"/>
<path transform="translate(1678,1147)" d="m0 0h41v2l-37 1-2 2-3-4z" fill="#C9D5CF"/>
<path transform="translate(348,470)" d="m0 0h5v4 1h-27l-1-2z" fill="#DADCDC"/>
<path transform="translate(1362,395)" d="m0 0 14 5 13 2 2 2-3 1h-9l-13-4v-2h-4z" fill="#171F25"/>
<path transform="translate(1879,1780)" d="m0 0h28l-2 1v2h-31l2-2z" fill="#2B3940"/>
<path transform="translate(1520,1113)" d="m0 0h9l3 1v2l16 4-2 3-10-2-9-3-7-1 3-2z" fill="#161E24"/>
<path transform="translate(389,1749)" d="m0 0 7 1v1l-31 7-8-1v-1z" fill="#28363D"/>
<path transform="translate(697,1727)" d="m0 0h2v5l-7 10-5 7h-2l-2 6-1-4 9-15z" fill="#182229"/>
<path transform="translate(424,1600)" d="m0 0h13l3 1 1 6-6 1-11-6z" fill="#C1C2C1"/>
<path transform="translate(623,1535)" d="m0 0 16 4 9 3v2l-5 1-20-6-1-3z" fill="#172026"/>
<path transform="translate(1623,911)" d="m0 0 3 1 5 13-4 1-3-7-3 4-2 2-2-1 2-6z" fill="#151B20"/>
<path transform="translate(1037,897)" d="m0 0 6 1 6 4-1 4-7-4h-3l-9 11-2 1 2-5 2-4z" fill="#172026"/>
<path transform="translate(1465,416)" d="m0 0h2l2 7v5l5 4 3 1v2l3 1h-8l-6-5-2-5z" fill="#171F25"/>
<path transform="translate(1480,390)" d="m0 0 3 1v7l-5 5-3 1h-11l-5-2 4-1 2 1h9l2-2h4v-6h-5v2l-5 1-1-3 9-3z" fill="#C4CCC8"/>
<path transform="translate(282,1773)" d="m0 0m-5 1h5v2l-29 7-3-1v-2z" fill="#28373E"/>
<path transform="translate(417,1406)" d="m0 0h2l-2 33-1 15h-1v-16l2-25-2 1-3 7h-2l2-6z" fill="#BABCBB"/>
<path transform="translate(506,836)" d="m0 0 2 1 5 17v10l-3-3-4-19-1-5z" fill="#151C21"/>
<path transform="translate(1499,739)" d="m0 0 3 4 9 19-1 2-4-2-6-12-2-10z" fill="#19242B"/>
<path transform="translate(948,442)" d="m0 0h16l16 3-2 2-5 1-7-2v-1l-25-1v-1z" fill="#161D22"/>
<path transform="translate(406,1558)" d="m0 0 2 2 3 12 3 19-1 3-4-1-9-6 3-1 3 3h4v-11l-2-11-2-5z" fill="#BBBCBB"/>
<path transform="translate(1617,1085)" d="m0 0 2 1 4 10 1 5h-8l-1-8z" fill="#D5D6D6"/>
<path transform="translate(1066,1078)" d="m0 0 2 2-3 24h-3l-3-4 1-3 4-10z" fill="#B8B9B8"/>
<path transform="translate(1662,585)" d="m0 0h9l6 1h12v3l-2 1h-9l-17-2z" fill="#1D2D35"/>
<path transform="translate(830,376)" d="m0 0 5 1 17 8 1 3-5-2-2 1-13-6-3-2z" fill="#1A262D"/>
<path transform="translate(539,1719)" d="m0 0 13 1v1l-32 5v-2l2-2z" fill="#2E3C43"/>
<path transform="translate(1270,1709)" d="m0 0 8 1 17 5v2h-8l-18-5z" fill="#1A272E"/>
<path transform="translate(556,799)" d="m0 0h1l1 7 1 17 1 4-5 2v-22z" fill="#1B2931"/>
<path transform="translate(1336,624)" d="m0 0 2 4 3 15-1 4-3 1-3-16v-6h2z" fill="#161D23"/>
<path transform="translate(1467,613)" d="m0 0h8v2h29v1l-16 1h-22l-1-3z" fill="#1A282F"/>
<path transform="translate(926,1769)" d="m0 0h6l-3 3-33 3h-12v-1l36-4z" fill="#C2C5C3"/>
<path transform="translate(452,1735)" d="m0 0 8 1-4 2-23 5-3-1-1-2z" fill="#26353C"/>
<path transform="translate(1400,1691)" d="m0 0h16l20 3 10 2v1h-10l-14-3-9-1h-21v-1z" fill="#C7CECB"/>
<path transform="translate(1482,1194)" d="m0 0 4 1-6 4-5 5v-3l-4 3h-2l-2 4-3 1-2-1v-2l10-7z" fill="#14191E"/>
<path transform="translate(569,1039)" d="m0 0 3 1 4 15v10l-2-1-5-18z" fill="#161E24"/>
<path transform="translate(1122,688)" d="m0 0h17l-2 2-18 2-1 1h-8l-3-2 1-1z" fill="#14181D"/>
<path transform="translate(570,1714)" d="m0 0h4v2l-10 3-6 1h-12v-2z" fill="#151A20"/>
<path transform="translate(1270,1712)" d="m0 0 11 2 21 6 6 1v1h-11l-15-4-8-3-4-2z" fill="#CDDBD4"/>
<path transform="translate(648,1543)" d="m0 0 7 1 11 3 1 3 5 1v1l-8-1-19-6z" fill="#161D23"/>
<path transform="translate(564,1014)" d="m0 0 2 3 5 19v3h-2l-1 3-5-19z" fill="#172127"/>
<path transform="translate(1439,700)" d="m0 0h9v4h-21l-8-1 4-2h15z" fill="#121418"/>
<path transform="translate(506,644)" d="m0 0h1l1 21-1 3h-2l1 5-2 3v-26h1z" fill="#1D2D35"/>
<path transform="translate(1734,1176)" d="m0 0 2 2 8 20-1 3h-2l-8-19z" fill="#1B2A31"/>
<path transform="translate(1766,1120)" d="m0 0 6 1 8 4v3l3 1v1h-15l3-3h3l-3-3-5-3z" fill="#D2E6DD"/>
<path transform="translate(1568,1105)" d="m0 0 2 1v2h9l11 2 2 3h-8l-16-2z" fill="#161E24"/>
<path transform="translate(517,871)" d="m0 0h2l4 5 1 4-2 2 2 11-1 4-2-10h-2l-3-14z" fill="#C2ECDA"/>
<path transform="translate(527,833)" d="m0 0h8v1l9 1v1l-21 2-7 1-1 2v-3l3-2-3-2z" fill="#1D2D35"/>
<path transform="translate(663,642)" d="m0 0h1v11l-4 5-4 1-1 3-2-1v-2l-6-1 2-3 10-2 3-2z" fill="#171F25"/>
<path transform="translate(1136,858)" d="m0 0 2 1 5 13v7h-2l-7-17v-3z" fill="#141A1F"/>
<path transform="translate(1656,584)" d="m0 0h6v2l2 1-13 2-10 5-2-3 12-6z" fill="#171F25"/>
<path transform="translate(1441,176)" d="m0 0h3v18l-2-2v8l-2 1v-24z" fill="#495257"/>
<path transform="translate(112,1811)" d="m0 0 4 2v1l-23 5h-5v-2l15-4z" fill="#272D31"/>
<path transform="translate(1845,1448)" d="m0 0 3 1 8 20v4h-2l-8-19z" fill="#1B2228"/>
<path transform="translate(1647,1147)" d="m0 0h19l-1 3-1-2-5 1-3 3-7 3-2-5z" fill="#CEE1D8"/>
<path transform="translate(888,1116)" d="m0 0 1 3 20 1 2 3h-20l-6-1z" fill="#1D2D35"/>
<path transform="translate(860,1114)" d="m0 0 16 2 6 1-4 2-5 1-9-2-15-1v-1l11-1z" fill="#171F25"/>
<path transform="translate(1033,1088)" d="m0 0 5 1 16 10-1 2-5-2-7-3-9-6z" fill="#172026"/>
<path transform="translate(1727,1164)" d="m0 0h2v2h2l3 7 1 7-3-1-2-5v-3h-2l-1 7-1 2-2-1z" fill="#19252C"/>
<path transform="translate(1596,594)" d="m0 0m-2 1 2 1-2 4-5 5-3 2-9-1-3-2h2v-2l7 2 10-8z" fill="#172026"/>
<path transform="translate(1364,1698)" d="m0 0 2 1-1 3-15 9-4 1v-2l6-5 10-6z" fill="#151C21"/>
<path transform="translate(1713,1686)" d="m0 0 6 2 2 2 5 2 6 5-1 4-4-2-14-12z" fill="#141A1F"/>
<path transform="translate(1680,1272)" d="m0 0h19l3 2-18 2-1 2-4-2z" fill="#B8B9B8"/>
<path transform="translate(1452,1215)" d="m0 0 3 1-2 3-1 5h-17l-1-2 11-1z" fill="#151A1F"/>
<path transform="translate(1722,1147)" d="m0 0 3 4 5 12-1 3v-2h-2l-1 12-2 3v-20-3z" fill="#1D2D35"/>
<path transform="translate(337,975)" d="m0 0 2 2v9l-3 15-3 2 1-11z" fill="#1C2C34"/>
<path transform="translate(513,858)" d="m0 0h1l3 17-1 7h-2l-3-14v-5h1z" fill="#1C2B32"/>
<path transform="translate(1544,1651)" d="m0 0m-1 1m-2 1 2 1-1 4-10 10-4 1v-3l10-9z" fill="#182128"/>
<path transform="translate(298,470)" d="m0 0m-8 1h8v2l-24 3h-10l1-2z" fill="#B8B9B8"/>
<path transform="translate(552,426)" d="m0 0h5v2l-14 6-4 3h-2l-1-3 10-6z" fill="#172026"/>
<path transform="translate(1e3 1757)" d="m0 0 3 1 1 2-12 2h-17l2-2z" fill="#161E23"/>
<path transform="translate(515,1723)" d="m0 0h10v1h-5v2l-14 2h-9v-2z" fill="#1A242A"/>
<path transform="translate(987,953)" d="m0 0 2 1-5 6-1 4-4 4-5 3-7 6 2-4 11-12 2-3h2l2-4z" fill="#151C22"/>
<path transform="translate(1507,761)" d="m0 0 5 3 5 11-1 4h-2l-7-14z" fill="#161F24"/>
<path transform="translate(1177,956)" d="m0 0 2 2 7 18h-4l-6-13z" fill="#161E24"/>
<path transform="translate(400,462)" d="m0 0 3 1-7 3-8 2-9 1h-16v-1l29-4z" fill="#DAE8E2"/>
<path transform="translate(892,1780)" d="m0 0h25v1l-8 1v1h-18l-6-1v-1z" fill="#1B2A31"/>
<path transform="translate(757,1727)" d="m0 0h8l6 5h-3l-2-2h-9l-13 3h-7l2-2z" fill="#DAE6E1"/>
<path transform="translate(1667,1651)" d="m0 0 5 2 18 12-2 2-14-9h-3l-6-6z" fill="#1B2830"/>
<path transform="translate(1873,1512)" d="m0 0 2 2 8 19v2l-4-1-6-15z" fill="#232A2F"/>
<path transform="translate(1155,1258)" d="m0 0h6l-2 3-11 2h-5v-2h-7v-1z" fill="#171F25"/>
<path transform="translate(538,985)" d="m0 0 2 4 3 14-1 7-2-1-3-14z" fill="#1B2931"/>
<path transform="translate(1161,877)" d="m0 0h2l-2 6-6 12-1 5-2-2 1-6 3-9 3-4z" fill="#1C2C34"/>
<path transform="translate(1453,651)" d="m0 0 3 3 3 8-4-1-6 2-1-2z" fill="#D2DFD9"/>
<path transform="translate(503,629)" d="m0 0 5 1v9l-3 1v-7l-7 1-1 4v-5l-3-2 8-1z" fill="#1B2931"/>
<path transform="translate(1361,423)" d="m0 0h1l2 20v7l-1 4-3 1z" fill="#13171B"/>
<path transform="translate(1361,399)" d="m0 0h5l-2 3-1 29h-1l-1-8z" fill="#1D2D35"/>
<path transform="translate(1586,1087)" d="m0 0v3l-13 13h-3v-3l8-8 5-2z" fill="#1A272E"/>
<path transform="translate(884,1775)" d="m0 0h6v2l11 1v1h-25l-3-3z" fill="#DBDCDC"/>
<path transform="translate(747,1598)" d="m0 0 1 2-5 9-4 3-7-1 3-2 5-3 4-7z" fill="#172026"/>
<path transform="translate(1545,1191)" d="m0 0h7l12 7-1 2h-5l-13-8z" fill="#19252C"/>
<path transform="translate(750,570)" d="m0 0 6 1 5 4 2 6-3 3-4-8-7-3-1 3v-4z" fill="#182229"/>
<path transform="translate(1588,373)" d="m0 0 4 2v2l-19 8-13 5-3-1 25-10 6-3z" fill="#B8B9B8"/>
<path transform="translate(200,1791)" d="m0 0m-5 1h5v2l-24 6h-2l1-3 16-4z" fill="#36444A"/>
<path transform="translate(1418,1689)" d="m0 0h7l16 3v2h-10l-15-2z" fill="#18232A"/>
<path transform="translate(1530,1184)" d="m0 0 8 1 12 5-1 2-7-1-10-3v-2z" fill="#1A272E"/>
<path transform="translate(528,963)" d="m0 0 2 2 2 5-1 7v34h-1l-1-32z" fill="#B8B9B8"/>
<path transform="translate(1347,1708)" d="m0 0 2 1-3 1 1 3-12 6h-5l4-4z" fill="#19252C"/>
<path transform="translate(1414,1364)" d="m0 0h2l-2 6-5 11h-3l-1-2 7-14z" fill="#161E24"/>
<path transform="translate(1726,1178)" d="m0 0h1l-1 11-1 7-5 2 2-9 1-10 3 1z" fill="#1D2D35"/>
<path transform="translate(1014,923)" d="m0 0 2 1-5 7-14 14-2 3h-2l2-4 14-15z" fill="#14191D"/>
<path transform="translate(1147,688)" d="m0 0h10l2 2-1 1h-27v-1z" fill="#D1D7D4"/>
<path transform="translate(667,1548)" d="m0 0 16 4 3 1v2l-6 1-10-3-3-3z" fill="#19262D"/>
<path transform="translate(1517,1139)" d="m0 0h2l1 7-4 4-3 5h-3l2-6z" fill="#151A20"/>
<path transform="translate(631,633)" d="m0 0 1 3-1 3v12l-2 1-2-7v-8z" fill="#E9EEEC"/>
<path transform="translate(699,417)" d="m0 0h8l17 3v1h-19l-7-2z" fill="#141A1F"/>
<path transform="translate(736,1651)" d="m0 0h1l-1 9-3 9h-2l-1 2 1-9 4-10z" fill="#172127"/>
<path transform="translate(748,1610)" d="m0 0 1 2h2l-3 12-2 5-1-2h-2l3-11z" fill="#1A272E"/>
<path transform="translate(649,1819)" d="m0 0h2l-2 6-7 16-4 2 1-5 3-7 3-3z" fill="#18232A"/>
<path transform="translate(491,1727)" d="m0 0 10 1v1l-23 4v-3z" fill="#27353C"/>
<path transform="translate(766,1392)" d="m0 0 1 2-7 16-3-2 3-9 4-6z" fill="#161E23"/>
<path transform="translate(1407,1379)" d="m0 0 1 4-6 13-4 1 3-9 5-8z" fill="#151B20"/>
<path transform="translate(1446,1697)" d="m0 0 13 1 22 2v1h-18l-17-2z" fill="#CBD4D0"/>
<path transform="translate(1526,1668)" d="m0 0 3 1-6 7-10 10-3 1 2-4 12-12z" fill="#151B20"/>
<path transform="translate(1864,1495)" d="m0 0 3 1 6 14v7l-2-2-7-18z" fill="#181F24"/>
<path transform="translate(1517,1114)" d="m0 0h6l2 2-13 4-6 1v-3z" fill="#151B20"/>
<path transform="translate(1045,1097)" d="m0 0 5 2 3 1 4 1 5 4-2 4-14-10z" fill="#151B20"/>
<path transform="translate(446,731)" d="m0 0 5 5 4 5v3l-6-2-5-5 2-1z" fill="#D8E2DD"/>
<path transform="translate(1535,1646)" d="m0 0h3v2l7 1-2 4-5 3-3-5z" fill="#D4D8D6"/>
<path transform="translate(759,1128)" d="m0 0 10 2 4 2-1 2-9-1-8-2z" fill="#172027"/>
<path transform="translate(1470,1126)" d="m0 0 18 1v1l-18 1-1 2-1-1h-7v-3z" fill="#19262C"/>
<path transform="translate(559 1e3)" d="m0 0h3l3 16-1 3-4-9z" fill="#151C21"/>
<path transform="translate(1723,1100)" d="m0 0 5 2 8 7v3l-4-1-10-9z" fill="#151C21"/>
<path transform="translate(512,835)" d="m0 0h10l-4 2-3 1 2 4v5h-3l-3-11z" fill="#13171C"/>
<path transform="translate(1149,685)" d="m0 0h6l3 3-19 1-8-1v-1z" fill="#172025"/>
<path transform="translate(654,660)" d="m0 0h1v5l-2 2-12 2 1-4 10-3z" fill="#151B20"/>
<path transform="translate(649,1641)" d="m0 0 3 1v28h-1l-1-18-2-5-2-1z" fill="#C0C1C0"/>
<path transform="translate(508,838)" d="m0 0 4 2 3 7 2 8h-2l-2-5h-2z" fill="#C3DCD1"/>
<path transform="translate(656,1632)" d="m0 0h5l-1 2h-3v2h-4v2l-7 6-2-1 8-10z" fill="#151B20"/>
<path transform="translate(799,1315)" d="m0 0 1 4-5 10-4 2 3-9 4-6z" fill="#141A1F"/>
<path transform="translate(1523,790)" d="m0 0 3 4 5 10-1 3-5-5-4-8z" fill="#1A262D"/>
<path transform="translate(477,754)" d="m0 0h2l3 4v2l5 2 1 2h-8l-3-2h2l-1-4h-2z" fill="#13171C"/>
<path transform="translate(572,631)" d="m0 0h7l-4 4-5 2-8-2 3-2z" fill="#D9E5E0"/>
<path transform="translate(560,1794)" d="m0 0 2 1-4 5-13 7 2-5z" fill="#1E2227"/>
<path transform="translate(943,993)" d="m0 0 2 2v3l2 1-6 7h-2v2h-2l2-6z" fill="#CCD6D2"/>
<path transform="translate(453,686)" d="m0 0 6 4 1 3h-2l-1 4-4-1-1-2z" fill="#1C2C34"/>
<path transform="translate(487,659)" d="m0 0h1v8l-2 9h-3l1-11 1-2h2l-1-3z" fill="#14191E"/>
<path transform="translate(502,633)" d="m0 0h3v7l-2 2-4-1-1-7z" fill="#E8EDEB"/>
<path transform="translate(1e3 477)" d="m0 0h11l10 1v1l-5 1h-18l2-1z" fill="#1D2D35"/>
<path transform="translate(1370,1229)" d="m0 0 3 1-6 4-5 2h-7v-2l7-3h5z" fill="#151B20"/>
<path transform="translate(1309,1226)" d="m0 0h9l3 2-3 1h-10l-7 2v-3z" fill="#151B20"/>
<path transform="translate(1567,269)" d="m0 0 8 4 7 5-1 2h-4v-2l-5-2-5-5z" fill="#F8F9F9"/>
<path transform="translate(753,1592)" d="m0 0 1 2-5 16-1-4-1-1-2 1 2-6z" fill="#D0D6D3"/>
<path transform="translate(1813,1371)" d="m0 0h3l7 18h-2v-2h-2l-6-13z" fill="#2A353C"/>
<path transform="translate(1337,1232)" d="m0 0 7 1 14 3v1h-14l-5-2z" fill="#19242B"/>
<path transform="translate(535,971)" d="m0 0 2 4 1 4v12l-2-1-3-14 1-3z" fill="#172127"/>
<path transform="translate(1143,942)" d="m0 0 4 2 7 6 5 5v3l-4-4-5-3-7-8z" fill="#1B2A31"/>
<path transform="translate(496,646)" d="m0 0 2 1-8 10-2 4h-1v2h-2l1-7 5-5z" fill="#172026"/>
<path transform="translate(754,1597)" d="m0 0h1v6l-4 9h-2l1-9 2-5z" fill="#141A1F"/>
<path transform="translate(1472,1128)" d="m0 0h13l4 2-2 1h-16z" fill="#B9BAB9"/>
<path transform="translate(1561,1110)" d="m0 0m-2 1 2 1-3 3-1 4-6 4h-5l-1-2 5-2z" fill="#151B21"/>
<path transform="translate(635,659)" d="m0 0h5l-4 2v2l8-1v2l3 1-5 1h-8l-2-5z" fill="#CBDBD3"/>
<path transform="translate(1478,347)" d="m0 0 5 3v18h-4l-2-4 3 1 1-10-1-5-2-1z" fill="#B9BBB9"/>
<path transform="translate(1439,212)" d="m0 0h1l1 16 2 1v-13l3-1v2h-2l1 4-1 10h-4l-1-2z" fill="#B8B9B8"/>
<path transform="translate(588,1709)" d="m0 0 1 2-7 5-10 1 2-1v-3l12-3z" fill="#21282D"/>
<path transform="translate(1088,1269)" d="m0 0h6l-2 2 9 1v1l-14 1-8 1 2-2h4v-3z" fill="#27363D"/>
<path transform="translate(1193,1164)" d="m0 0 4 1 8 6-1 3-4-2-8-6z" fill="#172127"/>
<path transform="translate(435,654)" d="m0 0 3 1 5 9v2l-4-1-5-7z" fill="#19242B"/>
<path transform="translate(1446,658)" d="m0 0 2 2-1 6-3 7-3-3z" fill="#141A1F"/>
<path transform="translate(1601,591)" d="m0 0h5l1 2-11 6-3 1 2-4 4-4z" fill="#14191E"/>
<path transform="translate(918,438)" d="m0 0 4 2 7 6v1l-7-1-6-7z" fill="#13181D"/>
<path transform="translate(627,428)" d="m0 0 2 1-4 5-6 2h-6l5-4z" fill="#151C21"/>
<path transform="translate(652,1810)" d="m0 0 1 3-1 5-3 1-1 5-4 7-1-2 8-18z" fill="#14191D"/>
<path transform="translate(1162,1747)" d="m0 0h15l-2 2 1 2h-9l-6-2z" fill="#161E24"/>
<path transform="translate(1647,1156)" d="m0 0 5 4 4-2 3-2-2 4-4 6-4-2-2-5z" fill="#141A1F"/>
<path transform="translate(1559,1047)" d="m0 0 4 1-2 6-3 6h-2l-1-4z" fill="#19252B"/>
<path transform="translate(926,1028)" d="m0 0h2l-2 6-4 9-3-1 2-6 3-7z" fill="#161E23"/>
<path transform="translate(1178,967)" d="m0 0 2 3 4 9v2l-4-2-5-6 3-2z" fill="#CDD4D0"/>
<path transform="translate(1131,845)" d="m0 0 3 4 3 9-4 1-3-9z" fill="#161E24"/>
<path transform="translate(1443,673)" d="m0 0h3v2l3-1 1 4h-2l1 3-2 1-5-3z" fill="#D4DDD9"/>
<path transform="translate(535,435)" d="m0 0h2l-1 4-9 8-3-1 9-10z" fill="#151B21"/>
<path transform="translate(1623,247)" d="m0 0h2l-1 4-8 6-3-3 8-6z" fill="#252C31"/>
<path transform="translate(911,1761)" d="m0 0 2 1-1 3 16 1v1l-22 1 2-5z" fill="#D3DFDA"/>
<path transform="translate(529,886)" d="m0 0 2 4 1 9-3 1-2-10z" fill="#161E24"/>
<path transform="translate(1220,752)" d="m0 0 1 4-4 9-4 1 1-4 4-9z" fill="#151B20"/>
<path transform="translate(508,638)" d="m0 0h1l-1 19-3-4v-13z" fill="#13171C"/>
<path transform="translate(1791,601)" d="m0 0 10 2v2h-17l-2-2z" fill="#D9EEE5"/>
<path transform="translate(218,1787)" d="m0 0h3v2l-12 3-9 1 1-2z" fill="#212C32"/>
<path transform="translate(1084,1727)" d="m0 0h13l-2 3-4 1h-9z" fill="#1D2D35"/>
<path transform="translate(550,687)" d="m0 0 6 1v13l-2-2-2-9-3-1z" fill="#14181D"/>
<path transform="translate(1399,1216)" d="m0 0h9l4 1v2h-16v-2z" fill="#14191E"/>
<path transform="translate(556,721)" d="m0 0h5l-1 4-4 9h-1l-1-7z" fill="#13171B"/>
<path transform="translate(1355,707)" d="m0 0 2 2 2 11-3 3-2-10v-5z" fill="#1D2D35"/>
<path transform="translate(330,700)" d="m0 0 14 1 2 1 1-2v4h-16z" fill="#19252C"/>
<path transform="translate(1447,682)" d="m0 0 6 3 5 4-1 2-2-1v2l-3-1v-2l-6-4z" fill="#172127"/>
<path transform="translate(1563,468)" d="m0 0 5 1 8 6-4 2-8-6z" fill="#182228"/>
<path transform="translate(569,1869)" d="m0 0 1 3-6 9-3 1 1-5 3-5z" fill="#181D22"/>
<path transform="translate(580,1742)" d="m0 0h1l1 23-4 2z" fill="#38454B"/>
<path transform="translate(1119,1731)" d="m0 0 11 3-3 3-11-3v-2z" fill="#1C2C34"/>
<path transform="translate(1643,1639)" d="m0 0 6 2 4 3-4 2-9-5z" fill="#1A272E"/>
<path transform="translate(623,1535)" d="m0 0 12 3-2 3-10-2-1-3z" fill="#182329"/>
<path transform="translate(1671,1150)" d="m0 0 5 3-1 4-4 1-3-3 2-4z" fill="#D9F4E8"/>
<path transform="translate(1609,1060)" d="m0 0h3l1 4-6 4h-3v-3z" fill="#172026"/>
<path transform="translate(1371,710)" d="m0 0 2 2-1 8-2 5h-2l-1-4z" fill="#1D2D35"/>
<path transform="translate(601,434)" d="m0 0h14v3h-15l-4-2z" fill="#1D2D35"/>
<path transform="translate(1480,355)" d="m0 0h2l-1 11-6-3-1-3 4-1z" fill="#D6EAE1"/>
<path transform="translate(705,1738)" d="m0 0 4 1-3 2-12 2-3 1v-2l4-3z" fill="#D9E2DE"/>
<path transform="translate(669,1632)" d="m0 0 4 1-17 6-1 5h-1v-8z" fill="#C9D0CD"/>
<path transform="translate(696,1543)" d="m0 0 3 3-3 9-3 1v-6z" fill="#172127"/>
<path transform="translate(1736,1110)" d="m0 0 6 5 7 1-1 3h-6l-8-6 2-1z" fill="#1B2A32"/>
<path transform="translate(572,808)" d="m0 0 2 1-1 5-4 6-3-2 2-5z" fill="#171F25"/>
<path transform="translate(1012,1758)" d="m0 0h2v2l-7 2-7 1h-10v-1z" fill="#C9D3CF"/>
<path transform="translate(1076,1728)" d="m0 0h12v1l-5 1-1 2-9 1z" fill="#14191E"/>
<path transform="translate(520,1619)" d="m0 0 1 2-11 5-9 2 1-3 14-4z" fill="#DAE4E0"/>
<path transform="translate(1665,1151)" d="m0 0 2 2-10 10h-2l2-4 3-5z" fill="#1C2B33"/>
<path transform="translate(802,1133)" d="m0 0 3 1-2 3-3 1-13-1v-1l10-1z" fill="#13171C"/>
<path transform="translate(629,667)" d="m0 0 4 1 1 2-4 4-5 1z" fill="#D4E4DD"/>
<path transform="translate(969,443)" d="m0 0 11 2-2 2-5 1-7-2z" fill="#19252B"/>
<path transform="translate(725,418)" d="m0 0 4 1 1 2-3 1h-16v-1l5-1v-1z" fill="#1A282F"/>
<path transform="translate(1465,416)" d="m0 0h2l2 7-1 4h-2l-1 2-1-8z" fill="#1D2D35"/>
<path transform="translate(1614,1631)" d="m0 0 10 1 2 2v2l-8-1-4-2z" fill="#1B2931"/>
<path transform="translate(1253,1247)" d="m0 0 5 1 6 3-1 2-9-2-2-1z" fill="#161D22"/>
<path transform="translate(813,1769)" d="m0 0 4 2 4 5v2h-2v2h-7l4-3h2v-2h-2z" fill="#D3DED9"/>
<path transform="translate(729,1668)" d="m0 0 3 1-2 9-1 3-3-1z" fill="#1C2C34"/>
<path transform="translate(611,1533)" d="m0 0h7l5 2 1 3-8-1-5-2z" fill="#141A1F"/>
<path transform="translate(1819,1387)" d="m0 0h2v2h2l4 9-2 4z" fill="#1C252B"/>
<path transform="translate(668,1151)" d="m0 0 11 1 6 2-4 3-12-4z" fill="#19262C"/>
<path transform="translate(1101,1140)" d="m0 0 4 2 3 2 1 4-5-1-5-6z" fill="#141A1F"/>
<path transform="translate(1520,1113)" d="m0 0h9l3 1v2l-5 2-7-1 3-2z" fill="#1C2B33"/>
<path transform="translate(1141,938)" d="m0 0 4 1 9 10-1 2-8-8-4-2z" fill="#151A20"/>
<path transform="translate(1143,874)" d="m0 0 2 3 2 5v6h-2l-3-9z" fill="#161E24"/>
<path transform="translate(510,618)" d="m0 0 2 2-1 9-2 9h-1l-1-10z" fill="#182128"/>
<path transform="translate(1656,584)" d="m0 0h6v2l2 1-14 2 1-4z" fill="#151B20"/>
<path transform="translate(468,445)" d="m0 0 7 1 13 5v1l-8-1-6-2v-2l-6-1z" fill="#C5CCC8"/>
<path transform="translate(1475,406)" d="m0 0h8v4h-8z" fill="#B8B9B8"/>
<path transform="translate(121,1809)" d="m0 0h6l1 2-7 2h-6l-2-2z" fill="#181D22"/>
<path transform="translate(969,1761)" d="m0 0h10l11 1v1l-17 1z" fill="#1D2D35"/>
<path transform="translate(685,1749)" d="m0 0 2 1-7 13h-2l1-7 3-3z" fill="#1C2C34"/>
<path transform="translate(647,1642)" d="m0 0 1 2-6 9-3-3 4-6z" fill="#1C2B33"/>
<path transform="translate(441,629)" d="m0 0 4 2 3 4v2h5l-2 2-5-1-5-6z" fill="#14191D"/>
<path transform="translate(1377,402)" d="m0 0h12l2 2-3 1h-9l-2-1z" fill="#161D22"/>
<path transform="translate(1480,320)" d="m0 0 2 1 2 12-2 6-5-5 4-1v-8z" fill="#B9BAB9"/>
<path transform="translate(134,1806)" d="m0 0h4v3l-10 2-3-3z" fill="#252E33"/>
<path transform="translate(580,1762)" d="m0 0h1v14l-3 1v-10z" fill="#1A262D"/>
<path transform="translate(380,1520)" d="m0 0h21v1l-20 1v2h-2l-1 3 1-6z" fill="#D1D6D4"/>
<path transform="translate(1164,963)" d="m0 0 4 2 4 5-3 2-6-7z" fill="#1B2930"/>
<path transform="translate(1019,919)" d="m0 0 4 1-9 9-1-3 4-6z" fill="#172127"/>
<path transform="translate(1179,839)" d="m0 0 1 3-5 9-3 1 2-6 4-6z" fill="#151B20"/>
<path transform="translate(1128,839)" d="m0 0 3 3v8h-2l-3-10z" fill="#14191E"/>
<path transform="translate(461,527)" d="m0 0 5 1 2 3-3 2h-4l-1-5z" fill="#13181D"/>
<path transform="translate(258,1778)" d="m0 0h4v3l-12 2v-3z" fill="#2A3840"/>
<path transform="translate(614,1686)" d="m0 0 2 1-3 5-4 4h-2v-4z" fill="#161E24"/>
<path transform="translate(1391,1217)" d="m0 0h5v2h16v1h-19l-6-1z" fill="#1D2D35"/>
<path transform="translate(682,1155)" d="m0 0 11 1 1 3-11-1-2-2z" fill="#161D23"/>
<path transform="translate(1719,1144)" d="m0 0 3 3 4 11-1 3-4-8-3-8z" fill="#151B20"/>
<path transform="translate(664,1147)" d="m0 0 10 3 2 2-3 1-9-2-1-3z" fill="#1C2B33"/>
<path transform="translate(1486,1124)" d="m0 0h6l-1 3h-14l1-2z" fill="#161D22"/>
<path transform="translate(568,1029)" d="m0 0 2 3 1 7h-2l-1 3-2-11h2z" fill="#19232A"/>
<path transform="translate(1425,664)" d="m0 0h3l3 3 4 5-3 2-7-9z" fill="#1B2930"/>
<path transform="translate(1841,1434)" d="m0 0 2 3 4 11-3 1-3-8z" fill="#283238"/>
<path transform="translate(1205,1174)" d="m0 0 6 3 1 3-4 1-5-2 2-3z" fill="#14191E"/>
<path transform="translate(887,1116)" d="m0 0v3l2 2h-10l-3-2 10-2z" fill="#14181D"/>
<path transform="translate(1624,917)" d="m0 0h4l3 8-4 1z" fill="#172127"/>
<path transform="translate(1199,793)" d="m0 0 3 1-2 6-3 4-2-1 2-6z" fill="#172127"/>
<path transform="translate(500,749)" d="m0 0h1v16l-3-4 1-11z" fill="#161E23"/>
<path transform="translate(645,639)" d="m0 0 9 1 1 3h-12l2-1z" fill="#D1E9DE"/>
<path transform="translate(456,616)" d="m0 0h1l1 6v9h-1v-5h-4v-4l2-1z" fill="#121519"/>
<path transform="translate(490,602)" d="m0 0h1v8h10l-1 2h-12z" fill="#D1D3D2"/>
<path transform="translate(542,430)" d="m0 0 5 1-5 4-5 2-1-3z" fill="#1B2931"/>
<path transform="translate(578,427)" d="m0 0 11 2-3 3-9-2z" fill="#1D2D35"/>
<path transform="translate(577,1522)" d="m0 0 7 1 2 4-9-2-3-2z" fill="#14181D"/>
<path transform="translate(1385,1219)" d="m0 0h8v2l-6 2-5-1v-2z" fill="#141A1F"/>
<path transform="translate(1727,1164)" d="m0 0h2l-1 11-2 5-2-1z" fill="#13161A"/>
<path transform="translate(1042,1094)" d="m0 0 6 1 6 4-1 2-10-4z" fill="#182228"/>
<path transform="translate(1109,928)" d="m0 0h1l1 9-2 5-1-2-2-1z" fill="#1D2D35"/>
<path transform="translate(1526,801)" d="m0 0 5 5 2 3-1 4h-2l-4-9z" fill="#161E24"/>
<path transform="translate(473,755)" d="m0 0 4 3v3l-7-1-3-4 4 1z" fill="#7AD5AF"/>
<path transform="translate(1441,188)" d="m0 0 2 4v15l-3-4 1-6z" fill="#121418"/>
<path transform="translate(200,1791)" d="m0 0m-5 1h5v2l-9 2h-5v-2z" fill="#2C3A41"/>
<path transform="translate(1880,1749)" d="m0 0h6l5 5 2 3-5-2-8-5z" fill="#CFDAD5"/>
<path transform="translate(1809,1360)" d="m0 0h2l4 9-1 3-2-1-3-7z" fill="#1C2429"/>
<path transform="translate(545,943)" d="m0 0 2 3 2 11-3 1-1-6z" fill="#1A262D"/>
<path transform="translate(1190,815)" d="m0 0 1 4-2 5-4 1 1-5 2-4z" fill="#151C21"/>
<path transform="translate(1232,727)" d="m0 0h2l-2 6-3 4-2-1 2-6z" fill="#161E24"/>
<path transform="translate(367,684)" d="m0 0h1l1 8-7-1-2-3h6z" fill="#E3E7E5"/>
<path transform="translate(1449,393)" d="m0 0 7 6v3l-7-4-1-4z" fill="#182329"/>
<path transform="translate(775,381)" d="m0 0 2 1-3 5-5 4h-2l2-4 5-5z" fill="#161D22"/>
<path transform="translate(1142,1740)" d="m0 0 7 1 3 2-5 2-5-2z" fill="#1C2B33"/>
<path transform="translate(1291,1718)" d="m0 0 11 2 6 1v1h-11l-5-2z" fill="#C9D1CE"/>
<path transform="translate(552,1717)" d="m0 0h6v3h-12v-2z" fill="#222A30"/>
<path transform="translate(1481,1696)" d="m0 0h7l-1 3h-13v-1z" fill="#151C22"/>
<path transform="translate(411,1584)" d="m0 0h1v8l-7-1-5-5 4 1 2 2h4z" fill="#CFD5D3"/>
<path transform="translate(748,1429)" d="m0 0h1l-1 8-5 2 3-9z" fill="#151A20"/>
<path transform="translate(1109,1263)" d="m0 0h5l4 3-11 1v-2l-4-1z" fill="#19262D"/>
<path transform="translate(1519,1184)" d="m0 0h11l3 3-13-1z" fill="#14191E"/>
<path transform="translate(1728,1171)" d="m0 0h2l1 7-2 3-2 1v-7z" fill="#C8D5CF"/>
<path transform="translate(1008,1076)" d="m0 0 8 2-1 3-10-2z" fill="#1B2A32"/>
<path transform="translate(910,1064)" d="m0 0h2l-2 6-3 4-2-1 2-6z" fill="#172026"/>
<path transform="translate(513,872)" d="m0 0 3 1 1 6-1 3h-2z" fill="#182229"/>
<path transform="translate(1367,723)" d="m0 0 2 2-2 9-3-3 2-7z" fill="#172027"/>
<path transform="translate(640,1841)" d="m0 0 1 2-2 4-5 4-1-2 4-7z" fill="#3F494E"/>
<path transform="translate(141,1804)" d="m0 0h6v3l-9 1v-3z" fill="#1B2126"/>
<path transform="translate(460,1733)" d="m0 0h7v2l-2 1h-10l1-2z" fill="#1B2127"/>
<path transform="translate(697,1727)" d="m0 0h2v5l-5 5h-2l2-5z" fill="#151B20"/>
<path transform="translate(1509,1155)" d="m0 0 4 1-3 6h-2l-3 3 2-6z" fill="#172127"/>
<path transform="translate(1497,1125)" d="m0 0h3v2h3v3h-7l-1-3h2z" fill="#D6F1E5"/>
<path transform="translate(1373,704)" d="m0 0h3l-1 7-2 4-1-4z" fill="#141A1F"/>
<path transform="translate(617,691)" d="m0 0 2 1-3 9-4-3h2l1-6z" fill="#1A272E"/>
<path transform="translate(632,630)" d="m0 0 4 3-2 1-2 9-2-4v-4l-2 1 2-4z" fill="#CDD7D2"/>
<path transform="translate(637,1847)" d="m0 0 2 1-4 9-3 1 1-7 3-1z" fill="#1A282F"/>
<path transform="translate(649,1819)" d="m0 0h2l-2 6-4 9-3-1v-2l3-3z" fill="#2C383F"/>
<path transform="translate(226,1785)" d="m0 0 8 1v1l-13 2 1-3z" fill="#2E3C43"/>
<path transform="translate(961,1762)" d="m0 0h11l1 2-3 1h-8z" fill="#172027"/>
<path transform="translate(1494,1693)" d="m0 0 3 1v2l-5 2h-4v-3z" fill="#18232A"/>
<path transform="translate(743,1627)" d="m0 0h2l-1 8-3 2 1-9z" fill="#161D22"/>
<path transform="translate(375,1536)" d="m0 0h1l1 8 1 3 3 1-2 1-5-3z" fill="#C2C7C4"/>
<path transform="translate(780,1357)" d="m0 0h1l-1 8-4 1 1-5 1-3z" fill="#14191E"/>
<path transform="translate(1690,1262)" d="m0 0 5 3v3h-8l2-1z" fill="#D3E0DB"/>
<path transform="translate(1734,1176)" d="m0 0 2 2 2 5-1 4h-2l-2-7z" fill="#1C2B32"/>
<path transform="translate(783,1136)" d="m0 0 10 1 3 2h-11l-4-2z" fill="#1D2D35"/>
<path transform="translate(914,1117)" d="m0 0 3 1-3 4h-8l3-1v-2z" fill="#151C21"/>
<path transform="translate(1574,1096)" d="m0 0h2l-1 6h-3l-3 1 2-4z" fill="#172027"/>
<path transform="translate(1095,935)" d="m0 0 4 2 3 3h-2l-1 2-6-4z" fill="#172025"/>
<path transform="translate(1012,929)" d="m0 0v3l-6 6-2-1 5-6z" fill="#1D2D35"/>
<path transform="translate(1392,648)" d="m0 0 2 1-2 10-3-3 1-6z" fill="#161D22"/>
<path transform="translate(483,570)" d="m0 0 1 3-2 2h-3l-1 4-2-4h2l1-4z" fill="#14181D"/>
<path transform="translate(978,446)" d="m0 0 7 1v4l-10-3z" fill="#151B20"/>
<path transform="translate(841,383)" d="m0 0h7l5 3v2l-5-2-2 1-5-3z" fill="#182128"/>
<path transform="translate(790,374)" d="m0 0 3 1 1 2-6 2-4-1 3-3z" fill="#161E23"/>
<path transform="translate(153,1801)" d="m0 0 2 1-1 3-7 1-1-3z" fill="#2D3236"/>
<path transform="translate(1545,1191)" d="m0 0h7l2 1-1 2 3 2-1 2-10-6z" fill="#161D23"/>
<path transform="translate(1512,1156)" d="m0 0 4 3-5 6h-2l1-5z" fill="#C9CBCA"/>
<path transform="translate(1638,1103)" d="m0 0 12 1v1h-5v2l-5-1-3-2z" fill="#1D2D35"/>
<path transform="translate(574,1054)" d="m0 0 2 1v10l-2-1-1-9z" fill="#151C22"/>
<path transform="translate(1034,903)" d="m0 0h2l-2 4-6 7v-3l3-4v-3z" fill="#1B2A31"/>
<path transform="translate(1540,826)" d="m0 0 3 3 1 5h-4l-1-6z" fill="#161D23"/>
<path transform="translate(1149,685)" d="m0 0h6l3 3-17-1v-1z" fill="#1D2D35"/>
<path transform="translate(507,667)" d="m0 0 2 1-3 13-2-3 1-10z" fill="#12151A"/>
<path transform="translate(506,644)" d="m0 0h1v13l-3 1v-8h1z" fill="#1B2A31"/>
<path transform="translate(562,624)" d="m0 0 1 4-1 2 3 1-6 1-1-2 2-5z" fill="#171F25"/>
<path transform="translate(1583,1791)" d="m0 0 5 3 3 3v2l-4-2-1-3-3-1z" fill="#C4C6C5"/>
<path transform="translate(1582,1790)" d="m0 0" fill="#B8B9B8"/>
<path transform="translate(1581,1789)" d="m0 0" fill="#DBDCDC"/>
<path transform="translate(244,1522)" d="m0 0" fill="#FDFDFD"/>
</svg>
