<?xml version="1.0" encoding="UTF-8"?>
<svg version="1.1" viewBox="0 0 2000 2000" width="500" height="500" xmlns="http://www.w3.org/2000/svg">
<path transform="translate(563,306)" d="m0 0h9l6 5 3 6v10l12-4h9l5 3 4 6v9l-3 6 1 8 4 10 1 4v10l-5 14-6 8-7 5v2l18 4 2 3 2 24 1 26-2 5-6 4-9 2h-6v10l-3 18-4 15-7 14-8 10-7 6-16 8-20 7-1 3-1 19 29 2 25 2 12 2 23 10 21 6 44 11 24 7 14 3h3l6-8 15-10 18-10 23-11 21-7 9-2 10-1 9-10 8-11 3-4h2l2-4 21-31 22-33 14-22 11-25 10-19 7-8 5-6h2v-2l10-7 12-5 4-1h16l9 3 4 7-2 7-7 5-18 6-7 5 12 6 9 7 8 9 3 7 1 11-2 8-5 7v12l-2 10-5 5-9 1-6-3-3-3-3-1-1 5-8 15-8 16-14 26-4 6v3h10l26 5 32 9 27 11 16 8 18 10 14 10 18 14 12 11 13 13 11 14 11 15 5 10 1 10 4-2 6-7 11-8 14-7 14-2h4l-1-65-9-6-4-5-1-8 4-8 6-5 2-1h11l6 3 4 5 2 8-2 8-7 6-6 2v66l13 1 11 4 12 6 7 6 9 13 4 9 3 17 1 38 18-4 29-6 55-16 28-7 27-5 22-2h28l22 2 35 6 25 7 24 9 10 6 6 4-1-5-4-13-4-21-1-8v-18l5-26 6-18 8-16 10-14 9-10 7-8 18-13 25-13 22-6 14-2h24l18 3 17 5 21 10 15 10 10 9 11 11 10 13 11 21 8 24 2 9 1 9v24l-3 17-8 24-8 16-7 11-11 13-12 12-18 12-23 11-15 4-21 3-16 1h-12l5 10 10 15 10 18 8 16 8 18 8 24 6 27 3 23 1 13v41l-4 34-7 29-8 24-12 27-11 20-10 15-10 14-11 13-7 8-12 13-8 7-14 12-17 13-17 12-21 13-21 12-21 11-31 14-28 11-28 10-24 7-38 8-32 5-27 3-40 2-24-1v195l17-8 21-7 18-3 15-1h11l25 2 18 4 20 7 16 8 11 7 13 10 10 9 11 13 7 10 8 14 8 20 5 19 4 19 6-1 15-7 13-4 18-3 10-1h18l17 2 18 4 16 6 19 10 14 10 15 14 9 10 11 16 8 15 6 17 5 17 2 13 7-3 13-6 19-6 12-2h25l17 4 16 6 12 6 11 8 10 9 9 9 9 13 8 16 4 11 2 11 46 1-1 2-482-1h-1166l-167 1h-45v-2l61-1 3-1-5-4-2-4-1-11v-11l3-26 3-19 8-24 9-20 11-19 12-15 9-11 8-8 11-9 11-8 20-12 15-7 18-6 22-5 21-2h24l23 2 19 4 2-12 5-17 6-15 12-21 11-14 18-18 14-11 18-11 17-9 19-7 29-6 11-1h21l23 3 24 5 19 7 23 11 20 12 18 13 14 11 12 10 5 3-4-12-16-35-13-28-16-36-8-17-15-36-11-26-1-3-10 3-36 15-21 9-33 14-19 8-13 6-12 5-29 12-25 11-10 5-4-9-5-11-10 1-36 10-9 2-1 1v9l1 5 6 2 4 4-9-1 1 7 2 4 7 6-3 1-7-3v9l-3 16-11 18-7 9-10 8-6 1-8-15-8-20-14-32-13-30-15-34-11-26-7-15-15-36-5-11 1-4 21-7 11-4 13-4 40-13 17-6 17-2-1-6-3-4 1-4 24-9 35-14 42-16 19-8 53-20 17-7 21-8 9-3v-3l-5-2-8-21-6-7-20-11-32-16-25-12-23-13-17-10-10-7-16-10-14-11-8-8-9-14-5-10-7-18-6-32-1-18v-12l2-21 6-43 1-4v-7l-6-6v-7l4-13 4-4v-10l-4-38-1-4-29-9-14-4-57-18-26-9-19-7-35-12-15-6-11-7-9-9-7-14-2-8v-12l3-12 8-15 9-10 6-7 13-10-1-5 5-6 19-12 24-15 19-12 26-16 14-9 22-13 24-8 21-3 46-5 28-3 2-67v-13l-11-2-8-6-5-8-1-3v-10l5-10 8-5 4-4-1-11 1-2v-18l-1-2-9-2-3-4v-6l-10 1-3-3 1-7 6-15 7-9 10-7 8-4 6 1 1-10 8-14 9-9 13-8 6-2 7-1h15l22 2h10l8-3 13-12zm368 384-7 6-1 5 6 8h5l4-5 7-4v-3l-8-4-4-3zm-568 31-26 11-12 6 4 4 35 14h2v-11l-1-17-1-7zm510 59-2 3-4 21-7 3-18 4-2 3 6 3 19 3 4 4 5 20 1 1h5l4-24 7-4 16-3 1-5-7-2-17-3-3-3-2-8-1-11-1-2zm-94 5-3 9-5 3 1 5 7 4h6l7-6-1-4-5-5-3-6zm836 268-2 3-3 12-2 2-14 3 1 5 15 4 4 10 1 3h5l2-17 9-1 3-1-1-3-9-4-2-2-3-13zm-48 62-2 1-2 12-2 21-16 5-15 3-3 2 1 5 7 3 21 2 4 2 4 13 5 17 4 2 4-4 3-23 2-6 6-3 23-6 3-3-3-3-14-3-15-3-3-2-3-11-2-18-2-3zm-726 176-5 14-8 17-8 13 1 5 13 28 12 25 19 39 8 16 18 37 11 23 9 17 11 23 23 45 4 6 9-6 20-8 30-7 20-2h16l18 2 25 6 16 6 12 6h2v-186l-1-21-21-3-39-5-31-6-30-8-35-11-7-2-17 6-5 3h-2l-1-20-1-2-18-8-17-9-16-10-24-16-8-7zm512 298-2 3-2 19-1 4-12 4-15 4 1 4 3 2 22 3 2 1 6 24 4 1 3-12 2-13 6-3 19-4 3-2-2-4-13-3-11-1-3-3-3-9-2-12-2-3zm-264 233-1 1-2 9-5 3-6 2-1 3 3 3 10 3 2 7 4-1 4-6 6-4 1-4-9-7-3-8z" fill="#DADFF2"/>
<path transform="translate(563,306)" d="m0 0h9l6 5 3 6v10l12-4h9l5 3 4 6v9l-3 6 1 8 4 10 1 4v10l-5 14-6 8-7 5v2l18 4 2 3 2 24 1 26-2 5-6 4-9 2h-6v10l-3 18-4 15-7 14-8 10-7 6-16 8-20 7-1 3-1 19 29 2 25 2 12 2 23 10 21 6 44 11 24 7 14 3h3l6-8 15-10 18-10 23-11 21-7 9-2h9l-4 8-6 7-10 14-12 16-6 7-8 10h-13l-28-4-11-2-3 21-2 12-3 29-3 44-1 11-2 4h-12l-28-3-5-1-3 9-6 10-9 10-9 8 1 4 7 12 7 6 14 7 22 6 12 7 4 3v2h2l3 6v14l-4 13-6 12-4 12-8 15-8 10-8 8-10 7-13 5-6 1 3 12 3 9 7 16 5 13 4 8 6 15 5 12 6 12 4 10 4 9 4 13 3 1 5-5 13-11 8-7 10-9 11-9 5-4 1-2h3l-1 4-10 8-10 10-11 9-11 10-11 9 1 7 8 17-1 4-10-7-9-6-2-1v-2l-5-2-9-7-7-4-9-8-8-5-7-5-3-1v-2l-10-5-5-5-6-4-6-3v-2l-4-1v-2l-5-1-11-7-6-4v-2h-2l-5-5-11-7h-6l3 2 7 6 9 5 7 4 15 10 2 1v2l4 2 8 5 10 7 11 8 17 12 12 9 12 8 14 10 11 8 7 4 23 16 27 18 6 3 5 4 7 4 10 8 6 4v2l4 2 13 13 7 8 8 11 8 15 4 12 3 17 1 11v14l-3 22-5 14-8 17-8 13 1 5 13 28 12 25 19 39 8 16 18 37 11 23 9 17 11 23 23 45 4 6 3 5 6 11 12 24v9l-3 9-2 3 1 5 10 17 6 12 5 7 2 4 9-2 2-4 4-7h2l-1 8 7-2 9-11h1v9h19l16 4 10 4 14 10 6 5 2 3-1 4-13 9-48 32-10 7-117 78-13 9-3-3-13-25-8-13-18-34-7-10-9-15-5-7-25-1-5-5-8-12-4-9-11-22-1-7h-2l-2-4v-3h-2l-8-16-19-39-3-8v-3h-2l-10-23-16-35-9-19-11-25-12-26-15-36-11-26-1-3-10 3-36 15-21 9-33 14-19 8-13 6-12 5-29 12-25 11-10 5-4-9-5-11-10 1-36 10-9 2-1 1v9l1 5 6 2 4 4-9-1 1 7 2 4 7 6-3 1-7-3v9l-3 16-11 18-7 9-10 8-6 1-8-15-8-20-14-32-13-30-15-34-11-26-7-15-15-36-5-11 1-4 21-7 11-4 13-4 40-13 17-6 17-2-1-6-3-4 1-4 24-9 35-14 42-16 19-8 53-20 17-7 21-8 9-3v-3l-5-2-8-21-6-7-20-11-32-16-25-12-23-13-17-10-10-7-16-10-14-11-8-8-9-14-5-10-7-18-6-32-1-18v-12l2-21 6-43 1-4v-7l-6-6v-7l4-13 4-4v-10l-4-38-1-4-29-9-14-4-57-18-26-9-19-7-35-12-15-6-11-7-9-9-7-14-2-8v-12l3-12 8-15 9-10 6-7 13-10-1-5 5-6 19-12 24-15 19-12 26-16 14-9 22-13 24-8 21-3 46-5 28-3 2-67v-13l-11-2-8-6-5-8-1-3v-10l5-10 8-5 4-4-1-11 1-2v-18l-1-2-9-2-3-4v-6l-10 1-3-3 1-7 6-15 7-9 10-7 8-4 6 1 1-10 8-14 9-9 13-8 6-2 7-1h15l22 2h10l8-3 13-12zm-200 415-26 11-12 6 4 4 35 14h2v-11l-1-17-1-7z" fill="#23204A"/>
<path transform="translate(968,392)" d="m0 0h16l9 3 4 7-2 7-7 5-18 6-7 5 12 6 9 7 8 9 3 7 1 11-2 8-5 7v12l-2 10-5 5-9 1-6-3-3-3-3-1-1 5-8 15-8 16-14 26-4 6v3h10l26 5 32 9 27 11 16 8 18 10 14 10 18 14 12 11 13 13 11 14 11 15 5 10 1 10 4-2 6-7 11-8 14-7 14-2h4l-1-65-9-6-4-5-1-8 4-8 6-5 2-1h11l6 3 4 5 2 8-2 8-7 6-6 2v66l13 1 11 4 12 6 7 6 9 13 4 9 3 17v40l5 1 20 7 17 10 9 8 7 8 11 12 9 11 10 17 4 6 8 24 3 19 2 21 2 2 1 22-1 176v101l-1 90-7 1v2h-51l1 28 4 2 14 11 9 7v2l-4 1h-228l-44-1 6-7 13-12 5-6 1-9v-13l-1-2h-48l-9 4-54 23-13 6-21 7-5 3-3-1-1-22-5-1-23-11-17-10-27-18-9-7-4-3v-7l2-15v-14l-2-16-3-16-5-12-6-11-8-11-16-17-7-6v-2l-4-2-6-4-10-8-7-4-4-3-9-5-12-8-10-7-24-16-10-7-17-12-15-10-17-13-15-10-11-8-8-6-11-7v-2l-5-2-12-8-7-4-12-7-4-4-4-2 1-2h6l11 7 5 4v2h2v2l4 2 12 7 6 3v2l4 1v2l6 2 11 8v2l4 1 6 4v2l5 1 9 7 9 6 8 7 5 3 10 7 2 1v2l5 2 6 4 10 7-1-5-7-15-1-7 10-9 11-9 11-10 8-7 7-7 7-5 1-3h-3l-2 4-10 8-11 10-8 7-13 11-6 5h-2l-1 3-4-2-4-13-7-15-4-10-6-13-5-13-6-14-5-11-5-12-4-9-3-12-2-7 7-2 13-5 11-8 9-9 8-12 7-15 4-12 6-12 2-8v-14l-2-6h-2l-5-5-14-7-19-5-16-8-8-9-6-10 1-4 13-12 6-8 8-16 25 2 8 1h12l2-9 1-23 3-34 3-29 2-9 2-16 4-1 15 3 21 3h13l8-10 9-11 14-19 16-22 9-10 8-11 3-4h2l2-4 21-31 22-33 14-22 11-25 10-19 7-8 5-6h2v-2l10-7 12-5zm-37 298-7 6-1 5 6 8h5l4-5 7-4v-3l-8-4-4-3zm-58 90-2 3-4 21-7 3-18 4-2 3 6 3 19 3 4 4 5 20 1 1h5l4-24 7-4 16-3 1-5-7-2-17-3-3-3-2-8-1-11-1-2zm-94 5-3 9-5 3 1 5 7 4h6l7-6-1-4-5-5-3-6z" fill="#DADFF2"/>
<path transform="translate(1190,588)" d="m0 0h11l6 3 4 5 2 8-2 8-7 6-6 2v66l13 1 11 4 12 6 7 6 9 13 4 9 3 17v40l5 1 20 7 17 10 9 8 7 8 11 12 9 11 10 17 4 6 8 24 3 19 2 21 2 2 1 22-1 176v101l-1 90-7 1v2h-51l1 28 4 2 14 11 9 7v2l-4 1h-228l-44-1 6-7 13-12 5-6 1-9v-13l-1-2h-48l-9 4-54 23-13 6-21 7-5 3-3-1-1-27 1-151 3-16 7-23 11-21 8-10 13-12-1-3-5-5-12-11-8-7-10-10-8-7-9-8-5-5-6-7-8-7-5-5 3-1 10 9 8 7 17 17 8 7 6 5v2l4 2 7 7 8 7 7 6 1 4 8-3 16-8 22-6h14v-156h3v-19l4-26 10-24 8-14 10-13 11-11 5-6 16-14 26-13 8-2v-48l2-9 6-14h2l1-4 6-7 11-8 14-7 14-2h4l-1-65-9-6-4-5-1-8 4-8 6-5z" fill="#4F5DC0"/>
<path transform="translate(1701,583)" d="m0 0h24l18 3 17 5 21 10 15 10 10 9 11 11 10 13 11 21 8 24 2 9 1 9v24l-3 17-8 24-8 16-7 11-11 13-12 12-18 12-23 11-15 4-21 3-17 1-14-3-10-3-14-2-6-4-9-4h-2l-6 10-8 9-4 6-5 6-12 16-14 18-11 14-12 16-7 9-10 12-8 11-11 14-4 6h-2l-2 4-12 16-11 13-8 11-12 16-11 14-9 12-2 3h-2l-2 5-13 16-10 13-7 9 2 5 6 9 7 15 2 13 1 40v96l-1 57-2 2-33-14-40-16-17-6-5 1v-2l7-1v-191l1-176-1-22-2-2-3-29-3-15-7-20-8-13-7-11-8-10-8-8-7-8-5-6-9-7-14-8-25-9 1-2 18-4 29-6 55-16 28-7 27-5 22-2h28l22 2 35 6 25 7 24 9 10 6 6 4-1-5-4-13-4-21-1-8v-18l5-26 6-18 8-16 10-14 9-10 7-8 18-13 25-13 22-6z" fill="#4E5DC1"/>
<path transform="translate(563,306)" d="m0 0h9l6 5 3 6v10l12-4h9l5 3 4 6v9l-3 6 1 8 4 10 1 4v10l-5 14-6 8-7 5v2l18 4 2 3 2 24 1 26-2 5-6 4-9 2h-6v10l-3 18-4 15-7 14-8 10-7 6-16 8-20 7-1 3-1 19 29 2 25 2 12 2 23 10 21 6 44 11 24 7 14 3h3l6-8 15-10 18-10 23-11 21-7 9-2h9l-4 8-6 7-10 14-12 16-6 7-8 10h-13l-28-4-11-2-3 21-2 12-3 29-3 44-1 11-2 4h-12l-28-3-5-1v-32l-5-16-7-11-10-11-11-8-19-7-2-4v-8l-1 10-1 1-17 1-11 2-15 6-10 9h-2l-2 4-6 7-7 12-4 15v23l4 13 7 12 1 5-8 8-5 3h-3l-13-9-13-5-17-3-12 2-15 5-19 9h-5l-5-3-14-5-9-3-13-5-24-10-8-4-1-1-2-28-1-6-26 11-8 4-6 2-17-6-14-6-24-9-30-11-39-13-8-2h-3l2-2-1-5 5-6 19-12 24-15 19-12 26-16 14-9 22-13 24-8 21-3 46-5 28-3 2-67v-13l-11-2-8-6-5-8-1-3v-10l5-10 8-5 4-4-1-11 1-2v-18l-1-2-9-2-3-4v-6l-10 1-3-3 1-7 6-15 7-9 10-7 8-4 6 1 1-10 8-14 9-9 13-8 6-2 7-1h15l22 2h10l8-3 13-12zm-377 387 2 1z" fill="#0390E4"/>
<path transform="translate(819,1336)" d="m0 0 3 4 13 28 12 25 19 39 8 16 18 37 11 23 9 17 11 23 23 45 4 6 3 5 6 11 12 24v9l-3 9-2 3 1 5 10 17 6 12 5 7 2 4 9-2 2-4 4-7h2l-1 8 7-2 9-11h1v9h19l16 4 10 4 14 10 6 5 2 3-1 4-13 9-48 32-10 7-117 78-13 9-3-3-13-25-8-13-18-34-7-10-9-15-5-7-25-1-5-5-8-12-4-9-11-22-1-7h-2l-2-4v-3h-2l-8-16-19-39-3-8v-3h-2l-10-23-16-35-9-19-11-25-12-26-15-36-11-26-1-5 12-6 18-8 16-7 12-5 22-10 11-4 16-7 12-5 11-6 5-4 13-10 10-9z" fill="#23204A"/>
<path transform="translate(1437,740)" d="m0 0h28l22 2 35 6 25 7 24 9 10 6 6 4 2-2 8 15 3 5 4 7 10 11 3 2v2l5 2v2l4 2 4 3v2l4 2 9 7 2 2-1 8-12 16-7 9-5 7-4 4-18 24-8 10-11 14-4 7-5 5-7 8-6 8-2 4h-2l-1 4-3 3-10 13-12 16-13 16-14 19-8 10-10 13-12 15-8 11-3 4h-2l-2 4-8 11-12 15-2 3-12-10-13-8-17-8-26-8-1-1v-132l-1-22-2-2-3-29-3-15-7-20-8-13-7-11-8-10-8-8-7-8-5-6-9-7-14-8-25-9 1-2 18-4 29-6 55-16 28-7 27-5z" fill="#DADFF2"/>
<path transform="translate(1178,194)" d="m0 0h27l15 2 20 6 17 9 16 11 13 12 10 12 8 13 8 19 4 16 2 10 1 19-2 18-4 18-6 16-9 16-11 13-7 8-10 9-8 6-7 22-2 11 10 2 4 4 1 8-6 9-2 2 1 7v9l-3 5-12 6v14l-4 6-4 2-6 1-22 1h-44l-5-6-1-7v-10l-13-2-5-5-1-3v-14l-5-5-1-4v-9l3-6 4-2 8-1-5-13-5-12-14-8-17-12-16-16-10-14-10-21-6-18-2-9-1-10v-17l2-16 5-16 6-15 7-13 8-11 12-13 7-7 10-7 17-10 20-7 10-2zm88 45 2 5 12 11 7 10 8 16 5 19 2 16v9l-2 17-5 19-6 13-2 6 3 2 3-1 8-16 5-15 2-13v-27l-3-21-5-15-8-15-11-12-8-7z" fill="#FCA743"/>
<path transform="translate(613,650)" d="m0 0h1l1 11 1 7 19 7 13 10 10 11 6 10 5 16v22l-1 12-8 16-11 12-11 9-11 5-14 3h-17l-15-3-14-7h-5l-7 9-3 4 5 4 7 3 5 5v9l-5 6-12 6h-4v2l-5 3-6 9-5 10-10 15-4 3-5 1h-14l-22-2-41-7-12-3-29-5-20-4-29-9-14-4-57-18-26-9-19-7-35-12-15-6-11-7-9-9-7-14-2-8v-12l3-12 8-15 9-10 6-7 8-6 6-3 12 3 19 7 27 9 19 7 16 6 10 4 14 6 15 5 5 2 10 5 16 6 13 5 10 5 22 9 16 6 9 3 14 5 2 2 8-1 16-8 15-5 12-2 21 4 14 7 9 7 9-6 5-5-2-7-6-10-4-13v-23l4-15 9-15 7-8 11-9 11-5 9-3 7-1 17-1z" fill="#BD5D48"/>
<path transform="translate(563,306)" d="m0 0h9l6 5 3 6v10l12-4h9l5 3 4 6v9l-3 6 1 8 4 10 1 4v10l-5 14-6 8-7 5v2l18 4 2 3 2 24 1 26-2 5-6 4-9 2h-6v10l-3 18-4 15-7 14-8 10-7 6-16 8-20 7-1 3-2 20-6 9-5 3-4 1h-24l-16-3-23-8-13-7 2-66v-13l-11-2-8-6-5-8-1-3v-10l5-10 8-5 4-4-1-11 1-2v-18l-1-2-9-2-3-4v-6l-10 1-3-3 1-7 6-15 7-9 10-7 8-4 6 1 1-10 8-14 9-9 13-8 6-2 7-1h15l22 2h10l8-3 13-12z" fill="#BD5D48"/>
<path transform="translate(1695,1335)" d="m0 0h19l27 4 15 4 23 10 18 10 9 7 21 21 13 17 9 15 9 20 6 21 3 22v25l-3 23-6 20-9 21-10 16-9 12-11 12-10 9-12 9-15 9-15 7-20 7-12 3-18 2h-29l-21-3-28-10-16-8-14-9-13-11-10-9-10-11-11-16-8-15-8-20-7-30-1-7v-27l3-17 6-24 8-19 10-17 10-13 11-12 8-8 11-9 21-13 26-11 24-5zm-4 48-20 4-18 7-13 8-14 11-11 11-9 14-8 16-7 19-2 12-1 16 2 19 4 14 9 21 13 19 11 11 19 14 14 7 21 6 11 2h25l15-3 17-5 15-8 14-10 10-9 9-10 11-18 5-11 4-15 3-18v-15l-2-20-6-18-10-19-9-12-16-16-3-4-10-4-16-8-17-6-12-2z" fill="#4F5EC1"/>
<path transform="translate(1033,928)" d="m0 0 3 1v122l1 11-1 6v196l1 10-1 10v32l15-1h303l6-1v-40l-46-1v-1h46l-1-204 2-140h3l1 22-1 176v101l-1 90-7 1v2h-51l1 28 4 2 14 11 9 7v2l-4 1h-228l-44-1 6-7 13-12 5-6 1-9v-13l-1-2h-48l-9 4-54 23-13 6-21 7-5 3-3-1-1-27 1-151 3-16 7-23 11-21 8-10 13-12-1-3-5-5-12-11-8-7-10-10-8-7-9-8-5-5-6-7-8-7-5-5 3-1 10 9 8 7 17 17 8 7 6 5v2l4 2 7 7 8 7 7 6 1 4 8-3 16-8 22-6h14v-153z" fill="#4E5DC1"/>
<path transform="translate(564 1e3)" d="m0 0h6l11 7 5 4v2h2v2l4 2 12 7 6 3v2l4 1v2l6 2 11 8v2l4 1 6 4v2l5 1 9 7 9 6 8 7 5 3 10 7 2 1v2l5 2 6 4 10 7-1-5-7-15-1-7 10-9 11-9 11-10 8-7 7-7 9-6 8 10 11 7 5 3 1 2 6 2 13 5 15 2h15l15-1 14-5 16-8 7-6 8-8 5 1 8 8 5 4 5 6 5 5 12 11 10 9 9 9 11 9 6 7 4 3-2 4-14 13-9 14-8 16-7 25-2 12-1 151-1 5-5-1-23-11-17-10-27-18-9-7-4-3v-7l2-15v-14l-2-16-3-16-5-12-6-11-8-11-16-17-7-6v-2l-4-2-6-4-10-8-7-4-4-3-9-5-12-8-10-7-24-16-10-7-17-12-15-10-17-13-15-10-11-8-8-6-11-7v-2l-5-2-12-8-7-4-12-7-4-4-4-2z" fill="#DADFF2"/>
<path transform="translate(1701,583)" d="m0 0h24l18 3 17 5 21 10 15 10 10 9 11 11 10 13 11 21 8 24 2 9 1 9v24l-3 17-8 24-8 16-7 11-5 6-9-2-30-10-7-5-5-6v-2l6-1 4 1h7l3-1v-10l-9-5-8-1-2-2-8-2-7-1h-6l-12-4h-19l-11-1-13-5-11-2-23-6-14-6-13-4-10-2-22-4-2-5v-4l-20-2 2-16 5-21 8-20 10-16 9-11 11-12 18-13 25-13 22-6z" fill="#FC7E64"/>
<path transform="translate(968,392)" d="m0 0h16l9 3 4 7-2 7-7 5-18 6-7 5 12 6 9 7 8 9 3 7 1 11-2 8-5 7v12l-2 10-5 5-9 1-6-3-3-3-3-1-1 5-8 15-8 16-14 26-5 8-8 16-10 23-24 48-12 23-7 11-6 11-10 16-8 9-6 8-8 8-10 5-11 3-8 1h-40l-21-2-18-3h-3l1-23 3-34 3-29 2-9 2-16 4-1 15 3 21 3h13l8-10 9-11 14-19 16-22 9-10 8-11 3-4h2l2-4 21-31 22-33 14-22 11-25 10-19 7-8 5-6h2v-2l10-7 12-5z" fill="#BD5D48"/>
<path transform="translate(197,1045)" d="m0 0h10l16 2 16 5 12 7 10 8 8 8 9 13 7 15 3 13v29l-3 14-8 17-3 8-2 16v3l10 1 4 4 1 3v12l1 3v10l-4 5 2 9-3 6-4 3-20 8-14 5-4 1h-7l-5-5-2-4-10-2-5-8-7-8-3-3 1-6 7-7v-2l-9-6-4-3-30-9-16-10-12-11-9-12-8-16-4-12-2-15 1-18 5-16 8-16 13-16 8-7 13-8 14-5z" fill="#DBE0F3"/>
<path transform="translate(562,790)" d="m0 0h5l14 7 15 3h17l17-4 10-5 6 11 6 8 8 5 10 5 22 6 12 7 4 3v2h2l3 6v14l-4 13-6 12-4 12-8 15-8 10-8 8-10 7-13 5-7 1-4-9-10-31-8-26v-3l-22 9-39 19-23 12-24 11-11 5-20 8-27 8-10 1h-51l-16-1-1 2-1-5-6-6v-7l4-13 4-4v-10l-4-38v-4l9 1 39 7 18 4 35 6 22 2h14l7-2 4-5 6-10 5-8 5-10 5-5h3v-2l13-5 5-4 2-3v-9l-5-5-9-4-3-4 8-9z" fill="#0490E4"/>
<path transform="translate(818,880)" d="m0 0h18l12 2 13 5 16 8v2l5 2 14 15 7 11 7 16 3 11 2 20v7l-3 17-8 16-8 13v2l-8 6-5 5-10 8-20 9-7 2-15 1h-15l-15-2-13-5-11-6-10-7-5-5-6-7v-2h-2l-10-19-6-19-1-7v-25l3-9 9-21 8-12 12-12 16-10 11-5 14-4z" fill="#FCA743"/>
<path transform="translate(265,138)" d="m0 0h18l21 3 17 5 16 8 15 10 9 8 11 14 9 16h2l3-3 18-10 44-26 14-9 3-5 5 1 1 6-4 3-9 2-13 8-26 15-15 9-18 10-3 2 8 16 4 13 3 11v30l-6 25-5 13-6 12-10 14-15 16-13 9-16 9-20 7-14 3-10 1h-12l1 64 1 2v7l-2 2-6-1-2-3 1-4 3-3 1-64-14-1-12-3-19-7-18-10-13-11-12-12-10-14-8-16-5-14-5-19-1-9v-19l4-18 6-17 8-16 8-12 9-10 9-9 11-8 13-8 11-5 12-4zm-1 36-16 3-17 8-12 9-12 12-7 10-7 14-5 21-1 14 3 17 5 16 8 14 14 15 9 7 16 8 14 5 8 2h22l15-4 20-9 11-8 6-5 8-10 6-9 6-13 4-19v-27l-7-21-8-14-8-10-9-8-17-10-11-5-15-3z" fill="#4F5EC1"/>
<path transform="translate(267,1451)" d="m0 0 3 1-13 13-11 9-9 9-11 9-12 11-7 6 2 4 9 11 8 15 5 17 1 6v19l-3 15-5 15-7 13-12 13-11 9-16 8-15 5-10 1h-18l-13-2-10-4-15-8-13-10-8-9-10-16-4-10-4-16-1-6v-12l3-15 6-18 11-16 9-10 12-9 16-8 11-3 8-1h25l18 4 16 8 10 7 4-2 13-10 14-13 11-9 13-12 8-7z" fill="#9B8099"/>
<path transform="translate(953,1607)" d="m0 0 3 3 6 11 8 17 1 1v9l-3 9-2 3 1 5 10 17 6 12 5 7 2 4 9-2 2-4 4-7h2l-1 8 7-2 9-11h1v9h19l16 4 10 4 14 10 6 5 2 3-1 4-13 9-48 32-10 7-117 78-13 9-3-3-13-25-8-13-18-34-7-10-8-13 1-2 5-2 1-2 11-6 10-7 15-10 7-5 3-1 1-2 11-6 27-18 19-12h2v-2l9-5 13-8h2l-3-9-4-7-4-13v-2l11-2-1-6-10-19-4-8z" fill="#4E5DC1"/>
<path transform="translate(352,1351)" d="m0 0h6l-2 2 1 6 5 12 2 3 2 6 5 13 6 12 7 16 9 23 4 8 3 7 9 19 6 13 3 11-33 9-9 2-1 1v9l1 5 6 2 4 4-9-1 1 7 2 4 7 6-3 1-7-3v9l-3 16-11 18-7 9-10 8-6 1-8-15-8-20-14-32-13-30-15-34-11-26-7-15-15-36-5-11 1-4 21-7 11-4 13-4 40-13 17-6z" fill="#4F5DC0"/>
<path transform="translate(1863,1061)" d="m0 0h11l14 2 12 5 11 7 12 11 8 11 5 10 4 12 1 5v19l-4 17-8 15-8 10-11 9-16 8-14 6-7 6h-2v2l-3 2 1 5 3 5-1 5-4 4h-2l-2 4-5 6-6 3-9 8-22-7-16-7-3-4v-10l-4-7 1-7 1-13 1-3 12-2 1-7-3-9-10-18-4-12-2-14 1-17 4-15 7-13 8-10 8-7 11-7 12-5 8-2z" fill="#DBE0F3"/>
<path transform="translate(1695,1335)" d="m0 0h19l27 4 15 4 23 10 18 10 9 7 21 21 13 17 9 15 9 20 5 18v2l-15 6-24 8h-5l-1 2-2-10-5-15-10-19-9-12-16-16-2-3-10-4-16-8-17-6-12-2h-28l-20 4-18 7-13 8-14 11-10 10-9 14-8 16-7 19-2 12-1 18-33 2h-11l-4-1v-19l3-17 6-24 8-19 10-17 10-13 11-12 8-8 11-9 21-13 26-11 24-5z" fill="#FC6C5A"/>
<path transform="translate(1357,1071)" d="m0 0 3 1v141h-80l-47-1-1-1v-137l2-1h123z" fill="#4E5DC1"/>
<path transform="translate(432,1712)" d="m0 0h74l11 1 3 3 1 3 1 49v69l-7 8-10 10-12 19-11 23-4 12-3 1-52-1-1-46v-114l1-30 2-5z" fill="#0391E5"/>
<path transform="translate(1163,317)" d="m0 0h13l5 4-1 6-5 7-2 7v20l3 5 3 2h10l6-5 2-6v-12l-4-16v-4l10-2 12 3 3 2v7l-5 11-1 6v9l3 6 4 5 7 3 7-3 4-5 1-2v-14l-4-10-4-7 2-4 4-2h9l8 4 3 4 1 7-2 14-3 5-2 8-5 12-8 23-2 9-6 19-4 26 10 2 21-1 7 2 4 4 1 8-6 9-2 2 1 7v9l-3 5-12 6v14l-4 6-4 2-6 1-22 1h-44l-5-6-1-7v-10l-13-2-5-5-1-3v-14l-5-5-1-4v-9l3-6 4-2h25v-2l5 1-5-29-5-18-3-23-4-21-3-17v-23l5-8z" fill="#FCA743"/>
<path transform="translate(1503,1783)" d="m0 0 7 6 2 3 1 6v30l-3 5-3 2 2 4 3 2 1 5v31l-3 5-9 8-13 6-15 4-12 2-12 1h-33l-29-3-18-6-10-5-9-8-1-3v-34l5-5 1-5-5-3-1-3v-36l9-8 3 1v2l11 3 21 6 17 2h37l16-1 7-2 16-3 5-3 7-3z" fill="#4F5DC0"/>
<path transform="translate(1033,928)" d="m0 0 3 1v122l1 11-1 6v196l1 10-1 10v32l15-1h303l6-1v-40l-46-1v-1h46l-1-204 2-140h3l1 22-1 176v101l-1 90-7 1v2h-51l1 28 4 2 14 11 9 7v2l-4 1h-228l-44-1 6-7 13-12 5-6 1-9v-13l-1-2-43-1-4-1-2-1v-220l-1-15 1-153z" fill="#4F5DC0"/>
<path transform="translate(1577,713)" d="m0 0h10l10 2 2 8 30 5 11 4 14 5 11 4 19 5 10 2 11 4 18 1h12l12 4h11l4 2 7 2 1 1 11 2 7 5v8l-4 4h-7l-10-1 1 4 4 2 5 5 26 9 14 5-3 5-14 14-18 12-21 10h-3l-1-2-11-5-6-2-10-1-15-5-11-1-6-3-3-5-1-8-4-5-3-2v-2l-6-2-10-6-6 1 1 5 6 5v5l-3 3-14-2-3-2-1-4 1-4-4-1v8l-6 1-11-3-9-5-3-3-12-6-4-4v-2h-2l-4-6-2-4h-3l-6-10-4-13-4-21-1-8z" fill="#7375B4"/>
<path transform="translate(549,1666)" d="m0 0h83l6 2 2 2v155l-9-2-16-5-10-2h-21l-14 2-20 6-5 2h-4v-155l4-4z" fill="#0391E5"/>
<path transform="translate(1104,800)" d="m0 0h2l1 3h2l1 4-2 164-1 23-4 11-7 10-10 10-11 9-12 11-11 9-13 10h-3l-1-15v-120l-2-1-1 2v-3h3v-19l4-26 10-24 8-14 10-13 11-11 5-6 8-7 6-2z" fill="#4E5DC1"/>
<path transform="translate(563,306)" d="m0 0h9l6 5 3 6v10l12-4h9l5 3 4 6v9l-3 6 1 8 4 10 1 4v10l-5 14-6 8-4 3h-2l-3-11h-5l-7 4-9 2h-8l-12-4-17-7-4-1-2 6-9 8-11 5h-12l-14-7-8-7-4-1-2 5-6 14-2 5-5 4-14 10-9 7h-2l-1-12-1-2-9-2-3-4v-6l-10 1-3-3 1-7 6-15 7-9 10-7 8-4 6 1 1-10 8-14 9-9 13-8 6-2 7-1h15l22 2h10l8-3 13-12z" fill="#23204B"/>
<path transform="translate(532,387)" d="m0 0 7 1 16 7 10 3h8l9-2 7-4h5l3 8v5l-1 3 18 4 2 3 2 24 1 26-2 5-6 4-9 2h-6v10h-1v-6h-14l-29 3h-10l-8 2-20 1-23 2h-12l-11-3-11-7-3-2v-2l-5-2-10-8-10-5 2-6-1-9 2-8 6-4 13-10 10-7 4-10 7-14 5 1 7 6 14 7h12l12-6 7-6z" fill="#9B819A"/>
<path transform="translate(316,1776)" d="m0 0h72l9 1 3 2 1 7v123h-97v-126l2-5z" fill="#0390E4"/>
<path transform="translate(1651,1446)" d="m0 0h8l39 5 36 4 32 5 11 3 4 5 2 3v11l-10 16-9 10-7 10-8 11-11 15-18 24-8 10-3 3-6 2h-9l-6-3-8-13-13-31-8-19-9-20-10-25-2-6 1-8 4-7z" fill="#FC6C5A"/>
<path transform="translate(265,138)" d="m0 0h18l21 3 17 5 16 8 15 10 9 8 11 14 9 16h2l3-3 18-10 44-26 14-9 3-5 5 1 1 6-4 3-9 2-13 8-26 15-15 9-18 10-3 2 8 16 4 13 1 7-17 5-10 2h-6l-1 3-4-16-6-15-9-14-9-10-16-10-16-8-15-3h-23l-16 3-17 8-12 9-11 11-7 10-7 14-5 21-1 8-1 1h-34l-2 1v-12l4-18 6-17 8-16 8-12 9-10 9-9 11-8 13-8 11-5 12-4z" fill="#FC6D5A"/>
<path transform="translate(1413,1718)" d="m0 0h39l25 3 19 6 8 5 7 6 1 3v30l-2 7-10 8-5 3-8 3-9 3-11 2-4 1-16 1h-37l-21-3-26-8-2-1v-2h-2l-4-5-5-5v-34l3-5 10-8 17-6 12-2z" fill="#FD6C5A"/>
<path transform="translate(761,384)" d="m0 0h9l15 2 12 5 9 7 9 9 8 13 4 14v20l-4 13-6 10-9 10-8 7-10 5-16 4h-15l-13-3-15-8-8-7-9-14-4-11-2-9v-15l4-15 6-12 7-9 12-9 12-5z" fill="#DBE0F3"/>
<path transform="translate(1722,286)" d="m0 0h14l11 4 6 5 6 9 4 11v10l-3 10-6 9-7 6-14 5h-9l-11-4-8-5-6-6-4 1-2 1-12 1h-125l-8-3-9-8-3-9 1-11 6-8 10-6h27l119 1 12-9 6-3z" fill="#DBE0F3"/>
<path transform="translate(1554,380)" d="m0 0h8l11 3 11 6 6-1 99-1 26 1 9 2 8 5 5 8 1 8-2 8-8 11-8 4-14 1-108 1-11 1-10 7-9 4-11 2-11-3-10-5-7-8-5-10-1-5 1-13 4-10 8-9 10-5z" fill="#DBE0F3"/>
<path transform="translate(1599,677)" d="m0 0 10 1 9 4 3 3 9 4 12 7 14 5 5 1 5-2 5-6 5-2h9l5 3v5l-5 5-4 3-9 3 1 5 1 1h7l5-2h7l6 5 4 4 5 1 2-1v-5l-6-5v-8l2-3h6l5 2 1 2 1 14 3 5 8 4 7 4 5 6 13 2 16 8 15 5 13 3 10 1-1-6-5-4-16-8-11-3-12-2-16-8-3-2-1-5 1-2h8l19 4 9 3 16-1 4 2 2 3v3h2l5 5 13 4h10l6 2 7 2-3 12-6 16-8 16-9 13-2 2-9-2-30-10-7-5-5-6v-2l6-1 4 1h7l3-1v-10l-9-5-8-1-2-2-8-2-7-1h-6l-12-4h-19l-11-1-13-5-11-2-23-6-14-6-13-4-10-2-22-4-2-5v-4l-20-2 2-16 4-17 3-1h7z" fill="#FA9E4D"/>
<path transform="translate(1555,205)" d="m0 0h9l11 4 12 7 125 1 12 2 9 6 4 7 1 4v7l-4 10-6 5-10 3-9 1h-121l-11 9-11 3-8 1-13-3-9-6-6-9-4-9-1-4v-8l3-10 6-9 7-6 11-5z" fill="#DBE0F3"/>
<path transform="translate(267,1451)" d="m0 0 3 1-13 13-11 9-9 9-11 9-12 11-7 6 2 4 9 11 6 11-1 4-2 1-28 3-12 3h-14l-15 5-13 2-20 4-2 5-2 4 2 3-1 4-36 12-20 6-2-6-1-6v-12l3-15 6-18 11-16 9-10 12-9 16-8 11-3 8-1h25l18 4 16 8 10 7 4-2 13-10 14-13 11-9 13-12 8-7z" fill="#D17266"/>
<path transform="translate(596,681)" d="m0 0h15l3 2v2l7-1 11 4 10 8 7 8 8 16 3 9-1 15-3 11h-2l-2 6-5 9h-2l-2 4-6 7h-3v2l-13 5-9 2h-18l-13-3-13-8v-2l-4-2-6-7-8-15-2-6v-19l3-12 6-11 11-12 9-6 10-4z" fill="#0490E4"/>
<path transform="translate(1303,605)" d="m0 0h15l4 4 3 7 10 5 5-1 5-3 6 1 8 7 3 4-1 5-2 4 1 9 3 5 10 5 1 2 1 15-4 4-6 3-5 7-1 7 5 8-1 4-7 8-7 4-7-4h-6l-10 5-3 10-2 1h-17l-4-5-2-6-9-4-7 1-3 2h-6l-11-10-1-5 3-7-2-10-3-4-10-4-1-2v-17l10-4h2l3-11-1-8-2-6 3-5 7-7 5-2 7 5 6-1 8-4 3-7 2-4zm3 38-10 6-6 8-2 6v9l5 10 7 6 7 3h12l10-5 5-8 2-6v-10l-4-10-7-6-7-3z" fill="#DBE0F3"/>
<path transform="translate(1356,1835)" d="m0 0 5 4 19 7 8 2 19 2 21 1h13l24-2 17-3 12-5 11-3 1-3 5 5 2 6v31l-3 5-9 8-13 6-15 4-12 2-12 1h-33l-29-3-18-6-10-5-9-8-1-3v-34l5-5z" fill="#0391E5"/>
<path transform="translate(1223,460)" d="m0 0h7l6 1 20-1 7 2 4 4 1 8-6 9-2 2 1 7v9l-3 5-12 6v14l-4 6-4 2-6 1-22 1h-44l-5-6-1-7v-10l-13-2-5-5-1-3v-14l-5-5-1-4v-9l3-6 4-2h25v-2l7 1h49z" fill="#DADFF2"/>
<path transform="translate(953,1644)" d="m0 0 5 2 4 13 6 11v5l-17 10-4 3h-3v2l-24 15-15 10-17 11h-3l-1 3-7 4-36 24h-3l-1 3-5 2-4-4-7-11-2-4v-3h-2l-4-5 1-5 15-16 12-12 10-9 11-9 14-10 15-9 14-7 19-8 22-5z" fill="#BC5C47"/>
<path transform="translate(1196,912)" d="m0 0h15l14 4 11 7 7 8 7 14 2 7v15l-5 15-7 10-9 8-10 5-13 3h-10l-18-5-10-8-7-8-4-9-3-12v-13l5-16 8-11 9-7 8-4z" fill="#FDFDFD"/>
<path transform="translate(884,977)" d="m0 0 16 1 8 1h4l-1 11-3 10-3 8-3 7-6 11-2 3-5 3-4 5-8 6-10 6-17 7-4 1-15 1h-15l-15-2-13-5-8-4-5-7 8-5 11-8 1-2h2l2-4 6-8v-1l-7 2-6 5h-2l-2 4-3 3-6 3-8 6-3-1 7-7 7-6 5-5 7-6 5-2 2-4 7-3 9-5 2-2 7-1 3-1 1-3 23-7 5-2 6 1 3 1v-2l4-1 6 2 4-3z" fill="#FD6C5A"/>
<path transform="translate(1351,1418)" d="m0 0h14l10 2 10 5 8 7 7 11 3 9v21l-4 12-7 9-8 7-10 5-14 3-12-1-11-4-10-7-8-9-4-8-3-13 1-14 4-12 7-9 7-7 10-5z" fill="#DBE0F3"/>
<path transform="translate(1595,754)" d="m0 0 9 1 15 8 5 3 6 3 36 7 9 3 1 4-1 7 4 2 4 1 3-6h10l5 4 2 5 7 3 2 4 3-1 2-3h11l7 2 2 1 16 2 2 1 13 1 15 6 23 5-6 7-18 12-21 10h-3l-1-2-11-5-6-2-10-1-15-5-11-1-6-3-3-5-1-8-4-5-3-2v-2l-6-2-10-6-6 1 1 5 6 5v5l-3 3-14-2-3-2-1-4 1-4-4-1v8l-6 1-11-3-9-5-3-3-12-6-4-4v-2h-2l-4-6-2-4-2-1 4-4-5-4-2-5 1-7z" fill="#9B8099"/>
<path transform="translate(1740,586)" d="m0 0 10 2 15 5 21 11 14 10 17 17 10 13 11 21 8 24 2 9 1 9v24h-1v-15l-7-2-5-3-3-3-14-8-10-6-22-6-18-5-16-1-5-2-5-5-1-13-2-4-1-7-2-2v-3l-3-1 1-8 3-2 10-3 6-1h17l7-4 2-3 7 1 3-2-1-2h2v-2h-2l-3-6-6-3-3-1v-2h-2v-2l-5-2-8-4v-2l-4-1-3-2v-2l-12-3h-2z" fill="#FD8B5E"/>
<path transform="translate(836,888)" d="m0 0h2v2l3-1 5 1v2l-13 3-3 5-4 7-5 2-3 3-4 2v4l5-1 16-5 16-6 9-6 10-3h6l8 6-4 5-16 10-12 7-5 5-10 1-2 5-6 4-1 4 5-1 10-5 11-5 5-1 2 4-4 2v2l-16 8-4 3-24 9-20 10-5 3-10 3-7 4-9 1-4 3-15 3-2 3-1-4h-2v-17h2l-1-11 1-4 1-5 5-5 4-3 2-7h3l1-2 8-4 10-7 7-4h2v-2l8-6 2-2h4l1-3 6-3 5-5 7-2 3-3 5-1 6 1 5-2z" fill="#FD895F"/>
<path transform="translate(528,116)" d="m0 0h43l6 2 2 6v59l-2 7-2 2-17 1h-44l-8-1-3-4-1-3v-61l2-5 2-2z" fill="#DBE0F3"/>
<path transform="translate(123,470)" d="m0 0h64l4 2 1 6v64l-2 3-3 1h-64l-6-2-1-2-1-25v-37l1-8z" fill="#DBE0F3"/>
<path transform="translate(1304,1345)" d="m0 0 2 1v2l4 2 14 11 9 7v2l-4 1h-228l-44-1 6-7 13-12 5-5 2 1h221z" fill="#4F5EC0"/>
<path transform="translate(1795,1363)" d="m0 0 5 2 10 9 17 17 13 17 9 15 9 20 5 18v2l-15 6-24 8h-5l-1 2-2-10-5-15-10-19-9-12-16-16-3-4 2-5 10-14 6-10 3-6z" fill="#DBE0F3"/>
<path transform="translate(613,650)" d="m0 0h1l1 11 1 7 19 7 13 10 10 11 6 10 5 16v22l-1 12-8 16-11 12-11 9-11 5-14 3h-17l-15-3-14-7h-5l-7 9-3 3-5-1-10-4-1-10 3-3 5-3 5-5-2-7-6-10-4-13v-23l4-15 9-15 7-8 11-9 11-5 9-3 7-1 17-1zm-17 31-15 4-9 5-12 11-7 11-4 11-1 5v19l5 12 7 12 6 6h2v2l13 8 13 3h18l15-4 7-3v-2l4-1 7-8v-2h2l7-13v-2h2l3-11 1-15-5-14-8-14-8-8-9-6-9-3-7 1-1-3-2-1z" fill="#23204B"/>
<path transform="translate(1572,1403)" d="m0 0 9 3 11 8 9 7 9 5 3 2-10 17-6 14-5 14-2 12-1 18-33 2h-11l-4-1v-19l3-17 6-24 8-19 10-17z" fill="#FCA743"/>
<path transform="translate(680,857)" d="m0 0 7 1 18 18-3 10-4 11-7 13-8 10-8 8-10 7-13 5-7 1-4-9-10-31-9-30 13-5 25-6 10-2z" fill="#4E5DC1"/>
<path transform="translate(1577,713)" d="m0 0h10l10 2 2 8 30 5 11 4 14 5 11 4 19 5 10 2 11 4 18 1h12l12 4h11l4 2 7 2 1 1 11 2 7 5v8l-4 4h-7l-10-1 1 4 4 2 5 5 26 9 12 4v1h-6l-11-3-9-2-9-3-16-8-6-1-11-2-7-3-21-2-3-3-1-9-2-3-10-5-5-4-7-3-5-1-1 4 2 3v6l-2 1h-8l-10-3-5-1-2 2h-14l-7-2-16-8-10-4-2-2 1-6 2-1 13-1 2-5-13-1-5 1-2 4-4 3-8 1-9-4-1-1v-9l3-3 2-1v-5l-4-4h-9l-2 1z" fill="#9B7F98"/>
<path transform="translate(133,1487)" d="m0 0h25l18 4 2 2-17 12-11 9-7 8-3 5h-2l-2 4-5 4h-3v2h-3l-1 2-7 3-8 4-8 3-11 5-17 6-10 4h-5l1-8 6-20 7-11 9-12 11-10 15-9 14-5z" fill="#7375B4"/>
<path transform="translate(224,1537)" d="m0 0 2 2 4 13-1 10h-2l-1 11-7 3h-6l-2-1v-4l3-2v-3l5-3v-5h-13l-11 2-5 2-2 6-13 6-1 5 6 2 3 4-4 4-3 1h-12l-4-4-2-5h-7l-17 6-34 7-10 2-8 2-14 2h-6l-2-9 6-3 21-6 29-10-1-5-1-2 5-8 24-6 13-2 11-4h14l18-4 22-2z" fill="#7375B4"/>
<path transform="translate(1593,779)" d="m0 0h2l6 8v2h2l5 6 12 6 5 4 8 4 9 2h6l-1-8 4-1 2 4-1 3 1 3 8 2 8 1 2-2v-5l-7-6 1-4 3-2 4 1 15 8 7 8 1 1 2 10 1 3 6 2 11 1 15 5 13 2 10 4 5 3 1 3-15 4-21 3-17 1-14-3-10-3-14-2-6-4-9-4h-2l-6 10-8 9-4 6-5 6-12 16-14 18-11 14-10 13-2-4 8-10 7-9 10-13 12-16 7-8 6-9 10-12 4-6 1-8-8-7-6-4v-2l-4-2-7-6-8-7-8-9-4-7-6-10z" fill="#7275B4"/>
<path transform="translate(1164,312)" d="m0 0h12l8 3 4 3 16-1 15 5 4 2 11-1h14l8 5 5 6 1 4v14l-5 15-7 17-10 29-8 32-3 15h-5l4-27 6-19 4-15 9-25 3-6 2-7 3-8 1-13-3-7-8-4h-9l-5 3 2 6 5 10 1 3v14l-4 6-5 4-4 1-7-3-7-9-1-3v-9l2-8 4-9v-7l-9-3-7-1-8 1 5 20v12l-3 7-6 5h-10l-6-5-1-3v-20l3-9 5-7-1-5-3-2h-13l-7 7-3 6v23l6 35 2 9 2 17 6 23 3 17v7l-4-1-6-25-4-16-6-31-4-25v-34l3-9 7-7z" fill="#AD5344"/>
<path transform="translate(1722,286)" d="m0 0h14l11 4 6 5 6 9 4 11v10l-3 10-6 9-7 6-14 5h-9l-11-4-8-5-6-6-4-2-3-11v-14l3-11 1-2 6-3 9-7 6-3z" fill="#FD7E64"/>
<path transform="translate(1554,380)" d="m0 0h8l11 3 11 6 4 5 4 8 2 8v7l-5 17-5 5-9 6-11 4-7 1-11-3-10-5-7-8-5-10-1-5 1-13 4-10 8-9 10-5z" fill="#0391E5"/>
<path transform="translate(205,1596)" d="m0 0h21l1 1-1 9-8 16-8 10-8 8-10 7-16 8-13 4-10 1h-18l-13-2-10-4v-5l13-12 9-6 7-4 12-6 7-3 9-4 9-6 17-6 6-4z" fill="#7375B4"/>
<path transform="translate(1555,205)" d="m0 0h9l11 4 13 8 6 12 2 7v8l-4 11-5 8-10 8-11 3-8 1-13-3-9-6-6-9-4-9-1-4v-8l3-10 6-9 7-6 11-5z" fill="#4F5EC1"/>
<path transform="translate(597,410)" d="m0 0h10l8 3 2 10 2 34v8l-2 5-6 4-9 2h-41l-4-2-4 2h-13l1-5 6-9 6-10 5-9 5-8 3-7h2l2-5 6-10 3-1h14z" fill="#24204B"/>
<path transform="translate(1033,928)" d="m0 0 3 1v122l1 11-1 6v196l1 10-1 10v32l15-1h303l6-1v-40l-46-1v-1h46l-1-204 2-140h3l1 22-1 176v101l-1 90-7 2h-52l-52-1h-146l-24 1h-49l-1-1v-220l-1-15 1-153z" fill="#262553"/>
<path transform="translate(1587,668)" d="m0 0 7 2 3-1 11 1 8 4 15 7 11 3h25l22 5 6 4 1 1-1 7-2 3v4l6-2 5-5h7l10 4 3 3v2l13 1 12 4 10 2v2h8l15 5 6-1h10l6 4 3 3 1 3 7 5 9 2h17l6-1-1 7-7-1-6-2h-10l-13-4-5-4v-2h-2l-2-6-8-1-12 1-12-4-24-4 1 7 15 8 6 2 12 2 10 3 17 9 4 5-1 4h-10l-23-6-14-6-7-4-13-2-6-7-9-4-7-5-2-6-1-14-11-2-1 3v8l6 5v5l-4 2-7-3-4-5-3-2h-7l-5 2h-7l-3-4 1-4 10-4 5-3 2-3v-5l-4-2h-9l-6 3-5 6-5 1-4-1-14-5-12-7-9-4-3-2v-2l-9-3-10-1-8 2-7-1 2-9z" fill="#FC8B5F"/>
<path transform="translate(532,413)" d="m0 0h11l1 2-14 22-9 14-7 10-6 9-4 5-4 3-18 1-7-3-2-3-1-6v-46l5-4 36-3z" fill="#23204A"/>
<path transform="translate(953,423)" d="m0 0h7l1 3 7 1 14 9 8 8 5 10 1 11-2 8-5 7v12l-2 10-5 5-9 1-6-3-5-6-4-9 1-2-2-1 1-9 3-5h2v-12l-5-3-5 2v2l-4 4-2 4v17l-2 3v6l-3 3-3 7-3 1-1 2-10 5-9 3-2-1 1-3 10-5 5-5 2-3h2l2-5 2-11h3l-1-3 1-3v-14h2l2-8h2l1-4 4-2 2-4 5-6v-8l-2-1v-2l-12 2-2 3-5 3-3 1-2 4-2 3h-2l-2 6-4 7-2 2-4 3v-2h-3l1-5-1-2h4l2-4 3-4 1-5h2l4-7 5-5 9-5z" fill="#AD5244"/>
<path transform="translate(465,149)" d="m0 0 5 1 1 6-4 3-9 2-13 8-26 15-15 9-18 10-3 2 8 16 4 13 1 7-17 5-10 2h-6l-1 3-4-16-6-15-9-14-9-10-3-2 2-5 7-11 4-5 1-4 5-4 4 1 7 6 11 14 9 16h2l3-3 18-10 44-26 14-9z" fill="#DBE0F3"/>
<path transform="translate(870,897)" d="m0 0h6l8 6-4 5-16 10-12 7-5 5-10 1-2 5-7 3-7 5-7 3v2h-3l-2 4-7-1-3 2-2 8-3-1v-5l-6 1-5 5-6 3h-2v3l-4 3h-6l-6 3-10 2-1 2-6-1v-4l3-6 7-3 7-2 6-4h4l2-4v-10h-6v-6l8-3-1-5 4-2 2-4 8-1v-2l9 3-1 3 5-1 3 5 4-1-1-1v-2l3-1 2-4 13-5 12-5 16-6 9-6z" fill="#FD6D5A"/>
<path transform="translate(816,581)" d="m0 0h9l-4 8-6 7-10 14-12 16-6 7-8 10h-13l-28-4-10-3-4-7 6-8 15-10 18-10 23-11 21-7z" fill="#DBE0F3"/>
<path transform="translate(1613,627)" d="m0 0 2 2v5l1 3 10-3 2-2 7-2 16 1 11 3 7 4 3 7 6 3 4 1 1-4 9 1h13l8 5 1 7-4 7-2 2h-24l-13 4-10 1-13-3-11-5-13-4-11-2v-2h-3l-2-5-4-1-3 1v2h-2l-1 2-4-2 7-11 9-12z" fill="#FD8B5E"/>
<path transform="translate(1823,640)" d="m0 0 4 4 11 21 8 24 2 9 1 17-1-2-7-2-8-6-14-8-8-7-10-5-12-3-12-6-8-7 4-11h2l1-3 3 1v2l11 1 7-3 8-3 9-3 4-5 2-4z" fill="#FB9F4C"/>
<path transform="translate(178,185)" d="m0 0 1 2 7 1 14 10 6 5 3 2-6 8-7 12-5 16-3 18-1 1h-34l-2 1v-12l4-18 6-17 8-16 8-12z" fill="#FCA743"/>
<path transform="translate(267,1451)" d="m0 0 3 1-13 13-11 9-9 9-11 9-12 11-7 6 2 4 9 11 4 8-5 5-13 1-30 2-9 3-6 1h-9l-2-2v-5l4-5h2l2-4 3-4 2-10 8-11 6-7 8-2 11 6 8 6 4-2 13-10 14-13 11-9 13-12 8-7z" fill="#FC6C5A"/>
<path transform="translate(574,411)" d="m0 0h21l-4 2h-15l-2 6-6 9h-2l-1 4-5 10-5 7-6 11-6 10-3 6 13-1 6-2 2 2 35 1v1l-56 1-4-1-31 1-4 1h-12v-1l11-1 5-4 7-10 7-11 6-9 11-17 7-11v-1h-9l-1-2z" fill="#505DC0"/>
<path transform="translate(1247,940)" d="m0 0 2 2 3 10v15l-5 15-7 10-9 8-10 5-13 3h-10l-15-4 5-4 5-8 8-10 2-2 6-5 1-2h2v-2l8-7 9-10 9-11 9-1z" fill="#DBE0F3"/>
<path transform="translate(596,681)" d="m0 0h15l3 2v2l7-1 11 4 10 8 7 8 8 16 3 9-1 15-3 11-1-3-11-2-13-2-2 5h-3l-2-10-2-7-5-19-3-25-2-9h-15l-12 2 2-2z" fill="#0490E4"/>
<path transform="translate(121,1591)" d="m0 0h9l3 1v2h2v6l-7 10-4 7-15 15-4 6h-2l-1 4-6 3-11-8-9-10-10-16-2-4v-5l32-6z" fill="#FD6C5A"/>
<path transform="translate(1583,680)" d="m0 0 2 4 2 6 7 3v3l9 2 3 2h6l19 10 5 2 12 2 8 4 3 4 12 2 4 4 8 1h3v2l2-1h10l7 4 2 2h14l5 3v2h2l-1 4-9 1v1h-15l-4-2v-2l-6-2-6-1-16-3-7-3-3-1h-7l-17-6-13-4-17-3-7-3-5-2-18-2 2-16z" fill="#FCA743"/>
<path transform="translate(299,499)" d="m0 0h41l14 1 3 3v8l-5 3-12 1h-53l-67-1-1-2v-8l3-4z" fill="#DBE0F3"/>
<path transform="translate(609,146)" d="m0 0 132 1 3 2v9l-3 3-45 1h-88l-3-1-2-5 1-6z" fill="#DBE0F3"/>
<path transform="translate(470,412)" d="m0 0h7l1 3-7 3-2 5 1 41 1 9 1 4 9 3h14l26-1h16l-3 3-16 2-27 2h-13l-11-4-4-3v-2l-4-2-13-9-15-9-1-13 2-8 1 2 10-6 10-8 9-6h2l2-4z" fill="#DBE0F3"/>
<path transform="translate(364,1348)" d="m0 0 2 3 11 24 11 26 15 35 8 18 10 23 7 18v3l2 1-12 2-5-11-7-17-9-17-3-8-5-12-9-22-7-15-6-13-3-7-2-7-2-2-5-13 1-5 5-2h3z" fill="#AC5244"/>
<path transform="translate(888,1015)" d="m0 0 10 1 1 4-3 6-2 3-5 3-4 5-8 6-10 6-17 7-4 1-15 1h-15l-15-2-9-3 4-2 5-4 6-2 5-5 7-3 6-3 6 1 2 3h8l12-7 6-4 10-4z" fill="#FCA743"/>
<path transform="translate(223,477)" d="m0 0h128l5 2 1 1v9l-3 2-133-1-2-3v-8z" fill="#DBE0F3"/>
<path transform="translate(1595,715)" d="m0 0h2l2 8 30 5 11 4 14 5 11 4 19 5 10 2 11 4 18 1h12l12 4h11l4 2 7 2 1 1 11 2 7 5v8l-4 4h-7l-10-1 1 4 4 2-3 1-6-3h-10l-9-4-7-3-1-1h-14l-3-5-2-11-1-3h-11l-1-3-9-3-5-2-15-2-17-5-17-7-15-5-25-4-4-2z" fill="#D17368"/>
<path transform="translate(683,124)" d="m0 0h52l8 1 1 1v10l-2 1h-135l-2-2-1-8 2-2z" fill="#DBE0F3"/>
<path transform="translate(968,392)" d="m0 0h16l9 3 4 7-2 7-7 5-18 6-7 5-2 1-1-2-16 1-11 6-6 10-3 2-1 5-5 6-6 1 2-6 12-25 6-8 8-9h2v-2l10-7 12-5z" fill="#BE5F4B"/>
<path transform="translate(1228,1069)" d="m0 0h129l1 2-1 2-4 1h-121l1 137 62 1h64l-1 4h-130z" fill="#DBE0F3"/>
<path transform="translate(1196,912)" d="m0 0h15l11 3-4 3-8 7-11 9-16 16-7 8-5 6-3 2-10-1-2 1v-13l5-16 8-11 9-7 8-4z" fill="#DBE0F3"/>
<path transform="translate(532,387)" d="m0 0 7 1 16 7 10 3h8l9-2 7-4h5l3 8v5l-5 2-95 2-23 2-8 2-4 2 4-13 6-11 5 1 7 6 14 7h12l12-6 7-6z" fill="#AD5243"/>
<path transform="translate(1617,812)" d="m0 0 5 2 21 5 12 4 6 4 2 3 15 5 7 5 16 5 8 2 14 7-17 1-14-3-10-3-14-2-6-4-9-4h-2l-6 10-8 9-4 6-5 6-12 16-14 18-11 14-10 13-2-4 8-10 7-9 10-13 12-16 7-8 6-9 10-12 4-6 1-8-8-7-6-4v-2l-4-2-7-6-2-1z" fill="#9B8098"/>
<path transform="translate(194,1614)" d="m0 0h10l2 2-1 7-4 3h-2l-1 7 4 1h5l-5 6-10 7-16 8-13 4-10 1h-18l-9-1 4-4 15-7h15l12-2 1-7h-2l-1-7 8-13 5-3z" fill="#9C829B"/>
<path transform="translate(1413,1718)" d="m0 0h39l25 3 19 6 8 5 7 6 1 3v30l-2 7-4 3-8 4-2-1v-2l3-1 4-5h3l2-14-1-7-1-10v-5l-3-1-1-2-7-3v-2l-6-1-9-3-7-2-10-2-18-1-5-1-34 1-15 3-7 3-4 1-9 2-7 2-5 4-3 3-1 6h-2l2 11-2 8 2 7 3 5 6 4 10 4 9 4 5 1 18 1 19 3 10 1v1h-20l-22-2-13-4-13-5-8-1-4-5-5-5v-34l3-5 10-8 17-6 12-2z" fill="#FC7D65"/>
<path transform="translate(1796,762)" d="m0 0 13 2 5 2 14 3 3 1v3h3v2l2 1-7 14-9 13-2 2-5-1 1-3-12-6-12-5-8-3-1-4 7-1 6-11v-6z" fill="#FCA743"/>
<path transform="translate(609,169)" d="m0 0h27l40 1 6 3 1 1v6l-5 5-4 1h-66l-4-4v-6l4-6z" fill="#DBE0F3"/>
<path transform="translate(224,1537)" d="m0 0 2 3-7 5-18 2-10 4-8 5-27 5-9 3-13 5-23 8-29 9-19 6h-2l-1 2 1-4 22-7 33-11-1-5-1-2 5-8 24-6 13-2 11-4h14l18-4 22-2z" fill="#9B8099"/>
<path transform="translate(222,523)" d="m0 0h66l7 2 1 1v8l-5 4-51 1h-17l-5-4-1-5 3-6z" fill="#DBE0F3"/>
<path transform="translate(836,888)" d="m0 0h2v2l3-1 5 1v2l-13 3-3 5-4 7-5 2-3 3-4 2v4l5-1 6-1-4 3-13 5-3 2h-5l-3-2v-2l-15-1-10 7-8 5-10 5-3 2 1-6h3l1-2 8-4 10-7 7-4h2v-2l8-6 2-2h4l1-3 6-3 5-5 7-2 3-3 5-1 6 1 5-2z" fill="#FB9F4D"/>
<path transform="translate(1190,588)" d="m0 0h11l6 3 4 5 2 8-2 8-7 6-6 2v62h-1l-1-51-1-4-1 56h-1l-1-62-9-6-4-5-1-8 4-8 6-5z" fill="#5C67C0"/>
<path transform="translate(819,1336)" d="m0 0 2 2v4l-19 19-10 8-14 9-12 7-12 5-18 8-11 4-19 9-29 12-19 8-10 1 1-3 11-5 18-8 16-7 12-5 22-10 11-4 16-7 12-5 11-6 5-4 13-10 10-9z" fill="#6169BA"/>
<path transform="translate(782,920)" d="m0 0 13 1 2 1v2l8 1 5-2-2 4h-3l3 3-1 2h-5l-3-5h-5v-2l-8-4v2l-9 3-4 5 1 4-6 3h-3v6l6-1 1 1v10l-3 4-8 3-4 3-11 3-6 11v7l3 1-2 4-1-4h-2v-17h2l-1-11 1-4 1-5 5-5 9-8 9-4 5-3z" fill="#FD8A5F"/>
<path transform="translate(1215,321)" d="m0 0 6 2 7 1 6-1h14l8 5 5 6 1 4v14l-5 15-7 17-10 29-8 32-3 15h-5l4-27 6-19 4-15 9-25 3-6 2-7 3-8 1-13-3-7-8-4h-9l-5 3 2 6 5 10 1 3v14h-1l-2-16-5-10-3-5v-5l8-3h-6l-3 2-5-1-7-4z" fill="#B25544"/>
<path transform="translate(1164,312)" d="m0 0h12l8 3-4 1-1 1-3 1h-13l-7 7-3 6v23l6 35 2 9 2 17 6 23 3 17v7l-4-1-6-25-4-16-6-31-4-25v-34l3-9 7-7z" fill="#B15645"/>
<path transform="translate(858,980)" d="m0 0 6 1 3 1v-2h3l-2 6-3 2-10 1-4-2v5l1 3-1 2h-5l-5 2-3 5-4 1-2-2-1-7-5 2v6l-4 5-9-5-4 1v3l4 3-7 6-5 5-4 3 2-4 6-8v-1l-7 2-6 5h-2l-2 4-3 3-6 3-8 6-3-1 7-7 7-6 5-5 7-6 5-2 2-4 7-3 9-5 2-2 7-1 3-1 1-3 23-7z" fill="#FD895F"/>
<path transform="translate(925,565)" d="m0 0 3 1-6 11-5 10-10 23-24 48-12 23-7 11-6 11-10 16-8 9-6 8-8 8-10 5-11 3-8 1h-40l-21-2-17-3 1-6 3 3 17 4 6 1h57l7-3v-1l12-3 5-5 4-5 5-5 7-9 1-2h2l2-5h2l1-4 6-12 5-7 1-4 2-1 11-22 2-2 3-7 6-12 1-3h2l2-6 6-15 6-12h2l1-8 3-5 1-4 3-3 1-5h2l2-6 5-6z" fill="#D37468"/>
<path transform="translate(827,579)" d="m0 0v3l-1 8-4 1-2 4-9 12-2 4h-2l-2 5-6 10-3 1-2 4-5 8-8 6-5 1-17-1-18-2h-9l-2-3-2 14-1 13-4 24-2 29-2 19v8l-4 1 1-23 3-34 3-29 2-9 2-16 4-1 15 3 21 3h13l8-10 9-11 14-19 16-22z" fill="#D37468"/>
<path transform="translate(121,1591)" d="m0 0h9l3 1v2h2v6l-7 10-4 7-15 15-4 6h-2l-1 4-6 3-5-4 4-6 10-8 9-9 1-10-2-7-14-1-21 3-10 2-4 2v-5l32-6z" fill="#D27468"/>
<path transform="translate(175,1491)" d="m0 0 3 2-17 12-11 9-7 8-3 5h-2l-2 4-5 4h-3v2h-3l-1 2-7 3-8 4-8 3-11 5-17 6-10 4h-5l1-8 6 1 12-5 9-4 9-2 5-4 9-4 5-5 8-7 5-4h2l1-3 16-8 10-6 15-10z" fill="#9B8099"/>
<path transform="translate(1733,822)" d="m0 0h8l11 3 8 1 7-1 17 2 5 2-2 4-23 12-6 1-4-5-10-6-3-3v-2l-5 2h-8l-5-5 3-3z" fill="#FA9E4D"/>
<path transform="translate(1107,841)" d="m0 0h1v130l-1 23-4 11-7 10-10 10-11 9-12 11-11 9-13 10h-3l2-5 8-7 10-8 14-12 11-9 13-12 4-5 4-11 1-5 1-18 1-69 1-40z" fill="#DBE0F3"/>
<path transform="translate(556,798)" d="m0 0v3 3l10 5 5 4 2 3v7l-4 8-8 6-16 7-6 9-4 8-11 18-4 3-4 1h-18l-46-6-27-6-38-7-11-3v-2l9 1 39 7 18 4 35 6 22 2h14l7-2 4-5 6-10 5-8 5-10 5-5h3v-2l13-5 5-4 2-3v-9l-5-5-9-4-3-4z" fill="#6367B7"/>
<path transform="translate(399,770)" d="m0 0 16 6 9 3 14 5 2 2 8-1 16-8 15-5 12-2 21 4 14 7 10 8 1 9 10 3 6 4 4 3 3 2-6-1-7-5-11-2-20-2-16-4-2-2 1-5h12l16 4h5l-7-8-7-5-11-3-1-1-11-1h-10l-15 3-11 5-10 4-1 1h-11l-16-6-15-6-7-3z" fill="#AC5243"/>
<path transform="translate(1649,641)" d="m0 0 9 1 6 4 1 2 8 4 3 3v8l-10 5h-7l-12-6-13-7-2-2 1-4 3-3z" fill="#FB9F4D"/>
<path transform="translate(133,1487)" d="m0 0h21l-1 4-6 5-10 4-19 4-8 4-11 4h-8l-1-4 5-7 14-8 16-5z" fill="#D1756A"/>
<path transform="translate(1578,928)" d="m0 0 3 1-3 7-9 10-14 19-13 16-3 5h-2l-2 4-12 16-11 13-8 11-12 16-11 14-9 12-2 3h-2l-2 5-13 16-10 13-5 7h-3l1-4 11-14 8-11 8-9 10-14 9-11 10-13 14-18 9-12 13-16 10-14 10-13 4-4 1-3 2-1 4-7 9-11 5-6h2l1-4z" fill="#2E2D5F"/>
<path transform="translate(580,406)" d="m0 0h15l1 2 3 2-2 1-23 1-68 2-24 2h-6l1-4-9 2-7 6-11 7-11 9-6 2 1-3 17-13 10-7 7-4 21-2 8-1z" fill="#9A7F99"/>
<path transform="translate(1082,1344)" d="m0 0h50l172 1v2l-2 1h-219l-2-1z" fill="#23204A"/>
<path transform="translate(859,1027)" d="m0 0 3 1-7 4-3 5-5 2-2 4-6 7-2 4-5 2-3-1h2l-1-2-8 1 2 2h-14l-3-4-7-1-2-2 9-4 5-5 7-3 6-3 6 1 2 3h8l12-7z" fill="#FB9E4D"/>
<path transform="translate(226,1576)" d="m0 0h5v12l-4 4-28 3-5 4h-8l-1-7h2l2-4 9-3z" fill="#AD5243"/>
<path transform="translate(976,242)" d="m0 0h2l1 2 2 16 18 1 2 3-4 3-11 2-4 2-2 6-1 8h-4l-2-9-1-7-16-2-2-1v-4l10-2h9l1-15z" fill="#DBE0F3"/>
<path transform="translate(631,748)" d="m0 0h9l15 4-1 5-7 13h-2l-2 4-5 6-4-2-6-20 1-7z" fill="#DADFF2"/>
<path transform="translate(970,437)" d="m0 0h9l5 5 5 6 1 5-4 9h-3l1 3-3 3v2l-6-1-2-2-1-9h-2l-4-8-2-2v-7h2l1-3z" fill="#BD5D48"/>
<path transform="translate(564,1219)" d="m0 0 5 1v2l5 1 17 8 10 6 3 5-3 2h-5v2l-2 1h-7v2l-5 2-1-3-5-2-8-21z" fill="#26234E"/>
<path transform="translate(1663,820)" d="m0 0 4 2v3l14 1 12 6 3 1 16 3h8l3 2v3l3 1v3l2 1-6 3-5-1-6-1v-2l-8-1-7-3-21-8-9-5-1-2-4-2z" fill="#4F5DC1"/>
<path transform="translate(1236,933)" d="m0 0 1 3-4 5-6 5-7 8-6 8-4 6-11 11-10 8-8 6-3 5-2 2-4-4 12-13 48-48z" fill="#DBE0F3"/>
<path transform="translate(1184,330)" d="m0 0 5 1 3 8 1 11-1 9-3 4-9 1-3-2-1-3v-14l3-10z" fill="#FDA843"/>
<path transform="translate(1778,1353)" d="m0 0 16 8 1 1v6l-9 16-13 19-9-3-5-4h8l4-5 4-8 3-4h2l2-5 1-5h2l-1-7-1-4-3 1-3-2z" fill="#FC7E64"/>
<path transform="translate(964,1665)" d="m0 0 3 3 1 7-17 10-4 3h-3v2l-24 15-15 10-17 11h-3l-1 3-7 4-36 24h-3l-1 3-5 2-4-4v-2l5 2 20-13 11-7 12-8 16-11 5-3h2v-2l14-8 13-9 15-9 10-7 8-5 5-3z" fill="#AA584E"/>
<path transform="translate(427,459)" d="m0 0 7 1 20 14v2l5 2 3 4h-15l-6 2-6-4-1-2h-10l-3-5 2-2v-4h13l-2-3-1-2h-5z" fill="#AC5243"/>
<path transform="translate(1749,759)" d="m0 0h9l14 5 8 2 1 3h-8l-6 5-4 4h-6l-7-3-6-2-1-5 4-8z" fill="#9B8099"/>
<path transform="translate(1593,779)" d="m0 0h2l6 8v2h2l5 6 12 6 5 4 8 4v2l9 2 4 1-1 4-13-1-12-3-8-5-9-10-4-7-6-10z" fill="#6777B9"/>
<path transform="translate(571,480)" d="m0 0h8v1l-15 2-10 2h-5v7l-6 5-5 1-5-3v-3l2-2h-28l-30-1v-1l37-3 22-1 9-2h9z" fill="#AD5243"/>
<path transform="translate(727,636)" d="m0 0 8 1v1h-6l-1 16-1 13-4 24-2 29-2 19v8l-4 1 1-23 3-34 3-29 2-9 2-16z" fill="#7570AE"/>
<path transform="translate(484,548)" d="m0 0 7 2 2 2 17 5h13l5 1h6l3 4-10 4h-12l-2 1-13-4-3-2-11-6-4-4v-2z" fill="#AD5243"/>
<path transform="translate(1223,337)" d="m0 0 4 1 6 16v8l-4 6-5 1-5-4-2-4v-11l5-12z" fill="#FDA843"/>
<path transform="translate(822,890)" d="m0 0 4 1 2 6-1 2-5 2-3 6-6 5-4 4-2-2v-5l-6 1-3 2h-4l1-5h2l1-3 6-3 5-5 7-2 3-3z" fill="#FD8A5F"/>
<path transform="translate(1503,1781)" d="m0 0 2 1-5 4-5 3-8 3-9 3-11 2-4 1-16 1h-37l-21-3-26-8-2-1v-2h6l15 6 11 3 22 2h23l19-1 23-4 12-5 10-4z" fill="#BD6962"/>
<path transform="translate(1e3 1456)" d="m0 0h3l2 7 1 7 15 2 2 1-1 3-15 2-2 15-3 1-3-15-12-1-3-1v-3l9-2h6z" fill="#FDA843"/>
<path transform="translate(337,155)" d="m0 0 5 2 10 7-7 7-2 5-8 11-4 6-8-4-7-4 4-2 8-2 8-9 3-6v-7h-2l-1-3z" fill="#FD8163"/>
<path transform="translate(150,1513)" d="m0 0 1 2-2 14-11 8-13 6-17 5-12 5-7 4-10 2-6 1 3-2 17-6 12-6 10-4 8-4 5-1v-2l6-3 4-5 3-3 4-6z" fill="#AD5243"/>
<path transform="translate(716,1401)" d="m0 0 3 1-8 5-5 1v3l-29 12-19 8-10 1 1-3 11-5 18-8 16-7 15-5z" fill="#757CBC"/>
<path transform="translate(893,1027)" d="m0 0 4 1 8 7 10 9 16 16 8 7 6 5v2l4 2 7 7 8 7 7 6 1 5-5-2-8-9-11-9-14-14-8-7-9-8-5-5-6-7-8-7-5-5z" fill="#2C2A5A"/>
<path transform="translate(188,1642)" d="m0 0 7 1-1 3-16 8-15 5h-27l-1-2 9-5h24l9-3 6-5z" fill="#AF594C"/>
<path transform="translate(533,856)" d="m0 0 1 2-7 10-5 8-4 3-5 1h-14l-22-2-41-7-12-3-29-5-20-4v-2h7l24 5 36 7 16 3 24 4 16 1h17l5-3 7-11z" fill="#AD5243"/>
<path transform="translate(1164,312)" d="m0 0h12l8 3-4 1-1 1-3 1h-13l-7 7-3 6v23l3 17v6h-1l-4-21-1-15v19l2 16v8h-1l-3-20v-34l3-9 7-7z" fill="#B25747"/>
<path transform="translate(542,1210)" d="m0 0 1 2-6 7-11 9-7 7-8 7-13 11-15 13-12 11-11 9-12 11-6 4-2-1 12-11 10-9 8-7 10-9 11-9 14-13 11-9 13-12 8-7z" fill="#362F58"/>
<path transform="translate(891,978)" d="m0 0h9l8 1h4l-1 11-3 10-3 8-3 7-2 4-3-1 1-2h-2l-1-7 1-4 4-1 1-7 5-3 1-6 1-5-6 2-4 3h-5l-3-3z" fill="#FD8A5F"/>
<path transform="translate(376,859)" d="m0 0 9 1 39 7 18 4 29 5 5 2 27 3h10l7-1v2l-4 1h-18l-46-6-27-6-38-7-11-3z" fill="#6266B7"/>
<path transform="translate(1503,1028)" d="m0 0v3l-13 18-11 13-7 10-2 3h-2l-2 5-13 16-10 13-5 7h-3l1-4 11-14 8-11 8-9 10-14 9-11 10-13z" fill="#313063"/>
<path transform="translate(1756,808)" d="m0 0h10l11 4 9 3 12 3 3 2-1 4-2 1h-9l-6-3-11-3-9-3-7-4z" fill="#D27468"/>
<path transform="translate(564,710)" d="m0 0h2l-1 7-3 7h-2v17l2 9 4 10 9 11 3 3v3l-6-2-7-7-9-17-1-4v-23l6-12z" fill="#4F5DC1"/>
<path transform="translate(484,768)" d="m0 0h13l9 1 18 7 8 6 6 2 8-5 1-6-1-4 3 3 1 5-8 8-5 3h-3l-13-9-13-5-17-3-12 2-15 5-19 9h-5l-2-3h7l16-8 14-6z" fill="#6468B6"/>
<path transform="translate(465,149)" d="m0 0 5 1 1 6-4 3-9 2-13 8-26 15-15 9-18 10h-2v-3l20-11 44-26 14-9z" fill="#342E56"/>
<path transform="translate(1637,852)" d="m0 0h3l-1 4-7 9-4 5-12 16-14 18-11 14-10 13-2-4 8-10 7-9 10-13 12-16 7-8 6-9z" fill="#746EAB"/>
<path transform="translate(1837,670)" d="m0 0h3l6 19 2 9v8l-1-4-9-1-7-7v-6l3-5v-5l2-1 2 1z" fill="#FDA843"/>
<path transform="translate(819,1336)" d="m0 0 2 2v4l-19 19-10 8-14 9-10 4-4 1v-2l8-4 5-3 4-5 6-4 14-11z" fill="#8478A9"/>
<path transform="translate(560,810)" d="m0 0 4 1 5 5v9l-5 6-12 6h-4v2l-5 3-6 9-2 5h-1v-5l7-11h-12l-4-4 2-5 1-1h11l4 3 6 2 14-7 3-8-1-6-4-2z" fill="#AC5243"/>
<path transform="translate(192,688)" d="m0 0 10 3 30 11 21 7 30 12 28 11 10 4 4 2-2 1-17-6-14-6-24-9-30-11-39-13-8-2h-3zm-6 5 2 1z" fill="#4F5DC1"/>
<path transform="translate(1654,1504)" d="m0 0 5 3 6 12 2 2 4 11 4 10 1 5 4 7 3 5v10l4 2v6l-3-3-8-16-12-29-9-21z" fill="#FD7F63"/>
<path transform="translate(528,581)" d="m0 0h1l1 9-5 9-7 3-5 1h-20l-19-3-23-8-14-7v-3l6 2 12 6 21 7 13 2h24l8-3 4-5 2-4z" fill="#7E75AA"/>
<path transform="translate(129,1552)" d="m0 0h10l-4 2-16 3-2 5-2 4 2 3-1 4-5 2-4-1-2-3-7-3-1-5 15-7z" fill="#AD5243"/>
<path transform="translate(506,413)" d="m0 0h26v1l-46 3-9 1-4 3v46l2 8 7 3 6 1v1h-11l-5-3-2-4-1-9-1-41 3-6 1-1z" fill="#6D71B3"/>
<path transform="translate(812,1734)" d="m0 0 5 4v2h2l6 13h-25l-4-3 1-2 3 1 9-11z" fill="#4D63C1"/>
<path transform="translate(1733,822)" d="m0 0h8l11 3 8 1 7-1 17 2 2 2-23-1-2 1h-13l-2 1 1 4 4 4-6-2-4-4v-2l-5 2h-8l-5-5 3-3z" fill="#D27367"/>
<path transform="translate(154,1487)" d="m0 0 5 1-5 4-5 5-16 7-14 4-17 8-8 1-10-6 5-5 4-3-2 8h8l13-5 6-3 22-5 10-5 3-3z" fill="#9B8099"/>
<path transform="translate(1703,809)" d="m0 0h9l7 4 1 10-2 2h-15l-4-5 1-5z" fill="#D37467"/>
<path transform="translate(805,1011)" d="m0 0 1 2-7 9-2 3h-2l-2 4-11 8-4 2-1-3h-9l3-2 11-8 5-3 5-5 7-6z" fill="#FB9F4C"/>
<path transform="translate(863 1e3)" d="m0 0h7l4 2-2 4-2 5-4 3-2 8h-3v-2h-2l2-8h-9l-3-3 2-5h3v-2z" fill="#FC8B5D"/>
<path transform="translate(1726,810)" d="m0 0h11v2l15 2 18 6v2l3 1-7 1-10-2-5-2-11-2h-6l-3 2h-5l-1-1v-8z" fill="#7274B4"/>
<path transform="translate(268,387)" d="m0 0 3 1 1 60 1 2v7l-2 2-6-1-2-3 1-4 3-3z" fill="#3B3A70"/>
<path transform="translate(596,681)" d="m0 0h15l3 2v2l7-1-3 3v10l2 13 3 11 3 14v5h2l2 11-1 2h-3l-2-10-2-7-5-19-3-25-2-9h-15l-12 2 2-2z" fill="#4F5DC1"/>
<path transform="translate(782,920)" d="m0 0 13 1 2 1v2l8 1 5-2-2 4h-3l3 3-1 2h-5l-3-5h-5v-2l-8-4v2l-9 3-4 5 1 4-6 3h-3l-1 5-4 2-1-5h-6l-1 3-3 1 2-4 4-4 9-4 5-3z" fill="#FD895F"/>
<path transform="translate(953,1607)" d="m0 0 3 3 6 11 8 17 1 1v9l-3 9-2 3 1 5 5 9h-4l-3-8-4-7-4-13v-2l11-2-1-6-10-19-4-8z" fill="#6570B7"/>
<path transform="translate(852,924)" d="m0 0 2 1v4l2 1 2-1h6l-1 7-5 4-1-2 3-2-1-3-5 1-11 5-12 6-4-1 2-5 4-3h2l2-5 10-1 1-3z" fill="#FB9F4D"/>
<path transform="translate(146,1585)" d="m0 0h9l3 4 1 8-2 3-11 3-3-1-2-3v-7l3-5z" fill="#AF5445"/>
<path transform="translate(564,1219)" d="m0 0 5 1v2l5 1 17 8 10 6 3 5-3 2h-5v2l-2 1h-7v2l-5 2-1-3-2-1 14-5h2v-3l-6-2-13-8-2-1v-2l-6-1z" fill="#C1C1DC"/>
<path transform="translate(1701,583)" d="m0 0h24l8 1v1l-9 2-9-2-4 1-7 1-2-1-1 2-15 3-9 4h-8v-2l-8 1 4-3 22-6z" fill="#FC8D5D"/>
<path transform="translate(729,638)" d="m0 0 2 2-1 25-2 10-2 15-2 13-2 24-2 20-2-1 1-20 1-6 2-29 4-24z" fill="#AD5243"/>
<path transform="translate(1609,775)" d="m0 0h9l4 2v2l11 2 3 2-2 5-3 1-5-2-19-2-1-4z" fill="#7375B4"/>
<path transform="translate(510,497)" d="m0 0 5 1 7 6 7 3 6 1 2 2v3l-4 2h-11v-2l-5-1v-2l-4-2v-2h-2l-1-5h-2v-3z" fill="#AD5243"/>
<path transform="translate(1468,674)" d="m0 0 2 1 2 10 10 3v3l-10 2-1 7-3 1-3-9-10-1v-3l10-3 2-10z" fill="#DBE0F3"/>
<path transform="translate(121,1591)" d="m0 0h9l3 1v2h2v6l-7 10-4 7-15 15-4 6h-2l-1 4-4 2 2-7 10-9 5-5 6-8 6-12v-7l-3-2-9-1v-1z" fill="#AD5243"/>
<path transform="translate(226,1576)" d="m0 0h5v12l-2-1-5 3-8 1-7-1-1-4 4-4 6-2 1-2z" fill="#D17367"/>
<path transform="translate(430,457)" d="m0 0 5 1 14 9 11 8 3 2v2l4 2 11 4h13l25-1-2 2-23 2h-12l-11-3-11-7-3-2v-2l-5-2-10-8-10-5z" fill="#9B8099"/>
<path transform="translate(1372,428)" d="m0 0 2 1 1 12 10 1v3l-10 1v12l-3 1-3-9v-3l-6-2v-4l6-2 2-10z" fill="#DBE0F3"/>
<path transform="translate(267,1451)" d="m0 0 3 1-13 13-11 9-9 9-11 9-12 11-6 5h-3l1-4 13-10 14-13 11-9 13-12 8-7z" fill="#38335E"/>
<path transform="translate(527,581)" d="m0 0h1v6l-6 9-5 3-4 1h-24l-16-3-23-8-9-5 3-1 7 4 15 4 10 4 14 3h17l8-3 5-4 6-7z" fill="#AD5243"/>
<path transform="translate(1232,485)" d="m0 0h26v2l-2 1-12 1-49 1h-11v-2l10-1z" fill="#9B8099"/>
<path transform="translate(1172,100)" d="m0 0 3 1 5 38 5 28-4-1-3-15-4-29-2-16z" fill="#574B71"/>
<path transform="translate(843,1011)" d="m0 0 7 1-1 8h6l3 3v2h6l-2 2-9 4-3-2v-3h-6l-2 1-2-3 1-10z" fill="#FD895F"/>
<path transform="translate(544,840)" d="m0 0v3l-2 5-7 13-11 18-4 2-7 1h-10l-27-3-4-2 27 2h14l7-2 4-5 6-10 5-8 5-10z" fill="#696AB4"/>
<path transform="translate(1686,779)" d="m0 0 7 1h8l12 4v2l4 1 3 4-12 2-6-3-3-3-12-3-3-3h2z" fill="#4F5DC1"/>
<path transform="translate(1175,332)" d="m0 0 1 4 1 23 1 3 2 1 9-1 2-3 1-10v-10l2 3v15l-3 6-2 2-11 1 3 1h9l-1 2h-10l-6-5-1-3v-20z" fill="#B25544"/>
<path transform="translate(1107,803)" d="m0 0h2l1 4-1 93h-1l-1-37h-1v-49z" fill="#0893E5"/>
<path transform="translate(1595,715)" d="m0 0h2l2 8 30 5 11 4 14 5 11 4 19 5 10 2 4 2-3 1-5-2-15-2-17-5-17-7-15-5-25-4-4-2z" fill="#D37467"/>
<path transform="translate(1578,928)" d="m0 0 3 1-3 7-9 10-14 19-6 8h-3l-2 1 2-4 4-6 2-1 1-3 2-1 4-7 9-11 5-6h2l1-4z" fill="#4B477C"/>
<path transform="translate(1203,510)" d="m0 0h20l1 2-24 2-14 1h-26l-1-3 15-1z" fill="#9B8099"/>
<path transform="translate(429,902)" d="m0 0h7l-1 4-11 3-6 1-32 2-2-2 9-2 15-2 17-3z" fill="#4F5DC1"/>
<path transform="translate(855,932)" d="m0 0 5 1v4l-3 1v2l-16 8-2 2h-5l-1-4 9-6 1-2 11-5z" fill="#FD7E60"/>
<path transform="translate(807,897)" d="m0 0 4 1 1 7 1 5-2 5h-3l-1-1v-5l-6 1-3 2h-4l1-5h2l1-3 6-3z" fill="#FD895F"/>
<path transform="translate(70,1603)" d="m0 0 4 1h-2l-1 6-1 2 2 3 5 2 3 10 7 4 2 5 4 4h-4l-9-8-10-14-5-9 1-4z" fill="#FD8261"/>
<path transform="translate(1195,624)" d="m0 0h1l1 7v52h-3v-56z" fill="#4A56B3"/>
<path transform="translate(890,975)" d="m0 0h9l4 2 1-2v2h2l1 3-16-2h-7l-6 3-3 1-5-2h-3v2l-9-1-21 7h-5l4-3 25-7 19-1z" fill="#FB9F4D"/>
<path transform="translate(554,710)" d="m0 0 1 3-3 10-1 4v17l2 9 7 14 7 8 13 9 8 3-4 1-10-5-6-4v-2l-4-2-6-7-8-15-2-6v-19l3-12z" fill="#4F5DC1"/>
<path transform="translate(1503,1028)" d="m0 0v3l-13 18-11 13-7 10-5 2 2-5 13-16 10-13z" fill="#2F2E60"/>
<path transform="translate(1181,777)" d="m0 0h32l5 1v1l-43 1-20 2-17 5h-5l4-3 19-5z" fill="#23204A"/>
<path transform="translate(1622,795)" d="m0 0h8l10 5 2 3-1 4-4 1-10-4-6-8z" fill="#D37468"/>
<path transform="translate(499,769)" d="m0 0h7l18 7 8 6 6 2 8-5 1-6-1-4 3 3 1 5-8 8-5 3h-3l-13-9-13-5-9-3z" fill="#5C64BA"/>
<path transform="translate(376,859)" d="m0 0 9 1 39 7 7 2v2l7 1v1l-10-1-25-5-16-3-11-3z" fill="#6568B6"/>
<path transform="translate(404,1457)" d="m0 0 5 5 3 10 2 6h2l3 7 2 6v2h2l3 7-6 1-4-10-7-18-2-5v-5h-2z" fill="#BD5E49"/>
<path transform="translate(494,1252)" d="m0 0m-1 1m-1 1m-1 1m-1 1m-1 1m-2 1 2 1-7 8-10 9-14 12-10 9-6 4-2-1 12-11 10-9 8-7 10-9z" fill="#332E59"/>
<path transform="translate(1630,746)" d="m0 0 11 2 6 2 3 4-1 3-6 1-10-4-5-5v-2z" fill="#D37468"/>
<path transform="translate(1154,325)" d="m0 0 1 2-2 4v23l3 17v6h-1l-4-21-1-15v19l2 16v8h-1l-3-20v-34l2-4 1 4z" fill="#BD5D48"/>
<path transform="translate(1258,130)" d="m0 0h2l-1 5-10 21-10 19h-3l15-33 6-11z" fill="#423C63"/>
<path transform="translate(784,1034)" d="m0 0 2 1-2 4h2l1 3h-2l-1 4h5v-2h5l1 5 3-2 3 1-5 4h-6l-10-5-5-7 8-5z" fill="#FC8562"/>
<path transform="translate(760,948)" d="m0 0 1 2h7v-2h4v6l-3 3-8 2-6 1-2-3 3-6z" fill="#FB9F4D"/>
<path transform="translate(720,691)" d="m0 0h1l-1 35-1 21-4 1 1-23 2-26 1-7z" fill="#505DC0"/>
<path transform="translate(870,897)" d="m0 0h6l8 6-4 5-5 2v-2h2l-2-6 1-2-5 2h-3l-8 1-5 4-9 4h-6l16-8 4-3z" fill="#FD8661"/>
<path transform="translate(888,1015)" d="m0 0 10 1 1 4-1 2h-2v-4l-6 1-7 5-12 4-6-1-3-1 9-4z" fill="#FB9F4C"/>
<path transform="translate(970,484)" d="m0 0 12 3 6 1 1-4v8l-1 6-3-4v-2l-6 1-4 4-3-1 1-4-3-1-1-6z" fill="#BE604C"/>
<path transform="translate(139,1497)" d="m0 0 3 1-10 3-16 4-10 4-7 3h-8l-1-4 4-3v2l10-1 18-6z" fill="#AD5243"/>
<path transform="translate(580,406)" d="m0 0h15v2l-15 2-22 1h-14l-6-1v-1z" fill="#DBE0F3"/>
<path transform="translate(1097,137)" d="m0 0 5 4 7 11 8 12 9 14 2 6h-2l-6-10-12-17-11-18z" fill="#463E64"/>
<path transform="translate(755,939)" d="m0 0 5 1v5l-5 3-2 5h-2l-2 4h-2l-2-9 5-5z" fill="#FD6C5A"/>
<path transform="translate(546,399)" d="m0 0h10l5 2-3 2-15 2h-7l-6 1-5-1 2-3 7-1 9-1z" fill="#BD5D48"/>
<path transform="translate(621,717)" d="m0 0 2 4 3 14v5h2l2 11-1 2h-3l-2-10-2-7-4-15 1-3 1 1z" fill="#5C66BC"/>
<path transform="translate(968,1642)" d="m0 0h1l-2 14-4 2-3-3-3-11z" fill="#4F5DC1"/>
<path transform="translate(182,1494)" d="m0 0 12 6 8 6h3v2l2 1-2 2v-2l-4 1-6-2-11-8-5-2 1-2h2z" fill="#F87F66"/>
<path transform="translate(192,688)" d="m0 0 10 3 30 11 4 2v2l-10-3-33-11-5 1zm-6 5 2 1z" fill="#6568B6"/>
<path transform="translate(367,755)" d="m0 0 16 6 21 9 20 8-3 1-9-3-13-5-24-10-8-4z" fill="#4F5DC1"/>
<path transform="translate(1620,806)" d="m0 0 26 8-1 4-10-1-4-2v-2l-3 1-6-2v-2h-4z" fill="#4F5DC1"/>
<path transform="translate(1303,361)" d="m0 0 3 1 1 5-2 2-1 12-4-1-5-2 2-6 5-10z" fill="#FBA04B"/>
<path transform="translate(794,1012)" d="m0 0h2l-1 4-3 3h-2l-2 4-3 3-6 3-8 6-3-1 7-7 9-7 5-3z" fill="#FD6D5A"/>
<path transform="translate(528,581)" d="m0 0h1l1 9-5 9-7 3-5 1h-20l-14-2v-1l15 1h23v-3l6-4 4-7z" fill="#6669B7"/>
<path transform="translate(1699,299)" d="m0 0v3l-3 9v16l2 10 1 2-4-1-3-11v-14l3-11 1-2z" fill="#FDA743"/>
<path transform="translate(716,1401)" d="m0 0 3 1-8 5-5 1v3l-12 5-7-1 2-2 6-1 2-4 12-4z" fill="#7070B2"/>
<path transform="translate(776,1373)" d="m0 0 2 1-3 3-9 4h-2v2l10-5 2 1-10 6-12 5-5 2 5-5h2v-2l-7 3-3-1 14-6z" fill="#5F68BA"/>
<path transform="translate(797,1008)" d="m0 0 2 2 6-1 4-1 4 3-7 6-5 5-4 3 2-4 6-8v-1l-9 2v-2l-5 3-5 5-3 1 2-4 9-7z" fill="#FD895F"/>
<path transform="translate(399,770)" d="m0 0 16 6 9 3 14 5 2 4-9-2-20-8-12-5z" fill="#703C46"/>
<path transform="translate(75,1521)" d="m0 0h2l-1 4-3 9h-2l-1 5-1 3h-2v2l-5 2 4-12z" fill="#9F879F"/>
<path transform="translate(754,1385)" d="m0 0h2v2l-6 4-5 3-5 2-12 2v-2l11-6z" fill="#7C74AA"/>
<path transform="translate(782,920)" d="m0 0 13 1 2 1v2l8 1 5-2-2 4h-3l3 3-1 2h-5l-3-5h-5v-2l-8-4v2l-2 1h-6z" fill="#FD8760"/>
<path transform="translate(1597,904)" d="m0 0 3 1-4 7-8 10-7 9-2-4 8-10 7-9z" fill="#6664A5"/>
<path transform="translate(350,607)" d="m0 0 6 2 10 12 8 12v4h-2l-7-11-8-10-5-5z" fill="#4F5DC1"/>
<path transform="translate(238,1477)" d="m0 0m-1 1m-1 1m-1 1m-2 1 2 1-3 4-5 5-13 12-6 5h-3l1-4 13-10z" fill="#393561"/>
<path transform="translate(1479,1546)" d="m0 0 3 1 3 8-1 6-3 3-4-5-5-2v-2l5-1z" fill="#FDA946"/>
<path transform="translate(687,124)" d="m0 0h48l8 1 1 1v10l-4 1 1-7-9-4-45-1z" fill="#FDFDFD"/>
<path transform="translate(953,1644)" d="m0 0 5 2 4 13 2 6-4-4-3-5-2-8h-11l-8 2h-8v-1z" fill="#AD5243"/>
<path transform="translate(964,1665)" d="m0 0 3 3 1 7-17 10-4 3h-3v2l-4 2 2-4 7-6 15-9z" fill="#AA574D"/>
<path transform="translate(564,1219)" d="m0 0 5 1v2l5 1 9 4v3l9 6 5 3v3l-4 1 2-1v-3l-6-2-13-8-2-1v-2l-6-1z" fill="#8276A8"/>
<path transform="translate(1144,488)" d="m0 0h38l-2 2-13 1h-23z" fill="#9B8099"/>
<path transform="translate(564 1e3)" d="m0 0h6l11 7 5 5-6-2 1 3-5-2-5-3-4-4-4-2z" fill="#576FBE"/>
<path transform="translate(821,888)" d="m0 0h6l-1 3-9 1-1 3-9 3-5 5-4 1 4-5h2v-6l4-1 10-2z" fill="#FB9F4D"/>
<path transform="translate(634,691)" d="m0 0 5 2 9 9 8 15 4 12-1 15h-1v-13l-3-10-10-18-7-8z" fill="#4F5DC1"/>
<path transform="translate(1192,339)" d="m0 0 2 3v15l-3 6-2 2-11 1 3 1h9l-1 2h-10l-6-5 1-3 1 2 2-4 1 3 2 1 9-1 2-3 1-10z" fill="#BD5D49"/>
<path transform="translate(1793,729)" d="m0 0 5 3 1 4 5 1v3l-4 1-3-1-2-2-5-2-2-1 1-4z" fill="#FDA843"/>
<path transform="translate(605,174)" d="m0 0 5 5 4 3 4 2 16 1v1h-26l-4-4v-6z" fill="#FEFEFE"/>
<path transform="translate(1236,326)" d="m0 0h8l6 3-2 1-3-1h-9l-5 3 2 6 5 10 1 3v14h-1l-2-16-5-10-3-5v-5z" fill="#BD5D49"/>
<path transform="translate(1578,928)" d="m0 0 3 1-3 7-9 10-4 4h-3l2-4 9-11h2l1-4z" fill="#4C497C"/>
<path transform="translate(1582,1390)" d="m0 0 2 1v2h-2l-1 4h-2l1 6 13 10 6 4-1 2-17-12-8-4 2-4z" fill="#FD885F"/>
<path transform="translate(778,932)" d="m0 0 7 2v7l-5 3-4 1-1-1v-6l2-4z" fill="#FD8860"/>
<path transform="translate(523,874)" d="m0 0 1 3-2 4-9 1h-10l-27-3-4-2 27 2h14l7-2z" fill="#8278A8"/>
<path transform="translate(1794,1364)" d="m0 0 1 4-9 16-13 19h-2l2-5 7-11 4-5 5-9z" fill="#FDA843"/>
<path transform="translate(430,457)" d="m0 0 5 1 14 9 10 7-2 4-3-2v-2l-5-2-10-8-10-5z" fill="#5C75BB"/>
<path transform="translate(460,416)" d="m0 0v3l-5 5-11 8-9 6h-2l1-3 17-13z" fill="#7270B0"/>
<path transform="translate(471,421)" d="m0 0h1l1 46 2 8 7 3 6 1v1h-11l-5-3-1-6z" fill="#5F66B9"/>
<path transform="translate(556,798)" d="m0 0v3 3l10 5 5 7v9h-2l-1-9-5-5-9-4-3-4z" fill="#7B74AC"/>
<path transform="translate(823,1028)" d="m0 0 7 2 1 3 3 1v3h9l-2 2h-8l-2-4h-6l-4 1-1-4z" fill="#FD8A5F"/>
<path transform="translate(1882,1062)" d="m0 0 12 3 13 7-1 2h-5l-14-7v-2l-6-1z" fill="#FEFEFE"/>
<path transform="translate(1637,852)" d="m0 0h3l-1 4-7 9-4 5-4 6-1-4 3-6z" fill="#7E77AC"/>
<path transform="translate(1118,790)" d="m0 0h3v2h-2v2l-16 8-10 6v-3l9-7 7-3z" fill="#353365"/>
<path transform="translate(1774,744)" d="m0 0h6l12 4 1 5h-7l-11-6z" fill="#FD7E65"/>
<path transform="translate(100,1593)" d="m0 0m-7 1h7v2l-25 5-11 1-1 2-1-4 25-4z" fill="#9B8099"/>
<path transform="translate(885,998)" d="m0 0h5l2 2-1 5-3 2h-7l-1-5z" fill="#FD8561"/>
<path transform="translate(465,149)" d="m0 0 5 1 1 6-4 3-10 2 2-5 4-4z" fill="#3D3A64"/>
<path transform="translate(720,742)" d="m0 0 3 3 17 4 6 1 16 1v2l-20-1-20-3-3-2z" fill="#C77672"/>
<path transform="translate(375,639)" d="m0 0 4 5 4 11v9l-3-1-5-16z" fill="#4F5DC1"/>
<path transform="translate(58,1573)" d="m0 0 4 1v2h2l2 5-2 4v2l-5 2-2-11z" fill="#FD7B62"/>
<path transform="translate(1e3 1701)" d="m0 0h1l-1 7-4 6-3 8-3 4-3-1 6-10 1-8 4-5z" fill="#23204A"/>
<path transform="translate(694,1409)" d="m0 0 2 1-1 2-6 2 3 3-11 4h-5l2-5z" fill="#656BB8"/>
<path transform="translate(1312,328)" d="m0 0 3 1v7l-2 3 2 1 1 4-5-1-3-2v-8l1-4z" fill="#FB9F4D"/>
<path transform="translate(591,408)" d="m0 0 8 1-2 2-23 1h-16l1-2z" fill="#9B8099"/>
<path transform="translate(201,1562)" d="m0 0 5 1 2 2-1 4-5 2-4-1-2-2 1-4z" fill="#AD5243"/>
<path transform="translate(822,956)" d="m0 0 3 1-8 4-6 2-16 9-7 1 5-4 7-4 7-3 6-3z" fill="#FB9F4D"/>
<path transform="translate(742,148)" d="m0 0 2 1v9l-3 3h-12v-2l12-6z" fill="#FEFEFE"/>
<path transform="translate(842,940)" d="m0 0h5v3l-8 7h-5l-1-4z" fill="#FD6E5A"/>
<path transform="translate(561,719)" d="m0 0 1 3-3 9v11l2 13-3-3-2-6v-14l2-9z" fill="#23204A"/>
<path transform="translate(1546,1498)" d="m0 0 13 3v1l11 1v1l-14 1h-11z" fill="#F49851"/>
<path transform="translate(376,859)" d="m0 0 9 1 22 4-4 2-10-1-17-4z" fill="#6B6BB3"/>
<path transform="translate(719,722)" d="m0 0 1 4-1 21-4 1 1-22z" fill="#716EB0"/>
<path transform="translate(853,1020)" d="m0 0 4 2 1 3h6l-2 2-9 4-2-3-1-6z" fill="#FD8A5F"/>
<path transform="translate(1547,971)" d="m0 0 1 3-8 10-1 2h-2l-1 3-5 2 2-4 10-13z" fill="#343468"/>
<path transform="translate(1735,230)" d="m0 0 2 2 1 4v7l-4 10-3 2 1-6 2-5v-13z" fill="#FEFEFE"/>
<path transform="translate(1172,100)" d="m0 0 3 1 2 14v8l-1 7h-1l-3-24z" fill="#DBE0F3"/>
<path transform="translate(1361,1785)" d="m0 0h6l15 6 4 2-4 1-19-6-2-1z" fill="#C07471"/>
<path transform="translate(816,1728)" d="m0 0 1 2 1 5 4 6 4 10 2 2-1 3-6-9-2-4v-3h-2l-4-5 1-5z" fill="#AA5951"/>
<path transform="translate(970,1644)" d="m0 0 1 4-3 9-2 3 1 5 5 9h-4l-3-8-4-7v-2l5-1 2-9z" fill="#577DBF"/>
<path transform="translate(898,1007)" d="m0 0 6 2-1 4-3 6-3-1 1-2h-2l-1-6z" fill="#FD905A"/>
<path transform="translate(613,634)" d="m0 0 2 4v19h-1l-1 10h-1v-31z" fill="#4F5DC1"/>
<path transform="translate(1229,343)" d="m0 0 3 4 3 9-1 9-6 5-7-1-4-5 1-3 4 6 5 1 4-4 1-2v-8l-3-8z" fill="#BD5D48"/>
<path transform="translate(1215,321)" d="m0 0 6 2 7 1 6-1h14l2 2-20 1-3 2-5-1-7-4z" fill="#BD5D48"/>
<path transform="translate(879,979)" d="m0 0h2l-3 9-7 1v-9l6 1z" fill="#FD8860"/>
<path transform="translate(829,988)" d="m0 0 3 1-6 5-7 1-5 4-10 5-3-1 15-9 10-4z" fill="#FB9F4D"/>
<path transform="translate(1611,888)" d="m0 0 1 3-12 16-2-4 9-12z" fill="#6766AA"/>
<path transform="translate(1227,441)" d="m0 0h1l1 8 2-4-1 12-1 3h-5z" fill="#C46554"/>
<path transform="translate(1234,422)" d="m0 0 1 4-3 10v9h-2l-1 7h-1v-13l3-7z" fill="#7B4045"/>
<path transform="translate(783,1368)" d="m0 0 2 1-3 4 3 1-7 4-10 4-4 1v-2l8-4 5-3 4-5z" fill="#7973AD"/>
<path transform="translate(789,1044)" d="m0 0h5l1 5 3-2 3 1-5 4h-6l-5-4v-2h4z" fill="#FD8461"/>
<path transform="translate(890,1011)" d="m0 0 4 1v4l-9 1-14 6-2-1 5-3 7-3 4-3h5z" fill="#FD895E"/>
<path transform="translate(1056,617)" d="m0 0 5 2 17 13 1 2-5-1v-2h-2v-2l-5-2-6-3-5-6z" fill="#FEFEFE"/>
<path transform="translate(1255,353)" d="m0 0h1l-1 8-5 12-3 7-3 9-2 2 2-9 5-12 3-9z" fill="#BE5E49"/>
<path transform="translate(1588,217)" d="m0 0h5l6 3 1 5-5 2-4-6-3-3z" fill="#FCFCFD"/>
<path transform="translate(265,138)" d="m0 0h18l10 1-2 3-17-1-1-1-8-1z" fill="#FD8B59"/>
<path transform="translate(219,192)" d="m0 0 2 1-11 11-6-1-3-4h9z" fill="#FD8560"/>
<path transform="translate(257,714)" d="m0 0 5 1 12 4 10 4 4 3-7-1-18-7-6-3z" fill="#A85043"/>
<path transform="translate(557,473)" d="m0 0 4 2 35 1v1h-44l3-3z" fill="#5D66BB"/>
<path transform="translate(1160,435)" d="m0 0 3 1 3 11v5l-2-1-1-3-3-3-1-9z" fill="#FB9F4C"/>
<path transform="translate(795,933)" d="m0 0 2 2-4 4 1 4 2 1-2 3h-4l-1-7 1-4 5-1z" fill="#FD7E65"/>
<path transform="translate(1785,830)" d="m0 0h3l-1 3-17 9-2-1 5-5z" fill="#FDA843"/>
<path transform="translate(484,768)" d="m0 0h13l2 1v2l8 1-4 1-12-2-11 1z" fill="#6F6CB0"/>
<path transform="translate(116,533)" d="m0 0 5 5 3 5v2l2 1-8-1-2-3z" fill="#FEFEFE"/>
<path transform="translate(356,169)" d="m0 0 4 2 10 12 2 5-8-6-6-8z" fill="#FEFEFE"/>
<path transform="translate(222,702)" d="m0 0 6 1 21 7 8 3-4 1-18-6-13-5z" fill="#AD5243"/>
<path transform="translate(439,464)" d="m0 0 5 3 10 7v2l3 1-4 1-6-4-8-8z" fill="#23204A"/>
<path transform="translate(1594,429)" d="m0 0 5 3 2 3-3 1h-10v-2h2l2-4z" fill="#FCFCFD"/>
<path transform="translate(1649,599)" d="m0 0 2 1-3 4h-3l-1 4-7 2-2 1-1-3z" fill="#FC8F5E"/>
<path transform="translate(1761,1346)" d="m0 0 9 3 7 3-1 3h-5l-5-4h-3z" fill="#FD8061"/>
<path transform="translate(313,735)" d="m0 0 12 3 6 4 3 1 1 4-5-2-12-6-5-1z" fill="#A8574D"/>
<path transform="translate(564,710)" d="m0 0h2l-1 7-3 7-1-4-3 1 3-9z" fill="#4E5BBE"/>
<path transform="translate(1711,666)" d="m0 0 6 1 1 1v6l-2 2h-3v-2h-2l1-4z" fill="#FD8B5F"/>
<path transform="translate(854 1e3)" d="m0 0 5 1-1 6-5 1-2-1 1-5z" fill="#FB9F4D"/>
<path transform="translate(343,171)" d="m0 0h2l-2 5-8 11-4 6-3-2 2-1 3-5 8-11z" fill="#F7B162"/>
<path transform="translate(881,906)" d="m0 0h2l-1 5-10 4-6 3-2-1z" fill="#FB9F4D"/>
<path transform="translate(809,897)" d="m0 0 2 1 1 7 1 5-1 3h-4v-9l1-4-2-1z" fill="#FD6C5A"/>
<path transform="translate(457,593)" d="m0 0h8l13 5 1 2-8-1-14-5z" fill="#6669B5"/>
<path transform="translate(1572,1403)" d="m0 0 9 3 3 3h-15l2-5z" fill="#FB9F4C"/>
<path transform="translate(83,1583)" d="m0 0h3v2l-16 5-9 2-1 2 1-4z" fill="#9C829A"/>
<path transform="translate(459,1283)" d="m0 0m-1 1m-1 1m-2 1 2 1-2 4-13 10-2-1 12-11z" fill="#453D64"/>
<path transform="translate(855,932)" d="m0 0 5 1v4h-3l1-2h-4v3l-4 1h-7l3-2 8-4z" fill="#FD8A5F"/>
<path transform="translate(544,840)" d="m0 0v3l-2 5-5 9h-2l-1 3-1-2 7-14z" fill="#7470AE"/>
<path transform="translate(624,740)" d="m0 0h4l2 11-1 2h-3z" fill="#3D4488"/>
<path transform="translate(606,125)" d="m0 0h9l-5 4-4 6-2-4 1-5z" fill="#FEFEFE"/>
<path transform="translate(1804,1369)" d="m0 0 7 6 6 7-6-2-5-4-3-6z" fill="#FEFEFE"/>
<path transform="translate(494,1252)" d="m0 0m-1 1m-1 1m-1 1m-1 1m-1 1m-2 1 2 1-7 8-8 7v-3l6-7z" fill="#2C2854"/>
<path transform="translate(891,981)" d="m0 0 1 4 4-1 2-3h4v4l-4 3h-5l-3-3z" fill="#FD7B63"/>
<path transform="translate(783,973)" d="m0 0 4 1-12 5-3 2-9 2-5 1 4-4 9-1z" fill="#FB9F4D"/>
<path transform="translate(591,1243)" d="m0 0 2 1v1l3 1-2 1h-7v2l-5 2-1-3-2-1z" fill="#9288B3"/>
<path transform="translate(1159,512)" d="m0 0h19v2l-18 1z" fill="#7978B2"/>
<path transform="translate(1020,1689)" d="m0 0h2l-1 5-4 8-5 4 1-6 6-7z" fill="#25234F"/>
<path transform="translate(70,1603)" d="m0 0 4 1h-2l-1 6-4 2-2-3 1-4z" fill="#FC8068"/>
<path transform="translate(1860,1463)" d="m0 0 4 1-1 3-3-1-13 5h-6l3-2 14-5z" fill="#4683C9"/>
<path transform="translate(443,428)" d="m0 0h5l-5 5-8 5h-2l1-3z" fill="#7772AD"/>
<path transform="translate(1589,220)" d="m0 0 3 4 4 12v8h-1l-5-18z" fill="#4480C8"/>
<path transform="translate(1832,1473)" d="m0 0 3 1-7 4-8 3-2 2 1-6z" fill="#4381C9"/>
<path transform="translate(245,1471)" d="m0 0h2l-2 4-8 8-4 3-2-1 12-12z" fill="#2D2955"/>
<path transform="translate(836,992)" d="m0 0h4v5l-2 2h-5v-5z" fill="#FB9F4D"/>
<path transform="translate(745,950)" d="m0 0 2 1v6l2 1-3 3-4-1 2-9z" fill="#FD7E65"/>
<path transform="translate(73,1598)" d="m0 0h7v2l-10 2h-6l-1 2-1-4z" fill="#9E849D"/>
<path transform="translate(741,978)" d="m0 0 4 2h3l-2 6-6-1z" fill="#FD6C5A"/>
<path transform="translate(1637,852)" d="m0 0h3l-1 4-4 6h-3l-4 3 2-4z" fill="#7F75A9"/>
<path transform="translate(1646,841)" d="m0 0h1l-1 7-6 5-2-2z" fill="#907B9E"/>
<path transform="translate(1181,151)" d="m0 0 2 4 2 12-4-1-1-8z" fill="#474065"/>
<path transform="translate(1022,1687)" d="m0 0h1v9h19v1h-23l2-5z" fill="#2780D4"/>
<path transform="translate(1511,1017)" d="m0 0 1 2-7 10-4 1 2-4 4-6z" fill="#2D2D61"/>
<path transform="translate(833,1012)" d="m0 0h4l-1 7-5 1v-6z" fill="#FD8163"/>
<path transform="translate(1731,755)" d="m0 0 9 3v2l-7 1-4-2v-3z" fill="#AD5243"/>
<path transform="translate(585,404)" d="m0 0h12l-1 2-4 1h-19l3-2z" fill="#9C829B"/>
<path transform="translate(716,1401)" d="m0 0 3 1-8 5-5 2-3-1 8-5z" fill="#9B8099"/>
<path transform="translate(222,533)" d="m0 0 4 1 4 5h-7l-4-3v-2z" fill="#FEFEFE"/>
<path transform="translate(1582,1390)" d="m0 0 2 1v2h-2l-1 4h-2l1 6h-4v-6z" fill="#FD8061"/>
<path transform="translate(1753,757)" d="m0 0 7 1 9 3 3 3-5-1-9-3h-8l-1-2z" fill="#D37468"/>
<path transform="translate(617,707)" d="m0 0h2l2 5v7l-2 1-2-3z" fill="#3D4492"/>
<path transform="translate(420,358)" d="m0 0 7 1 8 3 1 2h-6l-10-5z" fill="#524E7E"/>
<path transform="translate(1244,161)" d="m0 0 1 3-6 11h-3l6-12z" fill="#352C52"/>
<path transform="translate(542,1210)" d="m0 0 1 2-6 7-7 5 2-4 7-8z" fill="#50466C"/>
<path transform="translate(192,688)" d="m0 0 6 2 2 1v2l3 1-8-1-4-1h-3zm-6 5 2 1z" fill="#8175AC"/>
<path transform="translate(1578,928)" d="m0 0 3 1-3 7-5 3 2-7z" fill="#404276"/>
<path transform="translate(1772,779)" d="m0 0 3 3-1 4-4-1-3-3v-2z" fill="#FCA347"/>
<path transform="translate(679,172)" d="m0 0 4 2v6l-3 4h-2z" fill="#FEFEFE"/>
<path transform="translate(1384,1793)" d="m0 0 18 2v2h-9l-9-3z" fill="#BC665D"/>
<path transform="translate(1758,841)" d="m0 0h10v2l-7 3h-3l-1-4z" fill="#F4A04D"/>
<path transform="translate(839,1754)" d="m0 0m-1 1m-10 1 5 2 5-2-1 4-5 2-4-4z" fill="#A95B54"/>
<path transform="translate(564,1219)" d="m0 0 5 1v2l5 1v2h2v2l-8-2z" fill="#B9BCDD"/>
<path transform="translate(860,897)" d="m0 0 4 2-4 2-9 6-2-1 4-3h2l2-4z" fill="#FB9F4D"/>
<path transform="translate(720,742)" d="m0 0 3 3 8 3v1h-9l-3-2z" fill="#CC756D"/>
<path transform="translate(290,726)" d="m0 0 9 3 9 4-4 1-14-6z" fill="#944944"/>
<path transform="translate(591,408)" d="m0 0 8 1-2 2h-16v-1z" fill="#907C9F"/>
<path transform="translate(1172,100)" d="m0 0 3 1v16h-1l-2-11z" fill="#565074"/>
<path transform="translate(1475,1792)" d="m0 0m-5 1h5l-1 2-7 2h-9l4-2z" fill="#C06356"/>
<path transform="translate(1e3 1692)" d="m0 0h2l-1 8h-3l-1 2h-2v2l-2-1z" fill="#6071BB"/>
<path transform="translate(802 1e3)" d="m0 0h4l-1 5-6 1-1-3z" fill="#FD6C5A"/>
<path transform="translate(556,798)" d="m0 0v3 3l6 3-3 1-6-2-2-3z" fill="#515EC0"/>
<path transform="translate(399,770)" d="m0 0 16 6-1 2-6-1-9-4z" fill="#934844"/>
<path transform="translate(430,457)" d="m0 0 5 1 9 6-4 1-8-5-3-2z" fill="#98819E"/>
<path transform="translate(154,1487)" d="m0 0 5 1-5 4-5 5-5 1 3-3 6-5z" fill="#A38CA4"/>
<path transform="translate(1539,981)" d="m0 0h2l-2 5h-2l-1 3-5 2 2-4 5-5z" fill="#424073"/>
<path transform="translate(1553,963)" d="m0 0 1 3-5 7h-3l-2 1 2-4 5-5z" fill="#494474"/>
<path transform="translate(785,387)" d="m0 0 6 1 9 5-4 1-10-5z" fill="#FEFEFE"/>
<path transform="translate(1215,321)" d="m0 0 6 2 7 2-1 3-5-1-7-4z" fill="#C1614E"/>
<path transform="translate(1184,316)" d="m0 0 4 2 16-1v1l-13 3-5-1z" fill="#BF5F4C"/>
<path transform="translate(877,1729)" d="m0 0m-1 1m-1 1m-2 1h2l-1 3-11 7 2-4z" fill="#AB5448"/>
<path transform="translate(1831,1399)" d="m0 0 4 2 5 8-4-1-4-5z" fill="#FEFEFE"/>
<path transform="translate(565 1e3)" d="m0 0h6l6 5v2l-6-2-6-4z" fill="#DBE0F3"/>
<path transform="translate(1118,790)" d="m0 0h3v2h-2v2l-9 3 2-4z" fill="#34376A"/>
<path transform="translate(1784,770)" d="m0 0 2 1v6l-2 2h-4l2-5z" fill="#AD5243"/>
<path transform="translate(1180,143)" d="m0 0h1l1 8-1 7h-2l-1-11z" fill="#A798B4"/>
<path transform="translate(621,717)" d="m0 0 2 4v5h-2l-1 2-2-10 2 1z" fill="#5964BD"/>
<path transform="translate(721,680)" d="m0 0h1l1 11-2 2-1-2v-10z" fill="#6468B6"/>
<path transform="translate(1829,649)" d="m0 0 3 4 2 6-4-1-2-3z" fill="#FCA743"/>
<path transform="translate(1505,1786)" d="m0 0 4 2 3 4v13h-1l-1-11-2-4-3-2z" fill="#5B7ABE"/>
<path transform="translate(963,1660)" d="m0 0h2l3 7 4 7h-4l-3-8-2-3z" fill="#987F9A"/>
<path transform="translate(503,1244)" d="m0 0m-1 1m-1 1m-1 1m-1 1m-2 1 2 1-4 6-7 5 2-4z" fill="#36315D"/>
<path transform="translate(815,1036)" d="m0 0 4 1-3 3-7 2 2-5z" fill="#FD8A5F"/>
<path transform="translate(848,1021)" d="m0 0 4 1-1 1 1 6h-2v-3h-6l-2 1 1-3h4z" fill="#FD7E65"/>
<path transform="translate(1622,872)" d="m0 0 2 1-2 5-2 3h-3l1-5z" fill="#6D6DB2"/>
<path transform="translate(272,719)" d="m0 0 10 3 6 3-4 1-11-4z" fill="#954944"/>
<path transform="translate(232,477)" d="m0 0h16v1l-13 2-5-1z" fill="#FEFEFE"/>
<path transform="translate(442,465)" d="m0 0 6 1 4 4-1 2-4-2z" fill="#5974BD"/>
<path transform="translate(1537,325)" d="m0 0h2l3 5 3 4-1 3-5-5z" fill="#FEFEFE"/>
<path transform="translate(163,1489)" d="m0 0h6l2 2-3 2h-5z" fill="#505DC0"/>
<path transform="translate(238,1477)" d="m0 0m-1 1m-1 1m-1 1m-2 1 2 1-3 4-5 5-3 2 2-4z" fill="#383462"/>
<path transform="translate(900 1e3)" d="m0 0 4 1v4l-6-1-2 1v-4z" fill="#FD7C61"/>
<path transform="translate(1723,765)" d="m0 0h5l1 4-6 2-1-5z" fill="#FC9257"/>
<path transform="translate(1740,586)" d="m0 0 10 2 4 1 1 3-12-3h-2z" fill="#FB935F"/>
<path transform="translate(1617,1360)" d="m0 0 2 1-2 4-8 2-1 3-1-3z" fill="#FD845F"/>
<path transform="translate(470,1273)" d="m0 0m-1 1m-1 1m-1 1m-1 1m-1 1m-1 1m-2 1h2l-1 4-5 4-2-1z" fill="#332F5B"/>
<path transform="translate(1573,935)" d="m0 0 2 3-2 4h-3l-5 4 2-4z" fill="#65609B"/>
<path transform="translate(1503,1781)" d="m0 0 2 1-5 4-3 2h-5l2-3 8-3z" fill="#CD6E62"/>
<path transform="translate(229,1485)" d="m0 0m-1 1m-1 1m-1 1m-1 1m-2 1 2 1-2 4-7 5 2-4z" fill="#3A3259"/>
<path transform="translate(1597,904)" d="m0 0 3 1-4 7-3-1z" fill="#4A487D"/>
<path transform="translate(392,862)" d="m0 0 15 2-4 2h-6v-2l-5-1z" fill="#7A72AB"/>
<path transform="translate(462,481)" d="m0 0 13 6-3 1-8-3z" fill="#B4584A"/>
<path transform="translate(1232,425)" d="m0 0 1 2-2 7-2 5h-1l1-9z" fill="#B55745"/>
<path transform="translate(1486,1555)" d="m0 0h3v2h-3z" fill="#FDA843"/>
<path transform="translate(438,1301)" d="m0 0 2 1z" fill="#BBB0C6"/>
</svg>
